<?xml version="1.0" encoding="utf-8"?>
<!-- Generator: Adobe Illustrator 16.0.0, SVG Export Plug-In . SVG Version: 6.00 Build 0)  -->
<!DOCTYPE svg PUBLIC "-//W3C//DTD SVG 1.1//EN" "http://www.w3.org/Graphics/SVG/1.1/DTD/svg11.dtd">
<svg version="1.1" id="图层_1" xmlns="http://www.w3.org/2000/svg" xmlns:xlink="http://www.w3.org/1999/xlink" x="0px" y="0px"
	 width="1280px" height="800.73px" viewBox="0 0 1280 800.73" enable-background="new 0 0 1280 800.73" xml:space="preserve">
<path fill="#606060" d="M11331.553-322.999"/>
<rect x="-0.636" y="2.468" fill="#FFFFFF" width="1280" height="800"/>
<text transform="matrix(1 0 0 1 442.5146 189.5444)" fill="#585858" font-family="'DroidSansFallback'" font-size="36">Give your scene a name</text>
<g opacity="0.5">
	<g>
		<defs>
			<rect id="SVGID_1_" x="0.635" y="96.542" width="1280" height="1.02"/>
		</defs>
		<clipPath id="SVGID_2_">
			<use xlink:href="#SVGID_1_"  overflow="visible"/>
		</clipPath>
		
			<line clip-path="url(#SVGID_2_)" fill="none" stroke="#868A8E" stroke-width="1.023" stroke-miterlimit="10" x1="0.637" y1="97.05" x2="1280.637" y2="97.05"/>
	</g>
</g>
<path fill="none" d="M7419.739-356.998"/>
<path fill="none" d="M-5522-356.998"/>
<text transform="matrix(1 0 0 1 539.6162 374.7739)" fill="#585858" font-family="'DroidSansFallback'" font-size="36">Pick an icon</text>
<defs>
	<filter id="Adobe_OpacityMaskFilter" filterUnits="userSpaceOnUse" x="134.155" y="407.993" width="1012.964" height="353.34">
		<feColorMatrix  type="matrix" values="1 0 0 0 0  0 1 0 0 0  0 0 1 0 0  0 0 0 1 0"/>
	</filter>
</defs>
<mask maskUnits="userSpaceOnUse" x="134.155" y="407.993" width="1012.964" height="353.34" id="SVGID_3_">
	<g filter="url(#Adobe_OpacityMaskFilter)">
		<rect x="134.155" y="407.998" width="1012.964" height="353.335"/>
		<g enable-background="new    ">
			<g>
				<defs>
					<rect id="SVGID_4_" x="134.155" y="407.993" width="1012.96" height="353.34"/>
				</defs>
				<clipPath id="SVGID_5_">
					<use xlink:href="#SVGID_4_"  overflow="visible"/>
				</clipPath>
				
					<linearGradient id="SVGID_6_" gradientUnits="userSpaceOnUse" x1="-1599.4902" y1="4658.8076" x2="-1598.4902" y2="4658.8076" gradientTransform="matrix(0 332.849 332.849 0 -1550042.375 532797.625)">
					<stop  offset="0" style="stop-color:#070001"/>
					<stop  offset="0.0591" style="stop-color:#FFFFFF"/>
					<stop  offset="0.8333" style="stop-color:#FFFFFF"/>
					<stop  offset="1" style="stop-color:#070001"/>
				</linearGradient>
				<rect x="93.068" y="408.796" clip-path="url(#SVGID_5_)" fill="url(#SVGID_6_)" width="1087.722" height="332.849"/>
			</g>
		</g>
	</g>
</mask>
<g mask="url(#SVGID_3_)">
	<g>
		<defs>
			<rect id="SVGID_7_" x="134.155" y="407.993" width="1012.96" height="353.34"/>
		</defs>
		<clipPath id="SVGID_8_">
			<use xlink:href="#SVGID_7_"  overflow="visible"/>
		</clipPath>
		<path clip-path="url(#SVGID_8_)" fill-rule="evenodd" clip-rule="evenodd" fill="#B4B3B3" d="M897.505,459.793h-7.674
			c0.068-2.62,0.7-3.947,3.549-4.224c0.602-0.059,1.046-0.595,0.987-1.199c-0.06-0.604-0.598-1.033-1.202-0.986
			c-5.129,0.498-5.511,4.217-5.541,6.409h-5.494c-5.45,0-9.884,4.435-9.884,9.885v10.982c0,4.793,1.743,7.402,4.941,7.688
			c3.844,0.343,6.341-2.1,9.015-4.714c2.792-2.732,4.956-2.354,7.232,0c2.602,2.689,4.826,4.747,9.015,4.714
			c3.211,0,4.942-2.895,4.942-7.688v-10.982C907.39,464.228,902.955,459.793,897.505,459.793 M905.193,480.66
			c0,4.622-1.656,5.402-2.745,5.491c-3.295,0.275-5.061-1.671-7.46-4.072c-1.377-1.372-3.213-2.688-5.171-2.688
			c-1.957,0-3.793,1.316-5.17,2.691c-2.397,2.396-4.714,4.208-7.459,4.069c-1.092-0.052-2.746-0.869-2.746-5.491v-10.982
			c0-4.24,3.449-7.688,7.688-7.688h15.375c4.24,0,7.688,3.448,7.688,7.688V480.66z M885.424,472.972h-2.196v2.197h-2.196v-2.197
			h-2.197v-2.196h2.197v-2.197h2.196v2.197h2.196V472.972z M894.211,471.874c0-1.819,1.474-3.295,3.294-3.295
			c1.821,0,3.295,1.476,3.295,3.295c0,1.821-1.474,3.295-3.295,3.295C895.685,475.169,894.211,473.695,894.211,471.874"/>
		<path clip-path="url(#SVGID_8_)" fill="none" stroke="#B4B3B3" stroke-width="3" stroke-miterlimit="10" d="M500.244,487.366
			c-1.896,0-4.015-1.506-4.015-3.522v-15.317l-0.778,0.639c-0.186,0.147-0.41,0.225-0.646,0.225c-0.317,0-0.615-0.146-0.815-0.4
			c-0.36-0.456-0.281-1.122,0.175-1.483l15.628-12.354c0.621-0.491,1.435-0.761,2.292-0.761c0.858,0,1.67,0.27,2.289,0.761
			l15.634,12.354c0.22,0.175,0.36,0.425,0.391,0.706c0.032,0.279-0.048,0.556-0.223,0.777c-0.201,0.254-0.504,0.399-0.831,0.399
			c-0.245,0-0.479-0.08-0.663-0.225l-0.74-0.562v15.241c0,2.14-1.189,3.522-3.028,3.522H500.244z"/>
		<path clip-path="url(#SVGID_8_)" fill="none" stroke="#B4B3B3" stroke-width="3" stroke-miterlimit="10" d="M512.085,477.782
			c-0.651,0-1.413,0.181-1.413,0.689v7.018h2.826v-7.018C513.498,477.963,512.737,477.782,512.085,477.782z"/>
		<path clip-path="url(#SVGID_8_)" fill-rule="evenodd" clip-rule="evenodd" fill="#B4B3B3" d="M654.647,454.499
			c-0.285-0.247-0.658-0.36-1.033-0.308l-21.149,2.922c-0.644,0.089-1.123,0.639-1.123,1.289v22.381
			c0,2.315-1.882,4.198-4.197,4.198c-2.315,0-4.199-1.883-4.199-4.198c0-2.314,1.884-4.197,4.199-4.197
			c0.568,0,1.118,0.111,1.633,0.328c0.661,0.281,1.426-0.029,1.706-0.69c0.279-0.662-0.03-1.426-0.692-1.706
			c-0.838-0.354-1.729-0.533-2.646-0.533c-3.75,0-6.801,3.049-6.801,6.798c0,3.75,3.051,6.8,6.801,6.8c3.749,0,6.799-3.05,6.799-6.8
			v-13.765l18.547-2.563v13.406c0,2.314-1.882,4.198-4.197,4.198c-2.314,0-4.198-1.884-4.198-4.198c0-2.315,1.883-4.198,4.198-4.198
			c0.566,0,1.116,0.111,1.633,0.329c0.661,0.28,1.426-0.03,1.704-0.693c0.279-0.662-0.031-1.425-0.691-1.704
			c-0.84-0.354-1.729-0.534-2.646-0.534c-3.749,0-6.8,3.051-6.8,6.8s3.051,6.8,6.8,6.8s6.799-3.051,6.799-6.8v-22.382
			C655.093,455.103,654.93,454.746,654.647,454.499 M633.944,464.39v-4.855l18.547-2.564v4.856L633.944,464.39z"/>
		<path clip-path="url(#SVGID_8_)" fill="none" stroke="#B4B3B3" stroke-width="3" stroke-miterlimit="10" d="M269.033,487.88
			c-6.096,0-7.723-7.445-7.723-11.844c0-2.702,1.45-4.153,2.509-5.212c0.971-0.97,1.612-1.611,1.612-3.038v-10.308
			c0-1.984,1.614-3.598,3.598-3.598s3.599,1.614,3.599,3.598v10.308c0,1.42,0.636,2.059,1.599,3.026
			c1.071,1.07,2.521,2.521,2.521,5.224c0.003,0.263,0.029,6.705-3.22,9.987C272.307,487.255,270.795,487.88,269.033,487.88z"/>
		<path clip-path="url(#SVGID_8_)" fill="none" stroke="#B4B3B3" stroke-width="3" stroke-miterlimit="10" d="M250.479,487.88
			c-1.986,0-3.603-1.616-3.603-3.602v-10.309c0-1.419-0.637-2.058-1.6-3.026c-1.071-1.07-2.521-2.521-2.521-5.219v-8.246
			c0-1.984,1.614-3.598,3.599-3.598c0.742,0,1.461,0.229,2.063,0.651c1.214-0.848,2.925-0.842,4.125,0
			c0.605-0.422,1.323-0.651,2.063-0.651c1.983,0,3.598,1.614,3.598,3.598v8.246c0,2.694-1.447,4.145-2.503,5.206
			c-0.978,0.977-1.619,1.618-1.619,3.044v10.308C254.074,486.267,252.459,487.88,250.479,487.88z"/>
		<path clip-path="url(#SVGID_8_)" fill-rule="evenodd" clip-rule="evenodd" fill="#B4B3B3" d="M1027.818,609.545
			c-2.15,1.53-4.534,2.594-7.09,3.162c-2.466,0.548-4.986,0.613-7.489,0.192c-2.503-0.421-4.864-1.306-7.017-2.632
			c-2.228-1.372-4.134-3.157-5.664-5.306c-1.531-2.149-2.595-4.534-3.162-7.089c-0.548-2.467-0.613-4.987-0.192-7.49
			s1.307-4.864,2.631-7.015c1.373-2.229,3.158-4.135,5.307-5.666c2.563-1.823,5.552-3.013,8.648-3.44l0.012-0.002
			c0.176-0.022,1.741-0.186,2.544,0.941c0.38,0.534,0.478,1.218,0.271,1.926c-0.124,0.425-0.322,0.738-0.36,0.797l-0.038,0.058
			l-0.046,0.053c-1.87,2.213-2.977,5.035-3.117,7.946c-0.144,3.001,0.702,5.884,2.449,8.337c1.747,2.454,4.195,4.197,7.077,5.042
			c2.798,0.82,5.826,0.697,8.529-0.347l0.069-0.024c0.446-0.141,1.962-0.517,2.709,0.531c0.367,0.516,0.472,1.192,0.313,2.01
			c-0.094,0.476-0.253,0.857-0.271,0.898l-0.016,0.037l-0.018,0.034C1032.481,605.286,1030.379,607.723,1027.818,609.545
			 M1006.477,579.575c-3.752,2.672-6.24,6.645-7.004,11.188c-0.764,4.543,0.287,9.111,2.959,12.864
			c2.671,3.753,6.646,6.24,11.188,7.004c4.543,0.764,9.111-0.286,12.864-2.959c2.279-1.622,4.076-3.699,5.343-6.172
			c0.04-0.103,0.075-0.221,0.101-0.334l-0.033,0.009c-3.16,1.208-6.694,1.347-9.959,0.391c-1.641-0.482-3.181-1.223-4.575-2.203
			c-1.442-1.015-2.696-2.263-3.728-3.712c-1.031-1.449-1.802-3.043-2.288-4.738c-0.471-1.637-0.667-3.335-0.585-5.044
			c0.163-3.378,1.438-6.655,3.591-9.239c0.014-0.025,0.024-0.053,0.035-0.079c-0.102-0.016-0.225-0.018-0.288-0.012
			C1011.331,576.923,1008.768,577.944,1006.477,579.575"/>
		<path clip-path="url(#SVGID_8_)" fill-rule="evenodd" clip-rule="evenodd" fill="#B4B3B3" d="M898.042,581.844h-8.211
			c0.073-2.803,0.749-4.222,3.798-4.519c0.643-0.063,1.118-0.637,1.055-1.283c-0.063-0.646-0.64-1.104-1.286-1.055
			c-5.487,0.533-5.896,4.512-5.929,6.857h-5.877c-5.83,0-10.575,4.745-10.575,10.575v11.75c0,5.128,1.866,7.919,5.288,8.225
			c4.112,0.367,6.784-2.247,9.644-5.043c2.987-2.923,5.301-2.519,7.738,0c2.783,2.876,5.163,5.078,9.644,5.043
			c3.436,0,5.288-3.097,5.288-8.225v-11.75C908.617,586.589,903.873,581.844,898.042,581.844 M906.268,604.169
			c0,4.944-1.772,5.779-2.937,5.875c-3.525,0.294-5.415-1.788-7.981-4.357c-1.474-1.469-3.438-2.876-5.532-2.876
			s-4.058,1.407-5.532,2.878c-2.565,2.564-5.043,4.503-7.979,4.355c-1.168-0.056-2.938-0.931-2.938-5.875v-11.75
			c0-4.535,3.69-8.225,8.226-8.225h16.45c4.536,0,8.225,3.69,8.225,8.225V604.169z M885.117,595.944h-2.35v2.35h-2.35v-2.35h-2.35
			v-2.35h2.35v-2.35h2.35v2.35h2.35V595.944z M894.518,594.769c0-1.946,1.577-3.525,3.525-3.525s3.525,1.579,3.525,3.525
			c0,1.948-1.577,3.525-3.525,3.525S894.518,596.717,894.518,594.769"/>
		<path clip-path="url(#SVGID_8_)" fill-rule="evenodd" clip-rule="evenodd" fill="#B4B3B3" d="M1027.818,736.52
			c-2.15,1.528-4.534,2.593-7.09,3.161c-2.466,0.548-4.986,0.613-7.489,0.191c-2.503-0.42-4.864-1.306-7.017-2.631
			c-2.228-1.373-4.134-3.158-5.664-5.307c-1.531-2.148-2.595-4.534-3.162-7.089c-0.548-2.468-0.613-4.987-0.192-7.49
			s1.307-4.864,2.631-7.015c1.373-2.229,3.158-4.135,5.307-5.665c2.563-1.824,5.552-3.015,8.648-3.441l0.012-0.002
			c0.176-0.022,1.741-0.187,2.544,0.94c0.38,0.535,0.478,1.219,0.271,1.927c-0.124,0.425-0.322,0.737-0.36,0.797l-0.038,0.058
			l-0.046,0.054c-1.87,2.213-2.977,5.034-3.117,7.946c-0.144,3,0.702,5.883,2.449,8.336c1.747,2.455,4.195,4.197,7.077,5.043
			c2.798,0.819,5.826,0.697,8.529-0.348l0.069-0.023c0.446-0.141,1.962-0.518,2.709,0.531c0.367,0.516,0.472,1.192,0.313,2.01
			c-0.094,0.476-0.253,0.856-0.271,0.897l-0.016,0.037l-0.018,0.035C1032.481,732.259,1030.379,734.696,1027.818,736.52
			 M1006.477,706.548c-3.752,2.673-6.24,6.646-7.004,11.189c-0.764,4.543,0.287,9.11,2.959,12.863
			c2.671,3.753,6.646,6.24,11.188,7.004s9.111-0.286,12.864-2.959c2.279-1.622,4.076-3.699,5.343-6.172
			c0.04-0.104,0.075-0.221,0.101-0.334l-0.033,0.009c-3.16,1.209-6.694,1.347-9.959,0.392c-1.641-0.482-3.181-1.223-4.575-2.203
			c-1.442-1.016-2.696-2.264-3.728-3.713c-1.031-1.448-1.802-3.043-2.288-4.737c-0.471-1.638-0.667-3.335-0.585-5.044
			c0.163-3.379,1.438-6.655,3.591-9.239c0.014-0.024,0.024-0.053,0.035-0.079c-0.102-0.016-0.225-0.018-0.288-0.011
			C1011.331,703.896,1008.768,704.917,1006.477,706.548"/>
		<path clip-path="url(#SVGID_8_)" fill-rule="evenodd" clip-rule="evenodd" fill="#B4B3B3" d="M790.074,733.392
			c-0.43-0.576-1.238-0.688-1.806-0.258l-1.703,1.283l-5.73-7.613c0.809-0.92,1.334-2.049,1.514-3.297
			c0.233-1.68-0.198-3.342-1.213-4.703l-10.091-13.433c-0.008-0.009-0.008-0.009-0.017-0.018l-2.305-3.065
			c-0.43-0.568-1.239-0.681-1.806-0.259l-2.882,2.17l-2.882-2.17c-0.568-0.422-1.377-0.31-1.807,0.259l-2.305,3.065
			c-0.009,0.009-0.019,0.026-0.026,0.034l-10.082,13.416c-1.015,1.361-1.445,3.023-1.213,4.703c0.18,1.248,0.705,2.377,1.514,3.297
			l-5.729,7.613l-1.704-1.283c-0.567-0.431-1.376-0.318-1.806,0.25c-0.43,0.576-0.318,1.385,0.258,1.816l2.736,2.059l2.744,2.066
			c0.232,0.173,0.499,0.258,0.774,0.258c0.387,0,0.774-0.18,1.033-0.516c0.429-0.569,0.309-1.378-0.259-1.809l-1.712-1.291
			l5.738-7.613c0.835,0.396,1.738,0.604,2.667,0.604c0.301,0,0.603-0.018,0.903-0.061c1.678-0.241,3.157-1.111,4.181-2.473
			l6.951-9.334l7.011,9.334c1.238,1.662,3.141,2.533,5.066,2.533c0.913,0,1.824-0.199,2.676-0.604l5.738,7.613l-1.712,1.291
			c-0.568,0.431-0.688,1.239-0.258,1.809c0.258,0.336,0.645,0.516,1.032,0.516c0.275,0,0.542-0.085,0.774-0.258l2.745-2.066
			l2.735-2.059C790.393,734.769,790.504,733.96,790.074,733.392 M779.794,723.144c-0.137,0.992-0.662,1.878-1.462,2.48
			c-1.652,1.24-4.009,0.904-5.256-0.748l-7.467-9.938l3.312-4.443c0.43-0.567,0.31-1.378-0.258-1.808
			c-0.577-0.422-1.385-0.311-1.808,0.267l-2.863,3.841l-2.857-3.807c-0.429-0.577-1.23-0.689-1.806-0.258
			c-0.568,0.43-0.68,1.24-0.249,1.808l3.312,4.409l-7.398,9.93c-0.603,0.801-1.488,1.325-2.478,1.463
			c-0.99,0.139-1.979-0.119-2.779-0.715c-0.799-0.603-1.324-1.488-1.462-2.48c-0.138-0.989,0.112-1.979,0.714-2.78l11.639-15.492
			l2.589,1.946c0.06,0.052,0.129,0.095,0.198,0.129c0.035,0.018,0.069,0.035,0.104,0.052h0.008c0.06,0.034,0.129,0.06,0.189,0.069
			c0.103,0.033,0.215,0.043,0.319,0.043c0.06,0,0.129-0.01,0.188-0.018c0.206-0.025,0.404-0.111,0.585-0.24l0.043-0.035l2.589-1.946
			l11.639,15.492C779.683,721.164,779.932,722.154,779.794,723.144"/>
		<path clip-path="url(#SVGID_8_)" fill-rule="evenodd" clip-rule="evenodd" fill="#B4B3B3" d="M898.042,708.817h-8.211
			c0.073-2.803,0.749-4.223,3.798-4.52c0.643-0.063,1.118-0.637,1.055-1.283c-0.063-0.646-0.64-1.104-1.286-1.055
			c-5.487,0.533-5.896,4.512-5.929,6.857h-5.877c-5.83,0-10.575,4.744-10.575,10.574v11.75c0,5.129,1.866,7.92,5.288,8.225
			c4.112,0.367,6.784-2.246,9.644-5.043c2.987-2.922,5.301-2.518,7.738,0c2.783,2.877,5.163,5.078,9.644,5.043
			c3.436,0,5.288-3.096,5.288-8.225v-11.75C908.617,713.562,903.873,708.817,898.042,708.817 M906.268,731.142
			c0,4.944-1.772,5.779-2.937,5.875c-3.525,0.295-5.415-1.787-7.981-4.356c-1.474-1.47-3.438-2.876-5.532-2.876
			s-4.058,1.406-5.532,2.878c-2.565,2.563-5.043,4.503-7.979,4.354c-1.168-0.056-2.938-0.931-2.938-5.875v-11.75
			c0-4.535,3.69-8.225,8.226-8.225h16.45c4.536,0,8.225,3.689,8.225,8.225V731.142z M885.117,722.917h-2.35v2.35h-2.35v-2.35h-2.35
			v-2.35h2.35v-2.351h2.35v2.351h2.35V722.917z M894.518,721.741c0-1.945,1.577-3.524,3.525-3.524s3.525,1.579,3.525,3.524
			c0,1.949-1.577,3.525-3.525,3.525S894.518,723.69,894.518,721.741"/>
		<path clip-path="url(#SVGID_8_)" fill-rule="evenodd" clip-rule="evenodd" fill="#B4B3B3" d="M500.244,737.165
			c-1.896,0-4.016-1.506-4.016-3.521v-15.318l-0.777,0.641c-0.187,0.146-0.41,0.225-0.646,0.225c-0.318,0-0.615-0.146-0.816-0.399
			c-0.36-0.456-0.281-1.122,0.175-1.483l15.629-12.355c0.62-0.489,1.434-0.76,2.292-0.76c0.857,0,1.669,0.271,2.289,0.76
			l15.633,12.355c0.221,0.174,0.36,0.426,0.391,0.705c0.032,0.28-0.047,0.557-0.223,0.778c-0.2,0.254-0.504,0.399-0.831,0.399
			c-0.244,0-0.48-0.08-0.663-0.227l-0.74-0.561v15.24c0,2.139-1.189,3.521-3.028,3.521H500.244z M512.085,725.239
			c2.42,0,3.522,1.451,3.522,2.799v6.844l0.045,0.072v0.178l0.158-0.076h9.104c0.61,0,0.92-0.476,0.92-1.412v-16.918l-12.794-10.119
			c-0.248-0.195-0.605-0.306-0.978-0.306c-0.373,0-0.728,0.112-0.976,0.306l-12.748,10.062v16.976c0,0.713,1.092,1.412,1.906,1.412
			h8.352v-0.251l-0.033-0.038v-6.729C508.563,726.69,509.665,725.239,512.085,725.239 M512.085,727.35
			c-0.651,0-1.413,0.181-1.413,0.688v7.018h2.826v-7.018C513.498,727.53,512.737,727.35,512.085,727.35"/>
		<path clip-path="url(#SVGID_8_)" fill-rule="evenodd" clip-rule="evenodd" fill="#B4B3B3" d="M500.244,737.165
			c-1.896,0-4.016-1.506-4.016-3.521v-15.318l-0.777,0.641c-0.187,0.146-0.41,0.225-0.646,0.225c-0.318,0-0.615-0.146-0.816-0.399
			c-0.36-0.456-0.281-1.122,0.175-1.483l15.629-12.355c0.62-0.489,1.434-0.76,2.292-0.76c0.857,0,1.669,0.271,2.289,0.76
			l15.633,12.355c0.221,0.174,0.36,0.426,0.391,0.705c0.032,0.28-0.047,0.557-0.223,0.778c-0.2,0.254-0.504,0.399-0.831,0.399
			c-0.244,0-0.48-0.08-0.663-0.227l-0.74-0.561v15.24c0,2.139-1.189,3.521-3.028,3.521H500.244z M512.085,725.239
			c2.42,0,3.522,1.451,3.522,2.799v6.844l0.045,0.072v0.178l0.158-0.076h9.104c0.61,0,0.92-0.476,0.92-1.412v-16.918l-12.794-10.119
			c-0.248-0.195-0.605-0.306-0.978-0.306c-0.373,0-0.728,0.112-0.976,0.306l-12.748,10.062v16.976c0,0.713,1.092,1.412,1.906,1.412
			h8.352v-0.251l-0.033-0.038v-6.729C508.563,726.69,509.665,725.239,512.085,725.239 M512.085,727.35
			c-0.651,0-1.413,0.181-1.413,0.688v7.018h2.826v-7.018C513.498,727.53,512.737,727.35,512.085,727.35"/>
		<path clip-path="url(#SVGID_8_)" fill-rule="evenodd" clip-rule="evenodd" fill="#B4B3B3" d="M653.256,705.643
			c-0.261-0.228-0.603-0.331-0.947-0.283l-19.412,2.683c-0.591,0.082-1.031,0.586-1.031,1.184v20.543
			c0,2.124-1.728,3.854-3.853,3.854c-2.124,0-3.854-1.729-3.854-3.854s1.73-3.852,3.854-3.852c0.523,0,1.026,0.101,1.5,0.301
			c0.606,0.257,1.308-0.027,1.565-0.635c0.256-0.607-0.027-1.309-0.635-1.564c-0.77-0.325-1.587-0.49-2.43-0.49
			c-3.442,0-6.242,2.799-6.242,6.24s2.8,6.24,6.242,6.24c3.441,0,6.241-2.799,6.241-6.24v-12.635l17.024-2.353v12.304
			c0,2.125-1.728,3.854-3.853,3.854s-3.853-1.729-3.853-3.854c0-2.123,1.728-3.853,3.853-3.853c0.52,0,1.025,0.103,1.499,0.304
			c0.607,0.256,1.309-0.029,1.564-0.638c0.257-0.606-0.028-1.308-0.635-1.563c-0.771-0.326-1.587-0.49-2.428-0.49
			c-3.441,0-6.241,2.8-6.241,6.24c0,3.442,2.8,6.242,6.241,6.242s6.241-2.8,6.241-6.242v-20.543
			C653.666,706.197,653.518,705.87,653.256,705.643 M634.254,714.722v-4.456l17.024-2.353v4.457L634.254,714.722z"/>
		<path clip-path="url(#SVGID_8_)" fill-rule="evenodd" clip-rule="evenodd" fill="#B4B3B3" d="M402.138,736.226
			c-0.252,0-0.458-0.206-0.458-0.461v-2.545h-31.54v2.545c0,0.255-0.205,0.461-0.458,0.461h-4.084c-0.253,0-0.458-0.206-0.458-0.461
			v-6.805c0-2.201,0.363-4.136,1.08-5.752c0.315-0.709,0.702-1.367,1.152-1.951l0.03-0.041v-14.301c0-1,0.748-1.783,1.701-1.783
			h33.666c0.902,0,1.665,0.816,1.665,1.783v14.26l0.03,0.039c0.459,0.599,0.853,1.27,1.17,1.996c0.704,1.612,1.061,3.547,1.061,5.75
			l-0.014,6.807c0,0.253-0.206,0.459-0.458,0.459H402.138z M402.661,731.513c0.253,0,0.458,0.207,0.458,0.461v2.676h1.733
			l0.012-5.23h-37.831v5.23h1.603v-2.676c0-0.254,0.205-0.461,0.458-0.461H402.661z M374.028,719.593
			c-1.832,0.207-3.16,0.668-4.567,2.41c-0.022,0.025-2.264,2.811-2.264,5.709v0.148h37.509l-0.025-0.17
			c-0.505-3.436-1.021-4.506-3.068-6.36c-0.692-0.626-1.702-1.543-3.904-1.737c-0.096-0.004-8.827-0.328-11.94-0.328
			L374.028,719.593z M397.19,713.148c2.445,0,3.443,1.004,3.443,3.465v2.658l0.075,0.042c0.157,0.09,0.366,0.186,0.588,0.287
			c0.374,0.17,0.796,0.363,1.042,0.566l0.394,0.34l0.001-12.523c0-0.391-0.28-0.795-0.748-0.795h-31.969
			c-0.462,0-0.785,0.326-0.785,0.795v12.124h0.324l0.037-0.026c0.235-0.158,0.594-0.312,0.911-0.447
			c0.241-0.103,0.466-0.199,0.623-0.289l0.075-0.041v-2.69c0-2.526,0.879-3.465,3.246-3.465h8.459c1.44,0,2.359,0.345,2.89,1.085
			l0.121,0.167l0.12-0.167c0.531-0.74,1.45-1.085,2.89-1.085H397.19z M389.254,714.705c-1.852,0-2.552,0.188-2.552,2.185v0.65h9.838
			c0.759,0,1.702,0.194,2.586,0.534l0.2,0.078v-1.231c0-2.024-0.693-2.216-2.527-2.216H389.254z M374.775,714.705
			c-1.927,0-2.266,0.341-2.266,2.281v1.126l0.203-0.079c1.017-0.397,1.673-0.56,2.265-0.56h10.091v-0.519
			c0-1.94-0.591-2.25-2.487-2.25H374.775z"/>
		<path clip-path="url(#SVGID_8_)" fill="#B4B3B3" d="M270.757,740.837c-7.229,0-9.157-8.827-9.157-14.043
			c0-3.205,1.719-4.926,2.975-6.182c1.151-1.15,1.911-1.91,1.911-3.602v-12.223c0-2.354,1.913-4.268,4.267-4.268
			c2.353,0,4.266,1.914,4.266,4.268v12.223c0,1.684,0.755,2.441,1.897,3.588c1.27,1.27,2.989,2.988,2.989,6.195
			c0.004,0.312,0.035,7.949-3.817,11.841C274.639,740.096,272.847,740.837,270.757,740.837 M270.752,702.839
			c-1.074,0-1.948,0.873-1.948,1.949v12.223c0,2.652-1.317,3.968-2.59,5.24c-1.182,1.182-2.297,2.298-2.297,4.543
			c0,0.479,0.078,11.726,6.84,11.726c1.468,0,2.672-0.496,3.682-1.515c2.639-2.666,3.167-8.268,3.148-10.2
			c0-2.257-1.116-3.372-2.297-4.554c-1.282-1.286-2.59-2.6-2.59-5.24v-12.223C272.7,703.712,271.826,702.839,270.752,702.839"/>
		<path clip-path="url(#SVGID_8_)" fill="#B4B3B3" d="M248.755,740.837c-2.354,0-4.271-1.916-4.271-4.271v-12.224
			c0-1.684-0.755-2.441-1.897-3.588c-1.27-1.27-2.989-2.99-2.989-6.189v-9.777c0-2.354,1.913-4.268,4.266-4.268
			c0.88,0,1.733,0.271,2.447,0.773c1.439-1.006,3.467-1,4.891,0c0.717-0.502,1.569-0.773,2.445-0.773
			c2.352,0,4.266,1.914,4.266,4.268v9.777c0,3.193-1.715,4.915-2.968,6.172c-1.159,1.159-1.919,1.92-1.919,3.61v12.224
			C253.02,738.925,251.104,740.837,248.755,740.837 M243.864,702.839c-1.074,0-1.948,0.873-1.948,1.949v9.777
			c0,2.239,1.115,3.355,2.296,4.536c1.282,1.287,2.59,2.601,2.59,5.241v12.224c0,1.076,0.876,1.953,1.953,1.953
			c1.075,0,1.951-0.876,1.953-1.952v-12.22c0-2.651,1.317-3.967,2.59-5.24c1.185-1.188,2.297-2.306,2.297-4.542v-9.777
			c0-1.076-0.874-1.949-1.948-1.949c-0.479,0-0.94,0.178-1.303,0.501l-1.143,1.022l-1.145-1.023
			c-0.717-0.645-1.875-0.647-2.603,0.001l-1.143,1.022l-1.145-1.023C244.805,703.016,244.344,702.839,243.864,702.839"/>
		<g opacity="0.5" clip-path="url(#SVGID_8_)">
			<g>
				<defs>
					<rect id="SVGID_9_" x="134.155" y="407.993" width="1012.96" height="353.34"/>
				</defs>
				<clipPath id="SVGID_10_">
					<use xlink:href="#SVGID_9_"  overflow="visible"/>
				</clipPath>
				
					<line clip-path="url(#SVGID_10_)" fill="none" stroke="#C6C8C7" stroke-width="0.454" stroke-miterlimit="10" x1="134.155" y1="530.986" x2="1147.119" y2="530.986"/>
				
					<line clip-path="url(#SVGID_10_)" fill="none" stroke="#C6C8C7" stroke-width="0.454" stroke-miterlimit="10" x1="134.155" y1="653.974" x2="1147.119" y2="653.974"/>
				
					<line clip-path="url(#SVGID_10_)" fill="none" stroke="#C6C8C7" stroke-width="0.454" stroke-miterlimit="10" x1="574.207" y1="761.331" x2="574.207" y2="407.997"/>
				
					<line clip-path="url(#SVGID_10_)" fill="none" stroke="#C6C8C7" stroke-width="0.454" stroke-miterlimit="10" x1="448.041" y1="761.332" x2="448.041" y2="407.998"/>
				
					<line clip-path="url(#SVGID_10_)" fill="none" stroke="#C6C8C7" stroke-width="0.454" stroke-miterlimit="10" x1="321.874" y1="761.333" x2="321.874" y2="407.999"/>
				
					<line clip-path="url(#SVGID_10_)" fill="none" stroke="#C6C8C7" stroke-width="0.454" stroke-miterlimit="10" x1="195.708" y1="761.333" x2="195.708" y2="408"/>
				
					<line clip-path="url(#SVGID_10_)" fill="none" stroke="#C6C8C7" stroke-width="0.454" stroke-miterlimit="10" x1="699.991" y1="761.331" x2="699.991" y2="407.997"/>
				
					<line clip-path="url(#SVGID_10_)" fill="none" stroke="#C6C8C7" stroke-width="0.454" stroke-miterlimit="10" x1="825.775" y1="761.331" x2="825.775" y2="407.997"/>
				
					<line clip-path="url(#SVGID_10_)" fill="none" stroke="#C6C8C7" stroke-width="0.454" stroke-miterlimit="10" x1="951.559" y1="761.331" x2="951.559" y2="407.997"/>
				
					<line clip-path="url(#SVGID_10_)" fill="none" stroke="#C6C8C7" stroke-width="0.454" stroke-miterlimit="10" x1="1077.343" y1="761.331" x2="1077.343" y2="407.997"/>
			</g>
		</g>
		<path clip-path="url(#SVGID_8_)" fill-rule="evenodd" clip-rule="evenodd" fill="#B4B3B3" d="M786.216,482.145
			c-0.381-0.511-1.098-0.61-1.601-0.229l-1.509,1.137l-5.077-6.745c0.717-0.817,1.182-1.816,1.342-2.923
			c0.206-1.487-0.176-2.96-1.075-4.166l-8.941-11.903l-0.015-0.015l-2.043-2.716c-0.381-0.504-1.098-0.603-1.601-0.229l-2.553,1.922
			l-2.554-1.922c-0.503-0.374-1.219-0.275-1.6,0.229l-2.043,2.716c-0.007,0.008-0.015,0.023-0.023,0.03l-8.933,11.888
			c-0.9,1.206-1.281,2.679-1.075,4.166c0.16,1.107,0.625,2.106,1.341,2.923l-5.076,6.745l-1.509-1.137
			c-0.503-0.381-1.22-0.282-1.601,0.221c-0.381,0.511-0.282,1.229,0.229,1.611l2.424,1.823l2.431,1.831
			c0.206,0.153,0.442,0.229,0.686,0.229c0.343,0,0.686-0.16,0.915-0.458c0.381-0.503,0.274-1.22-0.229-1.602l-1.517-1.145
			l5.085-6.745c0.739,0.351,1.539,0.534,2.363,0.534c0.266,0,0.533-0.015,0.8-0.053c1.486-0.214,2.797-0.984,3.704-2.19l6.159-8.271
			l6.213,8.271c1.097,1.473,2.781,2.243,4.489,2.243c0.808,0,1.616-0.175,2.37-0.534l5.084,6.745l-1.516,1.145
			c-0.504,0.382-0.61,1.099-0.229,1.602c0.229,0.298,0.572,0.458,0.915,0.458c0.244,0,0.48-0.076,0.686-0.229l2.431-1.831
			l2.424-1.823C786.498,483.366,786.597,482.647,786.216,482.145 M777.107,473.064c-0.122,0.877-0.587,1.664-1.295,2.198
			c-1.464,1.098-3.553,0.801-4.658-0.664l-6.616-8.805l2.935-3.938c0.381-0.503,0.274-1.221-0.229-1.602
			c-0.511-0.374-1.228-0.275-1.602,0.236l-2.538,3.404l-2.531-3.373c-0.381-0.511-1.09-0.611-1.6-0.229
			c-0.503,0.381-0.603,1.099-0.221,1.603l2.934,3.906l-6.555,8.798c-0.534,0.709-1.319,1.175-2.195,1.297
			c-0.877,0.122-1.753-0.107-2.462-0.633c-0.709-0.534-1.174-1.321-1.296-2.198c-0.122-0.877,0.099-1.755,0.633-2.465l10.313-13.726
			l2.294,1.724c0.053,0.046,0.114,0.084,0.175,0.114c0.031,0.016,0.061,0.031,0.092,0.046h0.007
			c0.054,0.031,0.115,0.054,0.168,0.061c0.091,0.031,0.19,0.038,0.282,0.038c0.053,0,0.114-0.007,0.168-0.015
			c0.184-0.023,0.358-0.099,0.519-0.214l0.038-0.03l2.294-1.724l10.313,13.726C777.008,471.31,777.229,472.188,777.107,473.064"/>
		<path clip-path="url(#SVGID_8_)" fill-rule="evenodd" clip-rule="evenodd" fill="#B4B3B3" d="M779.335,599.223v8.035
			c0,0.83-0.68,1.51-1.52,1.51h-0.033h-29.311c-0.841,0-1.531-0.68-1.531-1.51v-0.044v-7.991c-0.733-0.248-1.446-0.636-2.05-1.262
			c-0.928-0.906-1.498-2.2-1.498-3.591v-2.512c0-2.783,2.319-5.112,5.1-5.112h9.835v-4.422c0-0.495,0.41-0.905,0.907-0.905h0.021
			h2.997v-0.626c-1.423-1.143-2.35-2.77-2.35-4.615c0-2.006,1.1-3.753,2.718-4.863c0.323-0.228,0.733-0.205,1.045,0l0.012,0.01
			h0.022c1.595,1.122,2.695,2.869,2.695,4.853c0,1.834-0.938,3.451-2.329,4.594v0.647h2.976c0.507,0,0.928,0.41,0.928,0.905v0.022
			v4.4h9.835c2.783,0,5.089,2.329,5.089,5.112v2.512c0,1.391-0.581,2.685-1.509,3.591
			C780.78,598.586,780.089,598.986,779.335,599.223 M762.252,577.03L762.252,577.03c0-0.507,0.411-0.917,0.896-0.917
			c0.507,0,0.917,0.41,0.917,0.917v1.014l0.021-0.032c0.303-0.55,0.475-1.166,0.475-1.834c0-1.165-0.561-2.221-1.413-2.977
			c-0.862,0.778-1.434,1.812-1.434,2.977c0,0.668,0.172,1.284,0.496,1.834v0.011l0.042,0.053V577.03z M760.161,586.746
			L760.161,586.746h5.974v-3.515h-5.974V586.746z M748.472,596.44L748.472,596.44h0.021h0.023h0.106
			c0.647,0.01,1.305-0.162,1.855-0.442c0.604-0.335,1.143-0.82,1.682-1.424c3.279-3.73,5.24-2.015,7.56,0.012
			c1.014,0.894,2.125,1.854,3.429,1.854c0.691,0,1.348-0.141,1.952-0.42c0.582-0.281,1.154-0.669,1.682-1.154l0.087-0.076
			c0.777-0.722,2.242-1.359,3.753-1.359c1.186,0,2.394,0.367,3.397,1.316l0.096,0.086c0.216,0.227,0.475,0.453,0.734,0.604v0.043
			c0.235,0.151,0.517,0.323,0.84,0.475c0.281,0.151,0.605,0.259,0.972,0.344c0.884,0.238,1.875,0.238,2.588-0.484
			c0.366-0.378,0.604-0.895,0.604-1.446v-2.512c0-1.111-0.948-2.048-2.048-2.048h-29.313c-1.121,0-2.07,0.937-2.07,2.048v2.512
			c0,0.551,0.238,1.068,0.615,1.446C747.437,596.214,747.954,596.387,748.472,596.44 M749.981,599.341L749.981,599.341v6.395h26.313
			v-6.416l-0.366-0.066c-0.562-0.128-1.079-0.344-1.575-0.581h-0.022c-0.852-0.421-1.682-1.014-2.35-1.683l-0.077-0.064
			c-0.355-0.324-0.83-0.476-1.282-0.476c-0.712,0-1.381,0.281-1.704,0.583l-0.098,0.087c-0.764,0.668-1.596,1.25-2.491,1.66
			c-0.971,0.442-2.028,0.701-3.181,0.701c-2.426,0-4.001-1.369-5.402-2.62c-1.1-0.938-2.028-1.758-3.3-0.281
			c-0.776,0.874-1.597,1.585-2.568,2.082C751.296,598.975,750.639,599.223,749.981,599.341"/>
		<path clip-path="url(#SVGID_8_)" fill-rule="evenodd" clip-rule="evenodd" fill="#B4B3B3" d="M629.857,598.525
			c-0.449,0-0.801-0.373-0.801-0.822c0-0.448,0.352-0.802,0.801-0.802h16.652c0.459,0,0.803,0.354,0.803,0.802
			c0,0.449-0.344,0.822-0.803,0.822H629.857z M625.045,589.072L625.045,589.072l0.669-0.192l0.935-4.048l-2.654,0.822
			L625.045,589.072z M627.489,588.327L627.489,588.327l4.183-1.259l0.935-4.049l-4.182,1.28L627.489,588.327z M633.447,586.513
			L633.447,586.513l4.183-1.269l0.935-4.039l-4.182,1.279L633.447,586.513z M639.405,584.699L639.405,584.699l4.183-1.279
			l0.935-4.038l-4.182,1.278L639.405,584.699z M645.364,582.886L645.364,582.886l3.952-1.214l-1.06-3.436l-1.956,0.611
			L645.364,582.886z M651.379,583.859L651.379,583.859l-21.483,6.53h22.305c0.763,0,1.354,0.611,1.354,1.356v0.019v17.111
			c0,0.744-0.591,1.345-1.354,1.345h-0.031h-28.013c-0.735,0-1.346-0.601-1.346-1.345v-0.04v-17.09c0-0.19,0.028-0.343,0.114-0.507
			l-0.038-0.103l-1.833-5.998c-0.211-0.706,0.172-1.46,0.879-1.67l26.83-8.183c0.725-0.228,1.47,0.183,1.68,0.888l1.833,6.006
			C652.487,582.886,652.086,583.629,651.379,583.859 M650.864,593.092L650.864,593.092h-25.361v14.437h25.361V593.092z
			 M629.857,603.718L629.857,603.718c-0.449,0-0.801-0.362-0.801-0.801c0-0.449,0.352-0.822,0.801-0.822h16.652
			c0.459,0,0.803,0.373,0.803,0.822c0,0.439-0.344,0.801-0.803,0.801H629.857z"/>
		<path clip-path="url(#SVGID_8_)" fill-rule="evenodd" clip-rule="evenodd" fill="#B4B3B3" d="M500.929,599.836
			c-0.314-0.325-0.314-0.83,0-1.146c0.315-0.325,0.831-0.325,1.146,0.009l3.055,3.046c0.296,0.306,0.296,0.821,0,1.136
			c-0.324,0.297-0.849,0.297-1.145-0.008L500.929,599.836z M498.008,592.847L498.008,592.847c0.859-0.421,1.795-0.688,2.731-0.803
			c0.324-0.038,0.61-0.162,0.84-0.324c0.219-0.153,0.411-0.401,0.535-0.688c0.983-2.214,3.064-3.857,5.565-3.962
			c1.223-0.057,2.493,0.249,3.715,0.831l7.428-7.428v-0.325c0-0.401,0.171-0.764,0.459-1.013l3.503-3.512
			c0.268-0.258,0.621-0.402,0.956-0.402h1.25c0.392,0,0.764,0.191,1.003,0.478l2.186,2.176c0.267,0.268,0.401,0.611,0.392,0.956
			h0.009v1.24c0,0.402-0.173,0.774-0.468,1.022l-3.504,3.503c-0.268,0.288-0.649,0.411-1.012,0.394h-0.267l-7.42,7.418
			c0.584,1.241,0.889,2.492,0.831,3.723c-0.095,2.502-1.746,4.583-3.961,5.567c-0.287,0.123-0.526,0.305-0.688,0.534
			c-0.162,0.23-0.287,0.526-0.314,0.841c-0.124,0.954-0.392,1.871-0.812,2.731c-1.433,2.95-4.46,4.916-7.888,4.306
			c-4.153-0.764-8.612-5.224-9.376-9.377C493.082,597.315,495.057,594.28,498.008,592.847 M499.172,595.263L499.172,595.263
			c-1.871,0.906-3.227,2.807-2.826,4.993c0.544,3.027,4.182,6.665,7.208,7.209c2.206,0.401,4.097-0.955,4.995-2.817
			c0.286-0.611,0.478-1.261,0.563-1.909c0.104-0.793,0.382-1.509,0.811-2.101c0.459-0.592,1.042-1.069,1.777-1.394
			c1.269-0.573,2.311-1.757,2.367-3.227c0.029-0.964-0.305-2.034-0.917-3.075c-0.371-0.534-0.324-1.26,0.153-1.728l8.517-8.517
			c0.249-0.238,0.583-0.391,0.955-0.391h0.314l2.797-2.788v-0.134l-1.46-1.461h-0.125l-2.796,2.779v0.305v0.038
			c0,0.344-0.125,0.689-0.392,0.946l-8.518,8.516c-0.419,0.42-1.107,0.525-1.642,0.201c-1.068-0.64-2.157-0.992-3.15-0.954
			c-1.461,0.047-2.663,1.107-3.228,2.377c-0.334,0.716-0.811,1.318-1.403,1.757c-0.583,0.43-1.308,0.706-2.101,0.811
			C500.423,594.795,499.783,594.985,499.172,595.263 M508.701,592.15L508.701,592.15c1.643,0,2.96,1.336,2.96,2.96
			c0,1.632-1.317,2.969-2.96,2.969c-1.633,0-2.96-1.337-2.96-2.969C505.741,593.486,507.068,592.15,508.701,592.15 M507.365,595.11
			L507.365,595.11c0,0.735,0.591,1.346,1.336,1.346c0.746,0,1.347-0.611,1.347-1.346c0-0.745-0.601-1.347-1.347-1.347
			C507.956,593.763,507.365,594.374,507.365,595.11"/>
		<path clip-path="url(#SVGID_8_)" fill-rule="evenodd" clip-rule="evenodd" fill="#B4B3B3" d="M372.253,587.438h0.059H393.3
			c0.875,0,1.597,0.698,1.645,1.598h1.361c1.477,0,2.814,0.591,3.808,1.563c0.971,0.968,1.549,2.317,1.549,3.785
			c0,1.489-0.578,2.815-1.549,3.809c-0.994,0.969-2.331,1.561-3.808,1.561h-2.107c-0.567,1.408-1.396,2.673-2.473,3.715v0.024
			c-1.975,1.963-4.719,3.216-7.725,3.216h-2.448c-3.018,0-5.737-1.253-7.726-3.216c-1.988-1.989-3.243-4.733-3.243-7.749v-6.625
			C370.584,588.208,371.33,587.438,372.253,587.438 M381.587,585.179L381.587,585.179c0.2,0.521-0.023,1.1-0.532,1.325
			c-0.509,0.19-1.077-0.048-1.291-0.545c-0.26-0.638-0.483-1.301-0.615-1.986c-0.154-0.687-0.211-1.385-0.211-2.083
			c0-0.686,0.057-1.373,0.211-2.07c0.132-0.675,0.332-1.361,0.615-1.989c0.214-0.507,0.782-0.72,1.291-0.531
			c0.509,0.225,0.732,0.804,0.532,1.313c-0.213,0.509-0.378,1.053-0.497,1.621c-0.106,0.497-0.166,1.064-0.166,1.656
			c0,0.591,0.06,1.159,0.166,1.681C381.209,584.126,381.375,584.67,381.587,585.179 M378.216,585.179L378.216,585.179
			c-0.201-0.509-0.391-1.053-0.484-1.608c-0.131-0.522-0.178-1.09-0.178-1.681c0-0.592,0.047-1.159,0.178-1.656
			c0.094-0.568,0.283-1.112,0.484-1.621c0.261-0.627,0.474-1.301,0.628-1.999c0.117-0.687,0.2-1.372,0.2-2.059
			c0-0.698-0.083-1.396-0.2-2.081c-0.154-0.687-0.367-1.373-0.628-1.989c-0.201-0.521-0.792-0.733-1.29-0.544
			c-0.52,0.224-0.758,0.817-0.544,1.326c0.214,0.497,0.391,1.041,0.497,1.608c0.106,0.52,0.154,1.065,0.154,1.68
			c0,0.591-0.048,1.159-0.154,1.68c-0.106,0.544-0.283,1.089-0.497,1.596c-0.271,0.628-0.484,1.314-0.616,1.989
			c-0.141,0.697-0.211,1.384-0.211,2.07c0,0.698,0.07,1.396,0.211,2.083c0.132,0.685,0.345,1.348,0.616,1.986
			c0.214,0.497,0.804,0.735,1.301,0.545C378.191,586.279,378.43,585.7,378.216,585.179 M394.944,591.023L394.944,591.023v4.721
			c0,0.698-0.048,1.36-0.178,2.022h1.539c0.921,0,1.762-0.39,2.389-0.994c0.614-0.591,0.983-1.443,0.983-2.388
			c0-0.924-0.369-1.764-0.983-2.368c-0.627-0.614-1.468-0.993-2.389-0.993H394.944z M369.189,610.046L369.189,610.046
			c-0.544,0-1.018-0.462-1.018-1.005c0-0.556,0.474-1.006,1.018-1.006h27.174c0.544,0,1.005,0.45,1.005,1.006
			c0,0.543-0.461,1.005-1.005,1.005H369.189z M391.62,590.787L391.62,590.787h-17.698v4.957c0,2.094,0.863,3.998,2.237,5.382
			c1.396,1.385,3.299,2.248,5.395,2.248H384c2.094,0,3.998-0.863,5.395-2.248c1.372-1.372,2.224-3.288,2.224-5.382V590.787z"/>
		<path clip-path="url(#SVGID_8_)" fill-rule="evenodd" clip-rule="evenodd" fill="#B4B3B3" d="M265.986,592.785h-5.831v-9.892
			c0-0.69-0.547-1.237-1.237-1.237c-0.689,0-1.236,0.547-1.236,1.237v11.147c0,0.689,0.547,1.244,1.236,1.244h7.068
			c0.679,0,1.235-0.555,1.235-1.244C267.222,593.35,266.666,592.785,265.986,592.785 M270.366,582.602L270.366,582.602
			c-2.933-2.924-6.978-4.735-11.448-4.735c-4.468,0-8.496,1.793-11.43,4.735l-0.017,0.007c-2.915,2.925-4.734,6.97-4.734,11.431
			c0,4.469,1.819,8.515,4.734,11.439h0.017c2.916,2.932,6.962,4.743,11.43,4.743c4.452,0,8.48-1.803,11.412-4.717l0.019-0.026h0.017
			c2.915-2.942,4.735-6.978,4.735-11.439c0-4.434-1.785-8.444-4.682-11.36L270.366,582.602z M268.59,603.719L268.59,603.719
			c-2.463,2.474-5.891,4.011-9.672,4.011c-3.78,0-7.207-1.519-9.68-4.002v-0.009c-2.482-2.473-4.01-5.9-4.01-9.68
			c0-3.781,1.519-7.209,4.01-9.681c2.473-2.473,5.9-4.011,9.68-4.011c3.781,0,7.209,1.538,9.672,4.011l0.062,0.062
			c2.438,2.464,3.949,5.874,3.949,9.619C272.602,597.819,271.073,601.247,268.59,603.719 M275.764,582.679L275.764,582.679
			c-0.345-0.521-0.751-1.042-1.175-1.562c-0.424-0.521-0.866-1-1.307-1.458c-0.451-0.442-0.937-0.874-1.449-1.299
			c-0.521-0.424-1.024-0.821-1.554-1.157c-0.548-0.389-1.114-0.742-1.688-1.034c-0.538-0.291-1.139-0.582-1.758-0.846
			c-0.635-0.274-1.359,0.025-1.634,0.652c-0.264,0.628,0.028,1.351,0.655,1.635c0.52,0.211,1.024,0.459,1.563,0.741
			c0.503,0.284,1.007,0.584,1.466,0.901c0.495,0.327,0.945,0.673,1.369,1.015v0.01c0.433,0.354,0.866,0.741,1.273,1.166
			c0.423,0.424,0.82,0.83,1.156,1.254c0.345,0.425,0.688,0.875,1.016,1.37c0.389,0.573,1.175,0.733,1.74,0.344
			C275.993,584.023,276.144,583.246,275.764,582.679 M244.133,584.075L244.133,584.075c0.318-0.494,0.663-0.953,1.024-1.378
			c0.328-0.406,0.715-0.83,1.148-1.254c0.424-0.425,0.848-0.822,1.255-1.166c0.432-0.335,0.892-0.698,1.396-1.025
			c0.476-0.326,0.962-0.617,1.466-0.901l0.071-0.035c0.477-0.265,0.988-0.495,1.483-0.706c0.618-0.284,0.918-0.999,0.653-1.626
			c-0.265-0.636-0.997-0.918-1.624-0.661c-0.583,0.247-1.148,0.521-1.697,0.82l-0.061,0.017c-0.593,0.319-1.158,0.673-1.696,1.043
			c-0.521,0.336-1.043,0.733-1.564,1.157c-0.53,0.434-1.006,0.875-1.431,1.299c-0.441,0.458-0.882,0.937-1.325,1.466
			c-0.423,0.512-0.812,1.033-1.166,1.554c-0.388,0.566-0.23,1.344,0.336,1.732C242.967,584.8,243.744,584.641,244.133,584.075"/>
		<path clip-path="url(#SVGID_8_)" fill-rule="evenodd" clip-rule="evenodd" fill="#B4B3B3" d="M382.995,464.279
			c0-1.083-0.441-2.067-1.164-2.789c-0.723-0.722-1.715-1.173-2.8-1.173c-1.063,0-2.037,0.431-2.749,1.133l-0.04,0.04
			c-0.722,0.722-1.174,1.706-1.174,2.789c0,1.095,0.452,2.087,1.174,2.801c0.722,0.722,1.706,1.172,2.789,1.172
			c1.085,0,2.077-0.45,2.8-1.172C382.554,466.366,382.995,465.374,382.995,464.279 M380.636,465.885L380.636,465.885
			c-0.4,0.421-0.983,0.662-1.604,0.662c-0.622,0-1.184-0.241-1.585-0.652l-0.02-0.01h0.02c-0.421-0.411-0.672-0.973-0.672-1.606
			c0-0.621,0.251-1.204,0.672-1.584l0.02-0.041c0.423-0.391,0.963-0.632,1.565-0.632c0.622,0,1.205,0.241,1.604,0.673
			c0.402,0.38,0.663,0.963,0.663,1.584C381.299,464.912,381.038,465.474,380.636,465.885 M391.853,465.895L391.853,465.895
			c-0.701,0.702-1.162,1.706-1.162,2.799c0,1.094,0.461,2.087,1.162,2.8c0.722,0.712,1.706,1.153,2.81,1.153
			c1.093,0,2.076-0.441,2.79-1.153c0.722-0.713,1.163-1.706,1.163-2.8c0-1.093-0.441-2.097-1.163-2.799
			c-0.714-0.722-1.697-1.163-2.79-1.163C393.559,464.732,392.575,465.173,391.853,465.895 M396.91,468.694L396.91,468.694
			c0,0.623-0.24,1.204-0.652,1.596c-0.411,0.421-0.973,0.661-1.595,0.661c-0.623,0-1.205-0.24-1.605-0.661
			c-0.412-0.392-0.673-0.973-0.673-1.596c0-0.632,0.261-1.183,0.673-1.614c0.4-0.402,0.982-0.663,1.605-0.663
			c0.622,0,1.184,0.261,1.595,0.663C396.67,467.511,396.91,468.062,396.91,468.694 M382.985,474.875L382.985,474.875
			c-2.147,0-3.894,1.765-3.894,3.893c0,2.127,1.747,3.893,3.894,3.893c2.126,0,3.872-1.766,3.872-3.893
			C386.857,476.64,385.111,474.875,382.985,474.875 M382.985,479.82L382.985,479.82c-0.582,0-1.065-0.471-1.065-1.052
			c0-0.583,0.483-1.054,1.065-1.054s1.043,0.471,1.043,1.054C384.028,479.349,383.545,479.82,382.985,479.82 M398.705,459.584
			L398.705,459.584c-2.959-3.391-7.112-5.669-11.888-6.14c-2.909-0.251-5.91,0.242-8.649,1.374c-2.748,1.154-5.237,2.91-7.102,5.148
			c-2.328,2.808-3.834,6.32-4.234,9.972c-0.372,3.482,0.24,7.104,2.016,10.424c0.895,1.686,2.077,3.151,3.381,4.345
			c1.424,1.305,2.99,2.267,4.496,2.839c1.184,0.451,2.497,0.723,3.832,0.803c1.846,0.131,3.753-0.151,5.387-0.893
			c1.736-0.793,3.14-2.097,3.862-4.023c0.282-0.703,0.433-1.475,0.493-2.348c0.07-1.134,0.27-1.816,0.531-2.207
			c0.12-0.182,0.3-0.261,0.521-0.272c0.743-0.04,1.887,0.423,3.069,0.903l0.764,0.301l0.061,0.01
			c3.271,1.265,5.356,0.803,6.702-0.852c1.163-1.445,1.534-3.732,1.534-6.501C403.481,467.551,401.706,463.006,398.705,459.584
			 M399.76,477.192L399.76,477.192c-0.521,0.652-1.606,0.742-3.502,0l-0.05-0.02l-0.723-0.271c-1.485-0.611-2.95-1.184-4.333-1.114
			c-1.045,0.05-1.967,0.503-2.65,1.495c-0.541,0.822-0.923,1.947-1.023,3.613c-0.02,0.602-0.151,1.093-0.311,1.544
			c-0.431,1.164-1.315,1.957-2.398,2.449c-1.184,0.541-2.608,0.732-4.053,0.641c-1.053-0.07-2.087-0.3-3.01-0.631
			c-1.185-0.442-2.427-1.225-3.582-2.258c-1.054-1.003-2.036-2.228-2.799-3.611c-1.494-2.779-2.006-5.85-1.686-8.8
			c0.34-3.09,1.595-6.069,3.591-8.438c1.585-1.906,3.693-3.4,6-4.364c2.328-0.963,4.875-1.384,7.324-1.164
			c4.034,0.391,7.525,2.318,10.033,5.168c2.548,2.929,4.064,6.821,4.064,11.036C400.653,474.625,400.441,476.338,399.76,477.192
			 M392.444,462.103L392.444,462.103c0-1.094-0.45-2.077-1.153-2.78c-0.722-0.722-1.705-1.174-2.809-1.174
			c-1.083,0-2.086,0.452-2.799,1.174c-0.723,0.703-1.154,1.686-1.154,2.78c0,1.093,0.431,2.086,1.154,2.809
			c0.713,0.713,1.716,1.153,2.799,1.153c1.104,0,2.087-0.44,2.809-1.153C391.994,464.189,392.444,463.196,392.444,462.103
			 M390.088,463.709L390.088,463.709c-0.401,0.41-0.963,0.671-1.606,0.671c-0.621,0-1.183-0.261-1.605-0.671
			c-0.4-0.422-0.641-0.975-0.641-1.606c0-0.613,0.241-1.194,0.641-1.596c0.422-0.411,0.984-0.662,1.605-0.662
			c0.643,0,1.205,0.251,1.606,0.662c0.411,0.402,0.672,0.983,0.672,1.596C390.76,462.734,390.499,463.287,390.088,463.709
			 M375.038,468.473L375.038,468.473c-1.063,0-2.046,0.442-2.749,1.104l-0.049,0.06c-0.724,0.722-1.155,1.706-1.155,2.801
			c0,1.092,0.432,2.085,1.155,2.808c0.712,0.712,1.714,1.153,2.798,1.153c1.103,0,2.086-0.441,2.81-1.153
			c0.722-0.723,1.163-1.716,1.163-2.808c0-1.095-0.441-2.079-1.163-2.801C377.124,468.934,376.141,468.473,375.038,468.473
			 M376.644,474.042L376.644,474.042c-0.402,0.411-0.983,0.671-1.606,0.671c-0.631,0-1.193-0.26-1.595-0.671h-0.02h0.02
			c-0.411-0.411-0.673-0.973-0.673-1.604c0-0.614,0.262-1.195,0.673-1.596l0.03-0.061c0.401-0.361,0.963-0.602,1.565-0.602
			c0.623,0,1.204,0.252,1.606,0.663c0.411,0.401,0.651,0.982,0.651,1.596C377.295,473.069,377.055,473.631,376.644,474.042"/>
		<path clip-path="url(#SVGID_8_)" fill-rule="evenodd" clip-rule="evenodd" fill="#B4B3B3" d="M1008.343,485.727
			c0-4.115-2.169-5.766-4.421-7.47c-2.914-2.215-5.926-4.511-5.926-10.878v-6.33v-7.793c0-0.699,0.573-1.264,1.273-1.264
			c0.313,0,0.609,0.125,0.843,0.322l8.5,6.385c0.835-0.215,1.695-0.376,2.557-0.511c1.067-0.152,2.161-0.233,3.272-0.233
			c1.113,0,2.225,0.081,3.282,0.233c0.862,0.135,1.722,0.296,2.548,0.511l8.608-6.457c0.556-0.412,1.345-0.295,1.758,0.269
			c0.17,0.216,0.25,0.476,0.25,0.745h0.019v7.793v6.33c0,6.367-3.031,8.663-5.937,10.878c-2.242,1.704-4.412,3.355-4.412,7.47
			c0,0.709-0.564,1.265-1.256,1.265h-9.701C1008.9,486.992,1008.343,486.436,1008.343,485.727 M1019.777,466.321L1019.777,466.321
			c0.385,0.224,0.619,0.646,0.619,1.122c0,0.726-0.601,1.345-1.344,1.345c-0.378,0-0.71-0.153-0.952-0.404
			c-0.197,0.601-0.234,1.247-0.089,1.874c0.547,0.493,1.236,0.825,1.972,0.907c1.632,0.214,3.229-0.691,3.856-2.217
			c0.269-0.663,0.341-1.424,0.18-2.151C1022.862,465.739,1021.142,465.55,1019.777,466.321 M1005.977,466.107L1005.977,466.107
			c0.717,0.026,1.291,0.626,1.291,1.336c0,0.726-0.61,1.345-1.344,1.345c-0.431,0-0.808-0.215-1.06-0.53
			c0.037,0.242,0.108,0.476,0.199,0.69c0.627,1.526,2.223,2.431,3.854,2.217c0.718-0.082,1.408-0.414,1.956-0.897
			c0.161-0.718,0.089-1.498-0.18-2.163c-0.629-1.524-2.224-2.448-3.856-2.214C1006.549,465.918,1006.254,465.99,1005.977,466.107
			 M1014.604,474.347L1014.604,474.347l0.467-0.681c0.053-0.081-0.036-0.143-0.126-0.143h-0.95c-0.073,0-0.181,0.062-0.126,0.143
			h0.019l0.465,0.681l0.019,0.009C1014.423,474.392,1014.549,474.411,1014.604,474.347 M1015.661,475.423L1015.661,475.423
			c0.27,0.117,0.574,0.18,0.879,0.18c0.558,0,1.104-0.215,1.524-0.627c0.305-0.296,0.79-0.296,1.076,0
			c0.305,0.295,0.305,0.78,0,1.075c-0.717,0.708-1.658,1.076-2.601,1.076c-0.717,0-1.443-0.215-2.072-0.637
			c-0.619,0.422-1.345,0.637-2.053,0.637c-0.96,0-1.9-0.368-2.62-1.076c-0.295-0.295-0.295-0.78,0-1.075
			c0.298-0.296,0.781-0.296,1.078,0c0.412,0.412,0.968,0.627,1.542,0.627c0.287,0,0.591-0.045,0.878-0.18
			c-0.053-0.053-0.089-0.097-0.134-0.152l-0.044-0.062l-0.486-0.664c-0.16-0.242-0.25-0.511-0.286-0.799v-0.035
			c-0.018-0.288,0.053-0.592,0.198-0.852c0.144-0.278,0.357-0.484,0.609-0.628c0.251-0.134,0.556-0.233,0.844-0.233h0.95
			c0.286,0,0.547,0.082,0.788,0.197l0.054,0.036c0.271,0.144,0.467,0.35,0.619,0.628c0.144,0.242,0.206,0.547,0.189,0.825v0.027
			c-0.019,0.304-0.107,0.583-0.288,0.834l-0.466,0.664C1015.769,475.289,1015.725,475.361,1015.661,475.423 M1016.799,467.524
			L1016.799,467.524c0.413-1.005,1.176-1.902,2.189-2.494c1.999-1.166,4.582-0.833,6.215,0.808c0.108,0.098,0.188,0.214,0.224,0.367
			c0.314,1.103,0.224,2.278-0.207,3.327c-0.889,2.153-3.139,3.462-5.443,3.138c-1.103-0.143-2.142-0.654-2.959-1.452
			c-0.099-0.091-0.171-0.216-0.224-0.359C1016.289,469.748,1016.378,468.573,1016.799,467.524 M1012.092,467.524L1012.092,467.524
			c0.421,1.049,0.52,2.224,0.198,3.335c-0.046,0.143-0.125,0.268-0.225,0.359c-0.798,0.807-1.838,1.309-2.951,1.452
			c-2.296,0.324-4.572-0.985-5.451-3.138c-0.422-1.049-0.503-2.224-0.206-3.327c0.044-0.153,0.134-0.269,0.224-0.367
			c0.808-0.808,1.865-1.329,2.96-1.454C1008.953,464.061,1011.195,465.353,1012.092,467.524 M1005.438,476.249L1005.438,476.249
			c2.528,1.919,4.986,3.793,5.372,8.214h7.272c0.395-4.421,2.842-6.295,5.362-8.214c2.421-1.838,4.914-3.722,4.914-8.87v-6.33
			v-5.264l-7.03,5.264c-0.305,0.269-0.736,0.367-1.147,0.251c-0.915-0.269-1.857-0.475-2.815-0.611
			c-0.979-0.133-1.955-0.197-2.925-0.214c-0.968,0.017-1.945,0.081-2.923,0.214c-0.951,0.136-1.883,0.342-2.797,0.611v-0.018
			c-0.378,0.117-0.79,0.071-1.112-0.179l-7.085-5.318v5.264v6.33C1000.524,472.527,1003.025,474.411,1005.438,476.249"/>
	</g>
</g>
<path fill="none" stroke="#B2B1B2" stroke-miterlimit="10" d="M69.098,63.45L58.738,53.28c-0.184-0.178-0.287-0.426-0.287-0.682
	c0-0.259,0.105-0.503,0.289-0.683L69.1,41.81"/>
<path fill="none" stroke="#585858" stroke-width="3" stroke-linecap="round" stroke-linejoin="round" stroke-miterlimit="10" d="
	M69.098,63.45L58.738,53.28c-0.184-0.178-0.287-0.426-0.287-0.682c0-0.259,0.105-0.503,0.289-0.683L69.1,41.81"/>
<line fill="none" stroke="#585858" stroke-width="3" stroke-linecap="round" stroke-linejoin="round" stroke-miterlimit="10" x1="60.773" y1="52.601" x2="90.926" y2="52.601"/>
<path fill="none" d="M7419.739-356.998"/>
<path fill="none" d="M-5522-356.998"/>
<text transform="matrix(1 0 0 1 141.1221 60.6577)" fill="#585858" font-family="'DroidSansFallback'" font-size="27">Scenes</text>
<g opacity="0.4">
	<g>
		<defs>
			<rect id="SVGID_11_" x="-0.555" y="2.712" width="1280.48" height="800.22"/>
		</defs>
		<clipPath id="SVGID_12_">
			<use xlink:href="#SVGID_11_"  overflow="visible"/>
		</clipPath>
		<rect x="-0.557" y="2.716" clip-path="url(#SVGID_12_)" fill="#0D0C0C" width="1280.483" height="800.213"/>
	</g>
</g>
<line fill="#FFFFFF" x1="953.58" y1="512.382" x2="958.58" y2="520.382"/>
<g opacity="0.2">
	<g>
		<defs>
			<rect id="SVGID_13_" x="496.975" y="285.283" width="292.08" height="161.04"/>
		</defs>
		<clipPath id="SVGID_14_">
			<use xlink:href="#SVGID_13_"  overflow="visible"/>
		</clipPath>
		<g clip-path="url(#SVGID_14_)">
			<defs>
				<rect id="SVGID_15_" x="496.979" y="285.279" width="292.08" height="161.04"/>
			</defs>
			<clipPath id="SVGID_16_">
				<use xlink:href="#SVGID_15_"  overflow="visible"/>
			</clipPath>
		</g>
	</g>
</g>
<path fill="none" d="M7419.739-356.998"/>
<path fill="none" d="M-5522-356.998"/>
<line fill="none" stroke="#FF9012" stroke-width="2" stroke-miterlimit="10" x1="373.117" y1="272.732" x2="373.117" y2="236.732"/>
<g opacity="0.5">
	<g>
		<defs>
			<rect id="SVGID_17_" x="880.245" y="245.802" width="18.13" height="18.12"/>
		</defs>
		<clipPath id="SVGID_18_">
			<use xlink:href="#SVGID_17_"  overflow="visible"/>
		</clipPath>
		<g opacity="0.5" clip-path="url(#SVGID_18_)">
			<g>
				<defs>
					<rect id="SVGID_19_" x="880.955" y="246.513" width="16.71" height="16.71"/>
				</defs>
				<clipPath id="SVGID_20_">
					<use xlink:href="#SVGID_19_"  overflow="visible"/>
				</clipPath>
				
					<line clip-path="url(#SVGID_20_)" fill="none" stroke="#A9A7A7" stroke-miterlimit="10" x1="881.31" y1="262.864" x2="897.309" y2="246.865"/>
			</g>
		</g>
		<g opacity="0.5" clip-path="url(#SVGID_18_)">
			<g>
				<defs>
					<rect id="SVGID_21_" x="880.955" y="246.513" width="16.71" height="16.71"/>
				</defs>
				<clipPath id="SVGID_22_">
					<use xlink:href="#SVGID_21_"  overflow="visible"/>
				</clipPath>
				
					<line clip-path="url(#SVGID_22_)" fill="none" stroke="#A9A7A7" stroke-miterlimit="10" x1="897.31" y1="262.864" x2="881.311" y2="246.865"/>
			</g>
		</g>
		
			<line clip-path="url(#SVGID_18_)" fill="none" stroke="#A9A7A7" stroke-width="3" stroke-miterlimit="10" x1="881.31" y1="262.864" x2="897.309" y2="246.865"/>
		
			<line clip-path="url(#SVGID_18_)" fill="none" stroke="#A9A7A7" stroke-width="3" stroke-miterlimit="10" x1="897.31" y1="262.864" x2="881.311" y2="246.865"/>
	</g>
</g>
<line fill="none" stroke="#C6C8C7" stroke-width="0.454" stroke-miterlimit="10" x1="358.576" y1="280.311" x2="917.909" y2="280.311"/>
<path fill="none" stroke="#FFFFFF" stroke-width="3" stroke-linecap="round" stroke-linejoin="round" stroke-miterlimit="10" d="
	M1125.953,732.651"/>
</svg>
