<svg xmlns="http://www.w3.org/2000/svg" xmlns:xlink="http://www.w3.org/1999/xlink" width="872.188" height="620.692" viewBox="0 0 872.188 620.692"><path fill="#FFF" d="M-408.148-179.717h1280v800h-1280z"/><text transform="translate(226.023 49.893)" fill="#595758" font-family="'DroidSansFallback'" font-size="25">Lamp</text><path fill="none" stroke="#FFF" stroke-linecap="round" stroke-linejoin="round" stroke-miterlimit="10" d="M168.485 51.03a.869.869 0 0 1-.84-.65l-3.629-14.16-.057-.135a9.791 9.791 0 0 1-.746-3.757c0-5.417 4.406-9.823 9.824-9.823 5.416 0 9.824 4.406 9.824 9.823a9.776 9.776 0 0 1-.781 3.819l-3.777 14.239a.867.867 0 0 1-.838.644h-8.98zM164.006 36.22h18.063M169.387 54.137h7.301M170.577 57.505h4.922"/><path fill="none" stroke="#B2B1B1" stroke-width="3" stroke-linecap="round" stroke-linejoin="round" stroke-miterlimit="10" d="M168.485 51.03a.869.869 0 0 1-.84-.65l-3.629-14.16-.057-.135a9.791 9.791 0 0 1-.746-3.757c0-5.417 4.406-9.823 9.824-9.823 5.416 0 9.824 4.406 9.824 9.823a9.776 9.776 0 0 1-.781 3.819l-3.777 14.239a.867.867 0 0 1-.838.644h-8.98zM164.006 36.22h18.063M169.387 54.137h7.301M170.577 57.505h4.922"/><path fill="none" stroke="#E76D26" stroke-width="3" stroke-linecap="round" stroke-linejoin="round" stroke-miterlimit="10" d="M87.676 46.515v11M82.018 53.015l5.656 5.657 5.657-5.657M87.676 35.515v-11M82.018 29.015l5.656-5.657 5.657 5.657M82.176 41.015h-11M75.676 35.358l-5.658 5.657 5.658 5.656M93.176 41.015h11M99.676 35.358l5.655 5.657-5.655 5.656M740.735 114.812c6.875 2.633 11.75 9.285 11.75 17.076 0 10.098-8.195 18.281-18.311 18.281-10.105 0-18.303-8.184-18.303-18.281 0-7.834 4.938-14.524 11.875-17.121M734.176 110.169v16.227"/><text transform="translate(137.804 205.102)" fill="#DB6929" font-family="'DroidSansFallback'" font-size="21">Solid</text><text transform="translate(301.94 205.102)" fill="#595758" font-family="'DroidSansFallback'" font-size="21">Rainbow</text><text transform="translate(488.041 205.102)"><tspan x="0" y="0" fill="#595758" font-family="'DroidSansFallback'" font-size="21">Pa</tspan><tspan x="23.457" y="0" fill="#595758" font-family="'DroidSansFallback'" font-size="21">t</tspan><tspan x="31.458" y="0" fill="#595758" font-family="'DroidSansFallback'" font-size="21">tern</tspan></text><path fill="none" stroke="#C8C9CA" stroke-miterlimit="10" d="M70.502 223.081h726"/><text transform="translate(666.46 205.102)" fill="#595758" font-family="'DroidSansFallback'" font-size="21">Random</text><path fill="none" stroke="#C8C9CA" stroke-miterlimit="10" d="M252.002 209.35v-20.447M432.194 209.35v-20.447M614.014 209.35v-20.447"/><path fill="none" stroke="#DB6929" stroke-width="4" stroke-linecap="round" stroke-linejoin="round" stroke-miterlimit="10" d="M71.836 223.081h177.998"/><text transform="translate(90.84 437.08)" fill="#9F9E9F" font-family="'DroidSansFallback'" font-size="18">My Saved Colors</text><text transform="translate(90.84 276.104)" fill="#9F9E9F" font-family="'DroidSansFallback'" font-size="18">Presets</text><defs><path id="C" d="M709.565 245.187h51.139v51.139h-51.139z"/></defs><clipPath id="D"><use xlink:href="#C" overflow="visible"/></clipPath><g clip-path="url(#D)"><defs><path id="E" d="M709.567 245.188h51.137v51.137h-51.137z"/></defs><clipPath id="F"><use xlink:href="#E" overflow="visible"/></clipPath><g clip-path="url(#F)"><image overflow="visible" width="550" height="550" xlink:href="D517ECD68FD0B15E.jpg" transform="matrix(.093 0 0 .093 709.567 245.189)"/></g></g><path fill="#FAD9A5" d="M75.502 340.889h56.627v22.931H75.502z"/><path fill="#F6FBFE" d="M132.129 340.889h56.627v22.931h-56.627z"/><path fill="#C8E5F7" d="M188.756 340.889h56.627v22.931h-56.627z"/><path fill="#90C423" d="M280.266 340.89h58v22.625h-58z"/><path fill="#72C8D5" d="M394.893 340.889h56.627v22.931h-56.627z"/><path fill="#EFEA3C" d="M451.52 340.889h56.627v22.931H451.52z"/><path fill="#1B499E" d="M508.147 340.889h56.629v22.931h-56.629z"/><path fill="#EF7D1B" d="M564.776 340.889h56.627v22.931h-56.627z"/><path fill="#E62178" d="M621.403 340.889h56.627v22.931h-56.627z"/><path fill="#E7211A" d="M678.03 340.889h56.627v22.931H678.03z"/><path fill="#584499" d="M734.657 340.889h56.627v22.931h-56.627z"/><path fill="#72C8D5" d="M91.7 498.842h56.627v22.931H91.7z"/><path fill="#EFEA3C" d="M148.327 498.842h56.629v22.931h-56.629z"/><path fill="#1B499E" d="M204.956 498.842h56.627v22.931h-56.627z"/><path fill="#EF7D1B" d="M261.583 498.842h56.627v22.931h-56.627z"/><path fill="#E62178" d="M318.209 498.842h56.627v22.931h-56.627z"/><path fill="#E7211A" d="M374.836 498.842h56.627v22.931h-56.627z"/><path fill="#584499" d="M431.463 498.842h56.627v22.931h-56.627z"/><path fill="#45B035" d="M338.266 323.202h56.627v58h-56.627z"/><path fill="none" stroke="#FFF" stroke-width="3" stroke-linecap="round" stroke-linejoin="round" stroke-miterlimit="10" d="M354.081 353.128l8.853 7.57 16.147-16.992"/><text transform="translate(336.348 49.426)" fill="#9F9E9F" font-family="'DroidSansFallback'" font-size="21">Living Room</text><path fill-rule="evenodd" clip-rule="evenodd" fill="#898989" d="M324.237 36.256a4.76 4.76 0 0 0-4.76 4.76c0 2.628 4.76 9.267 4.76 9.267s4.76-6.639 4.76-9.267a4.76 4.76 0 0 0-4.76-4.76m0 7.357a2.711 2.711 0 1 1 0-5.422 2.711 2.711 0 0 1 0 5.422"/><text transform="translate(-293.485 108.033)" fill="#585858" font-family="'DroidSansFallback'" font-size="25">Lamp</text><text transform="translate(-292.259 413.7)"><tspan x="0" y="0" fill="#585858" font-family="'DroidSansFallback'" font-size="25" letter-spacing="-1">T</tspan><tspan x="12.074" y="0" fill="#585858" font-family="'DroidSansFallback'" font-size="25">elevision</tspan></text><defs><path id="G" d="M81.436 125.017a7.502 7.502 0 0 0-7.504 7.5 7.5 7.5 0 0 0 7.504 7.498h570.291a7.5 7.5 0 0 0 0-14.998H81.436z"/></defs><clipPath id="H"><use xlink:href="#G" overflow="visible"/></clipPath><linearGradient id="I" gradientUnits="userSpaceOnUse" x1="-5897.394" y1="4145.251" x2="-5896.394" y2="4145.251" gradientTransform="matrix(585.291 0 0 -585.291 3451765.5 2426310.5)"><stop offset="0" stop-color="#595758"/><stop offset="1" stop-color="#fff"/></linearGradient><path clip-path="url(#H)" fill="url(#I)" d="M73.932 125.017h585.293v14.999H73.932z"/><path fill="none" stroke="#C9CACA" stroke-miterlimit="10" d="M651.725 140.015H81.434a7.499 7.499 0 0 1-7.5-7.5 7.5 7.5 0 0 1 7.5-7.5h570.291a7.5 7.5 0 0 1 7.5 7.5 7.5 7.5 0 0 1-7.5 7.5z"/><g opacity=".6"><defs><path id="J" d="M281.297 111.503h42.301v42.24h-42.301z"/></defs><clipPath id="K"><use xlink:href="#J" overflow="visible"/></clipPath><g clip-path="url(#K)"><defs><path id="L" d="M281.321 111.506h42.24v42.24h-42.24z"/></defs><clipPath id="M"><use xlink:href="#L" overflow="visible"/></clipPath><g clip-path="url(#M)"><defs><path id="N" d="M281.321 111.505h42.24v42.24h-42.24z"/></defs></g></g></g><image overflow="visible" width="176" height="176" xlink:href="D517ECD68FD0B15E.png" transform="matrix(.24 0 0 .24 69.72 111.503)"/><path fill="#FFF" d="M108.341 132.623c0 9.665-7.836 17.5-17.5 17.5s-17.5-7.835-17.5-17.5c0-9.664 7.836-17.5 17.5-17.5s17.5 7.836 17.5 17.5"/><g opacity=".4"><defs><path id="O" d="M-408.142-179.927H872.297v800.21H-408.142z"/></defs><clipPath id="P"><use xlink:href="#O" overflow="visible"/></clipPath><path clip-path="url(#P)" fill="#0D0C0C" d="M-408.39-179.929H872.095v800.213H-408.39z"/></g></svg>