<?xml version="1.0" encoding="utf-8"?>
<!-- Generator: Adobe Illustrator 16.0.0, SVG Export Plug-In . SVG Version: 6.00 Build 0)  -->
<!DOCTYPE svg PUBLIC "-//W3C//DTD SVG 1.1//EN" "http://www.w3.org/Graphics/SVG/1.1/DTD/svg11.dtd">
<svg version="1.1" id="图层_1" xmlns="http://www.w3.org/2000/svg" xmlns:xlink="http://www.w3.org/1999/xlink" x="0px" y="0px"
	 width="1280px" height="800.465px" viewBox="0 0 1280 800.465" enable-background="new 0 0 1280 800.465" xml:space="preserve">
<path fill="#606060" d="M-5462.667-199.235"/>
<path fill="#606060" d="M7479.071-199.235"/>
<line fill="#FFFFFF" x1="955.096" y1="508.771" x2="960.096" y2="516.771"/>
<rect x="1.497" y="0.129" fill="#FFFFFF" width="1280" height="800"/>
<text transform="matrix(1 0 0 1 444.647 187.2036)" fill="#585858" font-family="'DroidSansFallback'" font-size="36">Give your scene a name</text>
<g opacity="0.5">
	<g>
		<defs>
			<rect id="SVGID_1_" x="2.771" y="94.197" width="1280" height="1.02"/>
		</defs>
		<clipPath id="SVGID_2_">
			<use xlink:href="#SVGID_1_"  overflow="visible"/>
		</clipPath>
		
			<line clip-path="url(#SVGID_2_)" fill="none" stroke="#868A8E" stroke-width="1.023" stroke-miterlimit="10" x1="2.77" y1="94.71" x2="1282.771" y2="94.71"/>
	</g>
</g>
<text transform="matrix(1 0 0 1 541.7485 372.4336)" fill="#585858" font-family="'DroidSansFallback'" font-size="36">Pick an icon</text>
<defs>
	<filter id="Adobe_OpacityMaskFilter" filterUnits="userSpaceOnUse" x="136.288" y="405.656" width="1012.963" height="353.341">
		<feColorMatrix  type="matrix" values="1 0 0 0 0  0 1 0 0 0  0 0 1 0 0  0 0 0 1 0"/>
	</filter>
</defs>
<mask maskUnits="userSpaceOnUse" x="136.288" y="405.656" width="1012.963" height="353.341" id="SVGID_3_">
	<g filter="url(#Adobe_OpacityMaskFilter)">
		<rect x="136.288" y="405.657" width="1012.963" height="353.336"/>
		<g enable-background="new    ">
			<g>
				<defs>
					<rect id="SVGID_4_" x="136.291" y="405.657" width="1012.96" height="353.34"/>
				</defs>
				<clipPath id="SVGID_5_">
					<use xlink:href="#SVGID_4_"  overflow="visible"/>
				</clipPath>
				
					<linearGradient id="SVGID_6_" gradientUnits="userSpaceOnUse" x1="-5451.8999" y1="4308.9688" x2="-5450.8999" y2="4308.9688" gradientTransform="matrix(0 332.849 332.849 0 -1433596.375 1815066)">
					<stop  offset="0" style="stop-color:#070001"/>
					<stop  offset="0.0591" style="stop-color:#FFFFFF"/>
					<stop  offset="0.8333" style="stop-color:#FFFFFF"/>
					<stop  offset="1" style="stop-color:#070001"/>
				</linearGradient>
				<rect x="95.2" y="406.456" clip-path="url(#SVGID_5_)" fill="url(#SVGID_6_)" width="1087.723" height="332.85"/>
			</g>
		</g>
	</g>
</mask>
<g mask="url(#SVGID_3_)">
	<g>
		<defs>
			<rect id="SVGID_7_" x="136.291" y="405.657" width="1012.96" height="353.34"/>
		</defs>
		<clipPath id="SVGID_8_">
			<use xlink:href="#SVGID_7_"  overflow="visible"/>
		</clipPath>
		<path clip-path="url(#SVGID_8_)" fill-rule="evenodd" clip-rule="evenodd" fill="#B4B3B3" d="M899.638,457.453h-7.675
			c0.068-2.621,0.701-3.947,3.549-4.225c0.602-0.059,1.046-0.596,0.987-1.199s-0.597-1.033-1.201-0.986
			c-5.129,0.498-5.512,4.217-5.542,6.41h-5.494c-5.45,0-9.884,4.434-9.884,9.885v10.981c0,4.793,1.744,7.402,4.942,7.688
			c3.844,0.343,6.341-2.101,9.014-4.715c2.792-2.731,4.956-2.354,7.234,0c2.6,2.689,4.825,4.748,9.014,4.715
			c3.211,0,4.942-2.896,4.942-7.688v-10.981C909.522,461.887,905.087,457.453,899.638,457.453 M907.325,478.319
			c0,4.622-1.656,5.402-2.745,5.491c-3.295,0.275-5.061-1.671-7.46-4.072c-1.377-1.372-3.213-2.688-5.17-2.688
			s-3.794,1.315-5.171,2.69c-2.398,2.396-4.713,4.208-7.459,4.069c-1.092-0.053-2.746-0.869-2.746-5.491v-10.981
			c0-4.24,3.449-7.688,7.688-7.688h15.376c4.239,0,7.687,3.448,7.687,7.688V478.319z M887.557,470.631h-2.197v2.197h-2.196v-2.197
			h-2.197v-2.195h2.197v-2.197h2.196v2.197h2.197V470.631z M896.343,469.533c0-1.818,1.474-3.295,3.295-3.295
			c1.821,0,3.294,1.477,3.294,3.295c0,1.821-1.473,3.295-3.294,3.295C897.817,472.828,896.343,471.354,896.343,469.533"/>
		<path clip-path="url(#SVGID_8_)" fill="none" stroke="#B4B3B3" stroke-width="3" stroke-miterlimit="10" d="M502.377,485.025
			c-1.896,0-4.016-1.506-4.016-3.521v-15.316l-0.778,0.639c-0.186,0.146-0.41,0.225-0.645,0.225c-0.318,0-0.616-0.146-0.817-0.4
			c-0.359-0.455-0.281-1.121,0.175-1.482l15.629-12.354c0.62-0.491,1.434-0.762,2.292-0.762c0.857,0,1.67,0.271,2.289,0.762
			l15.633,12.354c0.221,0.176,0.36,0.426,0.391,0.706c0.033,0.279-0.047,0.556-0.222,0.776c-0.201,0.255-0.504,0.4-0.832,0.4
			c-0.244,0-0.479-0.08-0.662-0.226l-0.74-0.562v15.24c0,2.141-1.189,3.521-3.029,3.521H502.377z"/>
		<path clip-path="url(#SVGID_8_)" fill="none" stroke="#B4B3B3" stroke-width="3" stroke-miterlimit="10" d="M514.218,475.441
			c-0.652,0-1.413,0.182-1.413,0.689v7.018h2.826v-7.018C515.63,475.623,514.869,475.441,514.218,475.441z"/>
		<path clip-path="url(#SVGID_8_)" fill-rule="evenodd" clip-rule="evenodd" fill="#B4B3B3" d="M656.78,452.158
			c-0.285-0.247-0.659-0.36-1.033-0.309l-21.149,2.922c-0.644,0.09-1.123,0.64-1.123,1.289v22.381c0,2.315-1.883,4.199-4.197,4.199
			c-2.315,0-4.199-1.884-4.199-4.199c0-2.313,1.884-4.196,4.199-4.196c0.569,0,1.117,0.11,1.633,0.329
			c0.661,0.279,1.426-0.03,1.705-0.691c0.28-0.662-0.029-1.426-0.691-1.705c-0.838-0.354-1.729-0.533-2.647-0.533
			c-3.751,0-6.801,3.049-6.801,6.797c0,3.75,3.05,6.801,6.801,6.801c3.749,0,6.799-3.051,6.799-6.801v-13.764l18.547-2.563v13.405
			c0,2.314-1.883,4.199-4.198,4.199c-2.314,0-4.197-1.885-4.197-4.199s1.883-4.197,4.197-4.197c0.567,0,1.117,0.111,1.634,0.328
			c0.661,0.281,1.425-0.029,1.704-0.692c0.279-0.662-0.031-1.425-0.693-1.704c-0.84-0.354-1.729-0.533-2.645-0.533
			c-3.749,0-6.799,3.051-6.799,6.799c0,3.75,3.05,6.801,6.799,6.801s6.799-3.051,6.799-6.801v-22.381
			C657.225,452.762,657.063,452.405,656.78,452.158 M636.077,462.05v-4.854l18.547-2.563v4.854L636.077,462.05z"/>
		<path clip-path="url(#SVGID_8_)" fill="none" stroke="#B4B3B3" stroke-width="3" stroke-miterlimit="10" d="M271.165,485.539
			c-6.096,0-7.723-7.444-7.723-11.844c0-2.701,1.451-4.152,2.509-5.211c0.971-0.971,1.612-1.611,1.612-3.039v-10.308
			c0-1.983,1.614-3.599,3.598-3.599c1.984,0,3.598,1.615,3.598,3.599v10.308c0,1.42,0.636,2.06,1.599,3.026
			c1.071,1.07,2.521,2.521,2.521,5.224c0.003,0.264,0.03,6.705-3.219,9.987C274.439,484.914,272.927,485.539,271.165,485.539z"/>
		<path clip-path="url(#SVGID_8_)" fill="none" stroke="#B4B3B3" stroke-width="3" stroke-miterlimit="10" d="M252.611,485.539
			c-1.986,0-3.603-1.615-3.603-3.602v-10.309c0-1.419-0.636-2.059-1.599-3.025c-1.071-1.07-2.521-2.521-2.521-5.22v-8.246
			c0-1.983,1.614-3.599,3.598-3.599c0.742,0,1.461,0.229,2.063,0.652c1.214-0.849,2.925-0.843,4.125,0
			c0.605-0.423,1.323-0.652,2.062-0.652c1.984,0,3.598,1.615,3.598,3.599v8.246c0,2.694-1.447,4.146-2.503,5.206
			c-0.978,0.977-1.618,1.618-1.618,3.044v10.308C256.207,483.927,254.592,485.539,252.611,485.539z"/>
		<path clip-path="url(#SVGID_8_)" fill-rule="evenodd" clip-rule="evenodd" fill="#B4B3B3" d="M1029.95,607.206
			c-2.148,1.528-4.533,2.593-7.088,3.161c-2.469,0.548-4.988,0.613-7.49,0.191c-2.504-0.42-4.865-1.306-7.016-2.631
			c-2.229-1.373-4.135-3.158-5.665-5.307c-1.531-2.148-2.594-4.534-3.162-7.089c-0.548-2.468-0.612-4.987-0.191-7.49
			c0.42-2.503,1.306-4.864,2.631-7.015c1.372-2.229,3.157-4.135,5.307-5.666c2.561-1.823,5.551-3.014,8.646-3.44l0.012-0.002
			c0.178-0.022,1.742-0.187,2.545,0.94c0.381,0.535,0.477,1.219,0.271,1.927c-0.125,0.425-0.322,0.737-0.361,0.797l-0.037,0.058
			l-0.045,0.054c-1.871,2.213-2.979,5.034-3.119,7.946c-0.143,3,0.703,5.883,2.449,8.336c1.748,2.455,4.195,4.197,7.078,5.043
			c2.797,0.819,5.826,0.697,8.529-0.348l0.068-0.023c0.447-0.141,1.961-0.518,2.709,0.531c0.367,0.516,0.473,1.191,0.312,2.01
			c-0.094,0.476-0.252,0.856-0.271,0.897l-0.016,0.037l-0.018,0.034C1034.614,602.945,1032.511,605.383,1029.95,607.206
			 M1008.609,577.234c-3.752,2.673-6.24,6.646-7.004,11.189c-0.764,4.543,0.287,9.11,2.959,12.863
			c2.672,3.753,6.646,6.24,11.189,7.004s9.111-0.286,12.863-2.959c2.279-1.622,4.076-3.699,5.344-6.172
			c0.039-0.104,0.074-0.221,0.1-0.334c-0.01,0.003-0.021,0.006-0.031,0.009c-3.16,1.208-6.695,1.347-9.959,0.392
			c-1.643-0.482-3.182-1.224-4.574-2.203c-1.443-1.016-2.697-2.264-3.73-3.713c-1.029-1.448-1.801-3.043-2.287-4.737
			c-0.471-1.638-0.668-3.335-0.586-5.044c0.164-3.379,1.438-6.655,3.592-9.239c0.014-0.024,0.025-0.053,0.035-0.079
			c-0.102-0.016-0.225-0.018-0.287-0.011C1013.464,574.583,1010.899,575.604,1008.609,577.234"/>
		<path clip-path="url(#SVGID_8_)" fill-rule="evenodd" clip-rule="evenodd" fill="#B4B3B3" d="M900.175,579.504h-8.211
			c0.073-2.803,0.75-4.223,3.798-4.52c0.644-0.062,1.118-0.637,1.055-1.283c-0.063-0.646-0.639-1.104-1.286-1.055
			c-5.486,0.533-5.896,4.512-5.928,6.857h-5.878c-5.83,0-10.575,4.744-10.575,10.574v11.75c0,5.129,1.866,7.92,5.288,8.225
			c4.112,0.367,6.784-2.246,9.644-5.043c2.987-2.922,5.301-2.518,7.738,0c2.783,2.877,5.163,5.078,9.645,5.043
			c3.435,0,5.287-3.096,5.287-8.225v-11.75C910.75,584.248,906.005,579.504,900.175,579.504 M908.4,601.828
			c0,4.944-1.772,5.779-2.937,5.875c-3.525,0.295-5.415-1.787-7.981-4.356c-1.474-1.47-3.438-2.876-5.532-2.876
			c-2.093,0-4.058,1.406-5.532,2.878c-2.566,2.563-5.043,4.503-7.98,4.354c-1.168-0.056-2.938-0.931-2.938-5.875v-11.75
			c0-4.535,3.69-8.225,8.225-8.225h16.45c4.536,0,8.225,3.689,8.225,8.225V601.828z M887.25,593.604h-2.35v2.35h-2.35v-2.35h-2.35
			v-2.35h2.35v-2.351h2.35v2.351h2.35V593.604z M896.65,592.428c0-1.945,1.577-3.524,3.525-3.524c1.948,0,3.525,1.579,3.525,3.524
			c0,1.949-1.577,3.525-3.525,3.525C898.227,595.953,896.65,594.377,896.65,592.428"/>
		<path clip-path="url(#SVGID_8_)" fill-rule="evenodd" clip-rule="evenodd" fill="#B4B3B3" d="M1029.95,734.18
			c-2.148,1.528-4.533,2.593-7.088,3.16c-2.469,0.549-4.988,0.613-7.49,0.192c-2.504-0.421-4.865-1.306-7.016-2.632
			c-2.229-1.372-4.135-3.157-5.665-5.307c-1.531-2.148-2.594-4.533-3.162-7.088c-0.548-2.468-0.612-4.988-0.191-7.49
			c0.42-2.504,1.306-4.864,2.631-7.016c1.372-2.229,3.157-4.135,5.307-5.664c2.561-1.824,5.551-3.015,8.646-3.441l0.012-0.002
			c0.178-0.022,1.742-0.187,2.545,0.94c0.381,0.534,0.477,1.218,0.271,1.927c-0.125,0.424-0.322,0.737-0.361,0.797l-0.037,0.058
			l-0.045,0.054c-1.871,2.213-2.979,5.034-3.119,7.945c-0.143,3.001,0.703,5.884,2.449,8.337c1.748,2.454,4.195,4.197,7.078,5.042
			c2.797,0.82,5.826,0.697,8.529-0.348l0.068-0.023c0.447-0.141,1.961-0.517,2.709,0.532c0.367,0.515,0.473,1.192,0.312,2.009
			c-0.094,0.477-0.252,0.857-0.271,0.898l-0.016,0.037l-0.018,0.035C1034.614,729.918,1032.511,732.355,1029.95,734.18
			 M1008.609,704.208c-3.752,2.673-6.24,6.646-7.004,11.188c-0.764,4.543,0.287,9.111,2.959,12.863
			c2.672,3.754,6.646,6.24,11.189,7.004c4.543,0.765,9.111-0.285,12.863-2.959c2.279-1.621,4.076-3.698,5.344-6.172
			c0.039-0.103,0.074-0.221,0.1-0.334c-0.01,0.004-0.021,0.006-0.031,0.01c-3.16,1.209-6.695,1.348-9.959,0.391
			c-1.643-0.482-3.182-1.223-4.574-2.203c-1.443-1.015-2.697-2.263-3.73-3.712c-1.029-1.448-1.801-3.043-2.287-4.737
			c-0.471-1.638-0.668-3.336-0.586-5.045c0.164-3.378,1.438-6.654,3.592-9.238c0.014-0.025,0.025-0.053,0.035-0.08
			c-0.102-0.016-0.225-0.018-0.287-0.01C1013.464,701.557,1010.899,702.577,1008.609,704.208"/>
		<path clip-path="url(#SVGID_8_)" fill-rule="evenodd" clip-rule="evenodd" fill="#B4B3B3" d="M792.207,731.052
			c-0.43-0.577-1.239-0.688-1.807-0.258l-1.703,1.282l-5.729-7.612c0.809-0.921,1.333-2.05,1.514-3.298
			c0.232-1.68-0.198-3.341-1.213-4.702l-10.091-13.433l-0.017-0.018l-2.305-3.066c-0.43-0.568-1.24-0.68-1.807-0.258l-2.882,2.17
			l-2.882-2.17c-0.567-0.422-1.376-0.311-1.806,0.258l-2.305,3.066c-0.009,0.008-0.018,0.025-0.026,0.034l-10.082,13.416
			c-1.015,1.361-1.446,3.022-1.213,4.702c0.18,1.248,0.705,2.377,1.513,3.298l-5.729,7.612l-1.703-1.282
			c-0.568-0.431-1.376-0.319-1.806,0.249c-0.43,0.577-0.319,1.386,0.258,1.816l2.735,2.059l2.744,2.066
			c0.233,0.174,0.499,0.259,0.775,0.259c0.387,0,0.774-0.181,1.032-0.517c0.43-0.568,0.31-1.377-0.258-1.809l-1.712-1.291
			l5.738-7.613c0.834,0.396,1.737,0.604,2.667,0.604c0.301,0,0.602-0.018,0.903-0.061c1.677-0.24,3.157-1.111,4.181-2.472
			l6.95-9.335l7.012,9.335c1.238,1.662,3.139,2.532,5.066,2.532c0.912,0,1.824-0.198,2.676-0.604l5.738,7.613l-1.712,1.291
			c-0.568,0.432-0.689,1.24-0.259,1.809c0.259,0.336,0.646,0.517,1.033,0.517c0.275,0,0.542-0.085,0.774-0.259l2.744-2.066
			l2.736-2.059C792.524,732.429,792.637,731.62,792.207,731.052 M781.927,720.804c-0.138,0.991-0.663,1.878-1.462,2.48
			c-1.652,1.239-4.009,0.903-5.257-0.749l-7.467-9.938l3.312-4.443c0.431-0.568,0.31-1.379-0.258-1.809
			c-0.576-0.422-1.385-0.31-1.806,0.268l-2.865,3.84l-2.856-3.807c-0.43-0.576-1.23-0.688-1.806-0.258
			c-0.568,0.43-0.68,1.24-0.25,1.809l3.312,4.408l-7.398,9.93c-0.602,0.801-1.488,1.326-2.477,1.464
			c-0.99,0.138-1.979-0.12-2.779-0.715c-0.8-0.603-1.325-1.489-1.463-2.48c-0.137-0.989,0.112-1.979,0.715-2.78l11.638-15.492
			l2.59,1.945c0.06,0.053,0.129,0.096,0.198,0.129c0.034,0.018,0.069,0.035,0.103,0.053h0.009c0.06,0.033,0.129,0.06,0.189,0.068
			c0.103,0.034,0.215,0.043,0.318,0.043c0.06,0,0.129-0.009,0.19-0.017c0.206-0.026,0.404-0.112,0.585-0.241l0.043-0.035
			l2.589-1.945l11.639,15.492C781.814,718.824,782.064,719.814,781.927,720.804"/>
		<path clip-path="url(#SVGID_8_)" fill-rule="evenodd" clip-rule="evenodd" fill="#B4B3B3" d="M900.175,706.477h-8.211
			c0.073-2.803,0.75-4.223,3.798-4.52c0.644-0.062,1.118-0.637,1.055-1.282c-0.063-0.646-0.639-1.104-1.286-1.056
			c-5.486,0.533-5.896,4.513-5.928,6.857h-5.878c-5.83,0-10.575,4.745-10.575,10.575v11.75c0,5.128,1.866,7.919,5.288,8.225
			c4.112,0.367,6.784-2.247,9.644-5.043c2.987-2.923,5.301-2.519,7.738,0c2.783,2.876,5.163,5.078,9.645,5.043
			c3.435,0,5.287-3.097,5.287-8.225v-11.75C910.75,711.222,906.005,706.477,900.175,706.477 M908.4,728.802
			c0,4.944-1.772,5.778-2.937,5.875c-3.525,0.294-5.415-1.788-7.981-4.356c-1.474-1.47-3.438-2.877-5.532-2.877
			c-2.093,0-4.058,1.407-5.532,2.879c-2.566,2.563-5.043,4.502-7.98,4.354c-1.168-0.056-2.938-0.931-2.938-5.875v-11.75
			c0-4.535,3.69-8.226,8.225-8.226h16.45c4.536,0,8.225,3.69,8.225,8.226V728.802z M887.25,720.576h-2.35v2.351h-2.35v-2.351h-2.35
			v-2.35h2.35v-2.35h2.35v2.35h2.35V720.576z M896.65,719.401c0-1.944,1.577-3.524,3.525-3.524c1.948,0,3.525,1.58,3.525,3.524
			c0,1.948-1.577,3.525-3.525,3.525C898.227,722.927,896.65,721.35,896.65,719.401"/>
		<path clip-path="url(#SVGID_8_)" fill-rule="evenodd" clip-rule="evenodd" fill="#B4B3B3" d="M502.376,734.824
			c-1.895,0-4.015-1.505-4.015-3.521v-15.317l-0.779,0.64c-0.186,0.146-0.409,0.226-0.645,0.226c-0.318,0-0.616-0.146-0.817-0.399
			c-0.359-0.457-0.28-1.123,0.176-1.484l15.628-12.354c0.621-0.489,1.435-0.76,2.293-0.76c0.856,0,1.669,0.271,2.289,0.76
			l15.632,12.354c0.221,0.175,0.36,0.426,0.391,0.705c0.033,0.281-0.047,0.557-0.222,0.779c-0.201,0.254-0.504,0.398-0.832,0.398
			c-0.244,0-0.479-0.08-0.662-0.227l-0.74-0.561v15.24c0,2.14-1.189,3.521-3.028,3.521H502.376z M514.218,722.898
			c2.42,0,3.522,1.451,3.522,2.799v6.844l0.045,0.072v0.178l0.158-0.076h9.103c0.61,0,0.919-0.475,0.919-1.412v-16.917
			l-12.793-10.119c-0.249-0.195-0.605-0.306-0.977-0.306c-0.373,0-0.729,0.111-0.976,0.306l-12.748,10.062v16.975
			c0,0.714,1.092,1.412,1.906,1.412h8.351v-0.25l-0.032-0.038v-6.729C510.695,724.35,511.797,722.898,514.218,722.898
			 M514.218,725.01c-0.652,0-1.413,0.181-1.413,0.688v7.018h2.826v-7.018C515.63,725.19,514.869,725.01,514.218,725.01"/>
		<path clip-path="url(#SVGID_8_)" fill-rule="evenodd" clip-rule="evenodd" fill="#B4B3B3" d="M502.376,734.824
			c-1.895,0-4.015-1.505-4.015-3.521v-15.317l-0.779,0.64c-0.186,0.146-0.409,0.226-0.645,0.226c-0.318,0-0.616-0.146-0.817-0.399
			c-0.359-0.457-0.28-1.123,0.176-1.484l15.628-12.354c0.621-0.489,1.435-0.76,2.293-0.76c0.856,0,1.669,0.271,2.289,0.76
			l15.632,12.354c0.221,0.175,0.36,0.426,0.391,0.705c0.033,0.281-0.047,0.557-0.222,0.779c-0.201,0.254-0.504,0.398-0.832,0.398
			c-0.244,0-0.479-0.08-0.662-0.227l-0.74-0.561v15.24c0,2.14-1.189,3.521-3.028,3.521H502.376z M514.218,722.898
			c2.42,0,3.522,1.451,3.522,2.799v6.844l0.045,0.072v0.178l0.158-0.076h9.103c0.61,0,0.919-0.475,0.919-1.412v-16.917
			l-12.793-10.119c-0.249-0.195-0.605-0.306-0.977-0.306c-0.373,0-0.729,0.111-0.976,0.306l-12.748,10.062v16.975
			c0,0.714,1.092,1.412,1.906,1.412h8.351v-0.25l-0.032-0.038v-6.729C510.695,724.35,511.797,722.898,514.218,722.898
			 M514.218,725.01c-0.652,0-1.413,0.181-1.413,0.688v7.018h2.826v-7.018C515.63,725.19,514.869,725.01,514.218,725.01"/>
		<path clip-path="url(#SVGID_8_)" fill-rule="evenodd" clip-rule="evenodd" fill="#B4B3B3" d="M655.39,703.303
			c-0.261-0.228-0.604-0.332-0.948-0.283l-19.412,2.683c-0.591,0.081-1.031,0.586-1.031,1.183v20.543
			c0,2.125-1.728,3.854-3.853,3.854c-2.124,0-3.854-1.729-3.854-3.854c0-2.123,1.73-3.852,3.854-3.852
			c0.523,0,1.027,0.102,1.5,0.301c0.606,0.258,1.308-0.027,1.565-0.634c0.256-0.608-0.027-1.31-0.635-1.565
			c-0.769-0.324-1.586-0.49-2.43-0.49c-3.442,0-6.242,2.8-6.242,6.24c0,3.441,2.8,6.241,6.242,6.241c3.441,0,6.241-2.8,6.241-6.241
			v-12.635l17.024-2.352v12.304c0,2.125-1.728,3.854-3.853,3.854c-2.124,0-3.853-1.729-3.853-3.854c0-2.124,1.728-3.853,3.853-3.853
			c0.52,0,1.025,0.102,1.5,0.303c0.606,0.257,1.308-0.028,1.563-0.637c0.257-0.607-0.027-1.308-0.635-1.564
			c-0.771-0.325-1.587-0.49-2.428-0.49c-3.441,0-6.241,2.801-6.241,6.241c0,3.442,2.8,6.242,6.241,6.242s6.241-2.8,6.241-6.242
			v-20.543C655.798,703.857,655.649,703.529,655.39,703.303 M636.387,712.382v-4.456l17.024-2.354v4.457L636.387,712.382z"/>
		<path clip-path="url(#SVGID_8_)" fill-rule="evenodd" clip-rule="evenodd" fill="#B4B3B3" d="M404.271,733.885
			c-0.253,0-0.458-0.205-0.458-0.46v-2.545h-31.54v2.545c0,0.255-0.206,0.46-0.458,0.46h-4.085c-0.252,0-0.458-0.205-0.458-0.46
			v-6.806c0-2.2,0.364-4.135,1.081-5.752c0.314-0.709,0.701-1.366,1.151-1.95l0.031-0.04v-14.303c0-0.999,0.747-1.782,1.7-1.782
			h33.667c0.902,0,1.664,0.815,1.664,1.782v14.261l0.031,0.039c0.458,0.599,0.852,1.269,1.17,1.996
			c0.704,1.612,1.061,3.546,1.061,5.749l-0.014,6.807c0,0.254-0.206,0.459-0.458,0.459H404.271z M404.793,729.173
			c0.253,0,0.458,0.206,0.458,0.46v2.676h1.733l0.013-5.229h-37.831v5.229h1.602v-2.676c0-0.254,0.206-0.46,0.458-0.46H404.793z
			 M376.161,717.252c-1.832,0.208-3.161,0.669-4.568,2.411c-0.021,0.024-2.263,2.81-2.263,5.709v0.147h37.508l-0.025-0.17
			c-0.504-3.436-1.02-4.506-3.067-6.359c-0.692-0.627-1.703-1.543-3.905-1.737c-0.095-0.004-8.826-0.329-11.939-0.329
			L376.161,717.252z M399.323,710.809c2.445,0,3.442,1.004,3.442,3.465v2.658l0.075,0.041c0.158,0.09,0.366,0.186,0.589,0.287
			c0.373,0.17,0.796,0.363,1.041,0.566l0.395,0.34l0.001-12.523c0-0.391-0.28-0.795-0.749-0.795h-31.969
			c-0.462,0-0.784,0.327-0.784,0.795v12.125h0.324l0.037-0.026c0.235-0.158,0.594-0.312,0.911-0.447
			c0.241-0.103,0.466-0.2,0.623-0.289l0.074-0.042v-2.689c0-2.526,0.88-3.465,3.247-3.465h8.458c1.441,0,2.36,0.344,2.891,1.084
			l0.121,0.168l0.12-0.168c0.531-0.74,1.45-1.084,2.89-1.084H399.323z M391.386,712.365c-1.852,0-2.552,0.188-2.552,2.184v0.65
			h9.838c0.759,0,1.701,0.195,2.585,0.535l0.201,0.078v-1.231c0-2.024-0.693-2.216-2.527-2.216H391.386z M376.908,712.365
			c-1.927,0-2.266,0.341-2.266,2.281v1.125l0.202-0.078c1.018-0.397,1.674-0.56,2.266-0.56h10.09v-0.519
			c0-1.94-0.59-2.25-2.487-2.25H376.908z"/>
		<path clip-path="url(#SVGID_8_)" fill="#B4B3B3" d="M272.889,738.497c-7.229,0-9.157-8.827-9.157-14.044
			c0-3.205,1.719-4.925,2.975-6.181c1.151-1.15,1.911-1.91,1.911-3.603v-12.223c0-2.354,1.913-4.266,4.266-4.266
			c2.353,0,4.266,1.912,4.266,4.266v12.223c0,1.684,0.755,2.441,1.897,3.588c1.27,1.27,2.989,2.989,2.989,6.195
			c0.004,0.312,0.035,7.95-3.818,11.842C276.771,737.756,274.979,738.497,272.889,738.497 M272.884,700.498
			c-1.074,0-1.949,0.874-1.949,1.949v12.223c0,2.652-1.316,3.969-2.589,5.241c-1.181,1.181-2.296,2.298-2.296,4.542
			c0,0.479,0.077,11.727,6.839,11.727c1.468,0,2.672-0.496,3.682-1.516c2.639-2.666,3.167-8.267,3.147-10.199
			c0-2.258-1.116-3.373-2.296-4.554c-1.282-1.286-2.59-2.6-2.59-5.241v-12.223C274.832,701.372,273.958,700.498,272.884,700.498"/>
		<path clip-path="url(#SVGID_8_)" fill="#B4B3B3" d="M250.888,738.497c-2.356,0-4.272-1.916-4.272-4.271v-12.225
			c0-1.684-0.755-2.44-1.897-3.588c-1.269-1.27-2.989-2.99-2.989-6.189v-9.777c0-2.354,1.913-4.266,4.266-4.266
			c0.88,0,1.733,0.271,2.447,0.771c1.439-1.006,3.468-0.999,4.891,0c0.718-0.502,1.569-0.771,2.445-0.771
			c2.352,0,4.266,1.912,4.266,4.266v9.777c0,3.193-1.715,4.916-2.968,6.173c-1.159,1.159-1.919,1.919-1.919,3.61v12.223
			C255.152,736.584,253.237,738.497,250.888,738.497 M245.997,700.498c-1.074,0-1.948,0.874-1.948,1.949v9.777
			c0,2.24,1.115,3.355,2.297,4.537c1.281,1.287,2.589,2.6,2.589,5.24v12.225c0,1.076,0.876,1.953,1.954,1.953
			c1.074,0,1.95-0.877,1.952-1.953v-12.219c0-2.651,1.317-3.967,2.59-5.24c1.184-1.189,2.297-2.307,2.297-4.543v-9.777
			c0-1.075-0.874-1.949-1.948-1.949c-0.477,0-0.94,0.178-1.303,0.502l-1.143,1.021l-1.145-1.023
			c-0.717-0.644-1.875-0.646-2.603,0.002l-1.143,1.021l-1.145-1.023C246.938,700.676,246.477,700.498,245.997,700.498"/>
		<g opacity="0.5" clip-path="url(#SVGID_8_)">
			<g>
				<defs>
					<rect id="SVGID_9_" x="136.291" y="405.657" width="1012.96" height="353.34"/>
				</defs>
				<clipPath id="SVGID_10_">
					<use xlink:href="#SVGID_9_"  overflow="visible"/>
				</clipPath>
				
					<line clip-path="url(#SVGID_10_)" fill="none" stroke="#C6C8C7" stroke-width="0.454" stroke-miterlimit="10" x1="136.288" y1="528.646" x2="1149.251" y2="528.646"/>
				
					<line clip-path="url(#SVGID_10_)" fill="none" stroke="#C6C8C7" stroke-width="0.454" stroke-miterlimit="10" x1="136.288" y1="651.634" x2="1149.251" y2="651.634"/>
				
					<line clip-path="url(#SVGID_10_)" fill="none" stroke="#C6C8C7" stroke-width="0.454" stroke-miterlimit="10" x1="576.339" y1="758.99" x2="576.339" y2="405.656"/>
				
					<line clip-path="url(#SVGID_10_)" fill="none" stroke="#C6C8C7" stroke-width="0.454" stroke-miterlimit="10" x1="450.173" y1="758.992" x2="450.173" y2="405.658"/>
				
					<line clip-path="url(#SVGID_10_)" fill="none" stroke="#C6C8C7" stroke-width="0.454" stroke-miterlimit="10" x1="324.006" y1="758.992" x2="324.006" y2="405.658"/>
				
					<line clip-path="url(#SVGID_10_)" fill="none" stroke="#C6C8C7" stroke-width="0.454" stroke-miterlimit="10" x1="197.84" y1="758.993" x2="197.84" y2="405.659"/>
				
					<line clip-path="url(#SVGID_10_)" fill="none" stroke="#C6C8C7" stroke-width="0.454" stroke-miterlimit="10" x1="702.124" y1="758.99" x2="702.124" y2="405.656"/>
				
					<line clip-path="url(#SVGID_10_)" fill="none" stroke="#C6C8C7" stroke-width="0.454" stroke-miterlimit="10" x1="827.908" y1="758.99" x2="827.908" y2="405.656"/>
				
					<line clip-path="url(#SVGID_10_)" fill="none" stroke="#C6C8C7" stroke-width="0.454" stroke-miterlimit="10" x1="953.692" y1="758.99" x2="953.692" y2="405.656"/>
				
					<line clip-path="url(#SVGID_10_)" fill="none" stroke="#C6C8C7" stroke-width="0.454" stroke-miterlimit="10" x1="1079.476" y1="758.99" x2="1079.476" y2="405.656"/>
			</g>
		</g>
		<path clip-path="url(#SVGID_8_)" fill-rule="evenodd" clip-rule="evenodd" fill="#B4B3B3" d="M781.468,596.883v8.034
			c0,0.83-0.681,1.511-1.521,1.511h-0.032h-29.311c-0.841,0-1.531-0.681-1.531-1.511v-0.044v-7.99
			c-0.733-0.248-1.446-0.637-2.05-1.263c-0.928-0.905-1.498-2.2-1.498-3.591v-2.512c0-2.783,2.319-5.112,5.1-5.112h9.835v-4.422
			c0-0.495,0.41-0.905,0.906-0.905h0.021h2.998v-0.626c-1.423-1.144-2.351-2.771-2.351-4.614c0-2.007,1.1-3.754,2.719-4.863
			c0.323-0.229,0.732-0.205,1.045,0l0.012,0.01h0.022c1.595,1.122,2.695,2.869,2.695,4.854c0,1.834-0.939,3.45-2.329,4.594v0.646
			h2.976c0.506,0,0.928,0.41,0.928,0.905v0.022v4.399h9.834c2.783,0,5.09,2.329,5.09,5.112v2.512c0,1.391-0.581,2.686-1.509,3.591
			C782.912,596.246,782.222,596.646,781.468,596.883 M764.385,574.689L764.385,574.689c0-0.508,0.411-0.917,0.896-0.917
			c0.507,0,0.917,0.409,0.917,0.917v1.014l0.021-0.031c0.302-0.551,0.475-1.166,0.475-1.834c0-1.166-0.561-2.222-1.413-2.978
			c-0.863,0.778-1.434,1.812-1.434,2.978c0,0.668,0.172,1.283,0.496,1.834v0.01l0.042,0.054V574.689z M762.293,584.405
			L762.293,584.405h5.975v-3.515h-5.975V584.405z M750.604,594.1L750.604,594.1h0.021h0.023h0.106
			c0.647,0.011,1.306-0.162,1.856-0.441c0.604-0.335,1.142-0.82,1.682-1.424c3.279-3.73,5.24-2.016,7.559,0.012
			c1.014,0.895,2.125,1.854,3.43,1.854c0.691,0,1.348-0.141,1.952-0.418c0.581-0.282,1.153-0.67,1.682-1.155l0.087-0.076
			c0.776-0.722,2.242-1.358,3.752-1.358c1.186,0,2.394,0.366,3.397,1.315l0.097,0.086c0.216,0.228,0.474,0.453,0.733,0.604v0.043
			c0.237,0.15,0.518,0.322,0.841,0.475c0.281,0.15,0.604,0.259,0.972,0.344c0.883,0.238,1.875,0.238,2.588-0.484
			c0.366-0.377,0.603-0.895,0.603-1.445v-2.512c0-1.111-0.949-2.049-2.049-2.049h-29.311c-1.122,0-2.071,0.938-2.071,2.049v2.512
			c0,0.551,0.238,1.068,0.616,1.445C749.569,593.874,750.086,594.047,750.604,594.1 M752.114,597.001L752.114,597.001v6.396h26.312
			v-6.416l-0.366-0.066c-0.561-0.128-1.079-0.344-1.574-0.581h-0.022c-0.852-0.421-1.683-1.014-2.35-1.683l-0.077-0.064
			c-0.355-0.324-0.83-0.476-1.283-0.476c-0.711,0-1.38,0.28-1.704,0.583l-0.098,0.087c-0.764,0.668-1.595,1.25-2.491,1.66
			c-0.97,0.442-2.027,0.7-3.18,0.7c-2.426,0-4.001-1.368-5.402-2.619c-1.1-0.938-2.028-1.758-3.3-0.281
			c-0.777,0.874-1.597,1.585-2.568,2.082C753.429,596.635,752.771,596.883,752.114,597.001"/>
		<path clip-path="url(#SVGID_8_)" fill-rule="evenodd" clip-rule="evenodd" fill="#B4B3B3" d="M631.99,596.186
			c-0.448,0-0.801-0.373-0.801-0.822c0-0.448,0.353-0.803,0.801-0.803h16.652c0.459,0,0.803,0.354,0.803,0.803
			c0,0.449-0.344,0.822-0.803,0.822H631.99z M627.178,586.732L627.178,586.732l0.669-0.192l0.935-4.048l-2.654,0.822
			L627.178,586.732z M629.622,585.986L629.622,585.986l4.183-1.26l0.935-4.049l-4.182,1.28L629.622,585.986z M635.58,584.172
			L635.58,584.172l4.183-1.269l0.935-4.039l-4.182,1.278L635.58,584.172z M641.539,582.358L641.539,582.358l4.182-1.279l0.935-4.038
			l-4.182,1.278L641.539,582.358z M647.497,580.545L647.497,580.545l3.952-1.214l-1.06-3.437l-1.956,0.611L647.497,580.545z
			 M653.512,581.52L653.512,581.52l-21.483,6.529h22.305c0.763,0,1.354,0.611,1.354,1.356v0.019v17.111
			c0,0.744-0.591,1.346-1.354,1.346h-0.03H626.29c-0.735,0-1.345-0.602-1.345-1.346v-0.04v-17.09c0-0.19,0.028-0.343,0.113-0.507
			l-0.038-0.104l-1.833-5.998c-0.21-0.705,0.172-1.459,0.879-1.67l26.83-8.183c0.725-0.228,1.471,0.183,1.68,0.888l1.833,6.006
			C654.62,580.545,654.218,581.289,653.512,581.52 M652.997,590.752L652.997,590.752h-25.36v14.438h25.36V590.752z M631.99,601.378
			L631.99,601.378c-0.448,0-0.801-0.362-0.801-0.801c0-0.449,0.353-0.821,0.801-0.821h16.652c0.459,0,0.803,0.372,0.803,0.821
			c0,0.438-0.344,0.801-0.803,0.801H631.99z"/>
		<path clip-path="url(#SVGID_8_)" fill-rule="evenodd" clip-rule="evenodd" fill="#B4B3B3" d="M503.062,597.496
			c-0.314-0.325-0.314-0.83,0-1.146c0.315-0.324,0.831-0.324,1.146,0.01l3.055,3.045c0.297,0.307,0.297,0.821,0,1.137
			c-0.324,0.297-0.849,0.297-1.145-0.008L503.062,597.496z M500.14,590.507L500.14,590.507c0.859-0.421,1.795-0.688,2.731-0.804
			c0.324-0.037,0.611-0.161,0.84-0.323c0.219-0.153,0.411-0.401,0.535-0.688c0.983-2.214,3.065-3.856,5.566-3.961
			c1.222-0.058,2.492,0.248,3.714,0.83l7.428-7.428v-0.325c0-0.401,0.171-0.764,0.459-1.013l3.503-3.512
			c0.268-0.258,0.621-0.402,0.956-0.402h1.25c0.392,0,0.764,0.191,1.003,0.479l2.186,2.176c0.268,0.268,0.401,0.611,0.392,0.955
			h0.009v1.24c0,0.402-0.173,0.774-0.467,1.022l-3.504,3.503c-0.268,0.288-0.65,0.411-1.013,0.395h-0.267l-7.419,7.418
			c0.583,1.24,0.888,2.491,0.83,3.723c-0.094,2.502-1.746,4.582-3.961,5.566c-0.287,0.123-0.526,0.305-0.687,0.534
			c-0.163,0.229-0.287,0.526-0.316,0.841c-0.123,0.955-0.391,1.871-0.811,2.731c-1.433,2.95-4.46,4.916-7.887,4.306
			c-4.153-0.764-8.612-5.224-9.377-9.377C495.214,594.975,497.189,591.939,500.14,590.507 M501.304,592.923L501.304,592.923
			c-1.871,0.905-3.227,2.808-2.826,4.993c0.544,3.027,4.183,6.664,7.208,7.209c2.207,0.4,4.098-0.955,4.995-2.817
			c0.286-0.61,0.477-1.261,0.563-1.909c0.105-0.793,0.382-1.509,0.812-2.101c0.458-0.593,1.041-1.069,1.776-1.394
			c1.269-0.574,2.311-1.758,2.367-3.228c0.029-0.964-0.305-2.034-0.916-3.075c-0.372-0.533-0.325-1.26,0.152-1.729l8.518-8.516
			c0.248-0.238,0.582-0.392,0.955-0.392h0.314l2.797-2.788v-0.134l-1.46-1.461h-0.125l-2.796,2.778v0.306v0.038
			c0,0.344-0.124,0.688-0.392,0.945l-8.518,8.517c-0.419,0.42-1.106,0.524-1.642,0.2c-1.068-0.64-2.157-0.991-3.15-0.953
			c-1.461,0.047-2.663,1.107-3.228,2.377c-0.333,0.716-0.811,1.318-1.403,1.757c-0.582,0.43-1.308,0.706-2.101,0.812
			C502.555,592.455,501.917,592.645,501.304,592.923 M510.833,589.81L510.833,589.81c1.643,0,2.96,1.337,2.96,2.96
			c0,1.633-1.317,2.969-2.96,2.969c-1.633,0-2.959-1.336-2.959-2.969C507.875,591.146,509.2,589.81,510.833,589.81 M509.498,592.77
			L509.498,592.77c0,0.735,0.591,1.346,1.336,1.346c0.746,0,1.347-0.61,1.347-1.346c0-0.744-0.601-1.347-1.347-1.347
			C510.088,591.423,509.498,592.033,509.498,592.77"/>
		<path clip-path="url(#SVGID_8_)" fill-rule="evenodd" clip-rule="evenodd" fill="#B4B3B3" d="M374.386,585.098h0.058h20.987
			c0.876,0,1.598,0.697,1.646,1.598h1.361c1.477,0,2.814,0.592,3.808,1.562c0.97,0.969,1.549,2.318,1.549,3.785
			c0,1.49-0.579,2.815-1.549,3.81c-0.994,0.969-2.331,1.562-3.808,1.562h-2.107c-0.568,1.407-1.396,2.672-2.473,3.715v0.023
			c-1.976,1.963-4.719,3.217-7.726,3.217h-2.448c-3.016,0-5.737-1.254-7.725-3.217c-1.988-1.988-3.242-4.732-3.242-7.749v-6.625
			C372.717,585.867,373.462,585.098,374.386,585.098 M383.719,582.838L383.719,582.838c0.201,0.521-0.023,1.101-0.531,1.326
			c-0.509,0.189-1.077-0.049-1.291-0.545c-0.26-0.639-0.484-1.302-0.615-1.986c-0.154-0.688-0.212-1.385-0.212-2.084
			c0-0.686,0.058-1.371,0.212-2.069c0.131-0.675,0.332-1.36,0.615-1.989c0.214-0.507,0.782-0.72,1.291-0.531
			c0.508,0.226,0.732,0.805,0.531,1.313c-0.213,0.509-0.378,1.054-0.496,1.621c-0.106,0.497-0.166,1.063-0.166,1.655
			s0.06,1.16,0.166,1.682C383.341,581.785,383.506,582.33,383.719,582.838 M380.347,582.838L380.347,582.838
			c-0.2-0.508-0.389-1.053-0.483-1.607c-0.131-0.521-0.178-1.09-0.178-1.682s0.047-1.158,0.178-1.655
			c0.094-0.567,0.283-1.112,0.483-1.621c0.261-0.627,0.474-1.301,0.628-1.999c0.118-0.688,0.201-1.372,0.201-2.059
			c0-0.698-0.083-1.396-0.201-2.082c-0.154-0.687-0.367-1.372-0.628-1.988c-0.2-0.521-0.791-0.732-1.289-0.544
			c-0.52,0.224-0.758,0.817-0.544,1.326c0.213,0.497,0.391,1.041,0.497,1.608c0.106,0.52,0.154,1.064,0.154,1.68
			c0,0.591-0.048,1.158-0.154,1.68c-0.106,0.544-0.284,1.089-0.497,1.596c-0.272,0.629-0.485,1.314-0.616,1.989
			c-0.142,0.698-0.211,1.384-0.211,2.069c0,0.699,0.069,1.396,0.211,2.084c0.131,0.685,0.344,1.348,0.616,1.986
			c0.213,0.496,0.804,0.734,1.3,0.545C380.323,583.938,380.562,583.359,380.347,582.838 M397.077,588.683L397.077,588.683v4.721
			c0,0.698-0.048,1.36-0.178,2.023h1.539c0.921,0,1.762-0.392,2.388-0.995c0.615-0.592,0.983-1.443,0.983-2.389
			c0-0.924-0.368-1.764-0.983-2.367c-0.626-0.614-1.467-0.993-2.388-0.993H397.077z M371.322,607.705L371.322,607.705
			c-0.544,0-1.018-0.461-1.018-1.004c0-0.557,0.474-1.007,1.018-1.007h27.173c0.545,0,1.006,0.45,1.006,1.007
			c0,0.543-0.461,1.004-1.006,1.004H371.322z M393.752,588.446L393.752,588.446h-17.698v4.957c0,2.095,0.863,3.998,2.236,5.382
			c1.396,1.385,3.3,2.248,5.394,2.248h2.448c2.095,0,3.999-0.863,5.395-2.248c1.373-1.371,2.225-3.287,2.225-5.382V588.446z"/>
		<path clip-path="url(#SVGID_8_)" fill-rule="evenodd" clip-rule="evenodd" fill="#B4B3B3" d="M268.119,590.444h-5.831v-9.892
			c0-0.69-0.547-1.238-1.237-1.238c-0.689,0-1.236,0.548-1.236,1.238v11.146c0,0.689,0.547,1.245,1.236,1.245h7.068
			c0.679,0,1.235-0.556,1.235-1.245S268.798,590.444,268.119,590.444 M272.499,580.262L272.499,580.262
			c-2.933-2.925-6.978-4.736-11.448-4.736c-4.468,0-8.496,1.794-11.43,4.736l-0.017,0.006c-2.915,2.926-4.734,6.971-4.734,11.432
			c0,4.469,1.819,8.515,4.734,11.439h0.017c2.915,2.932,6.962,4.742,11.43,4.742c4.452,0,8.48-1.803,11.412-4.717l0.019-0.025h0.017
			c2.915-2.942,4.735-6.979,4.735-11.439c0-4.434-1.785-8.444-4.682-11.36L272.499,580.262z M270.723,601.379L270.723,601.379
			c-2.463,2.475-5.891,4.012-9.672,4.012c-3.78,0-7.207-1.52-9.68-4.002v-0.01c-2.482-2.473-4.01-5.9-4.01-9.68
			c0-3.781,1.518-7.209,4.01-9.682c2.473-2.473,5.9-4.01,9.68-4.01c3.781,0,7.209,1.537,9.672,4.01l0.062,0.062
			c2.438,2.464,3.948,5.874,3.948,9.619C274.733,595.479,273.205,598.906,270.723,601.379 M277.896,580.339L277.896,580.339
			c-0.345-0.521-0.751-1.042-1.175-1.562c-0.424-0.521-0.866-1-1.307-1.458c-0.451-0.442-0.937-0.874-1.449-1.3
			c-0.521-0.424-1.024-0.82-1.554-1.156c-0.548-0.389-1.114-0.742-1.688-1.034c-0.538-0.291-1.139-0.582-1.757-0.847
			c-0.637-0.273-1.36,0.025-1.635,0.652c-0.264,0.629,0.028,1.352,0.655,1.635c0.521,0.211,1.024,0.459,1.563,0.742
			c0.503,0.283,1.007,0.584,1.466,0.9c0.495,0.328,0.946,0.673,1.369,1.016v0.01c0.433,0.354,0.865,0.74,1.273,1.166
			c0.422,0.424,0.82,0.83,1.156,1.254c0.345,0.425,0.689,0.875,1.016,1.369c0.389,0.574,1.175,0.733,1.74,0.345
			C278.126,581.684,278.276,580.905,277.896,580.339 M246.265,581.734L246.265,581.734c0.319-0.493,0.663-0.952,1.025-1.377
			c0.328-0.406,0.715-0.83,1.148-1.254c0.424-0.426,0.848-0.822,1.255-1.166c0.432-0.336,0.892-0.697,1.396-1.025
			c0.476-0.326,0.962-0.617,1.466-0.9l0.07-0.035c0.476-0.266,0.989-0.496,1.483-0.707c0.619-0.283,0.919-0.998,0.654-1.625
			c-0.265-0.637-0.997-0.918-1.624-0.662c-0.583,0.248-1.148,0.521-1.697,0.82l-0.061,0.018c-0.593,0.318-1.158,0.673-1.696,1.043
			c-0.521,0.336-1.043,0.732-1.564,1.156c-0.53,0.435-1.006,0.875-1.431,1.3c-0.441,0.458-0.882,0.937-1.325,1.466
			c-0.423,0.512-0.812,1.033-1.166,1.554c-0.388,0.566-0.23,1.345,0.336,1.732C245.099,582.46,245.877,582.301,246.265,581.734"/>
		<path clip-path="url(#SVGID_8_)" fill-rule="evenodd" clip-rule="evenodd" fill="#B4B3B3" d="M385.127,461.939
			c0-1.084-0.441-2.067-1.164-2.789c-0.723-0.723-1.715-1.174-2.8-1.174c-1.063,0-2.037,0.432-2.749,1.133l-0.04,0.041
			c-0.722,0.722-1.174,1.705-1.174,2.789c0,1.094,0.452,2.086,1.174,2.801c0.722,0.722,1.706,1.173,2.789,1.173
			c1.085,0,2.077-0.451,2.8-1.173C384.686,464.025,385.127,463.033,385.127,461.939 M382.768,463.545L382.768,463.545
			c-0.4,0.421-0.982,0.662-1.605,0.662c-0.622,0-1.183-0.241-1.585-0.652l-0.02-0.01h0.02c-0.42-0.411-0.671-0.973-0.671-1.605
			c0-0.621,0.251-1.205,0.671-1.584l0.02-0.041c0.423-0.392,0.964-0.633,1.565-0.633c0.623,0,1.205,0.241,1.605,0.674
			c0.402,0.379,0.663,0.963,0.663,1.584C383.431,462.572,383.17,463.134,382.768,463.545 M393.985,463.555L393.985,463.555
			c-0.701,0.702-1.162,1.706-1.162,2.799c0,1.094,0.461,2.088,1.162,2.801c0.722,0.711,1.706,1.152,2.811,1.152
			c1.092,0,2.076-0.441,2.789-1.152c0.722-0.713,1.163-1.707,1.163-2.801c0-1.093-0.441-2.097-1.163-2.799
			c-0.713-0.722-1.697-1.162-2.789-1.162C395.691,462.393,394.707,462.833,393.985,463.555 M399.042,466.354L399.042,466.354
			c0,0.623-0.24,1.205-0.652,1.596c-0.411,0.422-0.973,0.662-1.594,0.662c-0.624,0-1.206-0.24-1.606-0.662
			c-0.412-0.391-0.673-0.973-0.673-1.596c0-0.632,0.261-1.183,0.673-1.613c0.4-0.402,0.982-0.664,1.606-0.664
			c0.621,0,1.183,0.262,1.594,0.664C398.802,465.171,399.042,465.722,399.042,466.354 M385.117,472.535L385.117,472.535
			c-2.147,0-3.893,1.765-3.893,3.893c0,2.127,1.746,3.893,3.893,3.893c2.127,0,3.872-1.766,3.872-3.893
			C388.989,474.3,387.244,472.535,385.117,472.535 M385.117,477.48L385.117,477.48c-0.582,0-1.065-0.472-1.065-1.053
			c0-0.583,0.483-1.054,1.065-1.054s1.043,0.471,1.043,1.054C386.16,477.009,385.678,477.48,385.117,477.48 M400.838,457.244
			L400.838,457.244c-2.96-3.391-7.113-5.67-11.889-6.141c-2.909-0.25-5.909,0.242-8.649,1.375c-2.748,1.153-5.237,2.909-7.102,5.147
			c-2.328,2.808-3.834,6.319-4.234,9.972c-0.371,3.482,0.24,7.104,2.016,10.424c0.894,1.687,2.077,3.151,3.382,4.346
			c1.423,1.305,2.989,2.267,4.495,2.839c1.183,0.45,2.497,0.723,3.832,0.803c1.846,0.132,3.753-0.151,5.387-0.894
			c1.736-0.793,3.14-2.096,3.863-4.022c0.281-0.702,0.431-1.476,0.492-2.348c0.07-1.134,0.27-1.816,0.531-2.207
			c0.12-0.183,0.301-0.261,0.522-0.272c0.743-0.039,1.886,0.424,3.07,0.903l0.763,0.301l0.06,0.011
			c3.271,1.265,5.358,0.803,6.702-0.853c1.163-1.444,1.535-3.731,1.535-6.501C405.614,465.211,403.838,460.666,400.838,457.244
			 M401.892,474.852L401.892,474.852c-0.522,0.652-1.606,0.742-3.502,0l-0.05-0.02l-0.723-0.271
			c-1.485-0.611-2.949-1.184-4.333-1.113c-1.045,0.051-1.967,0.502-2.649,1.494c-0.542,0.822-0.923,1.947-1.024,3.613
			c-0.02,0.602-0.15,1.094-0.311,1.545c-0.431,1.163-1.315,1.956-2.397,2.448c-1.185,0.541-2.609,0.731-4.054,0.642
			c-1.053-0.07-2.087-0.301-3.01-0.631c-1.184-0.443-2.427-1.226-3.582-2.259c-1.053-1.003-2.036-2.228-2.799-3.61
			c-1.494-2.779-2.006-5.851-1.685-8.801c0.34-3.09,1.595-6.068,3.592-8.438c1.584-1.906,3.692-3.4,5.999-4.364
			c2.329-0.963,4.876-1.384,7.324-1.164c4.034,0.392,7.525,2.317,10.033,5.168c2.548,2.929,4.064,6.822,4.064,11.036
			C402.785,472.285,402.574,473.999,401.892,474.852 M394.577,459.763L394.577,459.763c0-1.094-0.451-2.077-1.153-2.78
			c-0.723-0.722-1.706-1.174-2.81-1.174c-1.083,0-2.086,0.452-2.799,1.174c-0.722,0.703-1.154,1.687-1.154,2.78
			c0,1.093,0.432,2.087,1.154,2.81c0.713,0.713,1.716,1.152,2.799,1.152c1.104,0,2.087-0.439,2.81-1.152
			C394.126,461.85,394.577,460.855,394.577,459.763 M392.22,461.369L392.22,461.369c-0.401,0.41-0.963,0.671-1.606,0.671
			c-0.621,0-1.183-0.261-1.605-0.671c-0.4-0.422-0.641-0.975-0.641-1.606c0-0.612,0.241-1.194,0.641-1.596
			c0.422-0.411,0.984-0.662,1.605-0.662c0.643,0,1.205,0.251,1.606,0.662c0.411,0.401,0.672,0.983,0.672,1.596
			C392.892,460.395,392.631,460.947,392.22,461.369 M377.171,466.133L377.171,466.133c-1.063,0-2.047,0.441-2.75,1.104l-0.049,0.061
			c-0.723,0.723-1.155,1.706-1.155,2.801c0,1.092,0.432,2.086,1.155,2.809c0.712,0.711,1.714,1.152,2.799,1.152
			c1.103,0,2.086-0.441,2.809-1.152c0.722-0.723,1.163-1.717,1.163-2.809c0-1.095-0.441-2.078-1.163-2.801
			C379.257,466.594,378.274,466.133,377.171,466.133 M378.776,471.701L378.776,471.701c-0.402,0.412-0.983,0.672-1.605,0.672
			c-0.632,0-1.194-0.26-1.596-0.672h-0.02h0.02c-0.411-0.41-0.673-0.973-0.673-1.604c0-0.613,0.262-1.195,0.673-1.596l0.031-0.061
			c0.4-0.361,0.962-0.603,1.565-0.603c0.622,0,1.203,0.252,1.605,0.663c0.411,0.4,0.651,0.982,0.651,1.596
			C379.427,470.729,379.187,471.291,378.776,471.701"/>
		<path clip-path="url(#SVGID_8_)" fill-rule="evenodd" clip-rule="evenodd" fill="#B4B3B3" d="M1010.476,483.387
			c0-4.115-2.169-5.766-4.421-7.471c-2.914-2.215-5.926-4.51-5.926-10.877v-6.33v-7.793c0-0.699,0.573-1.265,1.274-1.265
			c0.312,0,0.608,0.125,0.842,0.322l8.5,6.385c0.834-0.215,1.695-0.376,2.557-0.511c1.066-0.152,2.16-0.233,3.271-0.233
			c1.113,0,2.225,0.081,3.283,0.233c0.861,0.135,1.723,0.296,2.547,0.511l8.609-6.457c0.555-0.412,1.344-0.295,1.758,0.269
			c0.17,0.217,0.25,0.477,0.25,0.746h0.02v7.793v6.33c0,6.367-3.033,8.662-5.938,10.877c-2.242,1.705-4.412,3.355-4.412,7.471
			c0,0.709-0.564,1.265-1.256,1.265h-9.701C1011.032,484.651,1010.476,484.096,1010.476,483.387 M1021.911,463.98L1021.911,463.98
			c0.385,0.225,0.617,0.646,0.617,1.122c0,0.726-0.6,1.345-1.344,1.345c-0.377,0-0.709-0.152-0.951-0.404
			c-0.197,0.602-0.234,1.248-0.09,1.875c0.547,0.492,1.236,0.824,1.973,0.906c1.631,0.215,3.229-0.691,3.855-2.217
			c0.27-0.663,0.342-1.424,0.182-2.15C1024.995,463.398,1023.274,463.209,1021.911,463.98 M1008.108,463.767L1008.108,463.767
			c0.717,0.026,1.291,0.626,1.291,1.336c0,0.726-0.61,1.345-1.344,1.345c-0.431,0-0.808-0.215-1.059-0.529
			c0.036,0.242,0.107,0.476,0.198,0.689c0.627,1.525,2.225,2.432,3.855,2.217c0.719-0.082,1.408-0.414,1.955-0.896
			c0.162-0.719,0.09-1.498-0.18-2.162c-0.627-1.525-2.223-2.449-3.854-2.215C1008.683,463.578,1008.387,463.649,1008.108,463.767
			 M1016.735,472.006L1016.735,472.006l0.467-0.68c0.053-0.082-0.035-0.144-0.125-0.144h-0.951c-0.07,0-0.18,0.062-0.125,0.144
			h0.018l0.467,0.68l0.018,0.01C1016.556,472.051,1016.683,472.07,1016.735,472.006 M1017.794,473.082L1017.794,473.082
			c0.27,0.117,0.574,0.18,0.879,0.18c0.557,0,1.104-0.215,1.523-0.627c0.305-0.295,0.791-0.295,1.076,0
			c0.307,0.296,0.307,0.781,0,1.076c-0.717,0.707-1.658,1.076-2.6,1.076c-0.717,0-1.443-0.216-2.072-0.638
			c-0.619,0.422-1.346,0.638-2.053,0.638c-0.961,0-1.9-0.369-2.619-1.076c-0.297-0.295-0.297-0.78,0-1.076
			c0.297-0.295,0.779-0.295,1.076,0c0.412,0.412,0.969,0.627,1.543,0.627c0.287,0,0.592-0.045,0.879-0.18
			c-0.055-0.053-0.09-0.097-0.135-0.151l-0.045-0.062l-0.484-0.664c-0.16-0.242-0.25-0.512-0.287-0.799v-0.035
			c-0.018-0.289,0.053-0.593,0.197-0.853c0.145-0.278,0.359-0.483,0.609-0.627c0.252-0.136,0.557-0.234,0.844-0.234h0.951
			c0.285,0,0.547,0.082,0.789,0.197l0.053,0.037c0.27,0.144,0.467,0.349,0.619,0.627c0.145,0.241,0.207,0.547,0.189,0.825v0.027
			c-0.02,0.303-0.107,0.582-0.289,0.834l-0.465,0.664C1017.901,472.948,1017.856,473.021,1017.794,473.082 M1018.933,465.184
			L1018.933,465.184c0.412-1.006,1.176-1.902,2.188-2.494c2-1.166,4.582-0.833,6.215,0.809c0.109,0.098,0.189,0.213,0.225,0.366
			c0.314,1.103,0.225,2.278-0.207,3.327c-0.887,2.152-3.139,3.462-5.441,3.139c-1.104-0.144-2.143-0.654-2.961-1.453
			c-0.098-0.09-0.17-0.215-0.223-0.358C1018.421,467.407,1018.511,466.232,1018.933,465.184 M1014.226,465.184L1014.226,465.184
			c0.42,1.049,0.52,2.224,0.197,3.335c-0.047,0.144-0.125,0.269-0.225,0.358c-0.797,0.808-1.838,1.31-2.951,1.453
			c-2.295,0.323-4.573-0.986-5.452-3.139c-0.422-1.049-0.503-2.225-0.206-3.327c0.044-0.153,0.134-0.269,0.223-0.366
			c0.808-0.809,1.866-1.33,2.96-1.455C1011.085,461.721,1013.327,463.012,1014.226,465.184 M1007.571,473.908L1007.571,473.908
			c2.529,1.92,4.987,3.793,5.372,8.215h7.273c0.395-4.422,2.844-6.295,5.361-8.215c2.422-1.838,4.914-3.722,4.914-8.869v-6.33
			v-5.265l-7.029,5.265c-0.305,0.269-0.736,0.367-1.148,0.25c-0.914-0.269-1.857-0.475-2.814-0.609
			c-0.979-0.135-1.955-0.198-2.926-0.215c-0.967,0.017-1.945,0.08-2.922,0.215c-0.951,0.135-1.883,0.341-2.797,0.609v-0.018
			c-0.379,0.117-0.791,0.07-1.113-0.18l-7.084-5.317v5.265v6.33C1002.657,470.187,1005.158,472.07,1007.571,473.908"/>
	</g>
</g>
<path fill="none" stroke="#B2B1B2" stroke-miterlimit="10" d="M71.23,61.109l-10.359-10.17c-0.183-0.178-0.287-0.426-0.287-0.682
	c0-0.259,0.105-0.503,0.289-0.683l10.359-10.106"/>
<path fill="none" stroke="#585858" stroke-width="3" stroke-linecap="round" stroke-linejoin="round" stroke-miterlimit="10" d="
	M71.23,61.109l-10.359-10.17c-0.183-0.178-0.287-0.426-0.287-0.682c0-0.259,0.105-0.503,0.289-0.683l10.359-10.106"/>
<line fill="none" stroke="#585858" stroke-width="3" stroke-linecap="round" stroke-linejoin="round" stroke-miterlimit="10" x1="62.906" y1="50.26" x2="93.058" y2="50.26"/>
<text transform="matrix(1 0 0 1 143.2544 58.3169)" fill="#585858" font-family="'DroidSansFallback'" font-size="27">Scenes</text>
<line fill="none" stroke="#FF9012" stroke-width="2" stroke-miterlimit="10" x1="539.075" y1="270.392" x2="539.075" y2="234.392"/>
<g opacity="0.5">
	<g>
		<defs>
			<rect id="SVGID_11_" x="882.38" y="243.467" width="18.12" height="18.121"/>
		</defs>
		<clipPath id="SVGID_12_">
			<use xlink:href="#SVGID_11_"  overflow="visible"/>
		</clipPath>
		<g opacity="0.5" clip-path="url(#SVGID_12_)">
			<g>
				<defs>
					<rect id="SVGID_13_" x="883.09" y="244.167" width="16.7" height="16.71"/>
				</defs>
				<clipPath id="SVGID_14_">
					<use xlink:href="#SVGID_13_"  overflow="visible"/>
				</clipPath>
				
					<line clip-path="url(#SVGID_14_)" fill="none" stroke="#A9A7A7" stroke-miterlimit="10" x1="883.442" y1="260.523" x2="899.441" y2="244.525"/>
			</g>
		</g>
		<g opacity="0.5" clip-path="url(#SVGID_12_)">
			<g>
				<defs>
					<rect id="SVGID_15_" x="883.09" y="244.167" width="16.71" height="16.71"/>
				</defs>
				<clipPath id="SVGID_16_">
					<use xlink:href="#SVGID_15_"  overflow="visible"/>
				</clipPath>
				
					<line clip-path="url(#SVGID_16_)" fill="none" stroke="#A9A7A7" stroke-miterlimit="10" x1="899.442" y1="260.523" x2="883.443" y2="244.525"/>
			</g>
		</g>
		
			<line clip-path="url(#SVGID_12_)" fill="none" stroke="#A9A7A7" stroke-width="3" stroke-miterlimit="10" x1="883.442" y1="260.523" x2="899.441" y2="244.525"/>
		
			<line clip-path="url(#SVGID_12_)" fill="none" stroke="#A9A7A7" stroke-width="3" stroke-miterlimit="10" x1="899.442" y1="260.523" x2="883.443" y2="244.525"/>
	</g>
</g>
<line fill="none" stroke="#C6C8C7" stroke-width="0.454" stroke-miterlimit="10" x1="360.708" y1="277.971" x2="920.041" y2="277.971"/>
<text transform="matrix(1 0 0 1 371.2485 259.4341)" fill="#585858" font-family="'DroidSansFallback'" font-size="25">Reading Time</text>
<line fill="#FFFFFF" x1="955.712" y1="510.042" x2="960.712" y2="518.042"/>
<g opacity="0.4">
	<g>
		<defs>
			<rect id="SVGID_17_" x="1.01" y="0.127" width="1280.491" height="800.211"/>
		</defs>
		<clipPath id="SVGID_18_">
			<use xlink:href="#SVGID_17_"  overflow="visible"/>
		</clipPath>
		<rect x="1.013" y="0.127" clip-path="url(#SVGID_18_)" fill="#0D0C0C" width="1280.484" height="800.213"/>
	</g>
</g>
<path fill="#FFFFFF" d="M816.038,530.809H714.253c-6.628,0-12-5.373-12-12v-95.326c0-6.628,5.372-12,12-12h101.784
	c6.626,0,12,5.372,12,12v95.326C828.037,525.436,822.664,530.809,816.038,530.809"/>
<path fill="none" stroke="#B4B3B3" stroke-width="2" stroke-linecap="round" stroke-miterlimit="10" d="M777.911,457.012v27.355
	c0,0.503-0.409,0.912-0.912,0.912h-21.884c-1.508,0-2.735-1.229-2.735-2.736"/>
<path fill="none" stroke="#B4B3B3" stroke-width="2" stroke-linecap="round" stroke-linejoin="round" stroke-miterlimit="10" d="
	M752.38,482.113c0-1.508,1.228-2.734,2.735-2.734h18.237c1.508,0,2.736-1.228,2.736-2.736V454.76c0-1.51-1.228-2.736-2.736-2.736
	h-18.237c-1.507,0-2.735,1.227-2.735,2.736V482.113"/>
<line fill="none" stroke="#B4B3B3" stroke-width="2" stroke-linecap="round" stroke-linejoin="round" stroke-miterlimit="10" x1="754.977" y1="482.313" x2="776.087" y2="482.313"/>
</svg>
