<?xml version="1.0" encoding="utf-8"?>
<!-- Generator: Adobe Illustrator 16.0.0, SVG Export Plug-In . SVG Version: 6.00 Build 0)  -->
<!DOCTYPE svg PUBLIC "-//W3C//DTD SVG 1.1//EN" "http://www.w3.org/Graphics/SVG/1.1/DTD/svg11.dtd">
<svg version="1.1" id="图层_1" xmlns="http://www.w3.org/2000/svg" xmlns:xlink="http://www.w3.org/1999/xlink" x="0px" y="0px"
	 width="1279.31px" height="800.337px" viewBox="0 0 1279.31 800.337" enable-background="new 0 0 1279.31 800.337"
	 xml:space="preserve">
<path fill="#606060" d="M-5459.562-200.888"/>
<path fill="#606060" d="M7482.176-200.888"/>
<g opacity="0.5">
	<g>
		<defs>
			<rect id="SVGID_1_" x="29.26" y="320.847" width="345.6" height="0.75"/>
		</defs>
		<clipPath id="SVGID_2_">
			<use xlink:href="#SVGID_1_"  overflow="visible"/>
		</clipPath>
		
			<line clip-path="url(#SVGID_2_)" fill="none" stroke="#C6C8C8" stroke-width="0.75" stroke-miterlimit="10" x1="29.264" y1="321.217" x2="374.859" y2="321.217"/>
	</g>
</g>
<g opacity="0.5">
	<g>
		<defs>
			<rect id="SVGID_3_" x="29.26" y="320.847" width="345.6" height="0.75"/>
		</defs>
		<clipPath id="SVGID_4_">
			<use xlink:href="#SVGID_3_"  overflow="visible"/>
		</clipPath>
		
			<line clip-path="url(#SVGID_4_)" fill="none" stroke="#C6C8C8" stroke-width="0.75" stroke-miterlimit="10" x1="29.264" y1="321.217" x2="374.859" y2="321.217"/>
	</g>
</g>
<g opacity="0.5">
	<g>
		<defs>
			<rect id="SVGID_5_" x="29.26" y="234.937" width="345.6" height="0.75"/>
		</defs>
		<clipPath id="SVGID_6_">
			<use xlink:href="#SVGID_5_"  overflow="visible"/>
		</clipPath>
		
			<line clip-path="url(#SVGID_6_)" fill="none" stroke="#C6C8C8" stroke-width="0.75" stroke-miterlimit="10" x1="29.264" y1="235.311" x2="374.859" y2="235.311"/>
	</g>
</g>
<path fill="#FFFFFF" d="M361.217,320.871H39.621c-6.627,0-12-5.373-12-12v-61.905c0-6.628,5.373-12,12-12h321.596
	c6.627,0,12,5.372,12,12v61.905C373.217,315.499,367.844,320.871,361.217,320.871"/>
<path fill="none" d="M7490.843-345.998"/>
<path fill="none" d="M-5450.896-345.998"/>
<text transform="matrix(1 0 0 1 113.5107 285.1416)" fill="#585858" font-family="'DroidSansFallback'" font-size="25">Lamp</text>
<path fill="none" stroke="#FFFFFF" stroke-linecap="round" stroke-linejoin="round" stroke-miterlimit="10" d="M72.111,288.746
	c-0.396,0-0.74-0.268-0.838-0.65l-3.631-14.161l-0.057-0.135c-0.052-0.124-0.085-0.203-0.113-0.279
	c-0.42-1.109-0.633-2.279-0.633-3.477c0-5.417,4.407-9.824,9.824-9.824c5.416,0,9.823,4.407,9.823,9.824
	c0,1.308-0.263,2.594-0.781,3.819l-3.776,14.239c-0.101,0.379-0.445,0.644-0.836,0.644H72.111z"/>
<line fill="none" stroke="#FFFFFF" stroke-linecap="round" stroke-linejoin="round" stroke-miterlimit="10" x1="67.632" y1="273.935" x2="85.695" y2="273.935"/>
<line fill="none" stroke="#FFFFFF" stroke-linecap="round" stroke-linejoin="round" stroke-miterlimit="10" x1="73.013" y1="291.852" x2="80.314" y2="291.852"/>
<line fill="none" stroke="#FFFFFF" stroke-linecap="round" stroke-linejoin="round" stroke-miterlimit="10" x1="74.203" y1="295.22" x2="79.125" y2="295.22"/>
<path fill="none" stroke="#B1B0B0" stroke-width="3" stroke-linecap="round" stroke-linejoin="round" stroke-miterlimit="10" d="
	M72.111,288.746c-0.396,0-0.74-0.268-0.838-0.65l-3.631-14.161l-0.057-0.135c-0.052-0.124-0.085-0.203-0.113-0.279
	c-0.42-1.109-0.633-2.279-0.633-3.477c0-5.417,4.407-9.824,9.824-9.824c5.416,0,9.823,4.407,9.823,9.824
	c0,1.308-0.263,2.594-0.781,3.819l-3.776,14.239c-0.101,0.379-0.445,0.644-0.836,0.644H72.111z"/>
<line fill="none" stroke="#B1B0B0" stroke-width="3" stroke-linecap="round" stroke-linejoin="round" stroke-miterlimit="10" x1="67.632" y1="273.935" x2="85.695" y2="273.935"/>
<line fill="none" stroke="#B1B0B0" stroke-width="3" stroke-linecap="round" stroke-linejoin="round" stroke-miterlimit="10" x1="73.013" y1="291.852" x2="80.314" y2="291.852"/>
<line fill="none" stroke="#B1B0B0" stroke-width="3" stroke-linecap="round" stroke-linejoin="round" stroke-miterlimit="10" x1="74.203" y1="295.22" x2="79.125" y2="295.22"/>
</svg>
