<svg xmlns="http://www.w3.org/2000/svg" xmlns:xlink="http://www.w3.org/1999/xlink" width="1280.483" height="800.211" viewBox="0 0 1280.483 800.211"><path fill="#FFF" d="M-.396-.124h1280v800h-1280z"/><text transform="translate(442.754 186.952)" fill="#585858" font-family="'DroidSansFallback'" font-size="36">Give your scene a name</text><g opacity=".5"><defs><path id="a" d="M.879 93.945h1280v1.02H.879z"/></defs><clipPath id="b"><use xlink:href="#a" overflow="visible"/></clipPath><path clip-path="url(#b)" fill="none" stroke="#868A8E" stroke-width="1.023" stroke-miterlimit="10" d="M.877 94.458h1280"/></g><text transform="translate(539.856 372.182)" fill="#585858" font-family="'DroidSansFallback'" font-size="36">Pick an icon</text><defs><filter id="c" filterUnits="userSpaceOnUse" x="134.395" y="405.405" width="1012.963" height="353.34"><feColorMatrix values="1 0 0 0 0 0 1 0 0 0 0 0 1 0 0 0 0 0 1 0"/></filter></defs><mask maskUnits="userSpaceOnUse" x="134.395" y="405.405" width="1012.963" height="353.34" id="g"><g filter="url(#c)"><path d="M134.395 405.405h1012.963v353.336H134.395z"/><g enable-background="new"><defs><path id="d" d="M134.399 405.405h1012.959v353.34H134.399z"/></defs><clipPath id="e"><use xlink:href="#d" overflow="visible"/></clipPath><linearGradient id="f" gradientUnits="userSpaceOnUse" x1="-6162.007" y1="4328.092" x2="-6161.007" y2="4328.092" gradientTransform="matrix(0 332.849 332.849 0 -1439964 2051424.125)"><stop offset="0" stop-color="#070001"/><stop offset=".059" stop-color="#fff"/><stop offset=".833" stop-color="#fff"/><stop offset="1" stop-color="#070001"/></linearGradient><path clip-path="url(#e)" fill="url(#f)" d="M93.308 406.204h1087.723v332.85H93.308z"/></g></g></mask><g mask="url(#g)"><defs><path id="h" d="M134.399 405.405h1012.959v353.34H134.399z"/></defs><clipPath id="i"><use xlink:href="#h" overflow="visible"/></clipPath><path clip-path="url(#i)" fill-rule="evenodd" clip-rule="evenodd" fill="#B4B3B3" d="M897.745 457.201h-7.675c.068-2.62.701-3.947 3.55-4.224a1.099 1.099 0 0 0 .986-1.199 1.108 1.108 0 0 0-1.201-.986c-5.129.498-5.512 4.217-5.542 6.409h-5.494c-5.45 0-9.884 4.435-9.884 9.885v10.981c0 4.793 1.744 7.402 4.941 7.688 3.845.343 6.342-2.101 9.015-4.714 2.792-2.732 4.956-2.354 7.233 0 2.601 2.689 4.826 4.747 9.015 4.714 3.211 0 4.942-2.896 4.942-7.688v-10.981c-.001-5.451-4.437-9.885-9.886-9.885m7.689 20.866c0 4.623-1.657 5.402-2.746 5.492-3.295.274-5.062-1.672-7.459-4.072-1.378-1.373-3.214-2.688-5.171-2.688s-3.794 1.315-5.172 2.69c-2.397 2.396-4.713 4.209-7.459 4.07-1.092-.053-2.745-.869-2.745-5.492v-10.981c0-4.239 3.448-7.688 7.688-7.688h15.376c4.239 0 7.688 3.449 7.688 7.688v10.981zm-19.77-7.688h-2.196v2.197h-2.196v-2.197h-2.197v-2.195h2.197v-2.197h2.196v2.197h2.196v2.195zm8.786-1.097a3.295 3.295 0 1 1 6.59 0 3.295 3.295 0 0 1-6.59 0"/><path clip-path="url(#i)" fill="none" stroke="#B4B3B3" stroke-width="3" stroke-miterlimit="10" d="M500.484 484.774c-1.896 0-4.016-1.506-4.016-3.521v-15.317l-.778.64c-.187.146-.41.225-.646.225-.317 0-.615-.146-.817-.4a1.06 1.06 0 0 1 .177-1.482l15.628-12.354c.621-.491 1.435-.761 2.292-.761.858 0 1.67.27 2.289.761l15.633 12.354a1.052 1.052 0 0 1 .169 1.482 1.053 1.053 0 0 1-.832.399c-.244 0-.479-.08-.662-.226l-.74-.562v15.241c0 2.14-1.188 3.521-3.028 3.521h-24.669z"/><path clip-path="url(#i)" fill="none" stroke="#B4B3B3" stroke-width="3" stroke-miterlimit="10" d="M512.325 475.19c-.652 0-1.413.182-1.413.688v7.018h2.825v-7.018c0-.506-.76-.688-1.412-.688z"/><path clip-path="url(#i)" fill-rule="evenodd" clip-rule="evenodd" fill="#B4B3B3" d="M654.888 451.907a1.296 1.296 0 0 0-1.033-.309l-21.149 2.922a1.3 1.3 0 0 0-1.123 1.289v22.381a4.203 4.203 0 0 1-4.196 4.198 4.204 4.204 0 0 1-4.199-4.198 4.203 4.203 0 0 1 5.832-3.867 1.302 1.302 0 0 0 1.014-2.397 6.765 6.765 0 0 0-2.646-.533c-3.752 0-6.802 3.049-6.802 6.798 0 3.75 3.05 6.801 6.802 6.801 3.748 0 6.799-3.051 6.799-6.801v-13.765l18.547-2.563v13.406a4.203 4.203 0 0 1-4.198 4.198 4.204 4.204 0 0 1-4.197-4.198 4.203 4.203 0 0 1 5.831-3.869 1.3 1.3 0 1 0 1.012-2.396 6.808 6.808 0 0 0-9.445 6.266c0 3.749 3.05 6.8 6.799 6.8s6.8-3.051 6.8-6.8v-22.381a1.315 1.315 0 0 0-.448-.982m-20.703 9.89v-4.854l18.547-2.563v4.855l-18.547 2.562z"/><path clip-path="url(#i)" fill="none" stroke="#B4B3B3" stroke-width="3" stroke-miterlimit="10" d="M269.272 485.288c-6.096 0-7.723-7.445-7.723-11.844 0-2.702 1.45-4.152 2.509-5.212.971-.97 1.612-1.611 1.612-3.038v-10.309a3.603 3.603 0 0 1 3.598-3.598 3.602 3.602 0 0 1 3.598 3.598v10.309c0 1.42.636 2.059 1.599 3.025 1.071 1.07 2.521 2.521 2.521 5.225.003.264.03 6.705-3.22 9.986-1.22 1.233-2.732 1.858-4.494 1.858zm-18.554 0a3.606 3.606 0 0 1-3.602-3.602v-10.309c0-1.42-.637-2.059-1.6-3.026-1.071-1.07-2.521-2.521-2.521-5.22v-8.246a3.603 3.603 0 0 1 3.598-3.598c.742 0 1.461.229 2.063.651 1.214-.849 2.925-.843 4.125 0a3.593 3.593 0 0 1 2.062-.651 3.602 3.602 0 0 1 3.598 3.598v8.246c0 2.694-1.447 4.146-2.503 5.207-.978.977-1.618 1.617-1.618 3.043v10.309a3.611 3.611 0 0 1-3.602 3.598z"/><path clip-path="url(#i)" fill-rule="evenodd" clip-rule="evenodd" fill="#B4B3B3" d="M1028.058 606.954a19.443 19.443 0 0 1-7.089 3.162 19.501 19.501 0 0 1-7.49.191 19.484 19.484 0 0 1-12.68-7.938 19.48 19.48 0 0 1-3.354-14.58 19.476 19.476 0 0 1 2.633-7.014 19.391 19.391 0 0 1 5.306-5.666 19.586 19.586 0 0 1 8.647-3.441l.013-.002c.176-.021 1.741-.186 2.544.941.381.534.477 1.219.27 1.926-.123.426-.32.738-.359.797l-.037.059-.045.053a13.357 13.357 0 0 0-3.118 7.946 13.146 13.146 0 0 0 2.448 8.337 13.154 13.154 0 0 0 7.078 5.042c2.797.819 5.825.697 8.528-.347l.069-.024c.447-.141 1.962-.517 2.709.531.367.517.472 1.192.312 2.01-.094.476-.253.856-.27.897l-.017.037-.018.035a19.587 19.587 0 0 1-6.08 7.048m-21.341-29.971a17.13 17.13 0 0 0-7.004 11.188 17.131 17.131 0 0 0 2.959 12.864c2.672 3.752 6.645 6.24 11.188 7.004s9.111-.287 12.864-2.959a17.058 17.058 0 0 0 5.343-6.172c.04-.104.075-.222.102-.334l-.033.008a15.68 15.68 0 0 1-9.958.392 15.53 15.53 0 0 1-8.304-5.915 15.57 15.57 0 0 1-2.287-4.738 15.512 15.512 0 0 1-.585-5.043 15.682 15.682 0 0 1 3.591-9.24 1.09 1.09 0 0 0 .035-.078 1.29 1.29 0 0 0-.288-.012 17.034 17.034 0 0 0-7.623 3.035m-108.435 2.268h-8.211c.073-2.803.75-4.222 3.798-4.519a1.177 1.177 0 0 0 1.056-1.283c-.064-.646-.64-1.104-1.287-1.055-5.486.533-5.896 4.512-5.929 6.856h-5.877c-5.83 0-10.575 4.745-10.575 10.575v11.75c0 5.128 1.866 7.919 5.288 8.225 4.112.367 6.784-2.246 9.645-5.043 2.987-2.923 5.302-2.519 7.737 0 2.783 2.876 5.163 5.078 9.646 5.043 3.435 0 5.287-3.097 5.287-8.225v-11.75c-.003-5.828-4.748-10.574-10.578-10.574m8.225 22.326c0 4.943-1.771 5.779-2.938 5.875-3.525.294-5.414-1.788-7.98-4.357-1.474-1.469-3.438-2.875-5.531-2.875-2.095 0-4.059 1.406-5.532 2.877-2.566 2.564-5.043 4.504-7.98 4.355-1.168-.057-2.938-.932-2.938-5.875v-11.75c0-4.535 3.689-8.225 8.225-8.225h16.45c4.535 0 8.225 3.689 8.225 8.225v11.75zm-21.15-8.225h-2.351v2.35h-2.35v-2.35h-2.35v-2.351h2.35v-2.351h2.35v2.351h2.351v2.351zm9.4-1.176a3.525 3.525 0 1 1 7.05 0 3.525 3.525 0 0 1-7.05 0m133.301 141.751a19.458 19.458 0 0 1-7.089 3.161 19.462 19.462 0 0 1-7.49.191 19.464 19.464 0 0 1-7.016-2.631 19.427 19.427 0 0 1-5.664-5.307 19.481 19.481 0 0 1-3.354-14.579 19.474 19.474 0 0 1 2.633-7.015 19.388 19.388 0 0 1 5.306-5.665 19.574 19.574 0 0 1 8.647-3.441l.013-.002c.176-.022 1.741-.187 2.544.94.381.535.477 1.219.27 1.927-.123.425-.32.737-.359.797l-.037.058-.045.054a13.354 13.354 0 0 0-3.118 7.946c-.146 3 .702 5.883 2.448 8.336a13.156 13.156 0 0 0 7.078 5.043c2.797.819 5.825.697 8.528-.348l.069-.023c.447-.141 1.962-.518 2.709.531.367.516.472 1.192.312 2.01-.094.476-.253.856-.27.897l-.017.037-.018.035a19.578 19.578 0 0 1-6.08 7.048m-21.341-29.971a17.135 17.135 0 0 0-7.004 11.189c-.765 4.543.287 9.11 2.959 12.863s6.645 6.24 11.188 7.004 9.111-.286 12.864-2.959a17.05 17.05 0 0 0 5.343-6.172c.04-.104.075-.221.102-.334l-.033.009a15.674 15.674 0 0 1-9.958.392 15.53 15.53 0 0 1-8.304-5.916 15.521 15.521 0 0 1-2.872-9.781 15.68 15.68 0 0 1 3.591-9.239.818.818 0 0 0 .035-.079 1.282 1.282 0 0 0-.288-.011 17.021 17.021 0 0 0-7.623 3.034m-216.404 26.843a1.284 1.284 0 0 0-1.807-.258l-1.703 1.283-5.729-7.613a6.34 6.34 0 0 0 .301-8l-10.091-13.433-.018-.018-2.305-3.065a1.3 1.3 0 0 0-1.808-.259l-2.881 2.17-2.882-2.17a1.298 1.298 0 0 0-1.807.259l-2.306 3.065c-.009.009-.018.026-.025.034L747.17 716.21a6.346 6.346 0 0 0 .301 8l-5.729 7.613-1.704-1.283a1.288 1.288 0 0 0-1.806.25 1.293 1.293 0 0 0 .258 1.816l2.735 2.059 2.744 2.066c.232.173.498.258.774.258a1.292 1.292 0 0 0 .773-2.325l-1.712-1.291 5.738-7.613a6.198 6.198 0 0 0 2.667.604 6.306 6.306 0 0 0 5.084-2.534l6.951-9.334 7.011 9.334a6.295 6.295 0 0 0 5.066 2.533c.911 0 1.823-.199 2.676-.604l5.737 7.613-1.711 1.291a1.294 1.294 0 0 0-.259 1.809c.259.336.646.516 1.032.516.275 0 .542-.085.774-.258l2.743-2.066 2.736-2.059a1.277 1.277 0 0 0 .264-1.806m-10.279-10.248a3.74 3.74 0 0 1-1.463 2.48 3.766 3.766 0 0 1-5.257-.748l-7.466-9.938 3.312-4.443a1.288 1.288 0 1 0-2.066-1.541l-2.865 3.841-2.855-3.807a1.28 1.28 0 0 0-1.806-.258 1.29 1.29 0 0 0-.25 1.808l3.312 4.409-7.397 9.93a3.758 3.758 0 0 1-5.257.748 3.738 3.738 0 0 1-1.462-2.48 3.74 3.74 0 0 1 .714-2.78l11.64-15.492 2.589 1.946c.06.052.129.095.198.129l.103.052h.009c.061.034.129.06.189.069.103.033.215.043.318.043.061 0 .129-.01.189-.018a1.28 1.28 0 0 0 .585-.24l.043-.035 2.589-1.946 11.639 15.492c.603.8.853 1.79.715 2.779m118.248-14.326h-8.211c.073-2.803.75-4.223 3.798-4.52a1.176 1.176 0 0 0 1.056-1.283c-.064-.646-.64-1.104-1.287-1.055-5.486.533-5.896 4.512-5.929 6.857h-5.877c-5.83 0-10.575 4.744-10.575 10.574v11.75c0 5.129 1.866 7.92 5.288 8.225 4.112.367 6.784-2.246 9.645-5.043 2.987-2.922 5.302-2.518 7.737 0 2.783 2.877 5.163 5.078 9.646 5.043 3.435 0 5.287-3.096 5.287-8.225v-11.75c-.003-5.829-4.748-10.573-10.578-10.573m8.225 22.324c0 4.944-1.771 5.779-2.938 5.875-3.525.295-5.414-1.787-7.98-4.356-1.474-1.47-3.438-2.876-5.531-2.876-2.095 0-4.059 1.406-5.532 2.878-2.566 2.563-5.043 4.503-7.98 4.354-1.168-.056-2.938-.931-2.938-5.875v-11.75c0-4.535 3.689-8.225 8.225-8.225h16.45c4.535 0 8.225 3.689 8.225 8.225v11.75zm-21.15-8.224h-2.351v2.35h-2.35v-2.35h-2.35v-2.35h2.35v-2.351h2.35v2.351h2.351v2.35zm9.4-1.176a3.525 3.525 0 1 1 7.05.002 3.525 3.525 0 0 1-7.05-.002m-394.274 15.424c-1.895 0-4.015-1.506-4.015-3.521v-15.318l-.778.641a1.04 1.04 0 0 1-1.462-.174 1.06 1.06 0 0 1 .175-1.483l15.629-12.355c.621-.489 1.435-.76 2.293-.76.856 0 1.669.271 2.289.76l15.632 12.355a1.055 1.055 0 0 1-.662 1.882c-.245 0-.48-.08-.663-.227l-.74-.561v15.24c0 2.139-1.188 3.521-3.027 3.521h-24.671zm11.842-11.926c2.42 0 3.521 1.451 3.521 2.799v6.844l.045.072v.178l.158-.076h9.104c.609 0 .918-.476.918-1.412v-16.918l-12.793-10.119c-.248-.195-.604-.306-.977-.306s-.729.112-.976.306l-12.748 10.062v16.976c0 .713 1.092 1.412 1.905 1.412h8.352v-.251l-.032-.038v-6.729c.001-1.349 1.103-2.8 3.523-2.8m0 2.11c-.652 0-1.413.181-1.413.688v7.018h2.825v-7.018c0-.507-.76-.688-1.412-.688"/><path clip-path="url(#i)" fill-rule="evenodd" clip-rule="evenodd" fill="#B4B3B3" d="M500.483 734.573c-1.895 0-4.015-1.506-4.015-3.521v-15.318l-.778.641a1.04 1.04 0 0 1-1.462-.174 1.06 1.06 0 0 1 .175-1.483l15.629-12.355c.621-.489 1.435-.76 2.293-.76.856 0 1.669.271 2.289.76l15.632 12.355a1.055 1.055 0 0 1-.662 1.882c-.245 0-.48-.08-.663-.227l-.74-.561v15.24c0 2.139-1.188 3.521-3.027 3.521h-24.671zm11.842-11.926c2.42 0 3.521 1.451 3.521 2.799v6.844l.045.072v.178l.158-.076h9.104c.609 0 .918-.476.918-1.412v-16.918l-12.793-10.119c-.248-.195-.604-.306-.977-.306s-.729.112-.976.306l-12.748 10.062v16.976c0 .713 1.092 1.412 1.905 1.412h8.352v-.251l-.032-.038v-6.729c.001-1.349 1.103-2.8 3.523-2.8m0 2.11c-.652 0-1.413.181-1.413.688v7.018h2.825v-7.018c0-.507-.76-.688-1.412-.688m141.172-21.707a1.187 1.187 0 0 0-.948-.283l-19.412 2.683a1.193 1.193 0 0 0-1.03 1.184v20.543a3.86 3.86 0 0 1-3.854 3.854 3.86 3.86 0 0 1-3.854-3.854 3.857 3.857 0 0 1 5.354-3.551 1.194 1.194 0 1 0 .929-2.199 6.248 6.248 0 0 0-8.672 5.75c0 3.441 2.801 6.24 6.242 6.24s6.241-2.799 6.241-6.24v-12.635l17.024-2.353v12.304a3.858 3.858 0 0 1-3.854 3.854 3.86 3.86 0 0 1-3.854-3.854 3.859 3.859 0 0 1 5.354-3.549 1.192 1.192 0 0 0 1.562-.638 1.19 1.19 0 0 0-.635-1.563 6.248 6.248 0 0 0-8.669 5.75c0 3.442 2.8 6.242 6.241 6.242s6.241-2.8 6.241-6.242V703.95a1.183 1.183 0 0 0-.406-.9m-19.003 9.079v-4.456l17.024-2.353v4.457l-17.024 2.352zm-232.116 21.504a.46.46 0 0 1-.458-.461v-2.545h-31.54v2.545a.46.46 0 0 1-.458.461h-4.085a.459.459 0 0 1-.457-.461v-6.805c0-2.201.363-4.136 1.08-5.752a9.504 9.504 0 0 1 1.152-1.951l.029-.039v-14.303c0-1 .747-1.783 1.7-1.783h33.667c.902 0 1.664.816 1.664 1.783v14.26l.031.039a9.59 9.59 0 0 1 1.17 1.996c.704 1.612 1.061 3.547 1.061 5.75l-.014 6.807a.46.46 0 0 1-.458.459h-4.084zm.523-4.713a.46.46 0 0 1 .457.461v2.676h1.733l.013-5.23h-37.83v5.23h1.603v-2.676a.46.46 0 0 1 .458-.461h33.566zM374.268 717c-1.832.207-3.159.668-4.567 2.41-.021.025-2.264 2.811-2.264 5.709v.148h37.508l-.023-.17c-.505-3.436-1.021-4.506-3.068-6.36-.691-.626-1.703-1.543-3.904-1.737-.096-.004-8.826-.328-11.939-.328l-11.743.328zm23.163-6.444c2.445 0 3.443 1.004 3.443 3.465v2.658l.074.042c.158.09.367.186.589.287.372.17.796.363 1.042.566l.394.34.001-12.523c0-.391-.279-.795-.749-.795h-31.969c-.461 0-.784.326-.784.795v12.124h.324l.037-.026c.234-.158.594-.312.91-.447.242-.103.467-.199.623-.289l.076-.041v-2.69c0-2.526.879-3.465 3.246-3.465h8.459c1.439 0 2.358.345 2.89 1.085l.12.167.121-.167c.53-.74 1.449-1.085 2.89-1.085h8.263zm-7.938 1.557c-1.852 0-2.551.188-2.551 2.185v.65h9.838c.759 0 1.701.194 2.584.534l.201.078v-1.231c0-2.024-.692-2.216-2.526-2.216h-7.546zm-14.478 0c-1.927 0-2.266.341-2.266 2.281v1.126l.201-.079c1.019-.397 1.675-.56 2.267-.56h10.091v-.519c0-1.94-.591-2.25-2.488-2.25h-7.805z"/><path clip-path="url(#i)" fill="#B4B3B3" d="M270.996 738.245c-7.229 0-9.157-8.827-9.157-14.043 0-3.205 1.719-4.926 2.975-6.182 1.151-1.15 1.911-1.91 1.911-3.602v-12.223a4.27 4.27 0 0 1 4.266-4.267 4.27 4.27 0 0 1 4.266 4.267v12.223c0 1.684.755 2.441 1.897 3.588 1.27 1.27 2.989 2.988 2.989 6.195.004.312.035 7.949-3.818 11.841-1.447 1.461-3.239 2.203-5.329 2.203m-.005-37.998a1.95 1.95 0 0 0-1.948 1.949v12.223c0 2.652-1.317 3.968-2.59 5.24-1.181 1.182-2.296 2.298-2.296 4.543 0 .479.077 11.726 6.839 11.726 1.468 0 2.672-.496 3.682-1.515 2.639-2.666 3.167-8.268 3.148-10.2 0-2.257-1.116-3.372-2.297-4.554-1.282-1.286-2.59-2.6-2.59-5.24v-12.223a1.95 1.95 0 0 0-1.948-1.949m-21.996 37.998a4.276 4.276 0 0 1-4.271-4.271V721.75c0-1.684-.755-2.441-1.897-3.588-1.271-1.27-2.989-2.99-2.989-6.189v-9.777a4.27 4.27 0 0 1 4.266-4.267c.88 0 1.733.271 2.447.772 1.439-1.006 3.467-1 4.891 0a4.26 4.26 0 0 1 2.445-.772 4.27 4.27 0 0 1 4.266 4.267v9.777c0 3.193-1.715 4.915-2.968 6.172-1.159 1.159-1.919 1.92-1.919 3.61v12.224a4.28 4.28 0 0 1-4.271 4.266m-4.891-37.998a1.95 1.95 0 0 0-1.948 1.949v9.777c0 2.239 1.115 3.355 2.296 4.536 1.282 1.287 2.59 2.601 2.59 5.241v12.224c0 1.076.876 1.953 1.953 1.953a1.957 1.957 0 0 0 1.953-1.952v-12.22c0-2.651 1.316-3.967 2.59-5.24 1.184-1.188 2.297-2.306 2.297-4.542v-9.777a1.95 1.95 0 0 0-1.948-1.949c-.477 0-.94.178-1.303.501l-1.143 1.022-1.145-1.023c-.717-.645-1.875-.647-2.603.001l-1.143 1.022-1.145-1.023a1.94 1.94 0 0 0-1.301-.5"/><g opacity=".5" clip-path="url(#i)"><defs><path id="j" d="M134.399 405.405h1012.959v353.34H134.399z"/></defs><clipPath id="k"><use xlink:href="#j" overflow="visible"/></clipPath><path clip-path="url(#k)" fill="none" stroke="#C6C8C7" stroke-width=".454" stroke-miterlimit="10" d="M134.395 528.394h1012.963M134.395 651.381h1012.963M574.446 758.739V405.405M448.28 758.74V405.406M322.114 758.741V405.407M195.947 758.741V405.407M700.23 758.739V405.405m125.785 353.334V405.405m125.784 353.334V405.405m125.784 353.334V405.405"/></g><path clip-path="url(#i)" fill-rule="evenodd" clip-rule="evenodd" fill="#B4B3B3" d="M786.456 479.552a1.138 1.138 0 0 0-1.602-.229l-1.509 1.138-5.077-6.745a5.625 5.625 0 0 0 .268-7.089l-8.941-11.903-.015-.015-2.043-2.716a1.15 1.15 0 0 0-1.602-.229l-2.553 1.923-2.554-1.923a1.15 1.15 0 0 0-1.601.229l-2.043 2.716c-.008.008-.015.022-.022.03l-8.934 11.888a5.62 5.62 0 0 0 .267 7.089l-5.076 6.745-1.509-1.138a1.144 1.144 0 1 0-1.373 1.832l2.424 1.824 2.431 1.83c.206.153.442.229.687.229.343 0 .686-.16.915-.458a1.146 1.146 0 0 0-.229-1.602l-1.517-1.146 5.085-6.745a5.47 5.47 0 0 0 2.362.534 5.58 5.58 0 0 0 4.504-2.243l6.16-8.271 6.211 8.271a5.578 5.578 0 0 0 4.49 2.243c.809 0 1.616-.175 2.37-.534l5.084 6.745-1.514 1.147a1.145 1.145 0 0 0 1.372 1.831l2.432-1.83 2.424-1.824a1.143 1.143 0 0 0 .228-1.604m-9.109-9.08a3.317 3.317 0 0 1-1.296 2.198 3.336 3.336 0 0 1-4.657-.664l-6.615-8.805 2.934-3.938a1.143 1.143 0 0 0-1.83-1.367l-2.538 3.404-2.531-3.373a1.135 1.135 0 0 0-1.601-.229 1.143 1.143 0 0 0-.22 1.603l2.934 3.906-6.555 8.798a3.313 3.313 0 0 1-2.195 1.297 3.32 3.32 0 0 1-3.758-2.831 3.317 3.317 0 0 1 .632-2.464l10.313-13.727 2.295 1.724a.797.797 0 0 0 .175.114l.092.046h.007c.053.03.114.054.168.062.092.03.19.037.282.037.053 0 .114-.007.168-.015a1.13 1.13 0 0 0 .519-.214l.037-.03 2.295-1.724 10.312 13.727c.534.71.755 1.588.633 2.465m2.228 126.158v8.034c0 .83-.68 1.511-1.521 1.511h-29.342a1.526 1.526 0 0 1-1.531-1.511v-8.034c-.733-.248-1.446-.636-2.051-1.263a5.028 5.028 0 0 1-1.498-3.59v-2.513c0-2.782 2.319-5.112 5.101-5.112h9.835v-4.422c0-.494.41-.904.907-.904h3.018v-.626c-1.423-1.143-2.351-2.77-2.351-4.614 0-2.007 1.1-3.753 2.719-4.863a.922.922 0 0 1 1.045 0l.012.011h.022c1.595 1.121 2.694 2.868 2.694 4.853 0 1.834-.938 3.45-2.328 4.594v.647h2.976c.507 0 .928.41.928.904v4.421h9.835c2.782 0 5.09 2.33 5.09 5.112v2.513a5.038 5.038 0 0 1-1.51 3.59 4.768 4.768 0 0 1-2.05 1.262m-17.083-22.192c0-.508.411-.918.896-.918.507 0 .917.41.917.918v1.014l.021-.032c.302-.55.476-1.166.476-1.834 0-1.165-.562-2.222-1.413-2.978-.863.778-1.435 1.812-1.435 2.978 0 .668.172 1.284.496 1.834v.011l.042.053v-1.046zm-2.092 9.715h5.975v-3.515H760.4v3.515zm-11.688 9.695h.149a4.052 4.052 0 0 0 1.856-.441c.604-.336 1.142-.82 1.682-1.424 3.279-3.73 5.24-2.016 7.559.012 1.016.894 2.125 1.854 3.431 1.854.69 0 1.348-.141 1.952-.419a7.104 7.104 0 0 0 1.682-1.155l.087-.076c.776-.722 2.242-1.357 3.752-1.357 1.187 0 2.394.365 3.397 1.314l.097.086c.216.228.475.453.733.604v.043c.236.151.518.323.84.476.281.15.605.258.973.344.884.238 1.875.238 2.588-.484a2.1 2.1 0 0 0 .604-1.445v-2.513c0-1.11-.949-2.048-2.049-2.048h-29.312c-1.122 0-2.07.938-2.07 2.048v2.513c0 .551.237 1.067.615 1.445.399.397.915.569 1.434.623m1.51 2.901v6.396h26.312v-6.416l-.366-.065c-.562-.129-1.079-.344-1.575-.582h-.021a9.074 9.074 0 0 1-2.35-1.682l-.077-.064a1.912 1.912 0 0 0-1.283-.477c-.711 0-1.38.281-1.704.584l-.097.086c-.765.668-1.597 1.25-2.492 1.66a7.59 7.59 0 0 1-3.18.701c-2.427 0-4.001-1.369-5.402-2.62-1.101-.938-2.028-1.758-3.3-.28-.776.873-1.598 1.584-2.568 2.082a6.654 6.654 0 0 1-1.897.677m-120.125-.816a.812.812 0 0 1-.801-.821c0-.449.354-.803.801-.803h16.653c.458 0 .801.354.801.803a.805.805 0 0 1-.801.821h-16.653zm-4.812-9.453l.669-.192.936-4.047-2.654.821 1.049 3.418zm2.444-.745l4.183-1.26.935-4.049-4.182 1.279-.936 4.03zm5.958-1.815l4.184-1.27.935-4.039-4.182 1.279-.937 4.03zm5.959-1.814l4.183-1.279.935-4.037-4.181 1.277-.937 4.039zm5.958-1.813l3.951-1.215-1.06-3.436-1.956.611-.935 4.04zm6.015.974l-21.483 6.53h22.306c.763 0 1.354.611 1.354 1.355v17.131a1.34 1.34 0 0 1-1.354 1.345h-28.044a1.351 1.351 0 0 1-1.347-1.345v-17.131c0-.189.029-.343.114-.507l-.038-.103-1.833-5.998c-.21-.706.172-1.46.879-1.67l26.83-8.184a1.33 1.33 0 0 1 1.68.889l1.834 6.006a1.365 1.365 0 0 1-.898 1.682m-.515 9.233h-25.36v14.437h25.36V590.5zm-21.007 10.625a.8.8 0 0 1-.801-.801c0-.449.354-.821.801-.821h16.653c.458 0 .801.372.801.821a.793.793 0 0 1-.801.801h-16.653zm-128.928-3.881a.815.815 0 0 1 0-1.146.788.788 0 0 1 1.146.009l3.055 3.046a.839.839 0 0 1 0 1.137c-.324.297-.85.297-1.146-.009l-3.055-3.037zm-2.921-6.99a8.646 8.646 0 0 1 2.73-.803c.324-.037.611-.162.841-.324.219-.152.409-.4.534-.688.983-2.215 3.065-3.857 5.566-3.962 1.222-.058 2.492.249 3.714.831l7.428-7.428v-.326c0-.4.172-.764.458-1.012l3.505-3.513c.268-.258.62-.401.955-.401h1.25c.393 0 .765.19 1.004.478l2.186 2.176c.267.269.4.611.392.956h.009v1.24c0 .402-.172.773-.468 1.021l-3.504 3.504c-.267.287-.648.41-1.012.394h-.267l-7.42 7.418c.584 1.241.889 2.491.83 3.724-.094 2.502-1.746 4.582-3.961 5.566a1.617 1.617 0 0 0-.688.533c-.162.23-.286.527-.315.842a8.784 8.784 0 0 1-.811 2.73c-1.433 2.95-4.46 4.916-7.888 4.307-4.153-.764-8.612-5.225-9.377-9.377-.618-3.417 1.358-6.452 4.309-7.886m1.164 2.416c-1.871.906-3.228 2.808-2.826 4.994.544 3.026 4.182 6.664 7.208 7.209 2.206.4 4.097-.955 4.995-2.818.286-.61.477-1.26.562-1.908.105-.793.382-1.51.812-2.102a4.549 4.549 0 0 1 1.777-1.394c1.269-.573 2.311-1.757 2.366-3.228.029-.963-.305-2.033-.917-3.074a1.34 1.34 0 0 1 .153-1.729l8.517-8.517a1.38 1.38 0 0 1 .955-.392h.315l2.797-2.787v-.135l-1.46-1.461h-.125l-2.796 2.779v.343c0 .345-.125.688-.394.946l-8.517 8.516a1.353 1.353 0 0 1-1.642.201c-1.069-.641-2.157-.992-3.15-.954-1.461.048-2.663 1.107-3.229 2.378a4.562 4.562 0 0 1-1.402 1.756c-.583.43-1.309.707-2.102.812a7.239 7.239 0 0 0-1.897.565m9.528-3.113a2.963 2.963 0 0 1 2.961 2.961 2.964 2.964 0 0 1-2.961 2.969 2.97 2.97 0 0 1-2.959-2.969 2.97 2.97 0 0 1 2.959-2.961m-1.336 2.961c0 .734.592 1.346 1.336 1.346a1.347 1.347 0 1 0 0-2.694c-.744 0-1.336.612-1.336 1.348m-135.111-7.672h21.045c.877 0 1.599.697 1.646 1.598h1.361c1.477 0 2.813.592 3.808 1.562a5.324 5.324 0 0 1 1.549 3.785 5.39 5.39 0 0 1-1.549 3.809 5.431 5.431 0 0 1-3.808 1.562h-2.107a10.723 10.723 0 0 1-2.473 3.715v.024c-1.975 1.963-4.719 3.216-7.725 3.216h-2.449c-3.017 0-5.736-1.253-7.726-3.216-1.987-1.989-3.241-4.732-3.241-7.75v-6.625c.001-.91.745-1.68 1.669-1.68m9.334-2.26c.2.521-.022 1.1-.531 1.325a1.015 1.015 0 0 1-1.291-.545 10.555 10.555 0 0 1-.615-1.986 9.498 9.498 0 0 1-.212-2.083c0-.686.058-1.371.212-2.07a9.12 9.12 0 0 1 .615-1.988c.214-.508.781-.721 1.291-.531.509.225.731.805.531 1.312a8.928 8.928 0 0 0-.496 1.621 8.497 8.497 0 0 0 0 3.338 9.03 9.03 0 0 0 .496 1.607m-3.373 0c-.199-.509-.389-1.053-.482-1.607-.131-.522-.178-1.09-.178-1.682s.047-1.158.178-1.656c.094-.567.283-1.111.482-1.621.262-.627.476-1.301.629-1.998.117-.688.201-1.373.201-2.06a12.4 12.4 0 0 0-.201-2.081 11.529 11.529 0 0 0-.629-1.988c-.199-.521-.791-.733-1.289-.545-.52.225-.758.817-.543 1.326.213.497.391 1.041.496 1.608.106.521.154 1.065.154 1.68 0 .591-.048 1.159-.154 1.681a8.223 8.223 0 0 1-.496 1.596 9.827 9.827 0 0 0-.616 1.988 10.29 10.29 0 0 0 0 4.153 9.77 9.77 0 0 0 .616 1.986c.213.497.804.735 1.301.545.509-.225.746-.803.531-1.325m16.731 5.844v4.721c0 .699-.048 1.361-.178 2.023h1.539c.921 0 1.762-.391 2.388-.994.615-.592.983-1.443.983-2.389 0-.924-.368-1.764-.983-2.368a3.405 3.405 0 0 0-2.388-.993h-1.361zm-25.755 19.024c-.544 0-1.019-.462-1.019-1.005 0-.556.475-1.007 1.019-1.007h27.173c.545 0 1.006.451 1.006 1.007a1.02 1.02 0 0 1-1.006 1.005H369.43zm22.429-19.26h-17.698v4.957a7.64 7.64 0 0 0 2.236 5.383c1.396 1.385 3.3 2.248 5.395 2.248h2.449c2.094 0 3.997-.863 5.395-2.248a7.61 7.61 0 0 0 2.224-5.383v-4.957zm-125.633 1.998h-5.831V580.3c0-.69-.547-1.237-1.237-1.237-.689 0-1.236.547-1.236 1.237v11.147c0 .688.547 1.244 1.236 1.244h7.068c.679 0 1.236-.556 1.236-1.244a1.25 1.25 0 0 0-1.236-1.255m4.38-10.183a16.158 16.158 0 0 0-11.448-4.735 16.053 16.053 0 0 0-11.43 4.735l-.017.007a16.165 16.165 0 0 0-4.734 11.432c0 4.469 1.819 8.514 4.734 11.438h.017a16.065 16.065 0 0 0 11.43 4.743c4.452 0 8.48-1.803 11.412-4.717l.019-.026h.017c2.915-2.942 4.735-6.978 4.735-11.438 0-4.435-1.785-8.445-4.682-11.361l-.053-.078zm-1.776 21.118a13.617 13.617 0 0 1-9.672 4.011 13.61 13.61 0 0 1-9.68-4.002v-.009a13.62 13.62 0 0 1-4.01-9.68c0-3.781 1.519-7.209 4.01-9.682a13.659 13.659 0 0 1 9.68-4.011 13.62 13.62 0 0 1 9.672 4.011l.062.062a13.65 13.65 0 0 1 3.949 9.619c0 3.781-1.528 7.209-4.011 9.681m7.173-21.041a19.975 19.975 0 0 0-1.175-1.561c-.424-.521-.866-1-1.307-1.459a24.65 24.65 0 0 0-1.449-1.299c-.521-.424-1.024-.82-1.554-1.156a13.59 13.59 0 0 0-1.688-1.035 21.472 21.472 0 0 0-1.757-.846 1.247 1.247 0 0 0-1.635.652 1.261 1.261 0 0 0 .655 1.635c.521.211 1.024.459 1.563.741.503.284 1.007.584 1.466.901.495.328.946.672 1.369 1.015v.01c.433.354.866.741 1.273 1.166.423.425.82.83 1.156 1.254.345.425.689.875 1.016 1.37.389.573 1.175.732 1.74.344a1.264 1.264 0 0 0 .327-1.732m-31.631 1.397c.319-.494.663-.953 1.025-1.378.328-.405.716-.829 1.149-1.254.423-.425.847-.821 1.254-1.166.432-.335.892-.696 1.396-1.024.476-.326.962-.617 1.466-.901l.071-.035c.476-.265.988-.495 1.483-.706.618-.283.918-.999.653-1.626a1.244 1.244 0 0 0-1.624-.661 19.23 19.23 0 0 0-1.697.82l-.061.018a17.88 17.88 0 0 0-1.696 1.043c-.521.336-1.043.732-1.563 1.156a19.7 19.7 0 0 0-1.431 1.299c-.441.459-.882.938-1.325 1.467a20.758 20.758 0 0 0-1.166 1.553 1.252 1.252 0 0 0 .336 1.732c.564.388 1.342.228 1.73-.337m138.863-119.796a3.927 3.927 0 0 0-1.164-2.789 3.967 3.967 0 0 0-2.801-1.173 3.917 3.917 0 0 0-2.749 1.133l-.04.04a3.94 3.94 0 0 0-1.174 2.789c0 1.095.452 2.087 1.174 2.801a3.94 3.94 0 0 0 2.789 1.173 3.967 3.967 0 0 0 2.801-1.173 3.92 3.92 0 0 0 1.164-2.801m-2.359 1.606c-.4.42-.982.662-1.605.662a2.201 2.201 0 0 1-1.585-.652l-.021-.01h.021a2.226 2.226 0 0 1-.671-1.606c0-.621.251-1.204.671-1.584l.021-.041a2.286 2.286 0 0 1 1.564-.632c.623 0 1.205.24 1.605.673.402.38.662.963.662 1.584a2.29 2.29 0 0 1-.662 1.606m11.217.01c-.701.701-1.162 1.705-1.162 2.799s.461 2.087 1.162 2.8a3.976 3.976 0 0 0 2.811 1.153 3.933 3.933 0 0 0 2.789-1.153c.723-.713 1.162-1.706 1.162-2.8s-.439-2.098-1.162-2.799a3.896 3.896 0 0 0-2.789-1.163c-1.105 0-2.09.441-2.811 1.163m5.056 2.799c0 .623-.24 1.204-.652 1.596-.41.422-.973.661-1.594.661-.623 0-1.205-.239-1.605-.661a2.218 2.218 0 0 1-.673-1.596c0-.633.261-1.184.673-1.614a2.29 2.29 0 0 1 1.605-.663c.621 0 1.184.262 1.594.663.412.43.652.981.652 1.614m-13.924 6.181c-2.147 0-3.893 1.765-3.893 3.894 0 2.127 1.745 3.893 3.893 3.893 2.127 0 3.872-1.766 3.872-3.893 0-2.13-1.745-3.894-3.872-3.894m0 4.945a1.063 1.063 0 0 1-1.065-1.052c0-.584.483-1.055 1.065-1.055s1.043.471 1.043 1.055c0 .58-.482 1.052-1.043 1.052m15.719-20.235c-2.959-3.392-7.111-5.67-11.888-6.141-2.909-.251-5.91.242-8.649 1.374-2.748 1.153-5.236 2.909-7.102 5.147a18.988 18.988 0 0 0-4.234 9.973 17.958 17.958 0 0 0 2.017 10.424 16.257 16.257 0 0 0 3.382 4.345c1.423 1.306 2.989 2.267 4.495 2.839a13.03 13.03 0 0 0 3.831.803c1.847.132 3.754-.15 5.388-.893 1.736-.793 3.14-2.097 3.862-4.023.281-.702.432-1.475.492-2.348.07-1.134.271-1.816.531-2.207.12-.182.301-.261.522-.271.742-.04 1.886.423 3.069.902l.764.301.061.011c3.271 1.265 5.357.803 6.701-.853 1.163-1.444 1.535-3.731 1.535-6.5.001-4.917-1.775-9.461-4.777-12.883M400 474.6c-.522.652-1.606.742-3.503 0l-.049-.02-.724-.271c-1.485-.611-2.95-1.184-4.333-1.114-1.045.052-1.967.503-2.648 1.495-.543.822-.924 1.947-1.024 3.613a4.964 4.964 0 0 1-.312 1.544c-.431 1.163-1.314 1.956-2.396 2.448-1.186.541-2.609.732-4.054.642a11.193 11.193 0 0 1-3.011-.631c-1.184-.442-2.427-1.226-3.582-2.259a15.135 15.135 0 0 1-2.799-3.61c-1.494-2.779-2.006-5.851-1.685-8.8.34-3.09 1.595-6.069 3.592-8.438 1.584-1.905 3.692-3.399 5.999-4.364 2.328-.963 4.876-1.383 7.324-1.164 4.033.392 7.525 2.318 10.033 5.168 2.548 2.93 4.063 6.822 4.063 11.037.002 2.157-.209 3.871-.891 4.724m-7.315-15.09a3.931 3.931 0 0 0-1.152-2.779 3.953 3.953 0 0 0-2.811-1.174 3.943 3.943 0 0 0-2.799 1.174c-.723.703-1.154 1.686-1.154 2.779s.432 2.087 1.154 2.81a3.966 3.966 0 0 0 2.799 1.153c1.104 0 2.087-.44 2.811-1.153a4.046 4.046 0 0 0 1.152-2.81m-2.358 1.608c-.4.409-.963.67-1.605.67a2.304 2.304 0 0 1-1.605-.67 2.312 2.312 0 0 1-.641-1.607c0-.612.241-1.193.641-1.596.422-.41.984-.662 1.605-.662.643 0 1.205.252 1.605.662.412.402.673.983.673 1.596 0 .631-.261 1.184-.673 1.607m-15.049 4.763a4.045 4.045 0 0 0-2.75 1.104l-.049.061a3.923 3.923 0 0 0-1.154 2.801c0 1.092.432 2.085 1.154 2.808a3.969 3.969 0 0 0 2.799 1.153 3.98 3.98 0 0 0 2.81-1.153 3.96 3.96 0 0 0 1.163-2.808 3.935 3.935 0 0 0-1.163-2.801c-.724-.704-1.707-1.165-2.81-1.165m1.606 5.569a2.26 2.26 0 0 1-1.605.672 2.224 2.224 0 0 1-1.596-.672h-.02.02a2.258 2.258 0 0 1-.673-1.604c0-.614.262-1.195.673-1.596l.03-.062c.401-.36.963-.603 1.565-.603.623 0 1.203.252 1.605.664.411.4.65.981.65 1.596a2.234 2.234 0 0 1-.649 1.605m631.699 11.684c0-4.114-2.169-5.766-4.421-7.47-2.914-2.215-5.927-4.51-5.927-10.878v-14.123c0-.699.574-1.265 1.273-1.265.313 0 .609.125.844.322l8.5 6.385a26.952 26.952 0 0 1 2.557-.51 23.192 23.192 0 0 1 3.271-.234c1.113 0 2.226.082 3.282.234.862.135 1.724.295 2.548.51l8.608-6.457a1.253 1.253 0 0 1 1.758.27c.17.216.25.477.25.745h.021v14.123c0 6.368-3.032 8.663-5.938 10.878-2.242 1.704-4.412 3.355-4.412 7.47 0 .709-.563 1.265-1.255 1.265h-9.702a1.25 1.25 0 0 1-1.257-1.265m11.436-19.405c.384.224.617.646.617 1.121 0 .727-.601 1.346-1.344 1.346-.378 0-.71-.153-.952-.404a3.507 3.507 0 0 0-.089 1.874 3.556 3.556 0 0 0 1.973.907c1.631.214 3.229-.691 3.855-2.217.27-.664.341-1.424.18-2.151a3.642 3.642 0 0 0-4.24-.476m-13.803-.215a1.348 1.348 0 0 1 1.291 1.336 1.36 1.36 0 0 1-1.344 1.346c-.431 0-.809-.215-1.059-.53.035.242.106.476.196.69.628 1.525 2.225 2.431 3.856 2.217.718-.082 1.408-.414 1.956-.897a3.693 3.693 0 0 0-.181-2.161 3.634 3.634 0 0 0-3.854-2.216 2.95 2.95 0 0 0-.861.215m8.627 8.24l.467-.681c.054-.081-.035-.144-.125-.144h-.95c-.072 0-.181.062-.126.144h.018l.465.681.02.01c.051.035.177.055.231-.01m1.058 1.077c.269.117.574.18.879.18.557 0 1.103-.215 1.523-.627a.763.763 0 0 1 1.076 0 .743.743 0 0 1 0 1.075 3.703 3.703 0 0 1-2.6 1.076 3.728 3.728 0 0 1-2.072-.638 3.668 3.668 0 0 1-2.053.638c-.96 0-1.901-.368-2.619-1.076a.762.762 0 0 1 1.077-1.075 2.17 2.17 0 0 0 1.542.627c.287 0 .591-.045.878-.18-.054-.053-.089-.098-.135-.152l-.044-.062-.484-.664a1.83 1.83 0 0 1-.287-.798v-.036a1.579 1.579 0 0 1 .198-.853c.143-.277.358-.483.608-.627a1.86 1.86 0 0 1 .845-.234h.95c.285 0 .547.082.789.197l.053.037c.27.144.467.35.619.627.144.242.207.547.188.825v.027a1.546 1.546 0 0 1-.288.834l-.466.664c-.07.08-.114.152-.177.215m1.139-7.899a5.196 5.196 0 0 1 2.188-2.494c2-1.166 4.582-.834 6.216.808a.708.708 0 0 1 .224.366 5.095 5.095 0 0 1-.207 3.328c-.888 2.152-3.138 3.461-5.441 3.138a5.214 5.214 0 0 1-2.961-1.452.92.92 0 0 1-.224-.359 5.231 5.231 0 0 1 .205-3.335m-4.708 0c.421 1.049.521 2.223.198 3.334a.817.817 0 0 1-.225.359 5.05 5.05 0 0 1-2.951 1.452c-2.295.323-4.572-.985-5.451-3.138a5.276 5.276 0 0 1-.206-3.328.924.924 0 0 1 .223-.366c.808-.808 1.866-1.329 2.96-1.454a5.138 5.138 0 0 1 5.452 3.141m-6.653 8.725c2.528 1.919 4.985 3.793 5.371 8.214h7.273c.394-4.421 2.843-6.295 5.361-8.214 2.422-1.838 4.914-3.723 4.914-8.87v-11.595l-7.029 5.265a1.228 1.228 0 0 1-1.148.251 19.483 19.483 0 0 0-2.814-.609 24.527 24.527 0 0 0-2.926-.216c-.968.017-1.944.081-2.923.216-.95.135-1.883.34-2.798.609v-.018c-.377.117-.789.07-1.111-.18l-7.084-5.318v11.595c0 5.147 2.5 7.032 4.914 8.87"/></g><path fill="none" stroke="#B2B1B2" stroke-miterlimit="10" d="M69.337 60.858l-10.359-10.17a.95.95 0 0 1 .002-1.365l10.359-10.106"/><path fill="none" stroke="#585858" stroke-width="3" stroke-linecap="round" stroke-linejoin="round" stroke-miterlimit="10" d="M69.337 60.858l-10.359-10.17a.95.95 0 0 1 .002-1.365l10.359-10.106m-8.325 10.791h30.152"/><text transform="translate(141.361 58.065)" fill="#585858" font-family="'DroidSansFallback'" font-size="27">Scenes</text><path fill="#FFF" d="M953.819 509.79l5 8"/><path fill="none" stroke="#FF9012" stroke-width="2" stroke-miterlimit="10" d="M373.356 270.14v-36"/><g opacity=".5"><defs><path id="l" d="M880.489 243.215h18.119v18.12h-18.119z"/></defs><clipPath id="m"><use xlink:href="#l" overflow="visible"/></clipPath><g opacity=".5" clip-path="url(#m)"><defs><path id="n" d="M881.199 243.915h16.7v16.71h-16.7z"/></defs><clipPath id="o"><use xlink:href="#n" overflow="visible"/></clipPath><path clip-path="url(#o)" fill="none" stroke="#A9A7A7" stroke-miterlimit="10" d="M881.55 260.271l15.998-15.998"/></g><g opacity=".5" clip-path="url(#m)"><defs><path id="p" d="M881.199 243.915h16.7v16.71h-16.7z"/></defs><clipPath id="q"><use xlink:href="#p" overflow="visible"/></clipPath><path clip-path="url(#q)" fill="none" stroke="#A9A7A7" stroke-miterlimit="10" d="M897.55 260.271l-15.999-15.998"/></g><path clip-path="url(#m)" fill="none" stroke="#A9A7A7" stroke-width="3" stroke-miterlimit="10" d="M881.55 260.271l15.998-15.998m.002 15.998l-15.999-15.998"/></g><g opacity=".4"><defs><path id="r" d="M-.321.125h1280.49v800.211H-.321z"/></defs><clipPath id="s"><use xlink:href="#r" overflow="visible"/></clipPath><path clip-path="url(#s)" fill="#0D0C0C" d="M-.318.124h1280.483v800.214H-.318z"/></g></svg>