<svg xmlns="http://www.w3.org/2000/svg" xmlns:xlink="http://www.w3.org/1999/xlink" width="1280.171" height="800.215" viewBox="0 0 1280.171 800.215"><path fill="#FFF" d="M-.252.216h1280v800h-1280z"/><g opacity=".5"><defs><path id="a" d="M-.689 97.06h1280v1.02h-1280z"/></defs><clipPath id="b"><use xlink:href="#a" overflow="visible"/></clipPath><path clip-path="url(#b)" fill="none" stroke="#868A8E" stroke-width="1.023" stroke-miterlimit="10" d="M-.686 97.569h1280"/></g><text transform="translate(140.442 60.748)" fill="#585858" font-family="'DroidSansFallback'" font-size="25">Party</text><text transform="translate(991.843 56.148)"><tspan x="0" y="0" fill="#FF9012" font-family="'DroidSansFallback'" font-size="25" letter-spacing="-1">T</tspan><tspan x="12.074" y="0" fill="#FF9012" font-family="'DroidSansFallback'" font-size="25">est</tspan></text><path fill="none" stroke="#FF9012" stroke-width="3" stroke-miterlimit="10" d="M1075.406 51.72c0 12.237-8.299 18.535-18.535 18.535h-85.318c-10.238 0-18.535-8.299-18.535-18.535v-5.971c0-10.237 8.297-18.535 18.535-18.535h85.318c10.236 0 18.535 8.298 18.535 18.535v5.971z"/><path fill="none" stroke="#B2B1B2" stroke-miterlimit="10" d="M70.904 58.958l-10.359-10.17a.95.95 0 0 1 .002-1.365l10.359-10.106"/><path fill="none" stroke="#585858" stroke-width="3" stroke-linecap="round" stroke-linejoin="round" stroke-miterlimit="10" d="M70.904 58.958l-10.359-10.17a.95.95 0 0 1 .002-1.365l10.359-10.106M62.58 48.109h30.152"/><text transform="translate(474.476 160.227)" fill="#FF9012" font-family="'DroidSansFallback'" font-size="30">Do the following:</text><path fill="#F6F6F6" d="M.777 97.624h407v702.939h-407z"/><g opacity=".5"><defs><path id="c" d="M29.26 320.959h345.6v.75H29.26z"/></defs><clipPath id="d"><use xlink:href="#c" overflow="visible"/></clipPath><path clip-path="url(#d)" fill="none" stroke="#C6C8C8" stroke-width=".75" stroke-miterlimit="10" d="M29.264 321.331h345.595"/></g><g opacity=".5"><defs><path id="e" d="M29.26 320.959h345.6v.75H29.26z"/></defs><clipPath id="f"><use xlink:href="#e" overflow="visible"/></clipPath><path clip-path="url(#f)" fill="none" stroke="#C6C8C8" stroke-width=".75" stroke-miterlimit="10" d="M29.264 321.331h345.595"/></g><g opacity=".5"><defs><path id="g" d="M29.26 235.05h345.6v.75H29.26z"/></defs><clipPath id="h"><use xlink:href="#g" overflow="visible"/></clipPath><path clip-path="url(#h)" fill="none" stroke="#C6C8C8" stroke-width=".75" stroke-miterlimit="10" d="M29.264 235.425h345.595"/></g><g opacity=".5"><defs><path id="i" d="M29.26 544.69h345.6v.75H29.26z"/></defs><clipPath id="j"><use xlink:href="#i" overflow="visible"/></clipPath><path clip-path="url(#j)" fill="none" stroke="#C6C8C8" stroke-width=".75" stroke-miterlimit="10" d="M29.264 545.065h345.595"/></g><g opacity=".5"><defs><path id="k" d="M29.26 544.69h345.6v.75H29.26z"/></defs><clipPath id="l"><use xlink:href="#k" overflow="visible"/></clipPath><path clip-path="url(#l)" fill="none" stroke="#C6C8C8" stroke-width=".75" stroke-miterlimit="10" d="M29.264 545.065h345.595"/></g><g opacity=".5"><defs><path id="m" d="M29.26 631.69h345.6v.75H29.26z"/></defs><clipPath id="n"><use xlink:href="#m" overflow="visible"/></clipPath><path clip-path="url(#n)" fill="none" stroke="#C6C8C8" stroke-width=".75" stroke-miterlimit="10" d="M29.264 632.065h345.595"/></g><text transform="translate(114.294 201.116)" fill="#585858" font-family="'DroidSansFallback'" font-size="25">Air Condition</text><g opacity=".1"><defs><path id="o" d="M0 407.11h408v52H0z"/></defs><clipPath id="p"><use xlink:href="#o" overflow="visible"/></clipPath><path clip-path="url(#p)" fill="#7E7E7F" d="M0 407.108h408v52H0z"/></g><g opacity=".1"><defs><path id="q" d="M0 97.05h408v52H0z"/></defs><clipPath id="r"><use xlink:href="#q" overflow="visible"/></clipPath><path clip-path="url(#r)" fill="#7E7E7F" d="M0 97.052h408v52H0z"/></g><text transform="translate(65.608 439.342)" fill="#585858" font-family="'DroidSansFallback'" font-size="21">Bedroom</text><text transform="translate(62.69 130.285)" fill="#585858" font-family="'DroidSansFallback'" font-size="21">Living Room</text><g opacity=".1"><defs><path id="s" d="M0 719.129h408v52H0z"/></defs><clipPath id="t"><use xlink:href="#s" overflow="visible"/></clipPath><path clip-path="url(#t)" fill="#7E7E7F" d="M0 719.129h408v52H0z"/></g><text transform="translate(65.608 751.362)"><tspan x="0" y="0" fill="#585858" font-family="'DroidSansFallback'" font-size="21">Other </tspan><tspan x="59.451" y="0" fill="#585858" font-family="'DroidSansFallback'" font-size="21">T</tspan><tspan x="70.014" y="0" fill="#585858" font-family="'DroidSansFallback'" font-size="21">ri</tspan><tspan x="83.285" y="0" fill="#585858" font-family="'DroidSansFallback'" font-size="21">g</tspan><tspan x="96.18" y="0" fill="#585858" font-family="'DroidSansFallback'" font-size="21">gers</tspan></text><path fill-rule="evenodd" clip-rule="evenodd" fill="#B1B0B0" d="M77.445 178.405a1.195 1.195 0 1 1 0-2.39 1.195 1.195 0 0 1 0 2.39M73.947 184.831c-.443 0-.846-.281-1-.699a1.043 1.043 0 0 1 .033-.807c.117-.256.338-.459.605-.557l.137-.049.225-.016a1.063 1.063 0 0 1 .369 2.061l-.141.053-.228.014zM67.162 182.148c-.346 0-.676-.149-.904-.409a1.202 1.202 0 0 1 .137-1.699c.492-.407 1.266-.338 1.674.139a1.206 1.206 0 0 1-.141 1.693 1.206 1.206 0 0 1-.766.276M61.686 191.63l-.189-.015a1.194 1.194 0 0 1-.982-1.394 1.192 1.192 0 0 1 1.174-.982l.207.018c.65.116 1.08.719.975 1.371a1.213 1.213 0 0 1-1.185 1.002M67.373 196.224c-.516 0-.957-.367-1.051-.875-.092-.598.287-1.129.857-1.232l.189-.018c.51 0 .949.367 1.043.871a1.071 1.071 0 0 1-.832 1.234l-.206.02zM63.592 202.406a1.2 1.2 0 0 1-1.041-.604 1.198 1.198 0 0 1 .439-1.625c.539-.313 1.307-.118 1.631.431a1.196 1.196 0 0 1-1.029 1.798M70.869 202.286c-.25 0-.492-.088-.686-.25-.221-.186-.355-.456-.375-.74s.074-.559.262-.77c.34-.403 1.051-.477 1.482-.113.439.361.506 1.027.141 1.482a1.057 1.057 0 0 1-.824.391M71.977 209.44c-.146 0-.289-.027-.426-.079a1.187 1.187 0 0 1-.693-1.534c.209-.59.934-.928 1.541-.695.264.09.508.303.648.586.141.289.162.614.059.92-.192.492-.641.802-1.129.802M77.451 204.679h-.016a1.06 1.06 0 0 1-1.051-1.059 1.063 1.063 0 1 1 2.126-.031c-.018.637-.485 1.09-1.059 1.09M82.922 209.437c-.504 0-.955-.317-1.121-.793-.109-.284-.098-.611.037-.903s.375-.513.676-.621a1.216 1.216 0 0 1 1.529.708 1.2 1.2 0 0 1-.041.93c-.139.291-.383.51-.688.613a1.18 1.18 0 0 1-.392.066M84.029 202.284a1.063 1.063 0 0 1-.698-1.864 1.084 1.084 0 0 1 1.506.114 1.07 1.07 0 0 1-.125 1.5c-.187.16-.431.25-.683.25M91.307 202.401c-.211 0-.42-.057-.604-.164a1.2 1.2 0 0 1-.434-1.625c.324-.553 1.074-.755 1.623-.447.588.348.779 1.063.451 1.64a1.208 1.208 0 0 1-1.036.596M87.529 196.222l-.186-.016a1.059 1.059 0 0 1-.863-1.218c.096-.524.533-.89 1.047-.89l.186.017a1.064 1.064 0 0 1-.184 2.107M93.205 191.626a1.2 1.2 0 0 1-1.176-.983 1.202 1.202 0 0 1 .959-1.388l.217-.02c.584 0 1.078.416 1.178.991a1.206 1.206 0 0 1-.967 1.38l-.211.02zM86.314 189.327c-.373 0-.723-.198-.916-.52a1.069 1.069 0 0 1 .355-1.447c.576-.33 1.195-.114 1.479.373a1.068 1.068 0 0 1-.389 1.453 1.071 1.071 0 0 1-.529.141M87.732 182.147c-.279 0-.553-.1-.768-.281a1.205 1.205 0 0 1-.162-1.664c.451-.529 1.232-.572 1.713-.15.229.191.383.49.408.807.027.317-.072.623-.279.865-.22.265-.556.423-.912.423M80.951 184.827h-.148l-.223-.066a1.035 1.035 0 0 1-.586-.525 1.087 1.087 0 0 1-.049-.821c.164-.433.562-.71 1.002-.71h.154l.229.07c.256.097.475.303.59.562.117.26.123.548.021.812-.14.394-.541.678-.99.678M68.584 189.329a1.061 1.061 0 0 1-.922-1.591c.287-.493.965-.674 1.455-.389a1.062 1.062 0 1 1-.533 1.98M82.26 192.88a4.815 4.815 0 0 1-4.818 4.818 4.818 4.818 0 1 1 4.818-4.818"/><text transform="translate(114.294 683.1)" fill="#585858" font-family="'DroidSansFallback'" font-size="25">Dock</text><path fill="none" stroke="#211512" stroke-linecap="round" stroke-linejoin="round" d="M88.854 671.995a.52.52 0 0 1 .205-.127l.006-.002.984-.307.043-.012c.037-.008.076-.014.113-.018 0 0 .088-.006.139 0M70.699 677.577l-.08-.168M72.139 677.12c.025-.014.166-.088.205-.076l.01.025M70.318 677.76l-.016-.035a.06.06 0 0 1 .033-.035"/><path fill="none" stroke="#211512" stroke-linecap="round" stroke-linejoin="round" d="M70.336 677.69c.031-.02.197-.113.246-.1l.018.039c.061-.035.127-.068.193-.092l1.449-.447a1.52 1.52 0 0 1 .162-.027h.004c.066-.006.131-.012.195-.014M71.051 677.459l-.078-.16M70.619 677.409c-.025-.051-.018-.084.025-.123M71.754 677.241l-.076-.158M70.973 677.299c-.025-.053-.018-.086.027-.121M71.861 676.995l.09.185M71.404 677.35l-.076-.16M71.678 677.081c-.025-.051-.018-.084.025-.121M71.512 677.1l.09.188M70.342 677.688l-.08-.17M71.328 677.19c-.025-.051-.02-.084.023-.121M70.447 677.43l.08.168M72.104 677.133l-.079-.16M70.262 677.518c-.025-.051-.02-.086.023-.119M72.025 676.973c-.023-.049-.018-.084.025-.119M67.643 678.596l-1.357.918c-.021.021-.023.041-.01.066l1.754 3.92"/><path fill="none" stroke="#211512" stroke-linecap="round" stroke-linejoin="round" d="M70.062 684.094l25.367-9.256.002-.002c.018-.01.02-.023.01-.041l-2.207-4.115c-.01-.025-.021-.035-.049-.035l-25.527 7.943c-.031.016-.039.037-.018.068l2.422 5.383c.014.029.014.068-.025.057l-.133-.039-1.875-.557-8.967-4.701c-.047-.025-.113-.07-.094-.139 0 0 .145-.727.242-.961a.615.615 0 0 1 .072-.115c.016-.018 7.525-5.691 7.525-5.691M72.049 676.95a.051.051 0 0 0-.023.023M72.049 676.95c.02-.012.125-.072.16-.068"/><path fill="none" stroke="#211512" stroke-linecap="round" stroke-linejoin="round" d="M72.049 676.95c-.023-.049-.027-.072.012-.105.045-.037.121-.021.148.037l.08.17M70.641 677.385c-.027-.041-.023-.07.012-.105a.104.104 0 0 1 .152.039l.09.189M70.996 677.276c-.012.004-.018.012-.023.023M71.158 677.209c-.031-.01-.143.055-.162.066M71.783 677.231l-.08-.162s-.041-.082.01-.115a.1.1 0 0 1 .148.041l-.16.064a.033.033 0 0 0-.023.023M71.512 677.1c-.031-.01-.162.068-.162.068-.012.006-.02.01-.023.021"/><path fill="none" stroke="#211512" stroke-linecap="round" stroke-linejoin="round" d="M71.434 677.34l-.084-.174s-.023-.07.012-.104c.053-.037.123-.02.148.039M70.367 677.67l-.084-.171M71.08 677.45l-.09-.18c-.021-.055-.018-.066.018-.1a.1.1 0 0 1 .15.039l.09.191M70.805 677.323c-.031-.01-.143.049-.164.062M70.283 677.497a.031.031 0 0 0-.021.021"/><path fill="none" stroke="#211512" stroke-linecap="round" stroke-linejoin="round" d="M70.283 677.497c-.027-.043-.023-.072.014-.107a.103.103 0 0 1 .15.041 1.6 1.6 0 0 0-.164.066M72.133 677.124l-.084-.172M70.725 677.561l-.084-.176a.039.039 0 0 0-.021.023M70.336 677.69l.027.057"/><path fill="none" stroke="#211512" stroke-linecap="round" stroke-linejoin="round" d="M90.855 671.37s-3.994-4.492-4.045-4.527c-.057-.039-.336.057-.336.057l-19.6 4.969s-.055.016-.066.025c-.012.012-.016.02-.014.035l.77 6.723"/><path fill="none" stroke="#B2B1B2" stroke-width="2.5" stroke-linecap="round" stroke-linejoin="round" stroke-miterlimit="10" d="M88.854 671.995a.52.52 0 0 1 .205-.127l.006-.002.984-.307.043-.012c.037-.008.076-.014.113-.018 0 0 .088-.006.139 0M70.699 677.577l-.08-.168M72.139 677.12c.025-.014.166-.088.205-.076l.01.025M70.318 677.76l-.016-.035a.06.06 0 0 1 .033-.035"/><path fill="none" stroke="#B2B1B2" stroke-width="2.5" stroke-linecap="round" stroke-linejoin="round" stroke-miterlimit="10" d="M70.336 677.69c.031-.02.197-.113.246-.1l.018.039c.061-.035.127-.068.193-.092l1.449-.447a1.52 1.52 0 0 1 .162-.027h.004c.066-.006.131-.012.195-.014M71.051 677.459l-.078-.16M70.619 677.409c-.025-.051-.018-.084.025-.123M71.754 677.241l-.076-.158M70.973 677.299c-.025-.053-.018-.086.027-.121M71.861 676.995l.09.185M71.404 677.35l-.076-.16M71.678 677.081c-.025-.051-.018-.084.025-.121M71.512 677.1l.09.188M70.342 677.688l-.08-.17M71.328 677.19c-.025-.051-.02-.084.023-.121M70.447 677.43l.08.168M72.104 677.133l-.079-.16M70.262 677.518c-.025-.051-.02-.086.023-.119M72.025 676.973c-.023-.049-.018-.084.025-.119M67.643 678.596l-1.357.918c-.021.021-.023.041-.01.066l1.754 3.92"/><path fill="none" stroke="#B2B1B2" stroke-width="2.5" stroke-linecap="round" stroke-linejoin="round" stroke-miterlimit="10" d="M70.062 684.094l25.367-9.256.002-.002c.018-.01.02-.023.01-.041l-2.207-4.115c-.01-.025-.021-.035-.049-.035l-25.527 7.943c-.031.016-.039.037-.018.068l2.422 5.383c.014.029.014.068-.025.057l-.133-.039-1.875-.557-8.967-4.701c-.047-.025-.113-.07-.094-.139 0 0 .145-.727.242-.961a.615.615 0 0 1 .072-.115c.016-.018 7.525-5.691 7.525-5.691M72.049 676.95a.051.051 0 0 0-.023.023M72.049 676.95c.02-.012.125-.072.16-.068"/><path fill="none" stroke="#B2B1B2" stroke-width="2.5" stroke-linecap="round" stroke-linejoin="round" stroke-miterlimit="10" d="M72.049 676.95c-.023-.049-.027-.072.012-.105.045-.037.121-.021.148.037l.08.17M70.641 677.385c-.027-.041-.023-.07.012-.105a.104.104 0 0 1 .152.039l.09.189M70.996 677.276c-.012.004-.018.012-.023.023M71.158 677.209c-.031-.01-.143.055-.162.066M71.783 677.231l-.08-.162s-.041-.082.01-.115a.1.1 0 0 1 .148.041l-.16.064a.033.033 0 0 0-.023.023M71.512 677.1c-.031-.01-.162.068-.162.068-.012.006-.02.01-.023.021"/><path fill="none" stroke="#B2B1B2" stroke-width="2.5" stroke-linecap="round" stroke-linejoin="round" stroke-miterlimit="10" d="M71.434 677.34l-.084-.174s-.023-.07.012-.104c.053-.037.123-.02.148.039M70.367 677.67l-.084-.171M71.08 677.45l-.09-.18c-.021-.055-.018-.066.018-.1a.1.1 0 0 1 .15.039l.09.191M70.805 677.323c-.031-.01-.143.049-.164.062M70.283 677.497a.031.031 0 0 0-.021.021"/><path fill="none" stroke="#B2B1B2" stroke-width="2.5" stroke-linecap="round" stroke-linejoin="round" stroke-miterlimit="10" d="M70.283 677.497c-.027-.043-.023-.072.014-.107a.103.103 0 0 1 .15.041 1.6 1.6 0 0 0-.164.066M72.133 677.124l-.084-.172M70.725 677.561l-.084-.176a.039.039 0 0 0-.021.023M70.336 677.69l.027.057"/><path fill="none" stroke="#B2B1B2" stroke-width="2.5" stroke-linecap="round" stroke-linejoin="round" stroke-miterlimit="10" d="M90.855 671.37s-3.994-4.492-4.045-4.527c-.057-.039-.336.057-.336.057l-19.6 4.969s-.055.016-.066.025c-.012.012-.016.02-.014.035l.77 6.723"/><text transform="translate(114.294 373.926)" fill="#585858" font-family="'DroidSansFallback'" font-size="25">Plug X</text><path fill="none" stroke="#FFF" stroke-linecap="round" stroke-linejoin="round" stroke-miterlimit="10" d="M92.447 370.454a8.61 8.61 0 0 1-8.613 8.611H71.057a8.61 8.61 0 0 1-8.611-8.611V357.68a8.612 8.612 0 0 1 8.611-8.615h12.777a8.612 8.612 0 0 1 8.613 8.615v12.774zM83.705 357.807v7.817M71.188 357.807v7.817"/><path fill="none" stroke="#FFF" stroke-linecap="round" stroke-linejoin="round" stroke-miterlimit="10" d="M76.064 370.563v-1.369a1.383 1.383 0 1 1 2.764 0v1.369M76.064 370.563h2.764"/><path fill="none" stroke="#B1B0B0" stroke-width="3" stroke-linecap="round" stroke-linejoin="round" stroke-miterlimit="10" d="M92.447 370.454a8.61 8.61 0 0 1-8.613 8.611H71.057a8.61 8.61 0 0 1-8.611-8.611V357.68a8.612 8.612 0 0 1 8.611-8.615h12.777a8.612 8.612 0 0 1 8.613 8.615v12.774zM83.705 357.807v7.817M71.188 357.807v7.817"/><path fill="none" stroke="#B1B0B0" stroke-width="3" stroke-linecap="round" stroke-linejoin="round" stroke-miterlimit="10" d="M76.064 370.563v-1.369a1.383 1.383 0 1 1 2.764 0v1.369M76.064 370.563h2.764"/><text transform="translate(114.485 510.131)" fill="#585858" font-family="'DroidSansFallback'" font-size="25">Ceiling Lights</text><path fill="none" stroke="#FFF" stroke-linecap="round" stroke-linejoin="round" stroke-miterlimit="10" d="M73.086 511.672a.869.869 0 0 1-.84-.65l-3.629-14.16-.057-.135a9.785 9.785 0 0 1-.746-3.758c0-5.416 4.406-9.822 9.824-9.822 5.416 0 9.824 4.406 9.824 9.822a9.777 9.777 0 0 1-.781 3.82l-3.777 14.238a.868.868 0 0 1-.838.645h-8.98zM68.605 496.862H86.67M73.988 514.778h7.301M75.178 518.147H80.1"/><path fill="none" stroke="#B1B0B0" stroke-width="3" stroke-linecap="round" stroke-linejoin="round" stroke-miterlimit="10" d="M73.086 511.672a.869.869 0 0 1-.84-.65l-3.629-14.16-.057-.135a9.785 9.785 0 0 1-.746-3.758c0-5.416 4.406-9.822 9.824-9.822 5.416 0 9.824 4.406 9.824 9.822a9.777 9.777 0 0 1-.781 3.82l-3.777 14.238a.868.868 0 0 1-.838.645h-8.98zM68.605 496.862H86.67M73.988 514.778h7.301M75.178 518.147H80.1"/><text transform="translate(115.347 595.631)"><tspan x="0" y="0" fill="#585858" font-family="'DroidSansFallback'" font-size="25" letter-spacing="-1">T</tspan><tspan x="12.074" y="0" fill="#585858" font-family="'DroidSansFallback'" font-size="25">elevision</tspan></text><path fill="none" stroke="#B1B0B0" stroke-width="3" stroke-linecap="round" stroke-linejoin="round" stroke-miterlimit="10" d="M77.717 595.094H66.553a3.036 3.036 0 0 1-3.033-3.033v-14.359a3.037 3.037 0 0 1 3.033-3.035h23.932a3.04 3.04 0 0 1 3.035 3.035v14.359a3.039 3.039 0 0 1-3.035 3.033H77.717zM78.52 595.094v3.11M72.4 598.204h12.237"/><text transform="translate(1130.169 55.156)" fill="#FF9012" font-family="'DroidSansFallback'" font-size="25">Random</text><path fill="none" stroke="#FF9012" stroke-width="3" stroke-miterlimit="10" d="M1238.482 50.72c0 12.237-8.299 18.535-18.535 18.535h-85.318c-10.236 0-18.535-8.299-18.535-18.535v-5.971c0-10.237 8.299-18.535 18.535-18.535h85.318c10.236 0 18.535 8.298 18.535 18.535v5.971z"/><g opacity=".4"><defs><path id="u" d="M-.74 0h1280.49v800.219H-.74z"/></defs><clipPath id="v"><use xlink:href="#u" overflow="visible"/></clipPath><path clip-path="url(#v)" fill="#0D0C0C" d="M-.734.003h1280.482v800.212H-.734z"/></g><text transform="translate(113.51 285.254)" fill="#585858" font-family="'DroidSansFallback'" font-size="25">Lamp</text><path fill="none" stroke="#FFF" stroke-linecap="round" stroke-linejoin="round" stroke-miterlimit="10" d="M72.111 288.858a.865.865 0 0 1-.838-.648l-3.631-14.162-.057-.135a9.782 9.782 0 0 1-.746-3.756c0-5.416 4.408-9.824 9.824-9.824s9.824 4.408 9.824 9.824a9.767 9.767 0 0 1-.781 3.818l-3.777 14.24a.866.866 0 0 1-.836.643h-8.982zM67.633 274.047h18.062M73.014 291.965h7.3M74.203 295.333h4.922"/><path fill="none" stroke="#B1B0B0" stroke-width="3" stroke-linecap="round" stroke-linejoin="round" stroke-miterlimit="10" d="M72.111 288.858a.865.865 0 0 1-.838-.648l-3.631-14.162-.057-.135a9.782 9.782 0 0 1-.746-3.756c0-5.416 4.408-9.824 9.824-9.824s9.824 4.408 9.824 9.824a9.767 9.767 0 0 1-.781 3.818l-3.777 14.24a.866.866 0 0 1-.836.643h-8.982zM67.633 274.047h18.062M73.014 291.965h7.3M74.203 295.333h4.922"/></svg>