<?xml version="1.0" encoding="utf-8"?>
<!-- Generator: Adobe Illustrator 16.0.0, SVG Export Plug-In . SVG Version: 6.00 Build 0)  -->
<!DOCTYPE svg PUBLIC "-//W3C//DTD SVG 1.1//EN" "http://www.w3.org/Graphics/SVG/1.1/DTD/svg11.dtd">
<svg version="1.1" id="图层_1" xmlns="http://www.w3.org/2000/svg" xmlns:xlink="http://www.w3.org/1999/xlink" x="0px" y="0px"
	 width="1280.18px" height="802.42px" viewBox="-5599.31 154.684 1280.18 802.42"
	 enable-background="new -5599.31 154.684 1280.18 802.42" xml:space="preserve">
<path fill="#FFFFFF" d="M-5599.31,957.104"/>
<g opacity="0.1">
	<g>
		<defs>
			<rect id="SVGID_1_" x="-5037.465" y="622.329" width="12.441" height="12.441"/>
		</defs>
		<clipPath id="SVGID_2_">
			<use xlink:href="#SVGID_1_"  overflow="visible"/>
		</clipPath>
		<g clip-path="url(#SVGID_2_)">
			<defs>
				<rect id="SVGID_3_" x="-5037.463" y="622.329" width="12.438" height="12.438"/>
			</defs>
			<clipPath id="SVGID_4_">
				<use xlink:href="#SVGID_3_"  overflow="visible"/>
			</clipPath>
			<path clip-path="url(#SVGID_4_)" fill="#F4CC25" d="M-5025.026,628.55c0,3.436-2.785,6.219-6.22,6.219s-6.22-2.783-6.22-6.219
				s2.785-6.22,6.22-6.22S-5025.026,625.114-5025.026,628.55"/>
		</g>
	</g>
</g>
<g opacity="0.1">
	<g>
		<defs>
			<rect id="SVGID_5_" x="-5066.164" y="546.25" width="60.278" height="25.979"/>
		</defs>
		<clipPath id="SVGID_6_">
			<use xlink:href="#SVGID_5_"  overflow="visible"/>
		</clipPath>
		
			<path clip-path="url(#SVGID_6_)" fill="none" stroke="#717071" stroke-width="2" stroke-linecap="round" stroke-linejoin="round" stroke-miterlimit="10" d="
			M-5014.885,571.228h-42.278c-4.418,0-8-3.582-8-8v-7.975c0-4.418,3.582-8,8-8h42.278c4.418,0,8,3.582,8,8v7.975
			C-5006.885,567.646-5010.467,571.228-5014.885,571.228z"/>
	</g>
</g>
<g opacity="0.1">
	<g>
		<defs>
			<rect id="SVGID_7_" x="-5138.458" y="596.78" width="60.278" height="25.979"/>
		</defs>
		<clipPath id="SVGID_8_">
			<use xlink:href="#SVGID_7_"  overflow="visible"/>
		</clipPath>
		
			<path clip-path="url(#SVGID_8_)" fill="none" stroke="#717071" stroke-width="2" stroke-linecap="round" stroke-linejoin="round" stroke-miterlimit="10" d="
			M-5087.179,621.759h-42.278c-4.418,0-8-3.581-8-8v-7.975c0-4.418,3.582-8,8-8h42.278c4.418,0,8,3.582,8,8v7.975
			C-5079.179,618.178-5082.761,621.759-5087.179,621.759z"/>
	</g>
</g>
<g opacity="0.1">
	<g>
		<defs>
			<rect id="SVGID_9_" x="-5123.704" y="570.6" width="60.278" height="25.97"/>
		</defs>
		<clipPath id="SVGID_10_">
			<use xlink:href="#SVGID_9_"  overflow="visible"/>
		</clipPath>
		
			<path clip-path="url(#SVGID_10_)" fill="none" stroke="#717071" stroke-width="2" stroke-linecap="round" stroke-linejoin="round" stroke-miterlimit="10" d="
			M-5072.425,595.571h-42.278c-4.418,0-8-3.582-8-8v-7.975c0-4.419,3.582-8,8-8h42.278c4.418,0,8,3.581,8,8v7.975
			C-5064.425,591.989-5068.007,595.571-5072.425,595.571z"/>
	</g>
</g>
<g opacity="0.1">
	<g>
		<defs>
			<rect id="SVGID_11_" x="-5180.137" y="623.34" width="60.278" height="25.979"/>
		</defs>
		<clipPath id="SVGID_12_">
			<use xlink:href="#SVGID_11_"  overflow="visible"/>
		</clipPath>
		
			<path clip-path="url(#SVGID_12_)" fill="none" stroke="#717071" stroke-width="2" stroke-linecap="round" stroke-linejoin="round" stroke-miterlimit="10" d="
			M-5128.859,648.316h-42.278c-4.418,0-8-3.581-8-8v-7.975c0-4.419,3.582-8,8-8h42.278c4.418,0,8,3.581,8,8v7.975
			C-5120.859,644.735-5124.441,648.316-5128.859,648.316z"/>
	</g>
</g>
<g opacity="0.1">
	<g>
		<defs>
			<rect id="SVGID_13_" x="-4917.148" y="520.8" width="60.278" height="25.98"/>
		</defs>
		<clipPath id="SVGID_14_">
			<use xlink:href="#SVGID_13_"  overflow="visible"/>
		</clipPath>
		
			<path clip-path="url(#SVGID_14_)" fill="none" stroke="#717071" stroke-width="2" stroke-linecap="round" stroke-linejoin="round" stroke-miterlimit="10" d="
			M-4865.871,545.776h-42.278c-4.418,0-8-3.581-8-8v-7.975c0-4.418,3.582-8,8-8h42.278c4.418,0,8,3.582,8,8v7.975
			C-4857.871,542.195-4861.453,545.776-4865.871,545.776z"/>
	</g>
</g>
<g opacity="0.1">
	<g>
		<defs>
			<rect id="SVGID_15_" x="-4883.214" y="547.36" width="60.275" height="25.969"/>
		</defs>
		<clipPath id="SVGID_16_">
			<use xlink:href="#SVGID_15_"  overflow="visible"/>
		</clipPath>
		
			<path clip-path="url(#SVGID_16_)" fill="none" stroke="#717071" stroke-width="2" stroke-linecap="round" stroke-linejoin="round" stroke-miterlimit="10" d="
			M-4831.937,572.333h-42.278c-4.418,0-8-3.581-8-8v-7.975c0-4.418,3.582-8,8-8h42.278c4.418,0,8,3.582,8,8v7.975
			C-4823.937,568.752-4827.519,572.333-4831.937,572.333z"/>
	</g>
</g>
<g opacity="0.1">
	<g>
		<defs>
			<rect id="SVGID_17_" x="-4830.838" y="573.92" width="60.279" height="25.97"/>
		</defs>
		<clipPath id="SVGID_18_">
			<use xlink:href="#SVGID_17_"  overflow="visible"/>
		</clipPath>
		
			<path clip-path="url(#SVGID_18_)" fill="none" stroke="#717071" stroke-width="2" stroke-linecap="round" stroke-linejoin="round" stroke-miterlimit="10" d="
			M-4779.561,598.891h-42.278c-4.418,0-8-3.581-8-8v-7.975c0-4.418,3.582-8,8-8h42.278c4.418,0,8,3.582,8,8v7.975
			C-4771.561,595.31-4775.143,598.891-4779.561,598.891z"/>
	</g>
</g>
<g opacity="0.1">
	<g>
		<defs>
			<rect id="SVGID_19_" x="-4805.02" y="610.8" width="60.28" height="25.98"/>
		</defs>
		<clipPath id="SVGID_20_">
			<use xlink:href="#SVGID_19_"  overflow="visible"/>
		</clipPath>
		
			<path clip-path="url(#SVGID_20_)" fill="none" stroke="#717071" stroke-width="2" stroke-linecap="round" stroke-linejoin="round" stroke-miterlimit="10" d="
			M-4753.741,635.775h-42.278c-4.418,0-8-3.581-8-8v-7.975c0-4.418,3.582-8,8-8h42.278c4.418,0,8,3.582,8,8v7.975
			C-4745.741,632.194-4749.323,635.775-4753.741,635.775z"/>
	</g>
</g>
<rect x="-5062.96" y="578.315" fill="#FFFFFF" width="60.83" height="60.83"/>
<rect x="-5062.96" y="578.315" fill="none" stroke="#595857" stroke-width="2" stroke-linecap="round" stroke-linejoin="round" stroke-miterlimit="10" width="60.83" height="60.83"/>
<rect x="-5056.363" y="584.911" fill="none" stroke="#595857" stroke-width="2" stroke-linecap="round" stroke-linejoin="round" stroke-miterlimit="10" width="47.636" height="47.637"/>
<g opacity="0.3">
	<g>
		<defs>
			<rect id="SVGID_21_" x="-5055.646" y="585.63" width="46.202" height="46.199"/>
		</defs>
		<clipPath id="SVGID_22_">
			<use xlink:href="#SVGID_21_"  overflow="visible"/>
		</clipPath>
		<rect x="-5055.646" y="585.628" clip-path="url(#SVGID_22_)" fill="#E66C25" width="46.202" height="46.203"/>
	</g>
</g>
<line fill="none" stroke="#595857" stroke-width="2" stroke-linecap="round" stroke-linejoin="round" stroke-miterlimit="10" x1="-5048.359" y1="609.409" x2="-5033.662" y2="594.565"/>
<line fill="none" stroke="#595857" stroke-width="2" stroke-linecap="round" stroke-linejoin="round" stroke-miterlimit="10" x1="-5050.785" y1="618.335" x2="-5036.087" y2="603.491"/>
<line fill="none" stroke="#595857" stroke-width="2" stroke-linecap="round" stroke-linejoin="round" stroke-miterlimit="10" x1="-5041.375" y1="615.036" x2="-5026.676" y2="600.192"/>
<rect x="-4975.913" y="578.315" fill="#FFFFFF" width="60.83" height="60.83"/>
<rect x="-4975.913" y="578.315" fill="none" stroke="#595857" stroke-width="2" stroke-linecap="round" stroke-linejoin="round" stroke-miterlimit="10" width="60.83" height="60.83"/>
<rect x="-4969.315" y="584.911" fill="none" stroke="#595857" stroke-width="2" stroke-linecap="round" stroke-linejoin="round" stroke-miterlimit="10" width="47.636" height="47.637"/>
<g opacity="0.3">
	<g>
		<defs>
			<rect id="SVGID_23_" x="-4968.599" y="585.63" width="46.202" height="46.199"/>
		</defs>
		<clipPath id="SVGID_24_">
			<use xlink:href="#SVGID_23_"  overflow="visible"/>
		</clipPath>
		<rect x="-4968.599" y="585.628" clip-path="url(#SVGID_24_)" fill="#E66C25" width="46.202" height="46.203"/>
	</g>
</g>
<line fill="none" stroke="#595857" stroke-width="2" stroke-linecap="round" stroke-linejoin="round" stroke-miterlimit="10" x1="-4961.312" y1="609.409" x2="-4946.614" y2="594.565"/>
<line fill="none" stroke="#595857" stroke-width="2" stroke-linecap="round" stroke-linejoin="round" stroke-miterlimit="10" x1="-4963.737" y1="618.335" x2="-4949.039" y2="603.491"/>
<line fill="none" stroke="#595857" stroke-width="2" stroke-linecap="round" stroke-linejoin="round" stroke-miterlimit="10" x1="-4954.326" y1="615.036" x2="-4939.628" y2="600.192"/>
<rect x="-4888.619" y="578.315" fill="#FFFFFF" width="60.83" height="60.83"/>
<rect x="-4888.619" y="578.315" fill="none" stroke="#595857" stroke-width="2" stroke-linecap="round" stroke-linejoin="round" stroke-miterlimit="10" width="60.83" height="60.83"/>
<rect x="-4882.021" y="584.911" fill="none" stroke="#595857" stroke-width="2" stroke-linecap="round" stroke-linejoin="round" stroke-miterlimit="10" width="47.636" height="47.637"/>
<g opacity="0.3">
	<g>
		<defs>
			<rect id="SVGID_25_" x="-4881.305" y="585.63" width="46.202" height="46.199"/>
		</defs>
		<clipPath id="SVGID_26_">
			<use xlink:href="#SVGID_25_"  overflow="visible"/>
		</clipPath>
		<rect x="-4881.305" y="585.628" clip-path="url(#SVGID_26_)" fill="#E66C25" width="46.202" height="46.203"/>
	</g>
</g>
<line fill="none" stroke="#595857" stroke-width="2" stroke-linecap="round" stroke-linejoin="round" stroke-miterlimit="10" x1="-4874.018" y1="609.409" x2="-4859.32" y2="594.565"/>
<line fill="none" stroke="#595857" stroke-width="2" stroke-linecap="round" stroke-linejoin="round" stroke-miterlimit="10" x1="-4876.443" y1="618.335" x2="-4861.745" y2="603.491"/>
<line fill="none" stroke="#595857" stroke-width="2" stroke-linecap="round" stroke-linejoin="round" stroke-miterlimit="10" x1="-4867.032" y1="615.036" x2="-4852.334" y2="600.192"/>
<g opacity="0.1">
	<g>
		<defs>
			<rect id="SVGID_27_" x="-5071.374" y="774.149" width="251.754" height="32.07"/>
		</defs>
		<clipPath id="SVGID_28_">
			<use xlink:href="#SVGID_27_"  overflow="visible"/>
		</clipPath>
		<path clip-path="url(#SVGID_28_)" fill="#2CA6E0" d="M-5071.374,801.501c0,2.602,1.864,4.717,4.167,4.717h243.418
			c2.304,0,4.167-2.115,4.167-4.717v-22.648c0-2.604-1.863-4.703-4.167-4.703h-243.418c-2.303,0-4.167,2.1-4.167,4.703V801.501z"/>
	</g>
</g>
<rect x="-5026.666" y="674.349" fill="none" stroke="#595857" stroke-width="2" stroke-linecap="round" stroke-linejoin="round" stroke-miterlimit="10" width="159.359" height="96.417"/>
<path fill="none" stroke="#595857" stroke-width="2" stroke-linecap="round" stroke-linejoin="round" stroke-miterlimit="10" d="
	M-5023.115,768.865c-0.365,0-0.658-0.337-0.658-0.75c0-0.405,0.293-0.743,0.658-0.743h4.618c0.366,0,0.658,0.338,0.658,0.743
	c0,0.413-0.292,0.75-0.658,0.75H-5023.115"/>
<g opacity="0.2">
	<g>
		<defs>
			<rect id="SVGID_29_" x="-5024.206" y="677.87" width="154.436" height="87.189"/>
		</defs>
		<clipPath id="SVGID_30_">
			<use xlink:href="#SVGID_29_"  overflow="visible"/>
		</clipPath>
		<rect x="-5024.206" y="677.874" clip-path="url(#SVGID_30_)" fill="#2CA6E0" width="154.436" height="87.184"/>
	</g>
</g>
<rect x="-5024.206" y="677.874" fill="none" stroke="#595857" stroke-width="2" stroke-linecap="round" stroke-linejoin="round" stroke-miterlimit="10" width="154.436" height="87.184"/>
<rect x="-4843.136" y="674.457" fill="none" stroke="#595857" stroke-width="2" stroke-linecap="round" stroke-linejoin="round" stroke-miterlimit="10" width="15.09" height="99.713"/>
<g opacity="0.1">
	<g>
		<defs>
			<rect id="SVGID_31_" x="-4843.136" y="674.46" width="15.087" height="99.71"/>
		</defs>
		<clipPath id="SVGID_32_">
			<use xlink:href="#SVGID_31_"  overflow="visible"/>
		</clipPath>
		<rect x="-4843.136" y="674.457" clip-path="url(#SVGID_32_)" fill="#717071" width="15.09" height="99.713"/>
	</g>
</g>
<path fill="none" stroke="#595857" stroke-width="2" stroke-linecap="round" stroke-linejoin="round" stroke-miterlimit="10" d="
	M-4835.592,679.048c-2.352,0-4.256,2.155-4.256,4.806c0,2.664,1.904,4.813,4.256,4.813c2.349,0,4.255-2.149,4.255-4.813
	C-4831.337,681.203-4833.243,679.048-4835.592,679.048 M-4835.592,685.974c-1.033,0-1.88-0.942-1.88-2.12
	c0-1.17,0.847-2.12,1.88-2.12c1.036,0,1.877,0.95,1.877,2.12C-4833.715,685.031-4834.556,685.974-4835.592,685.974"/>
<rect x="-5062.949" y="674.457" fill="none" stroke="#595857" stroke-width="2" stroke-linecap="round" stroke-linejoin="round" stroke-miterlimit="10" width="15.09" height="99.713"/>
<g opacity="0.1">
	<g>
		<defs>
			<rect id="SVGID_33_" x="-5062.948" y="674.46" width="15.091" height="99.71"/>
		</defs>
		<clipPath id="SVGID_34_">
			<use xlink:href="#SVGID_33_"  overflow="visible"/>
		</clipPath>
		<rect x="-5062.949" y="674.457" clip-path="url(#SVGID_34_)" fill="#717071" width="15.09" height="99.713"/>
	</g>
</g>
<path fill="none" stroke="#595857" stroke-width="2" stroke-linecap="round" stroke-linejoin="round" stroke-miterlimit="10" d="
	M-5055.4,679.048c-2.355,0-4.259,2.155-4.259,4.806c0,2.664,1.904,4.813,4.259,4.813c2.345,0,4.252-2.149,4.252-4.813
	C-5051.148,681.203-5053.055,679.048-5055.4,679.048 M-5055.4,685.974c-1.039,0-1.877-0.942-1.877-2.12
	c0-1.17,0.838-2.12,1.877-2.12c1.036,0,1.876,0.95,1.876,2.12C-5053.524,685.031-5054.364,685.974-5055.4,685.974"/>
<g opacity="0.5">
	<g>
		<defs>
			<rect id="SVGID_35_" x="-5167.47" y="496.37" width="414.04" height="177.34"/>
		</defs>
		<clipPath id="SVGID_36_">
			<use xlink:href="#SVGID_35_"  overflow="visible"/>
		</clipPath>
		
			<line clip-path="url(#SVGID_36_)" fill="none" stroke="#EB6C77" stroke-width="4" stroke-linecap="round" stroke-linejoin="round" stroke-miterlimit="10" x1="-4825.229" y1="663.703" x2="-4825.229" y2="671.706"/>
		
			<line clip-path="url(#SVGID_36_)" fill="none" stroke="#EB6C77" stroke-width="4" stroke-linecap="round" stroke-linejoin="round" stroke-miterlimit="10" x1="-4829.23" y1="667.704" x2="-4821.228" y2="667.704"/>
		
			<circle clip-path="url(#SVGID_36_)" fill="none" stroke="#F08B1E" stroke-width="3.941" stroke-linecap="round" stroke-linejoin="round" stroke-miterlimit="10" cx="-5161.448" cy="566.208" r="4.05"/>
		<g opacity="0.2" clip-path="url(#SVGID_36_)">
			<g>
				<defs>
					<rect id="SVGID_37_" x="-4768.009" y="574.44" width="7.25" height="7.25"/>
				</defs>
				<clipPath id="SVGID_38_">
					<use xlink:href="#SVGID_37_"  overflow="visible"/>
				</clipPath>
				<g clip-path="url(#SVGID_38_)">
					<defs>
						<rect id="SVGID_39_" x="-4768.009" y="574.437" width="7.252" height="7.252"/>
					</defs>
					<clipPath id="SVGID_40_">
						<use xlink:href="#SVGID_39_"  overflow="visible"/>
					</clipPath>
					<path clip-path="url(#SVGID_40_)" fill="#E66C25" d="M-4760.758,578.063c0,2.002-1.623,3.625-3.625,3.625
						s-3.625-1.623-3.625-3.625s1.623-3.625,3.625-3.625S-4760.758,576.062-4760.758,578.063"/>
				</g>
			</g>
		</g>
		<path clip-path="url(#SVGID_36_)" fill="#F4CC25" d="M-4753.427,663.753c0,3.48-2.821,6.303-6.302,6.303
			c-3.48,0-6.301-2.822-6.301-6.303s2.821-6.301,6.301-6.301C-4756.248,657.452-4753.427,660.272-4753.427,663.753"/>
		<path clip-path="url(#SVGID_36_)" fill="#F08B1E" d="M-4965.417,553.47c0,2.547-2.063,4.609-4.61,4.609
			c-2.546,0-4.61-2.062-4.61-4.609c0-2.545,2.064-4.609,4.61-4.609C-4967.48,548.86-4965.417,550.925-4965.417,553.47"/>
		
			<line clip-path="url(#SVGID_36_)" fill="none" stroke="#EB6C77" stroke-width="6.569" stroke-linecap="round" stroke-linejoin="round" stroke-miterlimit="10" x1="-4843.642" y1="499.651" x2="-4843.642" y2="514.654"/>
		
			<line clip-path="url(#SVGID_36_)" fill="none" stroke="#EB6C77" stroke-width="6.569" stroke-linecap="round" stroke-linejoin="round" stroke-miterlimit="10" x1="-4851.143" y1="507.152" x2="-4836.141" y2="507.152"/>
		
			<line clip-path="url(#SVGID_36_)" fill="none" stroke="#538FCC" stroke-width="3.941" stroke-linecap="round" stroke-linejoin="round" stroke-miterlimit="10" x1="-5049.079" y1="516.013" x2="-5049.079" y2="531.016"/>
		
			<line clip-path="url(#SVGID_36_)" fill="none" stroke="#538FCC" stroke-width="3.941" stroke-linecap="round" stroke-linejoin="round" stroke-miterlimit="10" x1="-5056.58" y1="523.515" x2="-5041.578" y2="523.515"/>
		
			<line clip-path="url(#SVGID_36_)" fill="none" stroke="#F08B1E" stroke-width="3.941" stroke-linecap="round" stroke-linejoin="round" stroke-miterlimit="10" x1="-5128.534" y1="653.696" x2="-5128.534" y2="663.108"/>
		
			<line clip-path="url(#SVGID_36_)" fill="none" stroke="#F08B1E" stroke-width="3.941" stroke-linecap="round" stroke-linejoin="round" stroke-miterlimit="10" x1="-5133.24" y1="658.403" x2="-5123.828" y2="658.403"/>
	</g>
</g>
<path fill="none" stroke="#595857" stroke-width="2" stroke-linecap="round" stroke-linejoin="round" stroke-miterlimit="10" d="
	M-5071.374,801.501c0,2.602,1.864,4.717,4.167,4.717h243.418c2.304,0,4.167-2.115,4.167-4.717v-22.648
	c0-2.604-1.863-4.703-4.167-4.703h-243.418c-2.303,0-4.167,2.1-4.167,4.703V801.501z"/>
<g opacity="0.1">
	<g>
		<defs>
			<rect id="SVGID_41_" x="-5131.549" y="693.04" width="24.295" height="29.48"/>
		</defs>
		<clipPath id="SVGID_42_">
			<use xlink:href="#SVGID_41_"  overflow="visible"/>
		</clipPath>
		<polygon clip-path="url(#SVGID_42_)" fill="#F4CC25" points="-5131.549,722.519 -5124.866,693.042 -5111.791,693.042 
			-5107.254,722.519 		"/>
	</g>
</g>
<path fill="none" stroke="#595857" stroke-width="2" stroke-linecap="round" stroke-linejoin="round" stroke-miterlimit="10" d="
	M-5121.638,748.437c-2.479-2.465-4.831-7.704-5.645-11.118c-0.734-3.071-0.48-9.528,2.343-12.826h15.568
	c2.824,3.298,3.077,9.755,2.343,12.826c-0.817,3.414-3.162,8.653-5.644,11.118H-5121.638z"/>
<polygon fill="none" stroke="#595857" stroke-width="2" stroke-linecap="round" stroke-linejoin="round" stroke-miterlimit="10" points="
	-5105.938,692.183 -5107.632,692.183 -5098.64,723.376 -5096.008,723.376 "/>
<polygon fill="none" stroke="#595857" stroke-width="2" stroke-linecap="round" stroke-linejoin="round" stroke-miterlimit="10" points="
	-5110.191,692.183 -5103.508,723.376 -5101.717,723.376 -5108.783,692.183 "/>
<polygon fill="none" stroke="#595857" stroke-width="2" stroke-linecap="round" stroke-linejoin="round" stroke-miterlimit="10" points="
	-5126.341,692.183 -5128.022,692.183 -5137.953,723.376 -5135.33,723.376 "/>
<polygon fill="none" stroke="#595857" stroke-width="2" stroke-linecap="round" stroke-linejoin="round" stroke-miterlimit="10" points="
	-5132.256,723.376 -5125.184,692.184 -5111.349,692.184 -5106.547,723.376 "/>
<g opacity="0.1">
	<g>
		<defs>
			<rect id="SVGID_43_" x="-5148.288" y="751.97" width="62.767" height="12.46"/>
		</defs>
		<clipPath id="SVGID_44_">
			<use xlink:href="#SVGID_43_"  overflow="visible"/>
		</clipPath>
		<path clip-path="url(#SVGID_44_)" fill="#2CA6E0" d="M-5085.522,751.976h-62.767v12.453h62.767V751.976z M-5121.362,759.382
			c-0.67,0-1.212-0.605-1.212-1.369c0-0.758,0.542-1.371,1.212-1.371h8.913c0.67,0,1.213,0.613,1.213,1.371
			c0,0.764-0.543,1.369-1.213,1.369H-5121.362"/>
	</g>
</g>
<g opacity="0.1">
	<g>
		<defs>
			<rect id="SVGID_45_" x="-5148.288" y="765.79" width="62.767" height="13.039"/>
		</defs>
		<clipPath id="SVGID_46_">
			<use xlink:href="#SVGID_45_"  overflow="visible"/>
		</clipPath>
		<path clip-path="url(#SVGID_46_)" fill="#2CA6E0" d="M-5085.522,765.792h-62.767v13.039h62.767V765.792z M-5121.362,773.688
			c-0.67,0-1.212-0.612-1.212-1.37c0-0.757,0.542-1.377,1.212-1.377h8.913c0.67,0,1.213,0.62,1.213,1.377
			c0,0.758-0.543,1.37-1.213,1.37H-5121.362"/>
	</g>
</g>
<g opacity="0.1">
	<g>
		<defs>
			<rect id="SVGID_47_" x="-5148.288" y="780.5" width="62.767" height="26.25"/>
		</defs>
		<clipPath id="SVGID_48_">
			<use xlink:href="#SVGID_47_"  overflow="visible"/>
		</clipPath>
		<path clip-path="url(#SVGID_48_)" fill="#2CA6E0" d="M-5148.289,780.503v23.896c0,1.294,0.932,2.354,2.083,2.354h58.604
			c1.152,0,2.08-1.06,2.08-2.354v-23.896H-5148.289z M-5121.362,787.415c-0.67,0-1.212-0.613-1.212-1.376
			c0-0.751,0.542-1.364,1.212-1.364h8.913c0.67,0,1.213,0.613,1.213,1.364c0,0.763-0.543,1.376-1.213,1.376H-5121.362"/>
	</g>
</g>
<g opacity="0.1">
	<g>
		<defs>
			<rect id="SVGID_49_" x="-4787.79" y="693.04" width="24.29" height="29.48"/>
		</defs>
		<clipPath id="SVGID_50_">
			<use xlink:href="#SVGID_49_"  overflow="visible"/>
		</clipPath>
		<polygon clip-path="url(#SVGID_50_)" fill="#F4CC25" points="-4787.792,722.519 -4781.107,693.042 -4768.032,693.042 
			-4763.497,722.519 		"/>
	</g>
</g>
<path fill="none" stroke="#595857" stroke-width="2" stroke-linecap="round" stroke-linejoin="round" stroke-miterlimit="10" d="
	M-4777.879,748.437c-2.479-2.465-4.831-7.704-5.645-11.118c-0.734-3.071-0.48-9.528,2.343-12.826h15.568
	c2.824,3.298,3.077,9.755,2.343,12.826c-0.817,3.414-3.162,8.653-5.644,11.118H-4777.879z"/>
<polygon fill="none" stroke="#595857" stroke-width="2" stroke-linecap="round" stroke-linejoin="round" stroke-miterlimit="10" points="
	-4762.18,692.183 -4763.874,692.183 -4754.882,723.376 -4752.25,723.376 "/>
<polygon fill="none" stroke="#595857" stroke-width="2" stroke-linecap="round" stroke-linejoin="round" stroke-miterlimit="10" points="
	-4766.433,692.183 -4759.75,723.376 -4757.958,723.376 -4765.026,692.183 "/>
<polygon fill="none" stroke="#595857" stroke-width="2" stroke-linecap="round" stroke-linejoin="round" stroke-miterlimit="10" points="
	-4782.583,692.183 -4784.264,692.183 -4794.195,723.376 -4791.572,723.376 "/>
<polygon fill="none" stroke="#595857" stroke-width="2" stroke-linecap="round" stroke-linejoin="round" stroke-miterlimit="10" points="
	-4788.498,723.376 -4781.425,692.184 -4767.59,692.184 -4762.789,723.376 "/>
<g opacity="0.1">
	<g>
		<defs>
			<rect id="SVGID_51_" x="-4804.53" y="751.97" width="62.771" height="54.78"/>
		</defs>
		<clipPath id="SVGID_52_">
			<use xlink:href="#SVGID_51_"  overflow="visible"/>
		</clipPath>
		<path clip-path="url(#SVGID_52_)" fill="#2CA6E0" d="M-4741.763,751.976h-62.767v12.453h62.767V751.976z M-4777.603,759.382
			c-0.67,0-1.212-0.605-1.212-1.369c0-0.758,0.542-1.371,1.212-1.371h8.913c0.67,0,1.213,0.613,1.213,1.371
			c0,0.764-0.543,1.369-1.213,1.369H-4777.603"/>
		<path clip-path="url(#SVGID_52_)" fill="#2CA6E0" d="M-4741.763,765.792h-62.767v13.039h62.767V765.792z M-4777.603,773.688
			c-0.67,0-1.212-0.612-1.212-1.37c0-0.757,0.542-1.377,1.212-1.377h8.913c0.67,0,1.213,0.62,1.213,1.377
			c0,0.758-0.543,1.37-1.213,1.37H-4777.603"/>
		<path clip-path="url(#SVGID_52_)" fill="#2CA6E0" d="M-4804.53,780.503v23.896c0,1.294,0.932,2.354,2.083,2.354h58.604
			c1.152,0,2.08-1.06,2.08-2.354v-23.896H-4804.53z M-4777.603,787.415c-0.67,0-1.212-0.613-1.212-1.376
			c0-0.751,0.542-1.364,1.212-1.364h8.913c0.67,0,1.213,0.613,1.213,1.364c0,0.763-0.543,1.376-1.213,1.376H-4777.603"/>
		<g opacity="0.1" clip-path="url(#SVGID_52_)">
			<g>
				<defs>
					<rect id="SVGID_53_" x="-4804.53" y="751.97" width="62.771" height="12.46"/>
				</defs>
				<clipPath id="SVGID_54_">
					<use xlink:href="#SVGID_53_"  overflow="visible"/>
				</clipPath>
				<path clip-path="url(#SVGID_54_)" fill="#717071" d="M-4741.763,751.976h-62.767v12.453h62.767V751.976z M-4777.603,759.382
					c-0.67,0-1.212-0.605-1.212-1.369c0-0.758,0.542-1.371,1.212-1.371h8.913c0.67,0,1.213,0.613,1.213,1.371
					c0,0.764-0.543,1.369-1.213,1.369H-4777.603"/>
			</g>
		</g>
		<g opacity="0.1" clip-path="url(#SVGID_52_)">
			<g>
				<defs>
					<rect id="SVGID_55_" x="-4804.53" y="765.79" width="62.771" height="13.039"/>
				</defs>
				<clipPath id="SVGID_56_">
					<use xlink:href="#SVGID_55_"  overflow="visible"/>
				</clipPath>
				<path clip-path="url(#SVGID_56_)" fill="#717071" d="M-4741.763,765.792h-62.767v13.039h62.767V765.792z M-4777.603,773.688
					c-0.67,0-1.212-0.612-1.212-1.37c0-0.757,0.542-1.377,1.212-1.377h8.913c0.67,0,1.213,0.62,1.213,1.377
					c0,0.758-0.543,1.37-1.213,1.37H-4777.603"/>
			</g>
		</g>
		<g opacity="0.1" clip-path="url(#SVGID_52_)">
			<g>
				<defs>
					<rect id="SVGID_57_" x="-4804.53" y="780.5" width="62.771" height="26.25"/>
				</defs>
				<clipPath id="SVGID_58_">
					<use xlink:href="#SVGID_57_"  overflow="visible"/>
				</clipPath>
				<path clip-path="url(#SVGID_58_)" fill="#717071" d="M-4804.53,780.503v23.896c0,1.294,0.932,2.354,2.083,2.354h58.604
					c1.152,0,2.08-1.06,2.08-2.354v-23.896H-4804.53z M-4777.603,787.415c-0.67,0-1.212-0.613-1.212-1.376
					c0-0.751,0.542-1.364,1.212-1.364h8.913c0.67,0,1.213,0.613,1.213,1.364c0,0.763-0.543,1.376-1.213,1.376H-4777.603"/>
			</g>
		</g>
	</g>
</g>
<rect x="-5150.898" y="750.102" fill="none" stroke="#595857" stroke-width="2" stroke-linecap="round" stroke-linejoin="round" stroke-miterlimit="10" width="67.836" height="2.062"/>
<path fill="none" stroke="#595857" stroke-width="2" stroke-linecap="round" stroke-linejoin="round" stroke-miterlimit="10" d="
	M-5085.597,751.976h-62.767v12.453h62.767V751.976z M-5121.437,759.382c-0.67,0-1.212-0.605-1.212-1.369
	c0-0.758,0.542-1.371,1.212-1.371h8.913c0.67,0,1.213,0.613,1.213,1.371c0,0.764-0.543,1.369-1.213,1.369H-5121.437"/>
<path fill="none" stroke="#595857" stroke-width="2" stroke-linecap="round" stroke-linejoin="round" stroke-miterlimit="10" d="
	M-5085.597,765.792h-62.767v13.039h62.767V765.792z M-5121.437,773.688c-0.67,0-1.212-0.612-1.212-1.37
	c0-0.757,0.542-1.377,1.212-1.377h8.913c0.67,0,1.213,0.62,1.213,1.377c0,0.758-0.543,1.37-1.213,1.37H-5121.437"/>
<path fill="none" stroke="#595857" stroke-width="2" stroke-linecap="round" stroke-linejoin="round" stroke-miterlimit="10" d="
	M-5148.364,780.503v23.896c0,1.294,0.932,2.354,2.083,2.354h58.604c1.152,0,2.08-1.06,2.08-2.354v-23.896H-5148.364z
	 M-5121.437,787.415c-0.67,0-1.212-0.613-1.212-1.376c0-0.751,0.542-1.364,1.212-1.364h8.913c0.67,0,1.213,0.613,1.213,1.364
	c0,0.763-0.543,1.376-1.213,1.376H-5121.437"/>
<path fill="none" stroke="#595857" stroke-width="2" stroke-linecap="round" stroke-linejoin="round" stroke-miterlimit="10" d="
	M-5148.364,780.503v23.896c0,1.294,0.932,2.354,2.083,2.354h58.604c1.152,0,2.08-1.06,2.08-2.354v-23.896H-5148.364z
	 M-5121.437,787.415c-0.67,0-1.212-0.613-1.212-1.376c0-0.751,0.542-1.364,1.212-1.364h8.913c0.67,0,1.213,0.613,1.213,1.364
	c0,0.763-0.543,1.376-1.213,1.376H-5121.437"/>
<path fill="none" stroke="#595857" stroke-width="2" stroke-linecap="round" stroke-linejoin="round" stroke-miterlimit="10" d="
	M-5148.364,780.503v23.896c0,1.294,0.932,2.354,2.083,2.354h58.604c1.152,0,2.08-1.06,2.08-2.354v-23.896H-5148.364z
	 M-5121.437,787.415c-0.67,0-1.212-0.613-1.212-1.376c0-0.751,0.542-1.364,1.212-1.364h8.913c0.67,0,1.213,0.613,1.213,1.364
	c0,0.763-0.543,1.376-1.213,1.376H-5121.437"/>
<rect x="-4807.141" y="750.102" fill="none" stroke="#595857" stroke-width="2" stroke-linecap="round" stroke-linejoin="round" stroke-miterlimit="10" width="67.836" height="2.062"/>
<path fill="none" stroke="#595857" stroke-width="2" stroke-linecap="round" stroke-linejoin="round" stroke-miterlimit="10" d="
	M-4741.839,751.976h-62.767v12.453h62.767V751.976z M-4777.679,759.382c-0.67,0-1.212-0.605-1.212-1.369
	c0-0.758,0.542-1.371,1.212-1.371h8.913c0.67,0,1.213,0.613,1.213,1.371c0,0.764-0.543,1.369-1.213,1.369H-4777.679"/>
<path fill="none" stroke="#595857" stroke-width="2" stroke-linecap="round" stroke-linejoin="round" stroke-miterlimit="10" d="
	M-4741.839,765.792h-62.767v13.039h62.767V765.792z M-4777.679,773.688c-0.67,0-1.212-0.612-1.212-1.37
	c0-0.757,0.542-1.377,1.212-1.377h8.913c0.67,0,1.213,0.62,1.213,1.377c0,0.758-0.543,1.37-1.213,1.37H-4777.679"/>
<path fill="none" stroke="#595857" stroke-width="2" stroke-linecap="round" stroke-linejoin="round" stroke-miterlimit="10" d="
	M-4804.606,780.503v23.896c0,1.294,0.932,2.354,2.083,2.354h58.604c1.152,0,2.08-1.06,2.08-2.354v-23.896H-4804.606z
	 M-4777.679,787.415c-0.67,0-1.212-0.613-1.212-1.376c0-0.751,0.542-1.364,1.212-1.364h8.913c0.67,0,1.213,0.613,1.213,1.364
	c0,0.763-0.543,1.376-1.213,1.376H-4777.679"/>
<path fill="none" stroke="#595857" stroke-width="2" stroke-linecap="round" stroke-linejoin="round" stroke-miterlimit="10" d="
	M-4804.606,780.503v23.896c0,1.294,0.932,2.354,2.083,2.354h58.604c1.152,0,2.08-1.06,2.08-2.354v-23.896H-4804.606z
	 M-4777.679,787.415c-0.67,0-1.212-0.613-1.212-1.376c0-0.751,0.542-1.364,1.212-1.364h8.913c0.67,0,1.213,0.613,1.213,1.364
	c0,0.763-0.543,1.376-1.213,1.376H-4777.679"/>
<path fill="none" stroke="#595857" stroke-width="2" stroke-linecap="round" stroke-linejoin="round" stroke-miterlimit="10" d="
	M-4804.606,780.503v23.896c0,1.294,0.932,2.354,2.083,2.354h58.604c1.152,0,2.08-1.06,2.08-2.354v-23.896H-4804.606z
	 M-4777.679,787.415c-0.67,0-1.212-0.613-1.212-1.376c0-0.751,0.542-1.364,1.212-1.364h8.913c0.67,0,1.213,0.613,1.213,1.364
	c0,0.763-0.543,1.376-1.213,1.376H-4777.679"/>
</svg>
