<?xml version="1.0" encoding="utf-8"?>
<!-- Generator: Adobe Illustrator 16.0.0, SVG Export Plug-In . SVG Version: 6.00 Build 0)  -->
<!DOCTYPE svg PUBLIC "-//W3C//DTD SVG 1.1//EN" "http://www.w3.org/Graphics/SVG/1.1/DTD/svg11.dtd">
<svg version="1.1" id="图层_1" xmlns="http://www.w3.org/2000/svg" xmlns:xlink="http://www.w3.org/1999/xlink" x="0px" y="0px"
	 width="1280px" height="800.73px" viewBox="0 0 1280 800.73" enable-background="new 0 0 1280 800.73" xml:space="preserve">
<path fill="#606060" d="M11331.553-322.999"/>
<path fill="none" d="M11331.553-322.998"/>
<path fill="none" d="M11331.553-322.998"/>
<path fill="none" d="M11331.553-322.998"/>
<path fill="none" d="M11331.553-322.998"/>
<path fill="none" d="M11331.553-322.998"/>
<path fill="none" d="M11331.553-322.998"/>
<line fill="#FFFFFF" x1="1280" y1="800.271" x2="0" y2="800.271"/>
<path fill="none" d="M11331.553-322.998"/>
<path fill="none" d="M11331.553-322.998"/>
<defs>
	<filter id="Adobe_OpacityMaskFilter" filterUnits="userSpaceOnUse" x="134.795" y="698.324" width="1012.96" height="60.816">
		<feColorMatrix  type="matrix" values="1 0 0 0 0  0 1 0 0 0  0 0 1 0 0  0 0 0 1 0"/>
	</filter>
</defs>
<mask maskUnits="userSpaceOnUse" x="134.795" y="698.324" width="1012.96" height="60.816" id="SVGID_1_">
	<g filter="url(#Adobe_OpacityMaskFilter)">
		<rect x="134.791" y="405.8" width="1012.964" height="353.336"/>
		<g enable-background="new    ">
			<g>
				<defs>
					<rect id="SVGID_2_" x="134.795" y="405.8" width="1012.96" height="353.34"/>
				</defs>
				<clipPath id="SVGID_3_">
					<use xlink:href="#SVGID_2_"  overflow="visible"/>
				</clipPath>
				
					<linearGradient id="SVGID_4_" gradientUnits="userSpaceOnUse" x1="-1599.479" y1="4662.9941" x2="-1598.479" y2="4662.9941" gradientTransform="matrix(0 332.849 332.849 0 -1551435.375 532791.625)">
					<stop  offset="0" style="stop-color:#070001"/>
					<stop  offset="0.0591" style="stop-color:#FFFFFF"/>
					<stop  offset="0.8333" style="stop-color:#FFFFFF"/>
					<stop  offset="1" style="stop-color:#070001"/>
				</linearGradient>
				<rect x="93.704" y="406.599" clip-path="url(#SVGID_3_)" fill="url(#SVGID_4_)" width="1087.722" height="332.85"/>
			</g>
		</g>
	</g>
</mask>
<g mask="url(#SVGID_1_)">
	<g>
		<defs>
			<line id="SVGID_5_" x1="134.795" y1="759.14" x2="1147.755" y2="759.14"/>
		</defs>
		<clipPath id="SVGID_6_">
			<use xlink:href="#SVGID_5_"  overflow="visible"/>
		</clipPath>
		<path clip-path="url(#SVGID_6_)" fill-rule="evenodd" clip-rule="evenodd" fill="#B4B3B3" d="M1028.454,734.322
			c-2.149,1.528-4.534,2.593-7.089,3.16c-2.468,0.549-4.988,0.613-7.49,0.192c-2.503-0.421-4.864-1.306-7.016-2.632
			c-2.229-1.372-4.134-3.157-5.664-5.307c-1.531-2.148-2.594-4.533-3.162-7.088c-0.548-2.468-0.613-4.988-0.192-7.491
			c0.421-2.503,1.307-4.864,2.632-7.015c1.372-2.229,3.157-4.135,5.306-5.665c2.561-1.824,5.552-3.014,8.648-3.441l0.012-0.002
			c0.176-0.022,1.741-0.186,2.544,0.941c0.381,0.534,0.477,1.218,0.27,1.926c-0.123,0.425-0.321,0.738-0.359,0.797l-0.038,0.058
			l-0.045,0.053c-1.871,2.213-2.979,5.035-3.118,7.946c-0.146,3.001,0.702,5.884,2.449,8.337c1.747,2.454,4.195,4.197,7.078,5.042
			c2.797,0.82,5.825,0.697,8.528-0.348l0.069-0.023c0.447-0.141,1.962-0.517,2.709,0.532c0.367,0.515,0.472,1.192,0.312,2.009
			c-0.094,0.477-0.253,0.857-0.27,0.898l-0.016,0.037l-0.018,0.035C1033.118,730.061,1031.015,732.498,1028.454,734.322
			 M1007.113,704.351c-3.753,2.672-6.24,6.646-7.004,11.188c-0.764,4.543,0.287,9.111,2.959,12.863
			c2.672,3.754,6.645,6.24,11.188,7.004c4.543,0.765,9.111-0.285,12.864-2.959c2.279-1.621,4.076-3.698,5.343-6.172
			c0.04-0.103,0.075-0.221,0.102-0.334c-0.011,0.004-0.022,0.006-0.033,0.01c-3.16,1.209-6.694,1.348-9.958,0.391
			c-1.642-0.482-3.182-1.223-4.575-2.203c-1.443-1.015-2.697-2.263-3.729-3.712c-1.031-1.449-1.801-3.043-2.288-4.738
			c-0.471-1.637-0.667-3.335-0.585-5.044c0.163-3.378,1.437-6.655,3.591-9.239c0.012-0.025,0.025-0.052,0.035-0.079
			c-0.103-0.016-0.226-0.018-0.288-0.011C1011.966,701.699,1009.403,702.72,1007.113,704.351"/>
		<path clip-path="url(#SVGID_6_)" fill-rule="evenodd" clip-rule="evenodd" fill="#B4B3B3" d="M790.709,731.194
			c-0.43-0.577-1.239-0.688-1.807-0.258l-1.703,1.282l-5.729-7.612c0.809-0.921,1.333-2.05,1.514-3.298
			c0.232-1.679-0.198-3.341-1.213-4.702l-10.091-13.433c-0.008-0.009-0.008-0.009-0.018-0.018l-2.305-3.065
			c-0.43-0.569-1.239-0.681-1.807-0.259l-2.882,2.17l-2.881-2.17c-0.568-0.422-1.377-0.31-1.807,0.259l-2.305,3.065
			c-0.009,0.009-0.018,0.026-0.026,0.035l-10.082,13.416c-1.015,1.361-1.445,3.023-1.213,4.702c0.18,1.248,0.705,2.377,1.514,3.298
			l-5.729,7.612l-1.704-1.282c-0.568-0.431-1.376-0.319-1.806,0.249c-0.43,0.577-0.318,1.386,0.258,1.816l2.736,2.059l2.744,2.066
			c0.232,0.174,0.498,0.259,0.774,0.259c0.387,0,0.774-0.181,1.032-0.517c0.43-0.568,0.31-1.377-0.258-1.809l-1.712-1.291
			l5.738-7.613c0.834,0.396,1.738,0.604,2.667,0.604c0.301,0,0.602-0.018,0.903-0.061c1.677-0.24,3.157-1.111,4.181-2.472
			l6.951-9.335l7.011,9.335c1.238,1.662,3.139,2.532,5.066,2.532c0.912,0,1.824-0.198,2.676-0.604l5.738,7.613l-1.712,1.291
			c-0.568,0.432-0.689,1.24-0.258,1.809c0.258,0.336,0.646,0.517,1.032,0.517c0.275,0,0.542-0.085,0.774-0.259l2.744-2.066
			l2.736-2.059C791.028,732.571,791.14,731.763,790.709,731.194 M780.43,720.946c-0.139,0.991-0.662,1.878-1.462,2.48
			c-1.652,1.239-4.009,0.903-5.257-0.749l-7.466-9.938l3.313-4.443c0.43-0.568,0.309-1.378-0.259-1.808
			c-0.576-0.422-1.385-0.31-1.806,0.267l-2.865,3.84l-2.856-3.806c-0.43-0.577-1.23-0.689-1.806-0.258
			c-0.568,0.43-0.68,1.24-0.25,1.808l3.312,4.409l-7.398,9.929c-0.602,0.801-1.488,1.326-2.477,1.464
			c-0.99,0.138-1.979-0.12-2.779-0.715c-0.8-0.603-1.325-1.489-1.462-2.48c-0.138-0.99,0.112-1.98,0.714-2.781l11.639-15.492
			l2.589,1.946c0.06,0.052,0.129,0.095,0.198,0.129c0.035,0.017,0.069,0.035,0.103,0.052h0.009c0.061,0.034,0.129,0.06,0.189,0.069
			c0.103,0.034,0.215,0.043,0.318,0.043c0.061,0,0.129-0.009,0.19-0.017c0.206-0.026,0.404-0.112,0.585-0.241l0.043-0.035
			l2.589-1.946l11.639,15.492C780.318,718.966,780.568,719.957,780.43,720.946"/>
		<path clip-path="url(#SVGID_6_)" fill-rule="evenodd" clip-rule="evenodd" fill="#B4B3B3" d="M898.678,706.619h-8.211
			c0.073-2.803,0.75-4.222,3.798-4.519c0.644-0.063,1.118-0.637,1.055-1.283c-0.064-0.646-0.639-1.104-1.286-1.055
			c-5.487,0.533-5.896,4.512-5.929,6.857h-5.877c-5.83,0-10.575,4.745-10.575,10.575v11.75c0,5.128,1.866,7.919,5.288,8.225
			c4.112,0.367,6.784-2.247,9.645-5.043c2.987-2.923,5.302-2.519,7.738,0c2.783,2.876,5.163,5.078,9.645,5.043
			c3.435,0,5.287-3.097,5.287-8.225v-11.75C909.253,711.364,904.508,706.619,898.678,706.619 M906.903,728.944
			c0,4.944-1.772,5.778-2.938,5.875c-3.525,0.294-5.414-1.788-7.98-4.356c-1.474-1.47-3.438-2.877-5.532-2.877
			s-4.058,1.407-5.532,2.879c-2.566,2.563-5.043,4.502-7.98,4.354c-1.168-0.056-2.938-0.931-2.938-5.875v-11.75
			c0-4.535,3.689-8.225,8.225-8.225h16.45c4.535,0,8.225,3.69,8.225,8.225V728.944z M885.753,720.719h-2.35v2.35h-2.35v-2.35h-2.35
			v-2.35h2.35v-2.35h2.35v2.35h2.35V720.719z M895.153,719.544c0-1.945,1.577-3.525,3.525-3.525s3.525,1.58,3.525,3.525
			c0,1.948-1.577,3.525-3.525,3.525S895.153,721.492,895.153,719.544"/>
		<path clip-path="url(#SVGID_6_)" fill-rule="evenodd" clip-rule="evenodd" fill="#B4B3B3" d="M500.88,734.967
			c-1.895,0-4.015-1.505-4.015-3.521v-15.317l-0.779,0.64c-0.186,0.146-0.409,0.225-0.645,0.225c-0.318,0-0.615-0.146-0.816-0.4
			c-0.36-0.456-0.281-1.122,0.175-1.483l15.628-12.355c0.621-0.49,1.435-0.76,2.293-0.76c0.857,0,1.669,0.27,2.289,0.76
			l15.632,12.355c0.221,0.174,0.36,0.425,0.392,0.705c0.032,0.28-0.048,0.556-0.223,0.778c-0.201,0.254-0.504,0.399-0.831,0.399
			c-0.245,0-0.48-0.08-0.663-0.226l-0.74-0.561v15.24c0,2.14-1.189,3.521-3.028,3.521H500.88z M512.721,723.041
			c2.42,0,3.522,1.451,3.522,2.799v6.844l0.045,0.072v0.178l0.158-0.076h9.103c0.61,0,0.919-0.475,0.919-1.412v-16.917
			l-12.793-10.119c-0.249-0.195-0.605-0.306-0.977-0.306c-0.373,0-0.729,0.112-0.976,0.306l-12.748,10.061v16.975
			c0,0.714,1.092,1.412,1.906,1.412h8.351v-0.25l-0.032-0.038v-6.729C509.199,724.492,510.301,723.041,512.721,723.041
			 M512.721,725.152c-0.652,0-1.413,0.181-1.413,0.688v7.018h2.826v-7.018C514.134,725.333,513.373,725.152,512.721,725.152"/>
		<path clip-path="url(#SVGID_6_)" fill-rule="evenodd" clip-rule="evenodd" fill="#B4B3B3" d="M500.88,734.967
			c-1.895,0-4.015-1.505-4.015-3.521v-15.317l-0.779,0.64c-0.186,0.146-0.409,0.225-0.645,0.225c-0.318,0-0.615-0.146-0.816-0.4
			c-0.36-0.456-0.281-1.122,0.175-1.483l15.628-12.355c0.621-0.49,1.435-0.76,2.293-0.76c0.857,0,1.669,0.27,2.289,0.76
			l15.632,12.355c0.221,0.174,0.36,0.425,0.392,0.705c0.032,0.28-0.048,0.556-0.223,0.778c-0.201,0.254-0.504,0.399-0.831,0.399
			c-0.245,0-0.48-0.08-0.663-0.226l-0.74-0.561v15.24c0,2.14-1.189,3.521-3.028,3.521H500.88z M512.721,723.041
			c2.42,0,3.522,1.451,3.522,2.799v6.844l0.045,0.072v0.178l0.158-0.076h9.103c0.61,0,0.919-0.475,0.919-1.412v-16.917
			l-12.793-10.119c-0.249-0.195-0.605-0.306-0.977-0.306c-0.373,0-0.729,0.112-0.976,0.306l-12.748,10.061v16.975
			c0,0.714,1.092,1.412,1.906,1.412h8.351v-0.25l-0.032-0.038v-6.729C509.199,724.492,510.301,723.041,512.721,723.041
			 M512.721,725.152c-0.652,0-1.413,0.181-1.413,0.688v7.018h2.826v-7.018C514.134,725.333,513.373,725.152,512.721,725.152"/>
		<path clip-path="url(#SVGID_6_)" fill-rule="evenodd" clip-rule="evenodd" fill="#B4B3B3" d="M653.893,703.445
			c-0.262-0.227-0.604-0.331-0.948-0.283l-19.412,2.683c-0.591,0.081-1.031,0.586-1.031,1.183v20.542
			c0,2.125-1.728,3.854-3.853,3.854c-2.124,0-3.854-1.729-3.854-3.854c0-2.123,1.73-3.852,3.854-3.852
			c0.522,0,1.026,0.102,1.5,0.301c0.606,0.258,1.308-0.027,1.565-0.634c0.256-0.608-0.027-1.31-0.635-1.565
			c-0.769-0.325-1.587-0.49-2.43-0.49c-3.442,0-6.242,2.799-6.242,6.24c0,3.441,2.8,6.241,6.242,6.241
			c3.441,0,6.241-2.8,6.241-6.241v-12.635l17.024-2.352v12.304c0,2.125-1.728,3.854-3.853,3.854c-2.124,0-3.853-1.729-3.853-3.854
			c0-2.124,1.728-3.853,3.853-3.853c0.52,0,1.025,0.102,1.5,0.303c0.606,0.257,1.308-0.028,1.563-0.637
			c0.257-0.607-0.028-1.307-0.635-1.564c-0.771-0.325-1.587-0.49-2.428-0.49c-3.441,0-6.241,2.8-6.241,6.241
			c0,3.442,2.8,6.242,6.241,6.242s6.241-2.8,6.241-6.242v-20.543C654.302,704,654.153,703.672,653.893,703.445 M634.89,712.524
			v-4.457l17.024-2.353v4.457L634.89,712.524z"/>
		<path clip-path="url(#SVGID_6_)" fill-rule="evenodd" clip-rule="evenodd" fill="#B4B3B3" d="M402.774,734.027
			c-0.252,0-0.458-0.205-0.458-0.46v-2.545h-31.54v2.545c0,0.255-0.206,0.46-0.458,0.46h-4.085c-0.252,0-0.457-0.205-0.457-0.46
			v-6.806c0-2.2,0.363-4.135,1.08-5.752c0.315-0.709,0.702-1.366,1.152-1.95l0.03-0.04v-14.303c0-0.999,0.747-1.782,1.7-1.782
			h33.667c0.902,0,1.664,0.816,1.664,1.782v14.261l0.031,0.039c0.459,0.598,0.853,1.269,1.17,1.996
			c0.704,1.612,1.061,3.546,1.061,5.749l-0.014,6.807c0,0.254-0.206,0.459-0.458,0.459H402.774z M403.297,729.315
			c0.253,0,0.458,0.206,0.458,0.46v2.676h1.733l0.013-5.229H367.67v5.229h1.603v-2.676c0-0.254,0.205-0.46,0.458-0.46H403.297z
			 M374.664,717.395c-1.832,0.208-3.16,0.669-4.568,2.411c-0.021,0.025-2.263,2.81-2.263,5.709v0.147h37.508l-0.024-0.17
			c-0.505-3.436-1.021-4.506-3.068-6.36c-0.691-0.626-1.703-1.543-3.905-1.737c-0.095-0.004-8.826-0.329-11.939-0.329
			L374.664,717.395z M397.827,710.951c2.445,0,3.443,1.004,3.443,3.465v2.658l0.074,0.042c0.158,0.09,0.367,0.185,0.589,0.287
			c0.373,0.17,0.796,0.363,1.042,0.566l0.394,0.34l0.001-12.523c0-0.391-0.28-0.795-0.749-0.795h-31.969
			c-0.461,0-0.784,0.327-0.784,0.795v12.124h0.324l0.037-0.026c0.235-0.158,0.594-0.312,0.911-0.447
			c0.241-0.103,0.466-0.2,0.623-0.289l0.075-0.042v-2.69c0-2.526,0.879-3.465,3.246-3.465h8.459c1.44,0,2.359,0.345,2.89,1.085
			l0.121,0.167l0.12-0.167c0.531-0.74,1.45-1.085,2.89-1.085H397.827z M389.89,712.507c-1.852,0-2.552,0.188-2.552,2.184v0.65h9.838
			c0.759,0,1.702,0.195,2.585,0.535l0.201,0.078v-1.231c0-2.025-0.693-2.216-2.527-2.216H389.89z M375.411,712.507
			c-1.927,0-2.266,0.341-2.266,2.281v1.126l0.202-0.079c1.018-0.397,1.674-0.559,2.266-0.559h10.091v-0.519
			c0-1.94-0.591-2.25-2.488-2.25H375.411z"/>
		<path clip-path="url(#SVGID_6_)" fill="#B4B3B3" d="M271.392,738.64c-7.229,0-9.157-8.827-9.157-14.044
			c0-3.205,1.719-4.925,2.975-6.181c1.151-1.15,1.911-1.91,1.911-3.602V702.59c0-2.353,1.913-4.266,4.266-4.266
			c2.353,0,4.266,1.913,4.266,4.266v12.223c0,1.683,0.755,2.441,1.897,3.588c1.27,1.269,2.989,2.989,2.989,6.195
			c0.004,0.313,0.035,7.95-3.818,11.842C275.274,737.898,273.482,738.64,271.392,738.64 M271.387,700.641
			c-1.074,0-1.948,0.874-1.948,1.949v12.223c0,2.652-1.317,3.968-2.59,5.241c-1.181,1.181-2.296,2.298-2.296,4.542
			c0,0.479,0.077,11.727,6.839,11.727c1.468,0,2.672-0.496,3.682-1.516c2.639-2.666,3.167-8.267,3.148-10.199
			c0-2.258-1.116-3.373-2.297-4.554c-1.282-1.287-2.59-2.6-2.59-5.241V702.59C273.335,701.515,272.461,700.641,271.387,700.641"/>
		<path clip-path="url(#SVGID_6_)" fill="#B4B3B3" d="M249.391,738.64c-2.355,0-4.271-1.916-4.271-4.271v-12.225
			c0-1.684-0.755-2.44-1.897-3.588c-1.271-1.27-2.989-2.99-2.989-6.189v-9.778c0-2.353,1.913-4.266,4.266-4.266
			c0.88,0,1.733,0.271,2.447,0.772c1.439-1.006,3.467-0.999,4.891,0c0.717-0.502,1.569-0.772,2.445-0.772
			c2.352,0,4.266,1.913,4.266,4.266v9.778c0,3.193-1.715,4.915-2.968,6.172c-1.159,1.159-1.919,1.919-1.919,3.61v12.223
			C253.656,736.727,251.74,738.64,249.391,738.64 M244.5,700.641c-1.074,0-1.948,0.874-1.948,1.949v9.778
			c0,2.239,1.115,3.355,2.296,4.536c1.282,1.287,2.59,2.6,2.59,5.241v12.225c0,1.076,0.876,1.953,1.953,1.953
			c1.075,0,1.951-0.877,1.953-1.953V722.15c0-2.651,1.316-3.967,2.59-5.241c1.184-1.189,2.297-2.306,2.297-4.542v-9.778
			c0-1.075-0.874-1.949-1.948-1.949c-0.477,0-0.94,0.178-1.303,0.501l-1.143,1.022l-1.145-1.023
			c-0.717-0.644-1.875-0.647-2.603,0.001l-1.143,1.022l-1.145-1.023C245.441,700.818,244.98,700.641,244.5,700.641"/>
		<g opacity="0.5" clip-path="url(#SVGID_6_)">
			<g>
				<defs>
					<line id="SVGID_7_" x1="134.795" y1="759.14" x2="1147.755" y2="759.14"/>
				</defs>
				<clipPath id="SVGID_8_">
					<use xlink:href="#SVGID_7_"  overflow="visible"/>
				</clipPath>
				<path clip-path="url(#SVGID_8_)" fill="none" stroke="#C6C8C7" stroke-width="0.454" stroke-miterlimit="10" d="
					M574.843,759.133"/>
				<path clip-path="url(#SVGID_8_)" fill="none" stroke="#C6C8C7" stroke-width="0.454" stroke-miterlimit="10" d="
					M448.676,759.135"/>
				<path clip-path="url(#SVGID_8_)" fill="none" stroke="#C6C8C7" stroke-width="0.454" stroke-miterlimit="10" d="M322.51,759.135
					"/>
				<path clip-path="url(#SVGID_8_)" fill="none" stroke="#C6C8C7" stroke-width="0.454" stroke-miterlimit="10" d="
					M196.343,759.136"/>
				<path clip-path="url(#SVGID_8_)" fill="none" stroke="#C6C8C7" stroke-width="0.454" stroke-miterlimit="10" d="
					M700.627,759.133"/>
				<path clip-path="url(#SVGID_8_)" fill="none" stroke="#C6C8C7" stroke-width="0.454" stroke-miterlimit="10" d="
					M826.411,759.133"/>
				<path clip-path="url(#SVGID_8_)" fill="none" stroke="#C6C8C7" stroke-width="0.454" stroke-miterlimit="10" d="
					M952.195,759.133"/>
				<path clip-path="url(#SVGID_8_)" fill="none" stroke="#C6C8C7" stroke-width="0.454" stroke-miterlimit="10" d="
					M1077.979,759.133"/>
			</g>
		</g>
	</g>
</g>
<path fill="none" d="M11331.553-322.998"/>
<path fill="none" d="M11331.553-322.998"/>
<path fill="none" d="M11331.553-322.998"/>
<path fill="none" d="M11331.553-322.998"/>
<path fill="none" d="M11331.553-322.998"/>
<path fill="none" d="M11331.553-322.998"/>
<path fill="none" d="M11331.553-322.998"/>
<path fill="none" d="M11331.553-322.998"/>
<path fill="none" d="M11331.553-322.998"/>
<path fill="none" d="M11331.553-322.998"/>
<path fill="none" d="M11331.553-322.998"/>
<path fill="none" d="M11331.553-322.998"/>
<path fill="none" d="M11331.553-322.998"/>
<path fill="none" d="M11331.553-322.998"/>
<path fill="none" d="M11331.553-322.998"/>
<path fill="none" d="M11331.553-322.998"/>
<path fill="none" d="M11331.553-322.998"/>
<path fill="none" d="M11331.553-322.998"/>
<path fill="none" d="M11331.553-322.998"/>
<path fill="none" d="M11331.553-322.998"/>
<path fill="none" d="M11331.553-322.998"/>
<path fill="none" d="M11331.553-322.998"/>
<path fill="none" d="M11331.553-322.998"/>
<path fill="none" d="M11331.553-322.998"/>
<path fill="none" d="M11331.553-322.998"/>
<path fill="none" d="M11331.553-322.998"/>
<path fill="none" d="M11331.553-322.998"/>
<path fill="none" d="M11331.553-322.998"/>
<path fill="none" d="M11331.553-322.998"/>
<path fill="none" d="M11331.553-322.998"/>
<path fill="none" d="M11331.553-322.998"/>
<path fill="none" d="M11331.553-322.998"/>
<path fill="none" d="M11331.553-322.998"/>
<path fill="none" d="M11331.553-322.998"/>
<path fill="none" d="M11331.553-322.998"/>
<path fill="none" d="M11331.553-322.998"/>
<path fill="none" d="M11331.553-322.998"/>
<path fill="none" d="M11331.553-322.998"/>
<path fill="none" d="M11331.553-322.998"/>
<path fill="none" d="M11331.553-322.998"/>
<path fill="none" d="M11331.553-322.998"/>
<path fill="none" d="M11331.553-322.998"/>
<path fill="none" d="M11331.553-322.998"/>
<path fill="none" d="M11331.553-322.998"/>
<path fill="none" d="M11331.553-322.998"/>
<path fill="none" d="M11331.553-322.998"/>
<path fill="none" d="M11331.553-322.998"/>
<path fill="none" d="M11331.553-322.998"/>
<path fill="none" d="M11331.553-322.998"/>
<path fill="none" d="M11331.553-322.998"/>
<path fill="none" d="M11331.553-322.998"/>
<path fill="none" d="M11331.553-322.998"/>
<path fill="none" d="M11331.553-322.998"/>
<path fill="none" d="M11331.553-322.998"/>
<path fill="none" d="M11331.553-322.998"/>
<path fill="none" d="M11331.553-322.998"/>
<path fill="none" d="M11331.553-322.998"/>
<path fill="none" d="M11331.553-322.998"/>
<path fill="none" d="M11331.553-322.998"/>
<path fill="none" d="M11331.553-322.998"/>
<path fill="none" d="M11331.553-322.998"/>
<path fill="none" d="M11331.553-322.998"/>
<path fill="none" d="M11331.553-322.998"/>
<path fill="none" d="M11331.553-322.998"/>
<path fill="none" d="M11331.553-322.998"/>
<path fill="none" d="M11331.553-322.998"/>
<path fill="none" d="M11331.553-322.998"/>
<path fill="none" d="M11331.553-322.998"/>
<path fill="none" d="M11331.553-322.998"/>
<path fill="none" d="M11331.553-322.998"/>
<path fill="none" d="M11331.553-322.998"/>
<path fill="none" d="M11331.553-322.998"/>
<path fill="none" d="M11331.553-322.998"/>
<path fill="none" d="M11331.553-322.998"/>
<path fill="none" d="M11331.553-322.998"/>
<path fill="none" d="M11331.553-322.998"/>
<path fill="none" d="M11331.553-322.998"/>
<path fill="none" d="M11331.553-322.998"/>
<path fill="none" d="M11331.553-322.998"/>
<path fill="none" d="M11331.553-322.998"/>
<path fill="none" d="M11331.553-322.998"/>
<path fill="none" d="M11331.553-322.998"/>
<path fill="none" d="M11331.553-322.998"/>
<path fill="none" d="M11331.553-322.998"/>
<path fill="none" d="M11331.553-322.998"/>
<path fill="none" d="M11331.553-322.998"/>
<path fill="none" d="M11331.553-322.998"/>
<path fill="none" d="M11331.553-322.998"/>
<path fill="none" d="M11331.553-322.998"/>
<path fill="none" d="M11331.553-322.998"/>
<path fill="none" d="M11331.553-322.998"/>
<path fill="none" d="M11331.553-322.998"/>
<path fill="none" d="M11331.553-322.998"/>
<path fill="none" d="M11331.553-322.998"/>
<path fill="none" d="M11331.553-322.998"/>
<path fill="none" d="M11331.553-322.998"/>
<path fill="none" d="M11331.553-322.998"/>
<path fill="none" d="M11331.553-322.998"/>
<path fill="none" d="M11331.553-322.998"/>
<path fill="none" d="M11331.553-322.998"/>
<path fill="none" d="M11331.553-322.998"/>
<path fill="none" d="M11331.553-322.998"/>
<path fill="none" d="M11331.553-322.998"/>
<path fill="none" d="M11331.553-322.998"/>
<path fill="none" d="M11331.553-322.998"/>
<path fill="none" d="M11331.553-322.998"/>
<path fill="none" d="M11331.553-322.998"/>
<path fill="none" d="M11331.553-322.998"/>
<path fill="none" d="M11331.553-322.998"/>
<path fill="none" d="M11331.553-322.998"/>
<path fill="none" d="M11331.553-322.998"/>
<path fill="none" d="M11331.553-322.998"/>
<path fill="none" d="M11331.553-322.998"/>
<path fill="none" d="M11331.553-322.998"/>
<path fill="none" d="M11331.553-322.998"/>
<path fill="none" d="M11331.553-322.998"/>
<path fill="none" d="M11331.553-322.998"/>
<path fill="none" d="M11331.553-322.998"/>
<path fill="none" d="M11331.553-322.998"/>
<path fill="none" d="M11331.553-322.998"/>
<path fill="none" d="M11331.553-322.998"/>
<path fill="none" d="M11331.553-322.998"/>
<path fill="none" d="M11331.553-322.998"/>
<path fill="none" d="M11331.553-322.998"/>
<path fill="none" d="M11331.553-322.998"/>
<path fill="none" d="M11331.553-322.998"/>
<path fill="none" d="M11331.553-322.998"/>
<path fill="none" d="M11331.553-322.998"/>
<path fill="none" d="M11331.553-322.998"/>
<path fill="none" d="M11331.553-322.998"/>
<path fill="none" d="M11331.553-322.998"/>
<path fill="none" d="M11331.553-322.998"/>
<path fill="none" d="M11331.553-322.998"/>
<path fill="none" d="M11331.553-322.998"/>
<path fill="none" d="M11331.553-322.998"/>
<path fill="none" d="M11331.553-322.998"/>
<path fill="none" d="M11331.553-322.998"/>
<path fill="none" d="M11331.553-322.998"/>
<path fill="none" d="M11331.553-322.998"/>
<path fill="none" d="M11331.553-322.998"/>
<path fill="none" d="M11331.553-322.998"/>
<path fill="none" d="M11331.553-322.998"/>
<path fill="none" d="M11331.553-322.998"/>
<path fill="none" d="M11331.553-322.998"/>
<path fill="none" d="M11331.553-322.998"/>
<path fill="none" d="M11331.553-322.998"/>
<path fill="none" d="M11331.553-322.998"/>
<path fill="none" d="M11331.553-322.998"/>
<path fill="none" d="M11331.553-322.998"/>
<path fill="none" d="M11331.553-322.998"/>
<path fill="none" d="M11331.553-322.998"/>
<path fill="none" d="M11331.553-322.998"/>
<path fill="none" d="M11331.553-322.998"/>
<path fill="none" d="M11331.553-322.998"/>
<path fill="none" d="M11331.553-322.998"/>
<path fill="none" d="M11331.553-322.998"/>
<path fill="none" d="M11331.553-322.998"/>
<path fill="none" d="M11331.553-322.998"/>
<path fill="none" d="M11331.553-322.998"/>
<path fill="none" d="M11331.553-322.998"/>
<path fill="none" d="M11331.553-322.998"/>
<path fill="none" d="M11331.553-322.998"/>
<path fill="none" d="M11331.553-322.998"/>
<path fill="none" d="M11331.553-322.998"/>
<path fill="none" d="M11331.553-322.998"/>
<path fill="none" d="M11331.553-322.998"/>
<path fill="none" d="M11331.553-322.998"/>
<path fill="none" d="M11331.553-322.998"/>
<path fill="none" d="M11331.553-322.998"/>
<path fill="none" d="M11331.553-322.998"/>
<path fill="none" d="M11331.553-322.998"/>
<path fill="none" d="M11331.553-322.998"/>
<path fill="none" d="M11331.553-322.998"/>
<path fill="none" d="M11331.553-322.998"/>
<path fill="none" d="M11331.553-322.998"/>
<path fill="none" d="M11331.553-322.998"/>
<path fill="none" d="M11331.553-322.998"/>
<path fill="none" d="M11331.553-322.998"/>
<path fill="none" d="M11331.553-322.998"/>
<path fill="none" d="M11331.553-322.998"/>
<path fill="none" d="M11331.553-322.998"/>
<path fill="none" d="M11331.553-322.998"/>
<path fill="none" d="M11331.553-322.998"/>
<path fill="none" d="M11331.553-322.998"/>
<path fill="none" d="M11331.553-322.998"/>
<path fill="none" d="M11331.553-322.998"/>
<path fill="none" d="M11331.553-322.998"/>
<path fill="none" d="M11331.553-322.998"/>
<path fill="none" d="M11331.553-322.998"/>
<path fill="none" d="M11331.553-322.998"/>
<path fill="none" d="M11331.553-322.998"/>
<path fill="none" d="M11331.553-322.998"/>
<path fill="none" d="M11331.553-322.998"/>
<path fill="none" d="M11331.553-322.998"/>
<path fill="none" d="M11331.553-322.998"/>
<path fill="none" d="M11331.553-322.998"/>
<path fill="none" d="M11331.553-322.998"/>
<path fill="none" d="M11331.553-322.998"/>
<path fill="none" d="M11331.553-322.998"/>
<path fill="none" d="M11331.553-322.998"/>
<path fill="none" d="M11331.553-322.998"/>
<path fill="none" d="M11331.553-322.998"/>
<path fill="none" d="M11331.553-322.998"/>
<path fill="none" d="M11331.553-322.998"/>
<path fill="none" d="M11331.553-322.998"/>
<path fill="none" d="M11331.553-322.998"/>
<path fill="none" d="M11331.553-322.998"/>
<path fill="none" d="M11331.553-322.998"/>
<path fill="none" d="M11331.553-322.998"/>
<path fill="none" d="M11331.553-322.998"/>
<path fill="none" d="M11331.553-322.998"/>
<path fill="none" d="M11331.553-322.998"/>
<path fill="none" d="M11331.553-322.998"/>
<path fill="none" d="M11331.553-322.998"/>
<path fill="none" d="M11331.553-322.998"/>
<path fill="none" d="M11331.553-322.998"/>
<path fill="none" d="M11331.553-322.998"/>
<path fill="none" d="M11331.553-322.998"/>
<path fill="none" d="M11331.553-322.998"/>
<path fill="none" d="M11331.553-322.998"/>
<path fill="none" d="M11331.553-322.998"/>
<path fill="none" d="M11331.553-322.998"/>
<path fill="none" d="M11331.553-322.998"/>
<path fill="none" d="M11331.553-322.998"/>
<path fill="none" d="M11331.553-322.998"/>
<path fill="none" d="M11331.553-322.998"/>
<path fill="none" d="M11331.553-322.998"/>
<path fill="none" d="M11331.553-322.998"/>
<path fill="none" d="M11331.553-322.998"/>
<path fill="none" d="M11331.553-322.998"/>
<path fill="none" d="M11331.553-322.998"/>
<path fill="none" d="M11331.553-322.998"/>
<path fill="none" d="M11331.553-322.998"/>
<path fill="none" d="M11331.553-322.998"/>
<path fill="none" d="M11331.553-322.998"/>
<path fill="none" d="M11331.553-322.998"/>
<path fill="none" d="M11331.553-322.998"/>
<path fill="none" d="M11331.553-322.998"/>
<path fill="none" d="M11331.553-322.998"/>
<path fill="none" d="M11331.553-322.998"/>
<path fill="none" d="M11331.553-322.998"/>
<path fill="none" d="M11331.553-322.998"/>
<path fill="none" d="M11331.553-322.998"/>
<path fill="none" d="M11331.553-322.998"/>
<path fill="none" d="M11331.553-322.998"/>
<path fill="none" d="M11331.553-322.998"/>
<path fill="none" d="M11331.553-322.998"/>
<path fill="none" d="M11331.553-322.998"/>
<path fill="none" d="M11331.553-322.998"/>
<path fill="none" d="M11331.553-322.998"/>
<path fill="none" d="M11331.553-322.998"/>
<path fill="none" d="M11331.553-322.998"/>
<path fill="none" d="M11331.553-322.998"/>
<path fill="none" d="M11331.553-322.998"/>
<path fill="none" d="M11331.553-322.998"/>
<path fill="none" d="M11331.553-322.998"/>
<path fill="none" d="M11331.553-322.998"/>
<path fill="none" d="M11331.553-322.998"/>
<path fill="none" d="M11331.553-322.998"/>
<path fill="none" d="M11331.553-322.998"/>
<path fill="none" d="M11331.553-322.998"/>
<path fill="none" d="M11331.553-322.998"/>
<path fill="none" d="M11331.553-322.998"/>
<path fill="none" d="M11331.553-322.998"/>
<path fill="none" d="M11331.553-322.998"/>
<path fill="none" d="M11331.553-322.998"/>
<path fill="none" d="M11331.553-322.998"/>
<path fill="none" d="M11331.553-322.998"/>
<path fill="none" d="M11331.553-322.998"/>
<path fill="none" d="M11331.553-322.998"/>
<path fill="none" d="M11331.553-322.998"/>
<path fill="none" d="M11331.553-322.998"/>
<path fill="none" d="M11331.553-322.998"/>
<path fill="none" d="M11331.553-322.998"/>
<path fill="none" d="M11331.553-322.998"/>
<path fill="none" d="M11331.553-322.998"/>
<path fill="none" d="M11331.553-322.998"/>
<path fill="none" d="M11331.553-322.998"/>
<path fill="none" d="M11331.553-322.998"/>
<path fill="none" d="M11331.553-322.998"/>
<path fill="none" d="M11331.553-322.998"/>
<path fill="none" d="M11331.553-322.998"/>
<path fill="none" d="M11331.553-322.998"/>
<path fill="none" d="M11331.553-322.998"/>
<path fill="none" d="M11331.553-322.998"/>
<path fill="none" d="M11331.553-322.998"/>
<path fill="none" d="M11331.553-322.998"/>
<path fill="none" d="M11331.553-322.998"/>
<path fill="none" d="M11331.553-322.998"/>
<path fill="none" d="M11331.553-322.998"/>
<path fill="none" d="M11331.553-322.998"/>
<path fill="none" d="M11331.553-322.998"/>
<path fill="none" d="M11331.553-322.998"/>
<path fill="none" d="M11331.553-322.998"/>
<path fill="none" d="M11331.553-322.998"/>
<path fill="none" d="M11331.553-322.998"/>
<path fill="none" d="M11331.553-322.998"/>
<path fill="none" d="M11331.553-322.998"/>
<path fill="none" d="M11331.553-322.998"/>
<path fill="none" d="M11331.553-322.998"/>
<path fill="none" d="M11331.553-322.998"/>
<path fill="none" d="M11331.553-322.998"/>
<path fill="none" d="M11331.553-322.998"/>
<path fill="none" d="M11331.553-322.998"/>
<path fill="none" d="M11331.553-322.998"/>
<path fill="none" d="M11331.553-322.998"/>
<path fill="none" d="M11331.553-322.998"/>
<path fill="none" d="M11331.553-322.998"/>
<path fill="none" d="M11331.553-322.998"/>
<path fill="none" d="M11331.553-322.998"/>
<path fill="none" d="M11331.553-322.998"/>
<path fill="none" d="M11331.553-322.998"/>
<path fill="none" d="M11331.553-322.998"/>
<path fill="none" d="M11331.553-322.998"/>
<path fill="none" d="M11331.553-322.998"/>
<path fill="none" d="M11331.553-322.998"/>
<path fill="none" d="M11331.553-322.998"/>
<path fill="none" d="M11331.553-322.998"/>
<path fill="none" d="M11331.553-322.998"/>
<path fill="none" d="M11331.553-322.998"/>
<path fill="none" d="M11331.553-322.998"/>
<path fill="none" d="M11331.553-322.998"/>
<path fill="none" d="M11331.553-322.998"/>
<path fill="none" d="M11331.553-322.998"/>
<path fill="none" d="M11331.553-322.998"/>
<path fill="none" d="M11331.553-322.998"/>
<path fill="none" d="M11331.553-322.998"/>
<path fill="none" d="M11331.553-322.998"/>
<path fill="none" d="M11331.553-322.998"/>
<path fill="none" d="M11331.553-322.998"/>
<path fill="none" d="M11331.553-322.998"/>
<path fill="none" d="M11331.553-322.998"/>
<path fill="none" d="M11331.553-322.998"/>
<path fill="none" d="M11331.553-322.998"/>
<path fill="none" d="M11331.553-322.998"/>
<path fill="none" d="M11331.553-322.998"/>
<path fill="none" d="M11331.553-322.998"/>
<path fill="none" d="M11331.553-322.998"/>
<path fill="none" d="M11331.553-322.998"/>
<path fill="none" d="M11331.553-322.998"/>
<path fill="none" d="M11331.553-322.998"/>
<path fill="none" d="M11331.553-322.998"/>
<path fill="none" d="M11331.553-322.998"/>
<path fill="none" d="M11331.553-322.998"/>
<path fill="none" d="M11331.553-322.998"/>
<path fill="none" d="M11331.553-322.998"/>
<path fill="none" d="M11331.553-322.998"/>
<path fill="none" d="M11331.553-322.998"/>
<path fill="none" d="M11331.553-322.998"/>
<path fill="none" d="M11331.553-322.998"/>
<path fill="none" d="M11331.553-322.998"/>
<path fill="none" d="M11331.553-322.998"/>
<path fill="none" d="M11331.553-322.998"/>
<path fill="none" d="M11331.553-322.998"/>
<path fill="none" d="M11331.553-322.998"/>
<path fill="none" d="M11331.553-322.998"/>
<path fill="none" d="M11331.553-322.998"/>
<path fill="none" d="M11331.553-322.998"/>
<path fill="none" d="M11331.553-322.998"/>
<path fill="none" d="M11331.553-322.998"/>
<path fill="none" d="M11331.553-322.998"/>
<path fill="none" d="M11331.553-322.998"/>
<path fill="none" d="M11331.553-322.998"/>
<path fill="none" d="M11331.553-322.998"/>
<path fill="none" d="M11331.553-322.998"/>
<path fill="none" d="M11331.553-322.998"/>
<path fill="none" d="M11331.553-322.998"/>
<path fill="none" d="M11331.553-322.998"/>
<path fill="none" d="M11331.553-322.998"/>
<path fill="none" d="M11331.553-322.998"/>
<path fill="none" d="M11331.553-322.998"/>
<path fill="none" d="M11331.553-322.998"/>
<path fill="none" d="M11331.553-322.998"/>
<path fill="none" d="M11331.553-322.998"/>
<path fill="none" d="M11331.553-322.998"/>
<path fill="none" d="M11331.553-322.998"/>
<path fill="none" d="M11331.553-322.998"/>
<path fill="none" d="M11331.553-322.998"/>
<path fill="none" d="M11331.553-322.998"/>
<path fill="none" d="M11331.553-322.998"/>
<path fill="none" d="M11331.553-322.998"/>
<path fill="none" d="M11331.553-322.998"/>
<path fill="none" d="M11331.553-322.998"/>
<path fill="none" d="M11331.553-322.998"/>
<path fill="none" d="M11331.553-322.998"/>
<path fill="none" d="M11331.553-322.998"/>
<path fill="none" d="M11331.553-322.998"/>
<path fill="none" d="M11331.553-322.998"/>
<path fill="none" d="M11331.553-322.998"/>
<path fill="none" d="M11331.553-322.998"/>
<path fill="none" d="M11331.553-322.998"/>
<path fill="none" d="M11331.553-322.998"/>
<path fill="none" d="M11331.553-322.998"/>
<path fill="none" d="M11331.553-322.998"/>
<path fill="none" d="M11331.553-322.998"/>
<path fill="none" d="M11331.553-322.998"/>
<path fill="none" d="M11331.553-322.998"/>
<path fill="none" d="M11331.553-322.998"/>
<path fill="none" d="M11331.553-322.998"/>
<path fill="none" d="M11331.553-322.998"/>
<path fill="none" d="M11331.553-322.998"/>
<path fill="none" d="M11331.553-322.998"/>
<path fill="none" d="M11331.553-322.998"/>
<path fill="none" d="M11331.553-322.998"/>
<path fill="none" d="M11331.553-322.998"/>
<path fill="none" d="M11331.553-322.998"/>
<path fill="none" d="M11331.553-322.998"/>
<path fill="none" d="M11331.553-322.998"/>
<path fill="none" d="M11331.553-322.998"/>
<path fill="none" d="M11331.553-322.998"/>
<path fill="none" d="M11331.553-322.998"/>
<path fill="none" d="M11331.553-322.998"/>
<path fill="none" d="M11331.553-322.998"/>
<path fill="none" d="M11331.553-322.998"/>
<path fill="none" d="M11331.553-322.998"/>
<path fill="none" d="M11331.553-322.998"/>
<path fill="none" d="M11331.553-322.998"/>
<path fill="none" d="M11331.553-322.998"/>
<path fill="none" d="M11331.553-322.998"/>
<path fill="none" d="M11331.553-322.998"/>
<path fill="none" d="M11331.553-322.998"/>
<path fill="none" d="M11331.553-322.998"/>
<path fill="none" d="M11331.553-322.998"/>
<path fill="none" d="M11331.553-322.998"/>
<path fill="none" d="M11331.553-322.998"/>
<path fill="none" d="M11331.553-322.998"/>
<path fill="none" d="M11331.553-322.998"/>
<path fill="none" d="M11331.553-322.998"/>
<path fill="none" d="M11331.553-322.998"/>
<path fill="none" d="M11331.553-322.998"/>
<path fill="none" d="M11331.553-322.998"/>
<path fill="none" d="M11331.553-322.998"/>
<path fill="none" d="M11331.553-322.998"/>
<path fill="none" d="M11331.553-322.998"/>
<path fill="none" d="M11331.553-322.998"/>
<path fill="none" d="M11331.553-322.998"/>
<path fill="none" d="M11331.553-322.998"/>
<path fill="none" d="M11331.553-322.998"/>
<path fill="none" d="M11331.553-322.998"/>
<path fill="none" d="M11331.553-322.998"/>
<path fill="none" d="M11331.553-322.998"/>
<path fill="none" d="M11331.553-322.998"/>
<path fill="none" d="M11331.553-322.998"/>
<path fill="none" d="M11331.553-322.998"/>
<path fill="none" d="M11331.553-322.998"/>
<path fill="none" d="M11331.553-322.998"/>
<path fill="none" d="M11331.553-322.998"/>
<path fill="none" d="M11331.553-322.998"/>
<path fill="none" d="M11331.553-322.998"/>
<path fill="none" d="M11331.553-322.998"/>
<path fill="none" d="M11331.553-322.998"/>
<path fill="none" d="M11331.553-322.998"/>
<path fill="none" d="M11331.553-322.998"/>
<path fill="none" d="M11331.553-322.998"/>
<path fill="none" d="M11331.553-322.998"/>
<path fill="none" d="M11331.553-322.998"/>
<path fill="none" d="M11331.553-322.998"/>
<path fill="none" d="M11331.553-322.998"/>
<path fill="none" d="M11331.553-322.998"/>
<path fill="none" d="M11331.553-322.998"/>
<path fill="none" d="M11331.553-322.998"/>
<path fill="none" d="M11331.553-322.998"/>
<path fill="none" d="M11331.553-322.998"/>
<path fill="none" d="M11331.553-322.998"/>
<path fill="none" d="M11331.553-322.998"/>
<path fill="none" d="M11331.553-322.998"/>
<path fill="none" d="M11331.553-322.998"/>
<path fill="none" d="M11331.553-322.998"/>
<path fill="none" d="M11331.553-322.998"/>
<path fill="none" d="M11331.553-322.998"/>
<path fill="none" d="M11331.553-322.998"/>
<path fill="none" d="M11331.553-322.998"/>
<path fill="none" d="M11331.553-322.998"/>
<path fill="none" d="M11331.553-322.998"/>
<path fill="none" d="M11331.553-322.998"/>
<path fill="none" d="M11331.553-322.998"/>
<path fill="none" d="M11331.553-322.998"/>
<path fill="none" d="M11331.553-322.998"/>
<path fill="none" d="M11331.553-322.998"/>
<path fill="none" d="M11331.553-322.998"/>
<path fill="none" d="M11331.553-322.998"/>
<path fill="none" d="M11331.553-322.998"/>
<path fill="none" d="M11331.553-322.998"/>
<path fill="none" d="M11331.553-322.998"/>
<path fill="none" d="M11331.553-322.998"/>
<path fill="none" d="M11331.553-322.998"/>
<path fill="none" d="M11331.553-322.998"/>
<path fill="none" d="M11331.553-322.998"/>
<path fill="none" d="M11331.553-322.998"/>
<path fill="none" d="M11331.553-322.998"/>
<path fill="none" d="M11331.553-322.998"/>
<path fill="none" d="M11331.553-322.998"/>
<path fill="none" d="M11331.553-322.998"/>
<path fill="none" d="M11331.553-322.998"/>
<path fill="none" d="M11331.553-322.998"/>
<path fill="none" d="M11331.553-322.998"/>
<path fill="none" d="M11331.553-322.998"/>
<path fill="none" d="M11331.553-322.998"/>
<path fill="none" d="M11331.553-322.998"/>
<path fill="none" d="M11331.553-322.998"/>
<path fill="none" d="M11331.553-322.998"/>
<path fill="none" d="M11331.553-322.998"/>
<path fill="none" d="M11331.553-322.998"/>
<path fill="none" d="M11331.553-322.998"/>
<path fill="none" d="M11331.553-322.998"/>
<path fill="none" d="M11331.553-322.998"/>
<path fill="none" d="M11331.553-322.998"/>
<path fill="none" d="M11331.553-322.998"/>
<path fill="none" d="M11331.553-322.998"/>
<path fill="none" d="M11331.553-322.998"/>
<path fill="none" d="M11331.553-322.998"/>
<path fill="none" d="M11331.553-322.998"/>
<path fill="none" d="M11331.553-322.998"/>
<path fill="none" d="M11331.553-322.998"/>
<path fill="none" d="M11331.553-322.998"/>
<path fill="none" d="M11331.553-322.998"/>
<path fill="none" d="M11331.553-322.998"/>
<path fill="none" d="M11331.553-322.998"/>
<path fill="none" d="M11331.553-322.998"/>
<path fill="none" d="M11331.553-322.998"/>
<path fill="none" d="M11331.553-322.998"/>
<path fill="none" d="M11331.553-322.998"/>
<path fill="none" d="M11331.553-322.998"/>
<path fill="none" d="M11331.553-322.998"/>
<path fill="none" d="M11331.553-322.998"/>
<path fill="none" d="M11331.553-322.998"/>
<path fill="none" d="M11331.553-322.998"/>
<path fill="none" d="M11331.553-322.998"/>
<path fill="none" d="M11331.553-322.998"/>
<path fill="none" d="M11331.553-322.998"/>
<path fill="none" d="M11331.553-322.998"/>
<path fill="none" d="M11331.553-322.998"/>
<path fill="none" d="M11331.553-322.998"/>
<path fill="none" d="M11331.553-322.998"/>
<path fill="none" d="M11331.553-322.998"/>
<path fill="none" d="M11331.553-322.998"/>
<path fill="none" d="M11331.553-322.998"/>
<path fill="none" d="M11331.553-322.998"/>
<path fill="none" d="M11331.553-322.998"/>
<path fill="none" d="M11331.553-322.998"/>
<path fill="none" d="M11331.553-322.998"/>
<path fill="none" d="M11331.553-322.998"/>
<path fill="none" d="M11331.553-322.998"/>
<path fill="none" d="M11331.553-322.998"/>
<path fill="none" d="M11331.553-322.998"/>
<path fill="none" d="M11331.553-322.998"/>
<path fill="none" d="M11331.553-322.998"/>
<path fill="none" d="M11331.553-322.998"/>
<path fill="none" d="M11331.553-322.998"/>
<path fill="none" d="M11331.553-322.998"/>
<path fill="none" d="M11331.553-322.998"/>
<path fill="none" d="M11331.553-322.998"/>
<path fill="none" d="M11331.553-322.998"/>
<path fill="none" d="M11331.553-322.998"/>
<path fill="none" d="M11331.553-322.998"/>
<path fill="none" d="M11331.553-322.998"/>
<path fill="none" d="M11331.553-322.998"/>
<path fill="none" d="M11331.553-322.998"/>
<path fill="none" d="M11331.553-322.998"/>
<path fill="none" d="M11331.553-322.998"/>
<path fill="none" d="M11331.553-322.998"/>
<path fill="none" d="M11331.553-322.998"/>
<path fill="none" d="M11331.553-322.998"/>
<path fill="none" d="M11331.553-322.998"/>
<path fill="none" d="M11331.553-322.998"/>
<path fill="none" d="M11331.553-322.998"/>
<path fill="none" d="M11331.553-322.998"/>
<path fill="none" d="M11331.553-322.998"/>
<path fill="none" d="M11331.553-322.998"/>
<path fill="none" d="M11331.553-322.998"/>
<path fill="none" d="M11331.553-322.998"/>
<path fill="none" d="M11331.553-322.998"/>
<path fill="none" d="M11331.553-322.998"/>
<path fill="none" d="M11331.553-322.998"/>
<path fill="none" d="M11331.553-322.998"/>
<path fill="none" d="M11331.553-322.998"/>
<path fill="none" d="M11331.553-322.998"/>
<path fill="none" d="M11331.553-322.998"/>
<path fill="none" d="M11331.553-322.998"/>
<path fill="none" d="M11331.553-322.998"/>
<path fill="none" d="M11331.553-322.998"/>
<path fill="none" d="M11331.553-322.998"/>
<path fill="none" d="M11331.553-322.998"/>
<path fill="none" d="M11331.553-322.998"/>
<path fill="none" d="M11331.553-322.998"/>
<path fill="none" d="M11331.553-322.998"/>
<path fill="none" d="M11331.553-322.998"/>
<g opacity="0.4">
	<g>
		<defs>
			<line id="SVGID_9_" x1="0.075" y1="800.73" x2="1280.565" y2="800.73"/>
		</defs>
		<clipPath id="SVGID_10_">
			<use xlink:href="#SVGID_9_"  overflow="visible"/>
		</clipPath>
		<line clip-path="url(#SVGID_10_)" fill="#0D0C0C" x1="0.078" y1="800.73" x2="1280.561" y2="800.73"/>
	</g>
</g>
<path fill="#FFFFFF" d="M1256.375,800.481H22.591c-0.314,0-0.568-0.254-0.568-0.567v-88.357c0-10.374,8.489-18.863,18.864-18.863
	h1196.867c10.375,0,18.863,8.489,18.863,18.863v88.684C1256.617,800.373,1256.508,800.481,1256.375,800.481"/>
<path fill="none" d="M11331.553-322.998"/>
<text transform="matrix(1 0 0 1 361.1646 757.7754)"><tspan x="0" y="0" fill="#666767" font-family="'DroidSansFallback'" font-size="36">Le</tspan><tspan x="38.052" y="0" fill="#666767" font-family="'DroidSansFallback'" font-size="36" letter-spacing="1">t</tspan><tspan x="52.739" y="0" fill="#666767" font-family="'DroidSansFallback'" font-size="36">’s make a “Reading Time” scene</tspan></text>
<path fill="none" d="M11331.553-322.998"/>
<path fill="none" d="M11331.553-322.998"/>
<path fill="none" d="M11331.553-322.998"/>
<path fill="none" d="M11331.553-322.998"/>
<path fill="none" d="M11331.553-322.998"/>
<path fill="none" d="M11331.553-322.998"/>
<path fill="none" d="M11331.553-322.998"/>
<path fill="none" d="M11331.553-322.998"/>
<path fill="none" d="M11331.553-322.998"/>
<path fill="none" d="M11331.553-322.998"/>
<path fill="none" d="M11331.553-322.998"/>
<path fill="none" d="M11331.553-322.998"/>
<path fill="none" d="M11331.553-322.998"/>
<path fill="none" d="M11331.553-322.998"/>
<path fill="none" d="M11331.553-322.998"/>
<path fill="none" d="M11331.553-322.998"/>
<path fill="none" d="M11331.553-322.998"/>
<path fill="none" d="M11331.553-322.998"/>
<path fill="none" d="M11331.553-322.998"/>
<path fill="none" d="M11331.553-322.998"/>
<path fill="none" d="M11331.553-322.998"/>
<path fill="none" d="M11331.553-322.998"/>
<path fill="none" d="M11331.553-322.998"/>
<path fill="none" d="M11331.553-322.998"/>
<text transform="matrix(1 0 0 1 1138.2769 755.8535)" fill="#FF9012" font-family="'Roboto-Regular'" font-size="30">OK</text>
<polyline fill="none" stroke="#FF9012" stroke-width="3" stroke-linecap="round" stroke-linejoin="round" stroke-miterlimit="10" points="
	1198.309,757.688 1209.91,746.09 1198.309,734.489 "/>
<path fill="none" d="M11331.553-322.998"/>
<path fill="none" d="M11331.553-322.998"/>
<path fill="none" d="M11331.553-322.998"/>
<path fill="none" d="M11331.553-322.998"/>
<path fill="none" d="M11331.553-322.998"/>
<path fill="none" d="M11331.553-322.998"/>
<path fill="none" d="M11331.553-322.998"/>
<path fill="none" d="M11331.516-323"/>
</svg>
