<?xml version="1.0" encoding="utf-8"?>
<!-- Generator: Adobe Illustrator 16.0.0, SVG Export Plug-In . SVG Version: 6.00 Build 0)  -->
<!DOCTYPE svg PUBLIC "-//W3C//DTD SVG 1.1//EN" "http://www.w3.org/Graphics/SVG/1.1/DTD/svg11.dtd">
<svg version="1.1" id="图层_1" xmlns="http://www.w3.org/2000/svg" xmlns:xlink="http://www.w3.org/1999/xlink" x="0px" y="0px"
	 width="1280.18px" height="802.421px" viewBox="0 0 1280.18 802.421" enable-background="new 0 0 1280.18 802.421"
	 xml:space="preserve">
<polyline fill="#FFFFFF" points="0,802.421 0,0 1280,0 1280,802.421 "/>
<g opacity="0.5">
	<g>
		<defs>
			<rect id="SVGID_1_" x="0.178" y="94.736" width="1280.002" height="1.02"/>
		</defs>
		<clipPath id="SVGID_2_">
			<use xlink:href="#SVGID_1_"  overflow="visible"/>
		</clipPath>
		
			<line clip-path="url(#SVGID_2_)" fill="none" stroke="#868A8E" stroke-width="1.023" stroke-miterlimit="10" x1="0.178" y1="95.244" x2="1280.178" y2="95.244"/>
	</g>
</g>
<path fill="none" stroke="#B2B1B2" stroke-miterlimit="10" d="M69.908,59.386l-10.359-10.17c-0.184-0.178-0.288-0.426-0.288-0.682
	c0-0.259,0.106-0.503,0.29-0.683L69.91,37.746"/>
<path fill="none" stroke="#666767" stroke-width="3" stroke-linecap="round" stroke-linejoin="round" stroke-miterlimit="10" d="
	M69.908,59.386l-10.359-10.17c-0.184-0.178-0.288-0.426-0.288-0.682c0-0.259,0.106-0.503,0.29-0.683L69.91,37.746"/>
<line fill="none" stroke="#666767" stroke-width="3" stroke-linecap="round" stroke-linejoin="round" stroke-miterlimit="10" x1="61.583" y1="48.537" x2="91.735" y2="48.537"/>
<text transform="matrix(1 0 0 1 140.4106 58.1895)" fill="#585858" font-family="'DroidSansFallback'" font-size="27">Scenes</text>
<text transform="matrix(1 0 0 1 1040.2998 738.9287)" fill="#FF9012" font-family="'Roboto-Regular'" font-size="30">Get started</text>
<polyline fill="none" stroke="#FF9012" stroke-width="3" stroke-linecap="round" stroke-linejoin="round" stroke-miterlimit="10" points="
	1210.048,740.762 1221.649,729.164 1210.048,717.563 "/>
<text transform="matrix(1 0 0 1 285.6943 266.7676)" fill="#585858" font-family="'DroidSansFallback'" font-size="25">Save the way devices are set into a scene for quick access later.</text>
<text transform="matrix(1 0 0 1 357.5024 205.377)"><tspan x="0" y="0" fill="#585858" font-family="'DroidSansFallback'" font-size="36">The shortcut bu</tspan><tspan x="257.145" y="0" fill="#585858" font-family="'DroidSansFallback'" font-size="36">t</tspan><tspan x="270.788" y="0" fill="#585858" font-family="'DroidSansFallback'" font-size="36">ton for your home</tspan></text>
<g opacity="0.1">
	<g>
		<defs>
			<rect id="SVGID_3_" x="561.844" y="467.646" width="12.441" height="12.44"/>
		</defs>
		<clipPath id="SVGID_4_">
			<use xlink:href="#SVGID_3_"  overflow="visible"/>
		</clipPath>
		<g clip-path="url(#SVGID_4_)">
			<defs>
				<rect id="SVGID_5_" x="561.847" y="467.645" width="12.438" height="12.438"/>
			</defs>
			<clipPath id="SVGID_6_">
				<use xlink:href="#SVGID_5_"  overflow="visible"/>
			</clipPath>
			<path clip-path="url(#SVGID_6_)" fill="#EBC530" d="M574.284,473.866c0,3.435-2.785,6.219-6.22,6.219s-6.22-2.784-6.22-6.219
				c0-3.436,2.785-6.22,6.22-6.22S574.284,470.43,574.284,473.866"/>
		</g>
	</g>
</g>
<g opacity="0.1">
	<g>
		<defs>
			<rect id="SVGID_7_" x="533.146" y="391.566" width="60.278" height="25.98"/>
		</defs>
		<clipPath id="SVGID_8_">
			<use xlink:href="#SVGID_7_"  overflow="visible"/>
		</clipPath>
		
			<path clip-path="url(#SVGID_8_)" fill="none" stroke="#717071" stroke-width="2" stroke-linecap="round" stroke-linejoin="round" stroke-miterlimit="10" d="
			M584.424,416.543h-42.278c-4.418,0-8-3.582-8-8v-7.975c0-4.418,3.582-8,8-8h42.278c4.418,0,8,3.582,8,8v7.975
			C592.424,412.961,588.842,416.543,584.424,416.543z"/>
	</g>
</g>
<g opacity="0.1">
	<g>
		<defs>
			<rect id="SVGID_9_" x="460.852" y="442.096" width="60.278" height="25.98"/>
		</defs>
		<clipPath id="SVGID_10_">
			<use xlink:href="#SVGID_9_"  overflow="visible"/>
		</clipPath>
		
			<path clip-path="url(#SVGID_10_)" fill="none" stroke="#717071" stroke-width="2" stroke-linecap="round" stroke-linejoin="round" stroke-miterlimit="10" d="
			M512.13,467.075h-42.278c-4.418,0-8-3.582-8-8v-7.975c0-4.419,3.582-8,8-8h42.278c4.418,0,8,3.581,8,8v7.975
			C520.13,463.494,516.548,467.075,512.13,467.075z"/>
	</g>
</g>
<g opacity="0.1">
	<g>
		<defs>
			<rect id="SVGID_11_" x="475.606" y="415.916" width="60.278" height="25.97"/>
		</defs>
		<clipPath id="SVGID_12_">
			<use xlink:href="#SVGID_11_"  overflow="visible"/>
		</clipPath>
		
			<path clip-path="url(#SVGID_12_)" fill="none" stroke="#717071" stroke-width="2" stroke-linecap="round" stroke-linejoin="round" stroke-miterlimit="10" d="
			M526.884,440.887h-42.278c-4.418,0-8-3.582-8-8v-7.975c0-4.419,3.582-8,8-8h42.278c4.418,0,8,3.581,8,8v7.975
			C534.884,437.306,531.302,440.887,526.884,440.887z"/>
	</g>
</g>
<g opacity="0.1">
	<g>
		<defs>
			<rect id="SVGID_13_" x="419.173" y="468.656" width="60.278" height="25.98"/>
		</defs>
		<clipPath id="SVGID_14_">
			<use xlink:href="#SVGID_13_"  overflow="visible"/>
		</clipPath>
		
			<path clip-path="url(#SVGID_14_)" fill="none" stroke="#717071" stroke-width="2" stroke-linecap="round" stroke-linejoin="round" stroke-miterlimit="10" d="
			M470.451,493.632h-42.278c-4.418,0-8-3.582-8-8v-7.975c0-4.419,3.582-8,8-8h42.278c4.418,0,8,3.581,8,8v7.975
			C478.451,490.051,474.869,493.632,470.451,493.632z"/>
	</g>
</g>
<g opacity="0.1">
	<g>
		<defs>
			<rect id="SVGID_15_" x="682.161" y="366.116" width="60.278" height="25.98"/>
		</defs>
		<clipPath id="SVGID_16_">
			<use xlink:href="#SVGID_15_"  overflow="visible"/>
		</clipPath>
		
			<path clip-path="url(#SVGID_16_)" fill="none" stroke="#717071" stroke-width="2" stroke-linecap="round" stroke-linejoin="round" stroke-miterlimit="10" d="
			M733.439,391.093h-42.278c-4.418,0-8-3.582-8-8v-7.975c0-4.419,3.582-8,8-8h42.278c4.418,0,8,3.581,8,8v7.975
			C741.439,387.511,737.857,391.093,733.439,391.093z"/>
	</g>
</g>
<g opacity="0.1">
	<g>
		<defs>
			<rect id="SVGID_17_" x="716.095" y="392.676" width="60.275" height="25.97"/>
		</defs>
		<clipPath id="SVGID_18_">
			<use xlink:href="#SVGID_17_"  overflow="visible"/>
		</clipPath>
		
			<path clip-path="url(#SVGID_18_)" fill="none" stroke="#717071" stroke-width="2" stroke-linecap="round" stroke-linejoin="round" stroke-miterlimit="10" d="
			M767.373,417.649h-42.278c-4.418,0-8-3.582-8-8v-7.975c0-4.418,3.582-8,8-8h42.278c4.418,0,8,3.582,8,8v7.975
			C775.373,414.068,771.791,417.649,767.373,417.649z"/>
	</g>
</g>
<g opacity="0.1">
	<g>
		<defs>
			<rect id="SVGID_19_" x="768.471" y="419.236" width="60.279" height="25.97"/>
		</defs>
		<clipPath id="SVGID_20_">
			<use xlink:href="#SVGID_19_"  overflow="visible"/>
		</clipPath>
		
			<path clip-path="url(#SVGID_20_)" fill="none" stroke="#717071" stroke-width="2" stroke-linecap="round" stroke-linejoin="round" stroke-miterlimit="10" d="
			M819.749,444.207h-42.278c-4.418,0-8-3.582-8-8v-7.975c0-4.418,3.582-8,8-8h42.278c4.418,0,8,3.582,8,8v7.975
			C827.749,440.625,824.167,444.207,819.749,444.207z"/>
	</g>
</g>
<g opacity="0.1">
	<g>
		<defs>
			<rect id="SVGID_21_" x="794.29" y="456.116" width="60.28" height="25.98"/>
		</defs>
		<clipPath id="SVGID_22_">
			<use xlink:href="#SVGID_21_"  overflow="visible"/>
		</clipPath>
		
			<path clip-path="url(#SVGID_22_)" fill="none" stroke="#717071" stroke-width="2" stroke-linecap="round" stroke-linejoin="round" stroke-miterlimit="10" d="
			M845.568,481.091h-42.278c-4.418,0-8-3.582-8-8v-7.975c0-4.418,3.582-8,8-8h42.278c4.418,0,8,3.582,8,8v7.975
			C853.568,477.51,849.986,481.091,845.568,481.091z"/>
	</g>
</g>
<rect x="536.349" y="423.631" fill="#FFFFFF" width="60.83" height="60.83"/>
<rect x="536.349" y="423.631" fill="none" stroke="#595958" stroke-width="2" stroke-linecap="round" stroke-linejoin="round" stroke-miterlimit="10" width="60.83" height="60.83"/>
<rect x="542.946" y="430.228" fill="none" stroke="#595958" stroke-width="2" stroke-linecap="round" stroke-linejoin="round" stroke-miterlimit="10" width="47.636" height="47.636"/>
<g opacity="0.3">
	<g>
		<defs>
			<rect id="SVGID_23_" x="543.663" y="430.946" width="46.202" height="46.2"/>
		</defs>
		<clipPath id="SVGID_24_">
			<use xlink:href="#SVGID_23_"  overflow="visible"/>
		</clipPath>
		<rect x="543.663" y="430.944" clip-path="url(#SVGID_24_)" fill="#DB6929" width="46.202" height="46.202"/>
	</g>
</g>
<line fill="none" stroke="#595958" stroke-width="2" stroke-linecap="round" stroke-linejoin="round" stroke-miterlimit="10" x1="550.95" y1="454.725" x2="565.648" y2="439.881"/>
<line fill="none" stroke="#595958" stroke-width="2" stroke-linecap="round" stroke-linejoin="round" stroke-miterlimit="10" x1="548.524" y1="463.651" x2="563.223" y2="448.807"/>
<line fill="none" stroke="#595958" stroke-width="2" stroke-linecap="round" stroke-linejoin="round" stroke-miterlimit="10" x1="557.935" y1="460.352" x2="572.633" y2="445.508"/>
<rect x="623.397" y="423.631" fill="#FFFFFF" width="60.83" height="60.83"/>
<rect x="623.397" y="423.631" fill="none" stroke="#595958" stroke-width="2" stroke-linecap="round" stroke-linejoin="round" stroke-miterlimit="10" width="60.83" height="60.83"/>
<rect x="629.994" y="430.228" fill="none" stroke="#595958" stroke-width="2" stroke-linecap="round" stroke-linejoin="round" stroke-miterlimit="10" width="47.636" height="47.636"/>
<g opacity="0.3">
	<g>
		<defs>
			<rect id="SVGID_25_" x="630.711" y="430.946" width="46.202" height="46.2"/>
		</defs>
		<clipPath id="SVGID_26_">
			<use xlink:href="#SVGID_25_"  overflow="visible"/>
		</clipPath>
		<rect x="630.711" y="430.944" clip-path="url(#SVGID_26_)" fill="#DB6929" width="46.202" height="46.202"/>
	</g>
</g>
<line fill="none" stroke="#595958" stroke-width="2" stroke-linecap="round" stroke-linejoin="round" stroke-miterlimit="10" x1="637.998" y1="454.725" x2="652.696" y2="439.881"/>
<line fill="none" stroke="#595958" stroke-width="2" stroke-linecap="round" stroke-linejoin="round" stroke-miterlimit="10" x1="635.573" y1="463.651" x2="650.271" y2="448.807"/>
<line fill="none" stroke="#595958" stroke-width="2" stroke-linecap="round" stroke-linejoin="round" stroke-miterlimit="10" x1="644.983" y1="460.352" x2="659.681" y2="445.508"/>
<rect x="710.691" y="423.631" fill="#FFFFFF" width="60.83" height="60.83"/>
<rect x="710.691" y="423.631" fill="none" stroke="#595958" stroke-width="2" stroke-linecap="round" stroke-linejoin="round" stroke-miterlimit="10" width="60.83" height="60.83"/>
<rect x="717.288" y="430.228" fill="none" stroke="#595958" stroke-width="2" stroke-linecap="round" stroke-linejoin="round" stroke-miterlimit="10" width="47.636" height="47.636"/>
<g opacity="0.3">
	<g>
		<defs>
			<rect id="SVGID_27_" x="718.005" y="430.946" width="46.202" height="46.2"/>
		</defs>
		<clipPath id="SVGID_28_">
			<use xlink:href="#SVGID_27_"  overflow="visible"/>
		</clipPath>
		<rect x="718.005" y="430.944" clip-path="url(#SVGID_28_)" fill="#DB6929" width="46.202" height="46.202"/>
	</g>
</g>
<line fill="none" stroke="#595958" stroke-width="2" stroke-linecap="round" stroke-linejoin="round" stroke-miterlimit="10" x1="725.292" y1="454.725" x2="739.99" y2="439.881"/>
<line fill="none" stroke="#595958" stroke-width="2" stroke-linecap="round" stroke-linejoin="round" stroke-miterlimit="10" x1="722.867" y1="463.651" x2="737.564" y2="448.807"/>
<line fill="none" stroke="#595958" stroke-width="2" stroke-linecap="round" stroke-linejoin="round" stroke-miterlimit="10" x1="732.277" y1="460.352" x2="746.975" y2="445.508"/>
<g opacity="0.1">
	<g>
		<defs>
			<rect id="SVGID_29_" x="527.936" y="619.466" width="251.754" height="32.07"/>
		</defs>
		<clipPath id="SVGID_30_">
			<use xlink:href="#SVGID_29_"  overflow="visible"/>
		</clipPath>
		<path clip-path="url(#SVGID_30_)" fill="#339CD1" d="M527.936,646.817c0,2.602,1.864,4.716,4.167,4.716h243.418
			c2.304,0,4.167-2.114,4.167-4.716v-22.649c0-2.603-1.863-4.703-4.167-4.703H532.103c-2.303,0-4.167,2.1-4.167,4.703V646.817z"/>
	</g>
</g>
<rect x="572.643" y="519.665" fill="none" stroke="#595958" stroke-width="2" stroke-linecap="round" stroke-linejoin="round" stroke-miterlimit="10" width="159.359" height="96.417"/>
<path fill="none" stroke="#595958" stroke-width="2" stroke-linecap="round" stroke-linejoin="round" stroke-miterlimit="10" d="
	M576.195,614.181c-0.365,0-0.658-0.337-0.658-0.75c0-0.406,0.293-0.744,0.658-0.744h4.618c0.366,0,0.658,0.338,0.658,0.744
	c0,0.413-0.292,0.75-0.658,0.75H576.195"/>
<g opacity="0.2">
	<g>
		<defs>
			<rect id="SVGID_31_" x="575.104" y="523.186" width="154.436" height="87.19"/>
		</defs>
		<clipPath id="SVGID_32_">
			<use xlink:href="#SVGID_31_"  overflow="visible"/>
		</clipPath>
		<rect x="575.104" y="523.19" clip-path="url(#SVGID_32_)" fill="#339CD1" width="154.436" height="87.184"/>
	</g>
</g>
<rect x="575.104" y="523.19" fill="none" stroke="#595958" stroke-width="2" stroke-linecap="round" stroke-linejoin="round" stroke-miterlimit="10" width="154.436" height="87.184"/>
<rect x="756.173" y="519.773" fill="none" stroke="#595958" stroke-width="2" stroke-linecap="round" stroke-linejoin="round" stroke-miterlimit="10" width="15.09" height="99.713"/>
<g opacity="0.1">
	<g>
		<defs>
			<rect id="SVGID_33_" x="756.173" y="519.776" width="15.087" height="99.71"/>
		</defs>
		<clipPath id="SVGID_34_">
			<use xlink:href="#SVGID_33_"  overflow="visible"/>
		</clipPath>
		<rect x="756.173" y="519.773" clip-path="url(#SVGID_34_)" fill="#717071" width="15.09" height="99.713"/>
	</g>
</g>
<path fill="none" stroke="#595958" stroke-width="2" stroke-linecap="round" stroke-linejoin="round" stroke-miterlimit="10" d="
	M763.718,524.364c-2.352,0-4.256,2.155-4.256,4.805c0,2.664,1.904,4.813,4.256,4.813c2.349,0,4.255-2.149,4.255-4.813
	C767.973,526.519,766.067,524.364,763.718,524.364 M763.718,531.29c-1.033,0-1.88-0.943-1.88-2.121c0-1.17,0.847-2.12,1.88-2.12
	c1.036,0,1.877,0.95,1.877,2.12C765.595,530.347,764.753,531.29,763.718,531.29"/>
<rect x="536.361" y="519.773" fill="none" stroke="#595958" stroke-width="2" stroke-linecap="round" stroke-linejoin="round" stroke-miterlimit="10" width="15.09" height="99.713"/>
<g opacity="0.1">
	<g>
		<defs>
			<rect id="SVGID_35_" x="536.361" y="519.776" width="15.091" height="99.71"/>
		</defs>
		<clipPath id="SVGID_36_">
			<use xlink:href="#SVGID_35_"  overflow="visible"/>
		</clipPath>
		<rect x="536.361" y="519.773" clip-path="url(#SVGID_36_)" fill="#717071" width="15.09" height="99.713"/>
	</g>
</g>
<path fill="none" stroke="#595958" stroke-width="2" stroke-linecap="round" stroke-linejoin="round" stroke-miterlimit="10" d="
	M543.91,524.364c-2.355,0-4.259,2.155-4.259,4.805c0,2.664,1.904,4.813,4.259,4.813c2.345,0,4.252-2.149,4.252-4.813
	C548.162,526.519,546.254,524.364,543.91,524.364 M543.91,531.29c-1.039,0-1.877-0.943-1.877-2.121c0-1.17,0.838-2.12,1.877-2.12
	c1.036,0,1.876,0.95,1.876,2.12C545.786,530.347,544.946,531.29,543.91,531.29"/>
<g opacity="0.5">
	<g>
		<defs>
			<rect id="SVGID_37_" x="431.84" y="341.686" width="414.04" height="177.34"/>
		</defs>
		<clipPath id="SVGID_38_">
			<use xlink:href="#SVGID_37_"  overflow="visible"/>
		</clipPath>
		
			<line clip-path="url(#SVGID_38_)" fill="none" stroke="#DE6973" stroke-width="4" stroke-linecap="round" stroke-linejoin="round" stroke-miterlimit="10" x1="774.081" y1="509.019" x2="774.081" y2="517.021"/>
		
			<line clip-path="url(#SVGID_38_)" fill="none" stroke="#DE6973" stroke-width="4" stroke-linecap="round" stroke-linejoin="round" stroke-miterlimit="10" x1="770.08" y1="513.02" x2="778.082" y2="513.02"/>
		
			<circle clip-path="url(#SVGID_38_)" fill="none" stroke="#E68826" stroke-width="3.941" stroke-linecap="round" stroke-linejoin="round" stroke-miterlimit="10" cx="437.862" cy="411.524" r="4.05"/>
		<g opacity="0.2" clip-path="url(#SVGID_38_)">
			<g>
				<defs>
					<rect id="SVGID_39_" x="831.3" y="419.756" width="7.25" height="7.25"/>
				</defs>
				<clipPath id="SVGID_40_">
					<use xlink:href="#SVGID_39_"  overflow="visible"/>
				</clipPath>
				<g clip-path="url(#SVGID_40_)">
					<defs>
						<rect id="SVGID_41_" x="831.3" y="419.753" width="7.252" height="7.251"/>
					</defs>
					<clipPath id="SVGID_42_">
						<use xlink:href="#SVGID_41_"  overflow="visible"/>
					</clipPath>
					<path clip-path="url(#SVGID_42_)" fill="#DB6929" d="M838.551,423.379c0,2.002-1.623,3.625-3.625,3.625
						s-3.625-1.623-3.625-3.625c0-2.002,1.623-3.625,3.625-3.625S838.551,421.377,838.551,423.379"/>
				</g>
			</g>
		</g>
		<path clip-path="url(#SVGID_38_)" fill="#EBC530" d="M845.883,509.069c0,3.48-2.821,6.302-6.302,6.302
			c-3.48,0-6.301-2.822-6.301-6.302c0-3.48,2.821-6.301,6.301-6.301C843.062,502.768,845.883,505.589,845.883,509.069"/>
		<path clip-path="url(#SVGID_38_)" fill="#E68826" d="M633.893,398.786c0,2.546-2.063,4.609-4.61,4.609
			c-2.546,0-4.61-2.063-4.61-4.609c0-2.546,2.064-4.61,4.61-4.61C631.83,394.176,633.893,396.24,633.893,398.786"/>
		
			<line clip-path="url(#SVGID_38_)" fill="none" stroke="#DE6973" stroke-width="6.569" stroke-linecap="round" stroke-linejoin="round" stroke-miterlimit="10" x1="755.668" y1="344.967" x2="755.668" y2="359.97"/>
		
			<line clip-path="url(#SVGID_38_)" fill="none" stroke="#DE6973" stroke-width="6.569" stroke-linecap="round" stroke-linejoin="round" stroke-miterlimit="10" x1="748.167" y1="352.468" x2="763.169" y2="352.468"/>
		
			<line clip-path="url(#SVGID_38_)" fill="none" stroke="#5188C0" stroke-width="3.941" stroke-linecap="round" stroke-linejoin="round" stroke-miterlimit="10" x1="550.231" y1="361.329" x2="550.231" y2="376.332"/>
		
			<line clip-path="url(#SVGID_38_)" fill="none" stroke="#5188C0" stroke-width="3.941" stroke-linecap="round" stroke-linejoin="round" stroke-miterlimit="10" x1="542.73" y1="368.831" x2="557.732" y2="368.831"/>
		
			<line clip-path="url(#SVGID_38_)" fill="none" stroke="#E68826" stroke-width="3.941" stroke-linecap="round" stroke-linejoin="round" stroke-miterlimit="10" x1="470.775" y1="499.012" x2="470.775" y2="508.424"/>
		
			<line clip-path="url(#SVGID_38_)" fill="none" stroke="#E68826" stroke-width="3.941" stroke-linecap="round" stroke-linejoin="round" stroke-miterlimit="10" x1="466.07" y1="503.719" x2="475.482" y2="503.719"/>
	</g>
</g>
<path fill="none" stroke="#595958" stroke-width="2" stroke-linecap="round" stroke-linejoin="round" stroke-miterlimit="10" d="
	M527.936,646.817c0,2.602,1.864,4.716,4.167,4.716h243.418c2.304,0,4.167-2.114,4.167-4.716v-22.649
	c0-2.603-1.863-4.703-4.167-4.703H532.103c-2.303,0-4.167,2.1-4.167,4.703V646.817z"/>
<g opacity="0.1">
	<g>
		<defs>
			<rect id="SVGID_43_" x="467.76" y="538.355" width="24.295" height="29.48"/>
		</defs>
		<clipPath id="SVGID_44_">
			<use xlink:href="#SVGID_43_"  overflow="visible"/>
		</clipPath>
		<polygon clip-path="url(#SVGID_44_)" fill="#EBC530" points="467.76,567.835 474.444,538.357 487.519,538.357 492.055,567.835 		
			"/>
	</g>
</g>
<path fill="none" stroke="#595958" stroke-width="2" stroke-linecap="round" stroke-linejoin="round" stroke-miterlimit="10" d="
	M477.672,593.752c-2.479-2.465-4.831-7.704-5.645-11.118c-0.734-3.071-0.48-9.528,2.343-12.826h15.568
	c2.824,3.298,3.077,9.755,2.343,12.826c-0.817,3.414-3.162,8.653-5.644,11.118H477.672z"/>
<polygon fill="none" stroke="#595958" stroke-width="2" stroke-linecap="round" stroke-linejoin="round" stroke-miterlimit="10" points="
	493.372,537.499 491.677,537.499 500.669,568.692 503.301,568.692 "/>
<polygon fill="none" stroke="#595958" stroke-width="2" stroke-linecap="round" stroke-linejoin="round" stroke-miterlimit="10" points="
	489.119,537.499 495.801,568.692 497.592,568.692 490.526,537.499 "/>
<polygon fill="none" stroke="#595958" stroke-width="2" stroke-linecap="round" stroke-linejoin="round" stroke-miterlimit="10" points="
	472.968,537.499 471.288,537.499 461.356,568.692 463.979,568.692 "/>
<polygon fill="none" stroke="#595958" stroke-width="2" stroke-linecap="round" stroke-linejoin="round" stroke-miterlimit="10" points="
	467.053,568.692 474.126,537.5 487.961,537.5 492.762,568.692 "/>
<g opacity="0.1">
	<g>
		<defs>
			<rect id="SVGID_45_" x="451.021" y="597.286" width="62.767" height="12.46"/>
		</defs>
		<clipPath id="SVGID_46_">
			<use xlink:href="#SVGID_45_"  overflow="visible"/>
		</clipPath>
		<path clip-path="url(#SVGID_46_)" fill="#339CD1" d="M513.788,597.291h-62.767v12.454h62.767V597.291z M477.948,604.698
			c-0.67,0-1.212-0.605-1.212-1.37c0-0.757,0.542-1.37,1.212-1.37h8.913c0.67,0,1.213,0.613,1.213,1.37
			c0,0.765-0.543,1.37-1.213,1.37H477.948"/>
	</g>
</g>
<g opacity="0.1">
	<g>
		<defs>
			<rect id="SVGID_47_" x="451.021" y="611.105" width="62.767" height="13.04"/>
		</defs>
		<clipPath id="SVGID_48_">
			<use xlink:href="#SVGID_47_"  overflow="visible"/>
		</clipPath>
		<path clip-path="url(#SVGID_48_)" fill="#339CD1" d="M513.788,611.107h-62.767v13.04h62.767V611.107z M477.948,619.003
			c-0.67,0-1.212-0.612-1.212-1.37c0-0.757,0.542-1.377,1.212-1.377h8.913c0.67,0,1.213,0.62,1.213,1.377
			c0,0.758-0.543,1.37-1.213,1.37H477.948"/>
	</g>
</g>
<g opacity="0.1">
	<g>
		<defs>
			<rect id="SVGID_49_" x="451.021" y="625.816" width="62.767" height="26.25"/>
		</defs>
		<clipPath id="SVGID_50_">
			<use xlink:href="#SVGID_49_"  overflow="visible"/>
		</clipPath>
		<path clip-path="url(#SVGID_50_)" fill="#339CD1" d="M451.021,625.819v23.896c0,1.294,0.932,2.354,2.083,2.354h58.604
			c1.152,0,2.08-1.06,2.08-2.354v-23.896H451.021z M477.948,632.731c-0.67,0-1.212-0.613-1.212-1.376
			c0-0.751,0.542-1.364,1.212-1.364h8.913c0.67,0,1.213,0.613,1.213,1.364c0,0.763-0.543,1.376-1.213,1.376H477.948"/>
	</g>
</g>
<g opacity="0.1">
	<g>
		<defs>
			<rect id="SVGID_51_" x="811.52" y="538.355" width="24.29" height="29.48"/>
		</defs>
		<clipPath id="SVGID_52_">
			<use xlink:href="#SVGID_51_"  overflow="visible"/>
		</clipPath>
		<polygon clip-path="url(#SVGID_52_)" fill="#EBC530" points="811.518,567.835 818.202,538.357 831.277,538.357 835.813,567.835 		
			"/>
	</g>
</g>
<path fill="none" stroke="#595958" stroke-width="2" stroke-linecap="round" stroke-linejoin="round" stroke-miterlimit="10" d="
	M821.43,593.752c-2.479-2.465-4.831-7.704-5.645-11.118c-0.734-3.071-0.48-9.528,2.343-12.826h15.568
	c2.824,3.298,3.077,9.755,2.343,12.826c-0.817,3.414-3.162,8.653-5.644,11.118H821.43z"/>
<polygon fill="none" stroke="#595958" stroke-width="2" stroke-linecap="round" stroke-linejoin="round" stroke-miterlimit="10" points="
	837.13,537.499 835.436,537.499 844.428,568.692 847.06,568.692 "/>
<polygon fill="none" stroke="#595958" stroke-width="2" stroke-linecap="round" stroke-linejoin="round" stroke-miterlimit="10" points="
	832.877,537.499 839.56,568.692 841.351,568.692 834.284,537.499 "/>
<polygon fill="none" stroke="#595958" stroke-width="2" stroke-linecap="round" stroke-linejoin="round" stroke-miterlimit="10" points="
	816.727,537.499 815.046,537.499 805.115,568.692 807.738,568.692 "/>
<polygon fill="none" stroke="#595958" stroke-width="2" stroke-linecap="round" stroke-linejoin="round" stroke-miterlimit="10" points="
	810.812,568.692 817.884,537.5 831.719,537.5 836.521,568.692 "/>
<g opacity="0.1">
	<g>
		<defs>
			<rect id="SVGID_53_" x="794.78" y="597.286" width="62.771" height="54.78"/>
		</defs>
		<clipPath id="SVGID_54_">
			<use xlink:href="#SVGID_53_"  overflow="visible"/>
		</clipPath>
		<path clip-path="url(#SVGID_54_)" fill="#339CD1" d="M857.546,597.291h-62.767v12.454h62.767V597.291z M821.707,604.698
			c-0.67,0-1.212-0.605-1.212-1.37c0-0.757,0.542-1.37,1.212-1.37h8.913c0.67,0,1.213,0.613,1.213,1.37
			c0,0.765-0.543,1.37-1.213,1.37H821.707"/>
		<path clip-path="url(#SVGID_54_)" fill="#339CD1" d="M857.546,611.107h-62.767v13.04h62.767V611.107z M821.707,619.003
			c-0.67,0-1.212-0.612-1.212-1.37c0-0.757,0.542-1.377,1.212-1.377h8.913c0.67,0,1.213,0.62,1.213,1.377
			c0,0.758-0.543,1.37-1.213,1.37H821.707"/>
		<path clip-path="url(#SVGID_54_)" fill="#339CD1" d="M794.779,625.819v23.896c0,1.294,0.932,2.354,2.083,2.354h58.604
			c1.152,0,2.08-1.06,2.08-2.354v-23.896H794.779z M821.707,632.731c-0.67,0-1.212-0.613-1.212-1.376
			c0-0.751,0.542-1.364,1.212-1.364h8.913c0.67,0,1.213,0.613,1.213,1.364c0,0.763-0.543,1.376-1.213,1.376H821.707"/>
		<g opacity="0.1" clip-path="url(#SVGID_54_)">
			<g>
				<defs>
					<rect id="SVGID_55_" x="794.78" y="597.286" width="62.771" height="12.46"/>
				</defs>
				<clipPath id="SVGID_56_">
					<use xlink:href="#SVGID_55_"  overflow="visible"/>
				</clipPath>
				<path clip-path="url(#SVGID_56_)" fill="#717071" d="M857.546,597.291h-62.767v12.454h62.767V597.291z M821.707,604.698
					c-0.67,0-1.212-0.605-1.212-1.37c0-0.757,0.542-1.37,1.212-1.37h8.913c0.67,0,1.213,0.613,1.213,1.37
					c0,0.765-0.543,1.37-1.213,1.37H821.707"/>
			</g>
		</g>
		<g opacity="0.1" clip-path="url(#SVGID_54_)">
			<g>
				<defs>
					<rect id="SVGID_57_" x="794.78" y="611.105" width="62.771" height="13.04"/>
				</defs>
				<clipPath id="SVGID_58_">
					<use xlink:href="#SVGID_57_"  overflow="visible"/>
				</clipPath>
				<path clip-path="url(#SVGID_58_)" fill="#717071" d="M857.546,611.107h-62.767v13.04h62.767V611.107z M821.707,619.003
					c-0.67,0-1.212-0.612-1.212-1.37c0-0.757,0.542-1.377,1.212-1.377h8.913c0.67,0,1.213,0.62,1.213,1.377
					c0,0.758-0.543,1.37-1.213,1.37H821.707"/>
			</g>
		</g>
		<g opacity="0.1" clip-path="url(#SVGID_54_)">
			<g>
				<defs>
					<rect id="SVGID_59_" x="794.78" y="625.816" width="62.771" height="26.25"/>
				</defs>
				<clipPath id="SVGID_60_">
					<use xlink:href="#SVGID_59_"  overflow="visible"/>
				</clipPath>
				<path clip-path="url(#SVGID_60_)" fill="#717071" d="M794.779,625.819v23.896c0,1.294,0.932,2.354,2.083,2.354h58.604
					c1.152,0,2.08-1.06,2.08-2.354v-23.896H794.779z M821.707,632.731c-0.67,0-1.212-0.613-1.212-1.376
					c0-0.751,0.542-1.364,1.212-1.364h8.913c0.67,0,1.213,0.613,1.213,1.364c0,0.763-0.543,1.376-1.213,1.376H821.707"/>
			</g>
		</g>
	</g>
</g>
<rect x="448.411" y="595.417" fill="none" stroke="#595958" stroke-width="2" stroke-linecap="round" stroke-linejoin="round" stroke-miterlimit="10" width="67.836" height="2.061"/>
<path fill="none" stroke="#595958" stroke-width="2" stroke-linecap="round" stroke-linejoin="round" stroke-miterlimit="10" d="
	M513.712,597.291h-62.767v12.454h62.767V597.291z M477.873,604.698c-0.67,0-1.212-0.605-1.212-1.37c0-0.757,0.542-1.37,1.212-1.37
	h8.913c0.67,0,1.213,0.613,1.213,1.37c0,0.765-0.543,1.37-1.213,1.37H477.873"/>
<path fill="none" stroke="#595958" stroke-width="2" stroke-linecap="round" stroke-linejoin="round" stroke-miterlimit="10" d="
	M513.712,611.107h-62.767v13.04h62.767V611.107z M477.873,619.003c-0.67,0-1.212-0.612-1.212-1.37c0-0.757,0.542-1.377,1.212-1.377
	h8.913c0.67,0,1.213,0.62,1.213,1.377c0,0.758-0.543,1.37-1.213,1.37H477.873"/>
<path fill="none" stroke="#595958" stroke-width="2" stroke-linecap="round" stroke-linejoin="round" stroke-miterlimit="10" d="
	M450.945,625.819v23.896c0,1.294,0.932,2.354,2.083,2.354h58.604c1.152,0,2.08-1.06,2.08-2.354v-23.896H450.945z M477.873,632.731
	c-0.67,0-1.212-0.613-1.212-1.376c0-0.751,0.542-1.364,1.212-1.364h8.913c0.67,0,1.213,0.613,1.213,1.364
	c0,0.763-0.543,1.376-1.213,1.376H477.873"/>
<path fill="none" stroke="#595958" stroke-width="2" stroke-linecap="round" stroke-linejoin="round" stroke-miterlimit="10" d="
	M450.945,625.819v23.896c0,1.294,0.932,2.354,2.083,2.354h58.604c1.152,0,2.08-1.06,2.08-2.354v-23.896H450.945z M477.873,632.731
	c-0.67,0-1.212-0.613-1.212-1.376c0-0.751,0.542-1.364,1.212-1.364h8.913c0.67,0,1.213,0.613,1.213,1.364
	c0,0.763-0.543,1.376-1.213,1.376H477.873"/>
<path fill="none" stroke="#595958" stroke-width="2" stroke-linecap="round" stroke-linejoin="round" stroke-miterlimit="10" d="
	M450.945,625.819v23.896c0,1.294,0.932,2.354,2.083,2.354h58.604c1.152,0,2.08-1.06,2.08-2.354v-23.896H450.945z M477.873,632.731
	c-0.67,0-1.212-0.613-1.212-1.376c0-0.751,0.542-1.364,1.212-1.364h8.913c0.67,0,1.213,0.613,1.213,1.364
	c0,0.763-0.543,1.376-1.213,1.376H477.873"/>
<rect x="792.169" y="595.417" fill="none" stroke="#595958" stroke-width="2" stroke-linecap="round" stroke-linejoin="round" stroke-miterlimit="10" width="67.836" height="2.061"/>
<path fill="none" stroke="#595958" stroke-width="2" stroke-linecap="round" stroke-linejoin="round" stroke-miterlimit="10" d="
	M857.471,597.291h-62.767v12.454h62.767V597.291z M821.63,604.698c-0.67,0-1.212-0.605-1.212-1.37c0-0.757,0.542-1.37,1.212-1.37
	h8.913c0.67,0,1.213,0.613,1.213,1.37c0,0.765-0.543,1.37-1.213,1.37H821.63"/>
<path fill="none" stroke="#595958" stroke-width="2" stroke-linecap="round" stroke-linejoin="round" stroke-miterlimit="10" d="
	M857.471,611.107h-62.767v13.04h62.767V611.107z M821.63,619.003c-0.67,0-1.212-0.612-1.212-1.37c0-0.757,0.542-1.377,1.212-1.377
	h8.913c0.67,0,1.213,0.62,1.213,1.377c0,0.758-0.543,1.37-1.213,1.37H821.63"/>
<path fill="none" stroke="#595958" stroke-width="2" stroke-linecap="round" stroke-linejoin="round" stroke-miterlimit="10" d="
	M794.704,625.819v23.896c0,1.294,0.932,2.354,2.083,2.354h58.604c1.152,0,2.08-1.06,2.08-2.354v-23.896H794.704z M821.63,632.731
	c-0.67,0-1.212-0.613-1.212-1.376c0-0.751,0.542-1.364,1.212-1.364h8.913c0.67,0,1.213,0.613,1.213,1.364
	c0,0.763-0.543,1.376-1.213,1.376H821.63"/>
<path fill="none" stroke="#595958" stroke-width="2" stroke-linecap="round" stroke-linejoin="round" stroke-miterlimit="10" d="
	M794.704,625.819v23.896c0,1.294,0.932,2.354,2.083,2.354h58.604c1.152,0,2.08-1.06,2.08-2.354v-23.896H794.704z M821.63,632.731
	c-0.67,0-1.212-0.613-1.212-1.376c0-0.751,0.542-1.364,1.212-1.364h8.913c0.67,0,1.213,0.613,1.213,1.364
	c0,0.763-0.543,1.376-1.213,1.376H821.63"/>
<path fill="none" stroke="#595958" stroke-width="2" stroke-linecap="round" stroke-linejoin="round" stroke-miterlimit="10" d="
	M794.704,625.819v23.896c0,1.294,0.932,2.354,2.083,2.354h58.604c1.152,0,2.08-1.06,2.08-2.354v-23.896H794.704z M821.63,632.731
	c-0.67,0-1.212-0.613-1.212-1.376c0-0.751,0.542-1.364,1.212-1.364h8.913c0.67,0,1.213,0.613,1.213,1.364
	c0,0.763-0.543,1.376-1.213,1.376H821.63"/>
<text transform="matrix(1 0 0 1 1059.2275 59.6997)" fill="#B3B2B3" font-family="'DroidSansFallback'" font-size="30">Skip tutorial</text>
</svg>
