<?xml version="1.0" encoding="utf-8"?>
<!-- Generator: Adobe Illustrator 16.0.0, SVG Export Plug-In . SVG Version: 6.00 Build 0)  -->
<!DOCTYPE svg PUBLIC "-//W3C//DTD SVG 1.1//EN" "http://www.w3.org/Graphics/SVG/1.1/DTD/svg11.dtd">
<svg version="1.1" id="图层_1" xmlns="http://www.w3.org/2000/svg" xmlns:xlink="http://www.w3.org/1999/xlink" x="0px" y="0px"
	 width="1280.959px" height="798.771px" viewBox="-18.301 1321.1 1280.959 798.771"
	 enable-background="new -18.301 1321.1 1280.959 798.771" xml:space="preserve">
<g opacity="0.5">
	<g>
		<defs>
			<rect id="SVGID_1_" x="461.879" y="1784.141" width="729.971" height="0.75"/>
		</defs>
		<clipPath id="SVGID_2_">
			<use xlink:href="#SVGID_1_"  overflow="visible"/>
		</clipPath>
		
			<line clip-path="url(#SVGID_2_)" fill="none" stroke="#C6C8C8" stroke-width="0.75" stroke-miterlimit="10" x1="461.877" y1="1784.52" x2="1191.844" y2="1784.52"/>
	</g>
</g>
<text transform="matrix(1 0 0 1 609.4763 1551.5586)" fill="#585757" font-family="'DroidSansFallback'" font-size="25">MultiSensor </text>
<line fill="none" stroke="#E66C25" stroke-width="3" stroke-linecap="round" stroke-linejoin="round" stroke-miterlimit="10" x1="479.87" y1="1548.764" x2="479.87" y2="1559.871"/>
<polyline fill="none" stroke="#E66C25" stroke-width="3" stroke-linecap="round" stroke-linejoin="round" stroke-miterlimit="10" points="
	474.158,1555.327 479.87,1561.039 485.582,1555.327 "/>
<line fill="none" stroke="#E66C25" stroke-width="3" stroke-linecap="round" stroke-linejoin="round" stroke-miterlimit="10" x1="479.87" y1="1537.657" x2="479.87" y2="1526.551"/>
<polyline fill="none" stroke="#E66C25" stroke-width="3" stroke-linecap="round" stroke-linejoin="round" stroke-miterlimit="10" points="
	474.158,1531.094 479.87,1525.382 485.582,1531.094 "/>
<line fill="none" stroke="#E66C25" stroke-width="3" stroke-linecap="round" stroke-linejoin="round" stroke-miterlimit="10" x1="474.317" y1="1543.211" x2="463.21" y2="1543.211"/>
<polyline fill="none" stroke="#E66C25" stroke-width="3" stroke-linecap="round" stroke-linejoin="round" stroke-miterlimit="10" points="
	467.754,1537.498 462.042,1543.211 467.754,1548.923 "/>
<line fill="none" stroke="#E66C25" stroke-width="3" stroke-linecap="round" stroke-linejoin="round" stroke-miterlimit="10" x1="485.424" y1="1543.211" x2="496.531" y2="1543.211"/>
<polyline fill="none" stroke="#E66C25" stroke-width="3" stroke-linecap="round" stroke-linejoin="round" stroke-miterlimit="10" points="
	491.987,1537.498 497.699,1543.211 491.987,1548.923 "/>
<path fill="none" stroke="#B1B0B0" stroke-width="3" stroke-linecap="round" stroke-linejoin="round" stroke-miterlimit="10" d="
	M572.344,1549.789c0,4.757-3.855,8.611-8.613,8.611h-12.777c-4.756,0-8.611-3.854-8.611-8.611v-12.774
	c0-4.76,3.855-8.614,8.611-8.614h12.777c4.758,0,8.613,3.854,8.613,8.614V1549.789z"/>
<circle fill="none" stroke="#B1B0B0" stroke-width="3" stroke-linecap="round" stroke-linejoin="round" stroke-miterlimit="10" cx="557.343" cy="1543.4" r="11.13"/>
<text transform="matrix(1 0 0 1 802.3713 1552.6221)" fill="#9D9D9E" font-family="'DroidSansFallback'" font-size="21">Living Room</text>
<path fill-rule="evenodd" clip-rule="evenodd" fill="#888888" d="M790.26,1539.453c-2.627,0-4.758,2.131-4.758,4.76
	s4.758,9.267,4.758,9.267s4.76-6.638,4.76-9.267S792.889,1539.453,790.26,1539.453 M790.26,1546.809
	c-1.496,0-2.709-1.213-2.709-2.709c0-1.497,1.213-2.711,2.709-2.711c1.498,0,2.711,1.214,2.711,2.711
	C792.971,1545.596,791.758,1546.809,790.26,1546.809"/>
<g opacity="0.5">
	<g>
		<defs>
			<rect id="SVGID_3_" x="880.828" y="1693.721" width="308.17" height="1"/>
		</defs>
		<clipPath id="SVGID_4_">
			<use xlink:href="#SVGID_3_"  overflow="visible"/>
		</clipPath>
		
			<line clip-path="url(#SVGID_4_)" fill="none" stroke="#FF9012" stroke-miterlimit="10" x1="880.832" y1="1694.225" x2="1189" y2="1694.225"/>
	</g>
</g>
<g opacity="0.5">
	<g>
		<defs>
			<rect id="SVGID_5_" x="880.828" y="1639.721" width="308.17" height="1"/>
		</defs>
		<clipPath id="SVGID_6_">
			<use xlink:href="#SVGID_5_"  overflow="visible"/>
		</clipPath>
		
			<line clip-path="url(#SVGID_6_)" fill="none" stroke="#FF9012" stroke-miterlimit="10" x1="880.83" y1="1640.225" x2="1189.002" y2="1640.225"/>
	</g>
</g>
<text transform="matrix(1 0 0 1 1018.5608 1674.4648)" fill="#FF9012" font-family="'DroidSansFallback'" font-size="25">No</text>
<g opacity="0.5">
	<g>
		<defs>
			<rect id="SVGID_7_" x="1019.539" y="1711.75" width="36.429" height="23.63"/>
		</defs>
		<clipPath id="SVGID_8_">
			<use xlink:href="#SVGID_7_"  overflow="visible"/>
		</clipPath>
		<g clip-path="url(#SVGID_8_)">
			<text transform="matrix(1 0 0 1 1019.5374 1729.7988)"><tspan x="0" y="0" fill="#585757" font-family="'DroidSansFallback'" font-size="21" letter-spacing="-1">Y</tspan><tspan x="11.34" y="0" fill="#585757" font-family="'DroidSansFallback'" font-size="21">es</tspan></text>
		</g>
	</g>
</g>
<g opacity="0.5">
	<g>
		<defs>
			<rect id="SVGID_9_" x="698.699" y="1600.83" width="54.686" height="23.63"/>
		</defs>
		<clipPath id="SVGID_10_">
			<use xlink:href="#SVGID_9_"  overflow="visible"/>
		</clipPath>
		<g clip-path="url(#SVGID_10_)">
			<text transform="matrix(1 0 0 1 698.6995 1618.8789)" fill="#585757" font-family="'DroidSansFallback'" font-size="21">Light</text>
		</g>
	</g>
</g>
<g opacity="0.5">
	<g>
		<defs>
			<rect id="SVGID_11_" x="620.319" y="1639.721" width="202.951" height="1"/>
		</defs>
		<clipPath id="SVGID_12_">
			<use xlink:href="#SVGID_11_"  overflow="visible"/>
		</clipPath>
		
			<line clip-path="url(#SVGID_12_)" fill="none" stroke="#FF9012" stroke-miterlimit="10" x1="620.316" y1="1640.225" x2="823.266" y2="1640.225"/>
	</g>
</g>
<g opacity="0.5">
	<g>
		<defs>
			<rect id="SVGID_13_" x="620.319" y="1693.721" width="202.951" height="1"/>
		</defs>
		<clipPath id="SVGID_14_">
			<use xlink:href="#SVGID_13_"  overflow="visible"/>
		</clipPath>
		
			<line clip-path="url(#SVGID_14_)" fill="none" stroke="#FF9012" stroke-miterlimit="10" x1="620.318" y1="1694.225" x2="823.266" y2="1694.225"/>
	</g>
</g>
<text transform="matrix(1 0 0 1 681.6057 1674.4648)" fill="#FF9012" font-family="'DroidSansFallback'" font-size="25">Motion</text>
<g opacity="0.5">
	<g>
		<defs>
			<rect id="SVGID_15_" x="660.969" y="1711.75" width="121.65" height="23.63"/>
		</defs>
		<clipPath id="SVGID_16_">
			<use xlink:href="#SVGID_15_"  overflow="visible"/>
		</clipPath>
		<g clip-path="url(#SVGID_16_)">
			<text transform="matrix(1 0 0 1 660.9651 1729.7988)"><tspan x="0" y="0" fill="#585757" font-family="'DroidSansFallback'" font-size="21" letter-spacing="-1">T</tspan><tspan x="10.143" y="0" fill="#585757" font-family="'DroidSansFallback'" font-size="21">empe</tspan><tspan x="64.721" y="0" fill="#585757" font-family="'DroidSansFallback'" font-size="21">r</tspan><tspan x="72.197" y="0" fill="#585757" font-family="'DroidSansFallback'" font-size="21">ature</tspan></text>
		</g>
	</g>
</g>
</svg>
