<?xml version="1.0" encoding="utf-8"?>
<!-- Generator: Adobe Illustrator 16.0.0, SVG Export Plug-In . SVG Version: 6.00 Build 0)  -->
<!DOCTYPE svg PUBLIC "-//W3C//DTD SVG 1.1//EN" "http://www.w3.org/Graphics/SVG/1.1/DTD/svg11.dtd">
<svg version="1.1" id="图层_1" xmlns="http://www.w3.org/2000/svg" xmlns:xlink="http://www.w3.org/1999/xlink" x="0px" y="0px"
	 width="1281.204px" height="800.22px" viewBox="0 0 1281.204 800.22" enable-background="new 0 0 1281.204 800.22"
	 xml:space="preserve">
<g opacity="0.5">
	<g>
		<defs>
			<rect id="SVGID_1_" x="480.18" y="463.771" width="729.97" height="0.75"/>
		</defs>
		<clipPath id="SVGID_2_">
			<use xlink:href="#SVGID_1_"  overflow="visible"/>
		</clipPath>
		
			<line clip-path="url(#SVGID_2_)" fill="none" stroke="#C6C8C8" stroke-width="0.75" stroke-miterlimit="10" x1="480.179" y1="464.142" x2="1210.146" y2="464.142"/>
	</g>
</g>
<text transform="matrix(1 0 0 1 627.7803 231.1821)" fill="#585858" font-family="'DroidSansFallback'" font-size="25">MultiSensor </text>
<line fill="none" stroke="#DB6929" stroke-width="3" stroke-linecap="round" stroke-linejoin="round" stroke-miterlimit="10" x1="498.173" y1="228.387" x2="498.173" y2="239.494"/>
<polyline fill="none" stroke="#DB6929" stroke-width="3" stroke-linecap="round" stroke-linejoin="round" stroke-miterlimit="10" points="
	492.462,234.95 498.173,240.663 503.884,234.95 "/>
<line fill="none" stroke="#DB6929" stroke-width="3" stroke-linecap="round" stroke-linejoin="round" stroke-miterlimit="10" x1="498.173" y1="217.28" x2="498.173" y2="206.173"/>
<polyline fill="none" stroke="#DB6929" stroke-width="3" stroke-linecap="round" stroke-linejoin="round" stroke-miterlimit="10" points="
	492.462,210.717 498.173,205.005 503.884,210.717 "/>
<line fill="none" stroke="#DB6929" stroke-width="3" stroke-linecap="round" stroke-linejoin="round" stroke-miterlimit="10" x1="492.62" y1="222.833" x2="481.513" y2="222.833"/>
<polyline fill="none" stroke="#DB6929" stroke-width="3" stroke-linecap="round" stroke-linejoin="round" stroke-miterlimit="10" points="
	486.056,217.122 480.344,222.834 486.056,228.546 "/>
<line fill="none" stroke="#DB6929" stroke-width="3" stroke-linecap="round" stroke-linejoin="round" stroke-miterlimit="10" x1="503.726" y1="222.833" x2="514.833" y2="222.833"/>
<polyline fill="none" stroke="#DB6929" stroke-width="3" stroke-linecap="round" stroke-linejoin="round" stroke-miterlimit="10" points="
	510.29,217.122 516.001,222.834 510.29,228.546 "/>
<path fill="none" stroke="#B1B0B0" stroke-width="3" stroke-linecap="round" stroke-linejoin="round" stroke-miterlimit="10" d="
	M590.646,229.412c0,4.757-3.855,8.612-8.611,8.612h-12.778c-4.757,0-8.611-3.855-8.611-8.612v-12.774
	c0-4.76,3.854-8.614,8.611-8.614h12.778c4.756,0,8.611,3.854,8.611,8.614V229.412z"/>
<circle fill="none" stroke="#B1B0B0" stroke-width="3" stroke-linecap="round" stroke-linejoin="round" stroke-miterlimit="10" cx="575.645" cy="223.023" r="11.129"/>
<text transform="matrix(1 0 0 1 820.6738 232.2446)" fill="#9E9D9E" font-family="'DroidSansFallback'" font-size="21">Living Room</text>
<path fill-rule="evenodd" clip-rule="evenodd" fill="#898989" d="M808.563,219.076c-2.629,0-4.76,2.13-4.76,4.759
	s4.76,9.267,4.76,9.267s4.76-6.638,4.76-9.267S811.192,219.076,808.563,219.076 M808.563,226.432c-1.496,0-2.711-1.213-2.711-2.71
	c0-1.497,1.215-2.71,2.711-2.71s2.711,1.213,2.711,2.71C811.274,225.219,810.06,226.432,808.563,226.432"/>
<g opacity="0.5">
	<g>
		<defs>
			<rect id="SVGID_3_" x="899.14" y="373.35" width="308.16" height="1"/>
		</defs>
		<clipPath id="SVGID_4_">
			<use xlink:href="#SVGID_3_"  overflow="visible"/>
		</clipPath>
		
			<line clip-path="url(#SVGID_4_)" fill="none" stroke="#FF9012" stroke-miterlimit="10" x1="899.136" y1="373.847" x2="1207.303" y2="373.847"/>
	</g>
</g>
<g opacity="0.5">
	<g>
		<defs>
			<rect id="SVGID_5_" x="899.13" y="319.35" width="308.18" height="1"/>
		</defs>
		<clipPath id="SVGID_6_">
			<use xlink:href="#SVGID_5_"  overflow="visible"/>
		</clipPath>
		
			<line clip-path="url(#SVGID_6_)" fill="none" stroke="#FF9012" stroke-miterlimit="10" x1="899.134" y1="319.847" x2="1207.306" y2="319.847"/>
	</g>
</g>
<text transform="matrix(1 0 0 1 1036.8623 354.0889)" fill="#FF9012" font-family="'DroidSansFallback'" font-size="25">No</text>
<g opacity="0.5">
	<g>
		<defs>
			<rect id="SVGID_7_" x="1037.84" y="391.38" width="30.76" height="23.62"/>
		</defs>
		<clipPath id="SVGID_8_">
			<use xlink:href="#SVGID_7_"  overflow="visible"/>
		</clipPath>
		<g clip-path="url(#SVGID_8_)">
			<text transform="matrix(1 0 0 1 1037.8389 409.4229)"><tspan x="0" y="0" fill="#585858" font-family="'DroidSansFallback'" font-size="21" letter-spacing="-1">Y</tspan><tspan x="11.34" y="0" fill="#585858" font-family="'DroidSansFallback'" font-size="21">es</tspan></text>
		</g>
	</g>
</g>
<g opacity="0.5">
	<g>
		<defs>
			<rect id="SVGID_9_" x="717" y="280.45" width="46.19" height="23.63"/>
		</defs>
		<clipPath id="SVGID_10_">
			<use xlink:href="#SVGID_9_"  overflow="visible"/>
		</clipPath>
		<g clip-path="url(#SVGID_10_)">
			<text transform="matrix(1 0 0 1 717.002 298.5015)" fill="#585858" font-family="'DroidSansFallback'" font-size="21">Light</text>
		</g>
	</g>
</g>
<g opacity="0.5">
	<g>
		<defs>
			<rect id="SVGID_11_" x="638.62" y="319.35" width="202.949" height="1"/>
		</defs>
		<clipPath id="SVGID_12_">
			<use xlink:href="#SVGID_11_"  overflow="visible"/>
		</clipPath>
		
			<line clip-path="url(#SVGID_12_)" fill="none" stroke="#FF9012" stroke-miterlimit="10" x1="638.618" y1="319.847" x2="841.569" y2="319.847"/>
	</g>
</g>
<g opacity="0.5">
	<g>
		<defs>
			<rect id="SVGID_13_" x="638.62" y="373.35" width="202.949" height="1"/>
		</defs>
		<clipPath id="SVGID_14_">
			<use xlink:href="#SVGID_13_"  overflow="visible"/>
		</clipPath>
		
			<line clip-path="url(#SVGID_14_)" fill="none" stroke="#FF9012" stroke-miterlimit="10" x1="638.62" y1="373.847" x2="841.567" y2="373.847"/>
	</g>
</g>
<text transform="matrix(1 0 0 1 699.9082 354.0889)" fill="#FF9012" font-family="'DroidSansFallback'" font-size="25">Motion</text>
<g opacity="0.5">
	<g>
		<defs>
			<rect id="SVGID_15_" x="679.271" y="391.38" width="121.649" height="23.62"/>
		</defs>
		<clipPath id="SVGID_16_">
			<use xlink:href="#SVGID_15_"  overflow="visible"/>
		</clipPath>
		<g clip-path="url(#SVGID_16_)">
			<text transform="matrix(1 0 0 1 679.2676 409.4229)"><tspan x="0" y="0" fill="#585858" font-family="'DroidSansFallback'" font-size="21" letter-spacing="-1">T</tspan><tspan x="10.143" y="0" fill="#585858" font-family="'DroidSansFallback'" font-size="21">empe</tspan><tspan x="64.722" y="0" fill="#585858" font-family="'DroidSansFallback'" font-size="21">r</tspan><tspan x="72.197" y="0" fill="#585858" font-family="'DroidSansFallback'" font-size="21">ature</tspan></text>
		</g>
	</g>
</g>
</svg>
