<svg xmlns="http://www.w3.org/2000/svg" xmlns:xlink="http://www.w3.org/1999/xlink" width="1280.678" height="800.209" viewBox="0 0 1280.678 800.209"><g opacity=".5"><defs><path id="a" d="M479.9 476.141h729.959v.75H479.9z"/></defs><clipPath id="b"><use xlink:href="#a" overflow="visible"/></clipPath><path clip-path="url(#b)" fill="none" stroke="#C8C9CA" stroke-width=".75" stroke-miterlimit="10" d="M479.896 476.518h729.967"/></g><path fill="#FFF" d="M1261.181 454.873H541.397c-6.628 0-12-5.371-12-12V268.092c0-6.629 5.372-12 12-12h719.783c6.627 0 12 5.371 12 12v174.781c.001 6.629-5.372 12-11.999 12"/><path fill="none" stroke="#C7C8C8" stroke-width="3" stroke-miterlimit="10" d="M601.712 328.652c0 6.076-4.926 11-11 11h-20.25c-6.076 0-11-4.924-11-11v-20.25c0-6.074 4.924-11 11-11h20.25c6.074 0 11 4.926 11 11v20.25z"/><text transform="translate(574.093 326.95)" fill="#C7C8C8" font-family="'DroidSansFallback'" font-size="25">S</text><path fill-rule="evenodd" clip-rule="evenodd" fill="#FF9012" d="M669.004 328.652c0 6.076-4.925 11-11 11h-20.25c-6.077 0-11-4.924-11-11v-20.25c0-6.074 4.923-11 11-11h20.25c6.075 0 11 4.926 11 11v20.25z"/><text transform="translate(636.99 326.95)" fill="#FFF" font-family="'DroidSansFallback'" font-size="25">M</text><path fill-rule="evenodd" clip-rule="evenodd" fill="#FF9012" d="M803.59 328.652c0 6.076-4.926 11-11 11h-20.25c-6.076 0-11-4.924-11-11v-20.25c0-6.074 4.924-11 11-11h20.25c6.074 0 11 4.926 11 11v20.25z"/><text transform="translate(771.43 326.95)" fill="#FFF" font-family="'DroidSansFallback'" font-size="25">W</text><path fill-rule="evenodd" clip-rule="evenodd" fill="#FF9012" d="M736.297 328.652c0 6.076-4.926 11-11 11h-20.25c-6.076 0-11-4.924-11-11v-20.25c0-6.074 4.924-11 11-11h20.25c6.074 0 11 4.926 11 11v20.25z"/><text transform="translate(708.678 326.95)" fill="#FFF" font-family="'DroidSansFallback'" font-size="25">T</text><path fill-rule="evenodd" clip-rule="evenodd" fill="#FF9012" d="M601.712 389.996c0 6.076-4.926 11-11 11h-20.25c-6.076 0-11-4.924-11-11v-20.25c0-6.072 4.924-11 11-11h20.25c6.074 0 11 4.928 11 11v20.25z"/><text transform="translate(574.093 387.293)" fill="#FFF" font-family="'DroidSansFallback'" font-size="25">T</text><path fill-rule="evenodd" clip-rule="evenodd" fill="#FF9012" d="M669.729 389.996c0 6.076-4.926 11-11 11h-20.25c-6.076 0-11-4.924-11-11v-20.25c0-6.072 4.924-11 11-11h20.25c6.074 0 11 4.928 11 11v20.25z"/><text transform="translate(642.451 388.293)" fill="#FFF" font-family="'DroidSansFallback'" font-size="25">F</text><path fill="none" stroke="#C7C8C8" stroke-width="3" stroke-miterlimit="10" d="M736.746 389.996c0 6.076-4.926 11-11 11h-20.25c-6.077 0-11-4.924-11-11v-20.25c0-6.072 4.923-11 11-11h20.25c6.074 0 11 4.928 11 11v20.25z"/><text transform="translate(709.126 388.293)" fill="#C7C8C8" font-family="'DroidSansFallback'" font-size="25">S</text><path fill="none" stroke="#FF9012" stroke-width="2.359" stroke-miterlimit="10" d="M1010.484 348.061h17.392"/><g opacity="1"><defs><path id="c" d="M1041.76 372.209h158.11v.99h-158.11z"/></defs><clipPath id="d"><use xlink:href="#c" overflow="visible"/></clipPath><path clip-path="url(#d)" fill="none" stroke="#FF9012" stroke-width="2" stroke-miterlimit="10" d="M1041.761 372.701h158.113"/></g><g opacity="1"><defs><path id="e" d="M1041.76 318.209h158.11v.99h-158.11z"/></defs><clipPath id="f"><use xlink:href="#e" overflow="visible"/></clipPath><path clip-path="url(#f)" fill="none" stroke="#FF9012" stroke-width="2" stroke-miterlimit="10" d="M1041.76 318.701h158.115"/></g><g opacity="1"><defs><path id="g" d="M834.09 372.209h158.78v.99H834.09z"/></defs><clipPath id="h"><use xlink:href="#g" overflow="visible"/></clipPath><path clip-path="url(#h)" fill="none" stroke="#FF9012" stroke-width="2" stroke-miterlimit="10" d="M834.094 372.701h158.779"/></g><g opacity="1"><defs><path id="i" d="M834.09 318.209h158.78v.99H834.09z"/></defs><clipPath id="j"><use xlink:href="#i" overflow="visible"/></clipPath><path clip-path="url(#j)" fill="none" stroke="#FF9012" stroke-width="2" stroke-miterlimit="10" d="M834.093 318.701h158.782"/></g><text transform="translate(1147.686 414.763)" opacity=".5" fill="#595758" font-family="'DroidSansFallback'" font-size="21">PM</text><defs><path id="k" d="M1146.22 359.836l51.958 1.496V330.68l-51.958 5.525z"/></defs><clipPath id="l"><use xlink:href="#k" overflow="visible"/></clipPath><g clip-path="url(#l)"><text transform="translate(1146.221 354.256)" fill="#FF9012" font-family="'DroidSansFallback'" font-size="25">AM</text></g><text transform="translate(1037.245 353.898)" fill="#F18B22" font-family="'DroidSansFallback'" font-size="21">11</text><text transform="translate(959.385 355.482)" fill="#FF9012" font-family="'DroidSansFallback'" font-size="25">AM</text><g opacity=".5"><defs><path id="m" d="M961.66 396.68h30.439v23.631H961.66z"/></defs><clipPath id="n"><use xlink:href="#m" overflow="visible"/></clipPath><g clip-path="url(#n)"><text transform="translate(961.662 414.727)" fill="#595758" font-family="'DroidSansFallback'" font-size="21">PM</text></g></g><text transform="translate(852.389 356.055)" fill="#F18B22" font-family="'DroidSansFallback'" font-size="20.161">6</text><text transform="translate(902.269 356.318)" fill="#F18B22" font-family="'DroidSansFallback'" font-size="20.382">00</text><text transform="translate(1089.024 354.717)" fill="#F18B22" font-family="'DroidSansFallback'" font-size="21">00</text><text transform="translate(852.389 297.741)" fill="#B2B1B1" font-family="'DroidSansFallback'" font-size="20.162">5</text><text transform="translate(902.394 297.822)" fill="#B2B1B1" font-family="'DroidSansFallback'" font-size="20.162">59</text><text transform="translate(902.394 413.809)" fill="#B2B1B1" font-family="'DroidSansFallback'" font-size="20.163">01</text><text transform="translate(852.39 414.05)" fill="#B2B1B1" font-family="'DroidSansFallback'" font-size="20.161">7</text><text transform="translate(1037.717 297.824)" fill="#B2B1B1" font-family="'DroidSansFallback'" font-size="20.16">10</text><text transform="translate(1037.716 413.322)" fill="#B2B1B1" font-family="'DroidSansFallback'" font-size="20.16">12</text><text transform="translate(1089.025 297.99)" fill="#B2B1B1" font-family="'DroidSansFallback'" font-size="21">59</text><text transform="translate(1089.554 413.242)" fill="#B2B1B1" font-family="'DroidSansFallback'" font-size="20.161">01</text></svg>