<?xml version="1.0" encoding="utf-8"?>
<!-- Generator: Adobe Illustrator 16.0.0, SVG Export Plug-In . SVG Version: 6.00 Build 0)  -->
<!DOCTYPE svg PUBLIC "-//W3C//DTD SVG 1.1//EN" "http://www.w3.org/Graphics/SVG/1.1/DTD/svg11.dtd">
<svg xmlns="http://www.w3.org/2000/svg" xmlns:xlink="http://www.w3.org/1999/xlink" version="1.1" id="图层_1" x="0px" y="0px" width="1280.698px" height="800.21px" viewBox="0 0 1280.698 800.21" enable-background="new 0 0 1280.698 800.21" xml:space="preserve">
<path fill="none" stroke="#C7C8C8" stroke-width="3" stroke-miterlimit="10" d="M601.732,328.651c0,6.076-4.926,11-11,11h-20.25  c-6.076,0-11-4.924-11-11v-20.25c0-6.073,4.924-11,11-11h20.25c6.074,0,11,4.927,11,11V328.651z"/>
<text transform="matrix(1 0 0 1 574.1133 326.9482)" fill="#C7C8C8" font-family="'DroidSansFallback'" font-size="25">S</text>
<path fill-rule="evenodd" clip-rule="evenodd" fill="#FF9012" d="M669.024,328.651c0,6.076-4.925,11-11,11h-20.25  c-6.076,0-11-4.924-11-11v-20.25c0-6.073,4.923-11,11-11h20.25c6.075,0,11,4.927,11,11V328.651z"/>
<text transform="matrix(1 0 0 1 637.0107 326.9482)" fill="#FFFFFF" font-family="'DroidSansFallback'" font-size="25">M</text>
<path fill-rule="evenodd" clip-rule="evenodd" fill="#FF9012" d="M803.61,328.651c0,6.076-4.926,11-11,11h-20.25  c-6.076,0-11-4.924-11-11v-20.25c0-6.073,4.924-11,11-11h20.25c6.074,0,11,4.927,11,11V328.651z"/>
<text transform="matrix(1 0 0 1 771.4502 326.9482)" fill="#FFFFFF" font-family="'DroidSansFallback'" font-size="25">W</text>
<path fill-rule="evenodd" clip-rule="evenodd" fill="#FF9012" d="M736.317,328.651c0,6.076-4.926,11-11,11h-20.25  c-6.076,0-11-4.924-11-11v-20.25c0-6.073,4.924-11,11-11h20.25c6.074,0,11,4.927,11,11V328.651z"/>
<text transform="matrix(1 0 0 1 708.6982 326.9482)" fill="#FFFFFF" font-family="'DroidSansFallback'" font-size="25">T</text>
<path fill-rule="evenodd" clip-rule="evenodd" fill="#FF9012" d="M601.732,389.997c0,6.076-4.926,11-11,11h-20.25  c-6.076,0-11-4.924-11-11v-20.25c0-6.074,4.924-11,11-11h20.25c6.074,0,11,4.926,11,11V389.997z"/>
<text transform="matrix(1 0 0 1 574.1133 387.2939)" fill="#FFFFFF" font-family="'DroidSansFallback'" font-size="25">T</text>
<path fill-rule="evenodd" clip-rule="evenodd" fill="#FF9012" d="M669.749,389.997c0,6.076-4.926,11-11,11h-20.25  c-6.076,0-11-4.924-11-11v-20.25c0-6.074,4.923-11,11-11h20.25c6.074,0,11,4.926,11,11V389.997z"/>
<text transform="matrix(1 0 0 1 642.4717 388.2939)" fill="#FFFFFF" font-family="'DroidSansFallback'" font-size="25">F</text>
<path fill="none" stroke="#C7C8C8" stroke-width="3" stroke-miterlimit="10" d="M736.767,389.997c0,6.076-4.927,11-11,11h-20.25  c-6.076,0-11-4.924-11-11v-20.25c0-6.074,4.924-11,11-11h20.25c6.073,0,11,4.926,11,11V389.997z"/>
<text transform="matrix(1 0 0 1 709.1475 388.2939)" fill="#C7C8C8" font-family="'DroidSansFallback'" font-size="25">S</text>
<line fill="none" stroke="#FF9012" stroke-width="2.359" stroke-miterlimit="10" x1="1010.505" y1="348.062" x2="1027.896" y2="348.062"/>
<g opacity="0.5">
	<g>
		<defs>
			<rect id="SVGID_3_" x="1041.78" y="372.21" width="158.109" height="0.99"/>
		</defs>
		<clipPath id="SVGID_4_">
			<use xlink:href="#SVGID_3_" overflow="visible"/>
		</clipPath>

			<line clip-path="url(#SVGID_4_)" fill="none" stroke="#FF9012" stroke-width="0.993" stroke-miterlimit="10" x1="1041.781" y1="372.702" x2="1199.894" y2="372.702"/>
	</g>
</g>
<g opacity="0.5">
	<g>
		<defs>
			<rect id="SVGID_5_" x="1041.78" y="318.21" width="158.109" height="0.99"/>
		</defs>
		<clipPath id="SVGID_6_">
			<use xlink:href="#SVGID_5_" overflow="visible"/>
		</clipPath>

			<line clip-path="url(#SVGID_6_)" fill="none" stroke="#FF9012" stroke-width="0.993" stroke-miterlimit="10" x1="1041.78" y1="318.702" x2="1199.896" y2="318.702"/>
	</g>
</g>
<g opacity="0.5">
	<g>
		<defs>
			<rect id="SVGID_7_" x="834.11" y="372.21" width="158.78" height="0.99"/>
		</defs>
		<clipPath id="SVGID_8_">
			<use xlink:href="#SVGID_7_" overflow="visible"/>
		</clipPath>

			<line clip-path="url(#SVGID_8_)" fill="none" stroke="#FF9012" stroke-width="0.993" stroke-miterlimit="10" x1="834.114" y1="372.702" x2="992.894" y2="372.702"/>
	</g>
</g>
<g opacity="0.5">
	<g>
		<defs>
			<rect id="SVGID_9_" x="834.11" y="318.21" width="158.78" height="0.99"/>
		</defs>
		<clipPath id="SVGID_10_">
			<use xlink:href="#SVGID_9_" overflow="visible"/>
		</clipPath>

			<line clip-path="url(#SVGID_10_)" fill="none" stroke="#FF9012" stroke-width="0.993" stroke-miterlimit="10" x1="834.113" y1="318.702" x2="992.896" y2="318.702"/>
	</g>
</g>
<text transform="matrix(1 0 0 1 1147.7061 355.4814)" fill="#FF9012" font-family="'DroidSansFallback'" font-size="25">PM</text>
<g opacity="0.5">
	<g>
		<defs>
			<rect id="SVGID_11_" x="1147.24" y="396.681" width="117.06" height="23.629"/>
		</defs>
		<clipPath id="SVGID_12_">
			<use xlink:href="#SVGID_11_" overflow="visible"/>
		</clipPath>
		<g clip-path="url(#SVGID_12_)">
			<text transform="matrix(1 0 0 1 1147.2412 414.7275)" fill="#595758" font-family="'DroidSansFallback'" font-size="21">AM </text>
		</g>
	</g>
</g>
<g opacity="0.5">
	<g>
		<defs>
			<rect id="SVGID_13_" x="1151.24" y="282.01" width="31.091" height="23.63"/>
		</defs>
		<clipPath id="SVGID_14_">
			<use xlink:href="#SVGID_13_" overflow="visible"/>
		</clipPath>
		<g clip-path="url(#SVGID_14_)">
			<text transform="matrix(1 0 0 1 1151.2412 300.0615)" fill="#595758" font-family="'DroidSansFallback'" font-size="21">AM</text>
		</g>
	</g>
</g>
<path fill="#FF9012" d="M1053.185,351.478h-2.637v4.006h-2.148v-4.006h-8.203v-1.951l8.105-12.014h2.246v11.914h2.637V351.478z   M1048.399,349.427v-4.297c0-1.432,0.062-3.188,0.195-5.271h-0.098c-0.326,0.846-0.684,1.561-1.074,2.146l-5.078,7.422H1048.399z"/>
<path fill="#FF9012" d="M1100.414,355.481h-11.133v-1.953l4.297-4.59c1.758-1.887,2.847-3.254,3.271-4.102  c0.423-0.846,0.634-1.725,0.634-2.635c0-0.912-0.26-1.629-0.781-2.15c-0.521-0.52-1.236-0.781-2.147-0.781  c-1.304,0-2.573,0.555-3.809,1.66l-1.271-1.465c1.563-1.367,3.287-2.049,5.176-2.049c1.563,0,2.799,0.422,3.711,1.268  c0.912,0.848,1.367,1.986,1.367,3.418c0,1.043-0.277,2.084-0.83,3.125c-0.553,1.043-1.709,2.539-3.466,4.492l-3.418,3.615v0.096  h8.398V355.481z"/>
<path fill="#FF9012" d="M1110.57,346.009c2.539,1.367,3.808,2.963,3.808,4.785c0,1.434-0.504,2.605-1.513,3.518  c-1.011,0.91-2.36,1.365-4.053,1.365c-1.823,0-3.224-0.422-4.199-1.27c-0.978-0.844-1.465-2.018-1.465-3.514  c0-2.084,1.172-3.68,3.516-4.785c-1.954-1.172-2.93-2.67-2.93-4.494c0-1.236,0.454-2.26,1.366-3.076  c0.912-0.812,2.15-1.219,3.712-1.219c1.497,0,2.7,0.406,3.612,1.219c0.912,0.816,1.367,1.84,1.367,3.076  C1113.792,343.503,1112.718,344.968,1110.57,346.009 M1108.421,346.985c-2.018,0.977-3.027,2.312-3.027,4.004  c0,0.977,0.277,1.709,0.83,2.199c0.553,0.486,1.383,0.73,2.49,0.73c1.172,0,2.051-0.26,2.637-0.781c0.587-0.52,0.88-1.27,0.88-2.244  c0-0.717-0.229-1.352-0.685-1.906c-0.455-0.551-1.367-1.154-2.733-1.807L1108.421,346.985z M1108.812,345.13  c1.888-0.846,2.831-1.984,2.831-3.418c0-0.846-0.243-1.479-0.731-1.902c-0.489-0.424-1.221-0.637-2.198-0.637  c-0.912,0-1.596,0.213-2.05,0.637c-0.456,0.424-0.684,1.057-0.684,1.902C1105.98,343.146,1106.923,344.284,1108.812,345.13"/>
<path fill="#B2B1B1" d="M1042.138,414.153v-1.805c0.984,0.658,2.241,0.986,3.773,0.986c1.093,0,1.928-0.275,2.502-0.822  c0.574-0.545,0.861-1.338,0.861-2.379c0-1.037-0.287-1.805-0.861-2.295c-0.574-0.494-1.464-0.74-2.666-0.74  c-0.603,0-1.368,0.082-2.298,0.246l-0.983-0.574l0.574-7.055h7.055v1.723h-5.414l-0.41,4.266c0.71-0.109,1.421-0.162,2.133-0.162  c1.477,0,2.651,0.396,3.527,1.188c0.874,0.793,1.312,1.846,1.312,3.158c0,1.588-0.466,2.818-1.395,3.691  c-0.932,0.875-2.271,1.312-4.02,1.312C1044.297,414.892,1043.066,414.646,1042.138,414.153"/>
<path fill="#B2B1B1" d="M1100.6,414.728h-9.353v-1.641l3.61-3.855c1.476-1.586,2.392-2.732,2.748-3.443  c0.354-0.711,0.532-1.449,0.532-2.215c0-0.768-0.219-1.367-0.655-1.807c-0.438-0.436-1.04-0.656-1.805-0.656  c-1.095,0-2.161,0.467-3.199,1.395l-1.067-1.23c1.313-1.148,2.762-1.723,4.349-1.723c1.312,0,2.351,0.357,3.116,1.068  s1.149,1.668,1.149,2.871c0,0.875-0.233,1.75-0.697,2.625c-0.466,0.875-1.436,2.133-2.913,3.771l-2.871,3.035v0.082h7.056V414.728z"/>
<path fill="#B2B1B1" d="M1104.045,414.729v-1.561c0.492,0.164,1.065,0.246,1.722,0.246c3.008,0,4.566-2.021,4.676-6.07h-0.082  c-0.655,1.203-1.723,1.807-3.198,1.807c-1.313,0-2.353-0.412-3.117-1.232c-0.767-0.82-1.149-1.939-1.149-3.363  c0-1.586,0.424-2.816,1.272-3.691c0.847-0.873,1.954-1.312,3.321-1.312c1.422,0,2.598,0.562,3.527,1.684s1.396,2.748,1.396,4.879  c0,2.955-0.548,5.156-1.642,6.604c-1.094,1.449-2.734,2.176-4.922,2.176C1105.083,414.894,1104.481,414.837,1104.045,414.729   M1107.408,407.673c0.874,0,1.612-0.271,2.215-0.818c0.601-0.547,0.901-1.203,0.901-1.971c0-1.094-0.301-1.996-0.901-2.707  c-0.603-0.709-1.313-1.064-2.134-1.064c-0.93,0-1.627,0.287-2.092,0.859c-0.465,0.574-0.696,1.436-0.696,2.584  c0,1.039,0.231,1.818,0.696,2.34C1105.862,407.415,1106.532,407.673,1107.408,407.673"/>
<path fill="#B2B1B1" d="M1047.757,291.437c2.461,0.328,3.691,1.531,3.691,3.609c0,1.367-0.466,2.449-1.395,3.24  c-0.931,0.793-2.297,1.189-4.102,1.189c-1.696,0-3.035-0.246-4.02-0.738v-1.805c1.257,0.656,2.569,0.984,3.938,0.984  c1.201,0,2.104-0.246,2.707-0.738c0.601-0.492,0.902-1.23,0.902-2.215c0-0.875-0.315-1.531-0.943-1.969  c-0.631-0.438-1.6-0.656-2.912-0.656h-1.395v-1.559h1.395c1.093,0,1.94-0.259,2.543-0.779c0.601-0.52,0.901-1.217,0.901-2.092  c0-0.656-0.232-1.189-0.696-1.6c-0.467-0.41-1.081-0.615-1.846-0.615c-1.259,0-2.435,0.41-3.527,1.23l-0.984-1.312  c1.257-0.984,2.761-1.477,4.512-1.477c1.42,0,2.515,0.342,3.281,1.025c0.764,0.684,1.148,1.572,1.148,2.666  C1050.956,289.796,1049.89,290.999,1047.757,291.437"/>
<path fill="#B2B1B1" d="M1100.6,299.312h-9.353v-1.641l3.61-3.855c1.476-1.586,2.392-2.734,2.748-3.445  c0.354-0.709,0.532-1.449,0.532-2.215s-0.219-1.365-0.655-1.805c-0.438-0.438-1.04-0.656-1.805-0.656  c-1.095,0-2.161,0.465-3.199,1.395l-1.067-1.23c1.313-1.148,2.762-1.723,4.349-1.723c1.312,0,2.351,0.357,3.116,1.066  c0.766,0.711,1.149,1.67,1.149,2.871c0,0.875-0.233,1.752-0.697,2.625c-0.466,0.875-1.436,2.133-2.913,3.773l-2.871,3.035v0.082  h7.056V299.312z"/>
<polygon fill="#B2B1B1" points="1104.701,299.312 1110.524,286.022 1102.731,286.022 1102.731,284.3 1112.412,284.3   1112.412,285.776 1106.67,299.312 "/>
<text transform="matrix(1 0 0 1 959.4053 355.4814)" fill="#FF9012" font-family="'DroidSansFallback'" font-size="25">AM</text>
<g opacity="0.5">
	<g>
		<defs>
			<rect id="SVGID_15_" x="961.681" y="396.681" width="30.439" height="23.629"/>
		</defs>
		<clipPath id="SVGID_16_">
			<use xlink:href="#SVGID_15_" overflow="visible"/>
		</clipPath>
		<g clip-path="url(#SVGID_16_)">
			<text transform="matrix(1 0 0 1 961.6826 414.7275)" fill="#595758" font-family="'DroidSansFallback'" font-size="21">PM</text>
		</g>
	</g>
</g>
<path fill="#FF9012" d="M859.345,346.106c2.93,0.393,4.395,1.824,4.395,4.297c0,1.629-0.555,2.914-1.661,3.857  c-1.108,0.945-2.733,1.416-4.882,1.416c-2.02,0-3.614-0.293-4.786-0.879v-2.148c1.497,0.781,3.06,1.172,4.688,1.172  c1.431,0,2.504-0.293,3.223-0.879c0.715-0.586,1.074-1.465,1.074-2.637c0-1.041-0.377-1.822-1.123-2.344  c-0.749-0.52-1.905-0.781-3.467-0.781h-1.66v-1.854h1.66c1.302,0,2.31-0.311,3.026-0.93c0.716-0.617,1.074-1.447,1.074-2.49  c0-0.779-0.277-1.416-0.83-1.904s-1.286-0.732-2.197-0.732c-1.498,0-2.896,0.488-4.198,1.465l-1.173-1.562  c1.497-1.17,3.287-1.756,5.371-1.756c1.693,0,2.994,0.406,3.906,1.219c0.912,0.816,1.368,1.873,1.368,3.174  C863.153,344.153,861.883,345.587,859.345,346.106"/>
<path fill="#FF9012" d="M906.509,346.106c2.93,0.393,4.395,1.824,4.395,4.297c0,1.629-0.554,2.914-1.66,3.857  c-1.108,0.945-2.734,1.416-4.883,1.416c-2.019,0-3.613-0.293-4.785-0.879v-2.148c1.496,0.781,3.06,1.172,4.688,1.172  c1.431,0,2.505-0.293,3.223-0.879c0.715-0.586,1.074-1.465,1.074-2.637c0-1.041-0.376-1.822-1.123-2.344  c-0.749-0.52-1.904-0.781-3.467-0.781h-1.66v-1.854h1.66c1.302,0,2.311-0.311,3.027-0.93c0.716-0.617,1.073-1.447,1.073-2.49  c0-0.779-0.276-1.416-0.829-1.904c-0.554-0.488-1.287-0.732-2.197-0.732c-1.498,0-2.897,0.488-4.199,1.465l-1.172-1.562  c1.497-1.17,3.287-1.756,5.371-1.756c1.692,0,2.994,0.406,3.906,1.219c0.911,0.816,1.367,1.873,1.367,3.174  C910.317,344.153,909.048,345.587,906.509,346.106"/>
<path fill="#FF9012" d="M923.696,337.612v1.854c-0.586-0.193-1.27-0.293-2.051-0.293c-3.646,0-5.534,2.41-5.664,7.229h0.195  c0.781-1.369,2.017-2.053,3.711-2.053c1.562,0,2.798,0.475,3.711,1.416c0.911,0.945,1.367,2.264,1.367,3.955  c0,1.891-0.488,3.354-1.465,4.395c-0.977,1.043-2.28,1.562-3.906,1.562c-1.758,0-3.174-0.666-4.248-2.002  c-1.074-1.334-1.611-3.27-1.611-5.811c0-3.516,0.65-6.135,1.953-7.861c1.303-1.723,3.255-2.588,5.859-2.588  C922.393,337.415,923.11,337.481,923.696,337.612 M919.595,346.009c-1.042,0-1.904,0.342-2.588,1.025s-1.025,1.451-1.025,2.295  c0,1.303,0.342,2.377,1.025,3.223c0.684,0.848,1.546,1.27,2.588,1.27c1.041,0,1.839-0.34,2.393-1.025  c0.553-0.682,0.83-1.709,0.83-3.076c0-1.234-0.261-2.164-0.781-2.781C921.514,346.319,920.7,346.009,919.595,346.009"/>
<path fill="#B2B1B1" d="M863.53,411.364h-2.215v3.363h-1.805v-3.363h-6.892v-1.641l6.81-10.09h1.887v10.008h2.215V411.364z   M859.511,409.642v-3.609c0-1.203,0.054-2.68,0.163-4.43h-0.082c-0.273,0.711-0.573,1.312-0.901,1.805l-4.267,6.234H859.511z"/>
<path fill="#B2B1B1" d="M907.431,406.853c2.461,0.328,3.691,1.531,3.691,3.609c0,1.367-0.466,2.449-1.395,3.24  c-0.931,0.793-2.297,1.189-4.102,1.189c-1.695,0-3.035-0.246-4.02-0.738v-1.805c1.257,0.656,2.57,0.984,3.938,0.984  c1.201,0,2.104-0.246,2.707-0.738c0.601-0.492,0.902-1.23,0.902-2.215c0-0.875-0.315-1.531-0.943-1.969  c-0.629-0.438-1.6-0.656-2.912-0.656h-1.395v-1.559h1.395c1.093,0,1.94-0.26,2.543-0.779c0.601-0.52,0.901-1.217,0.901-2.092  c0-0.656-0.232-1.189-0.696-1.6c-0.465-0.41-1.08-0.615-1.846-0.615c-1.259,0-2.435,0.41-3.527,1.23l-0.984-1.312  c1.257-0.984,2.761-1.477,4.512-1.477c1.422,0,2.515,0.342,3.281,1.025c0.766,0.684,1.148,1.572,1.148,2.666  C910.63,405.212,909.563,406.415,907.431,406.853"/>
<polygon fill="#B2B1B1" points="915.224,414.728 921.048,401.438 913.255,401.438 913.255,399.716 922.935,399.716 922.935,401.192   917.192,414.728 "/>
<path fill="#B2B1B1" d="M862.751,299.31h-9.353v-1.641l3.61-3.854c1.476-1.586,2.391-2.733,2.748-3.444  c0.354-0.711,0.532-1.449,0.532-2.215c0-0.768-0.219-1.367-0.655-1.807c-0.439-0.436-1.041-0.655-1.806-0.655  c-1.095,0-2.161,0.466-3.198,1.394l-1.067-1.229c1.313-1.149,2.761-1.724,4.348-1.724c1.313,0,2.352,0.357,3.117,1.068  c0.765,0.711,1.149,1.668,1.149,2.871c0,0.875-0.234,1.75-0.697,2.625c-0.466,0.875-1.436,2.133-2.913,3.771l-2.871,3.035v0.082  h7.056V299.31z"/>
<path fill="#B2B1B1" d="M907.513,291.435c2.461,0.328,3.691,1.531,3.691,3.609c0,1.369-0.466,2.449-1.395,3.242  c-0.931,0.793-2.297,1.188-4.102,1.188c-1.695,0-3.035-0.245-4.02-0.737v-1.806c1.257,0.656,2.57,0.984,3.938,0.984  c1.201,0,2.104-0.246,2.707-0.738c0.601-0.492,0.902-1.229,0.902-2.215c0-0.873-0.315-1.529-0.943-1.967  c-0.629-0.439-1.6-0.658-2.912-0.658h-1.395v-1.557h1.395c1.093,0,1.94-0.26,2.543-0.781c0.601-0.519,0.901-1.215,0.901-2.09  c0-0.658-0.232-1.191-0.696-1.602c-0.465-0.409-1.08-0.614-1.846-0.614c-1.259,0-2.435,0.41-3.527,1.229l-0.984-1.312  c1.257-0.985,2.761-1.478,4.512-1.478c1.422,0,2.515,0.342,3.281,1.027c0.766,0.684,1.148,1.571,1.148,2.666  C910.712,289.794,909.646,290.999,907.513,291.435"/>
<path fill="#B2B1B1" d="M913.747,298.735v-1.805c0.984,0.658,2.242,0.986,3.773,0.986c1.094,0,1.928-0.275,2.502-0.822  c0.574-0.545,0.861-1.338,0.861-2.379c0-1.037-0.287-1.804-0.861-2.295c-0.574-0.494-1.464-0.74-2.666-0.74  c-0.603,0-1.367,0.082-2.298,0.246l-0.983-0.574l0.574-7.055h7.055v1.723h-5.414l-0.41,4.267c0.71-0.11,1.421-0.163,2.133-0.163  c1.477,0,2.651,0.396,3.527,1.188c0.874,0.793,1.312,1.847,1.312,3.158c0,1.588-0.466,2.818-1.395,3.692  c-0.932,0.875-2.27,1.312-4.02,1.312C915.907,299.474,914.676,299.228,913.747,298.735"/>
</svg>
